<svg width="80" height="80" viewBox="0 0 120 120" fill="none" xmlns="http://www.w3.org/2000/svg">
<g id="planet-green">
<g id="Group">
<path id="Vector" d="M93.3915 86.1675C107.882 67.7865 104.728 41.139 86.347 26.6486C67.966 12.1582 41.3184 15.3121 26.828 33.6931C12.3376 52.0741 15.4916 78.7216 33.8726 93.2121C52.2535 107.702 78.9011 104.549 93.3915 86.1675Z" fill="url(#paint0_radial_108_219)"/>
</g>
<path id="Vector_2" d="M85.8812 85.7065C100.116 71.4719 100.116 48.3931 85.8812 34.1585C71.6466 19.9238 48.5677 19.9238 34.3331 34.1585C20.0985 48.3931 20.0985 71.4719 34.3331 85.7065C48.5677 99.9411 71.6466 99.9411 85.8812 85.7065Z" fill="url(#paint1_radial_108_219)"/>
<path id="Vector_3" style="mix-blend-mode:multiply" opacity="0.5" d="M72.8401 90C65.9762 91.8307 58.7269 91.6157 51.9835 89.3816C45.2401 87.1475 39.2965 82.9915 34.8834 77.4247C30.4703 71.8579 27.7801 65.1228 27.1435 58.0476C26.5069 50.9723 27.9516 43.8652 31.3001 37.6C28.2473 41.4872 26.0169 45.9546 24.7446 50.7308C23.4723 55.5069 23.1847 60.4919 23.8993 65.3827C24.6138 70.2734 26.3156 74.9678 28.9011 79.1803C31.4866 83.3928 34.9018 87.0354 38.9392 89.8868C42.9765 92.7381 47.5516 94.7385 52.3862 95.7664C57.2208 96.7943 62.214 96.8281 67.0621 95.8659C71.9102 94.9037 76.512 92.9656 80.5877 90.1693C84.6633 87.373 88.1277 83.777 90.7701 79.6C89.6194 80.6335 88.4036 81.5921 87.1301 82.47C82.9926 86.0211 78.1084 88.5947 72.8401 90V90Z" fill="url(#paint2_radial_108_219)"/>
<path id="Vector_4" opacity="0.25" d="M90.1756 54.0671C94.0755 49.7978 91.1644 40.7899 83.6736 33.9474C76.1829 27.105 66.9489 25.0191 63.0491 29.2885C59.1492 33.5579 62.0603 42.5658 69.5511 49.4082C77.0418 56.2506 86.2758 58.3365 90.1756 54.0671Z" fill="white"/>
<path id="Vector_5" opacity="0.5" d="M80.1099 33.54C82.3099 35.67 83.4699 38.05 82.6999 38.85C81.9299 39.65 79.5099 38.56 77.3099 36.42C75.1099 34.28 73.9999 31.9 74.7199 31.11C75.4399 30.32 77.9099 31.4 80.1099 33.54Z" fill="white"/>
<path id="Vector_6" opacity="0.5" d="M86.4201 40.0699C86.6553 40.3126 86.8138 40.6191 86.8758 40.9513C86.9379 41.2834 86.9007 41.6265 86.769 41.9377C86.6373 42.2488 86.4168 42.5143 86.1351 42.7009C85.8534 42.8876 85.523 42.9871 85.1851 42.9871C84.8472 42.9871 84.5168 42.8876 84.2351 42.7009C83.9534 42.5143 83.7329 42.2488 83.6012 41.9377C83.4695 41.6265 83.4323 41.2834 83.4943 40.9513C83.5564 40.6191 83.7149 40.3126 83.9501 40.0699C84.2781 39.7432 84.7222 39.5598 85.1851 39.5598C85.648 39.5598 86.0921 39.7432 86.4201 40.0699V40.0699Z" fill="white"/>
<path id="Vector_7" style="mix-blend-mode:multiply" d="M87.3801 56.0799C80.9101 59.7899 72.6101 61.6499 69.0001 68.1799C65.1501 75.1799 68.6601 84.1799 65.9001 91.6599C65.2699 93.2368 64.5037 94.7559 63.6101 96.1999C68.9408 95.6854 74.0926 94.0021 78.6988 91.27C83.3049 88.5379 87.2523 84.8242 90.2599 80.393C93.2675 75.9618 95.2614 70.9221 96.0997 65.6326C96.938 60.3432 96.6001 54.9339 95.1101 49.7899C92.8813 52.2811 90.2724 54.4041 87.3801 56.0799V56.0799Z" fill="url(#paint3_radial_108_219)"/>
<path id="Vector_8" style="mix-blend-mode:multiply" d="M65.3701 94.9199C72.7401 88.3899 75.8401 76.9199 83.8001 71.4599C87.5701 68.8899 91.5601 68.2499 95.6101 68.1699C97.015 62.101 96.8429 55.7735 95.1101 49.7899C92.8813 52.2811 90.2724 54.4041 87.3801 56.0799C80.9101 59.7899 72.6101 61.6499 69.0001 68.1799C65.1501 75.1799 68.6601 84.1799 65.9001 91.6599C65.2699 93.2368 64.5037 94.7559 63.6101 96.1999H63.8101C64.3501 95.7799 64.8701 95.3599 65.3701 94.9199Z" fill="url(#paint4_radial_108_219)"/>
<path id="Vector_9" style="mix-blend-mode:multiply" d="M47.7 58.1C46.0773 52.0998 46.1331 45.7692 47.8612 39.7985C49.5892 33.8277 52.9234 28.446 57.5 24.24C57.7945 23.9794 58.1088 23.7421 58.44 23.53C50.3333 23.9036 42.5831 26.9718 36.4175 32.2484C30.2519 37.5251 26.0235 44.7084 24.4024 52.6601C22.7813 60.6118 23.8602 68.8772 27.4681 76.1463C31.076 83.4155 37.0065 89.2728 44.32 92.79C48.16 88.79 51.82 84.42 52.65 79.02C53.74 71.86 49.59 65.09 47.7 58.1Z" fill="url(#paint5_radial_108_219)"/>
<path id="Vector_10" style="mix-blend-mode:multiply" d="M30.25 39C30.3184 44.4309 31.5996 49.7779 34 54.65C35.79 58.23 38.15 61.49 40 65.01C44.4392 73.3864 46.0926 82.9599 44.72 92.34C48.4 88.48 51.82 84.21 52.62 79.02C53.71 71.86 49.56 65.09 47.67 58.1C46.0473 52.0998 46.1031 45.7692 47.8312 39.7985C49.5593 33.8277 52.8934 28.446 57.47 24.24C57.7645 23.9794 58.0788 23.7421 58.41 23.53C52.8456 23.7828 47.4133 25.3089 42.5313 27.9909C37.6493 30.6729 33.4478 34.4392 30.25 39V39Z" fill="url(#paint6_radial_108_219)"/>
<path id="Vector_11" style="mix-blend-mode:multiply" opacity="0.43" d="M88.7 67.5899C88.52 67.2099 84.8 59.7999 70.21 65.6799C65.87 67.4399 58.32 65.6799 59.99 55.8299C60.62 52.1299 61.93 49.6499 62.08 44.6199C62.0853 43.9189 61.951 43.2239 61.6849 42.5754C61.4188 41.9269 61.0263 41.3379 60.5301 40.8426C60.034 40.3474 59.4442 39.956 58.7952 39.6911C58.1462 39.4262 57.4509 39.2933 56.75 39.2999C55.5286 39.2753 54.3406 39.6986 53.41 40.4899C49.41 43.4899 44 50.4899 38.9 39.2399C38.7942 38.9504 38.6531 38.6749 38.48 38.4199C38.2634 38.0836 37.9287 37.8405 37.5419 37.7387C37.155 37.6369 36.744 37.6837 36.39 37.8699C36.39 37.8699 33.65 39.0099 31.84 38.1599C31.5842 38.0594 31.3197 37.9825 31.05 37.9299C25.5048 45.239 22.9207 54.3708 23.8138 63.5018C24.7068 72.6327 29.0113 81.0908 35.8676 87.1869C42.7238 93.2831 51.6273 96.5687 60.8001 96.3876C69.9728 96.2064 78.7397 92.572 85.35 86.2099C89.19 80.4099 91.38 72.6899 88.7 67.5899Z" fill="url(#paint7_radial_108_219)"/>
<path id="Vector_12" style="mix-blend-mode:screen" opacity="0.23" d="M55.4501 27.6699C60.2403 27.6502 64.9874 28.5743 69.4203 30.3895C73.8533 32.2047 77.8852 34.8754 81.2858 38.2491C84.6865 41.6228 87.3891 45.6334 89.2395 50.0518C91.0899 54.4701 92.0518 59.2098 92.0701 63.9999C92.0791 73.2404 88.5345 82.1306 82.1701 88.8299C88.2738 84.2399 92.7719 77.8395 95.0227 70.5417C97.2735 63.244 97.162 55.4218 94.7041 48.1912C92.2463 40.9606 87.5676 34.6909 81.3356 30.2767C75.1036 25.8625 67.6366 23.5293 60.0001 23.6099C50.8998 23.5893 42.1171 26.9541 35.3601 33.0499C36.7479 32.3557 38.1773 31.7478 39.6401 31.2299C44.579 28.88 49.9807 27.6637 55.4501 27.6699V27.6699Z" fill="url(#paint8_radial_108_219)"/>
<path id="Vector_13" d="M118.18 41.7299C116.68 37.2099 109.84 35.7299 97.28 37.1499C94.82 37.4299 92.19 37.8399 89.45 38.3299C89.57 38.4999 89.68 38.6599 89.79 38.8399L89.89 38.9899C90.22 39.5199 90.53 40.0599 90.89 40.5699C91.3302 41.1345 91.7027 41.7487 92 42.3999C92.2423 42.7664 92.4563 43.1509 92.64 43.5499C94 43.3199 95.34 43.1199 96.64 42.9599C109.27 41.3399 112.29 43.1599 112.76 43.5399C112.61 44.1199 111.28 47.3899 100.19 53.6499C91.26 58.6999 79.11 63.8799 66 68.2499C52.89 72.6199 40 75.7299 29.83 76.9999C17.2 78.6499 14.18 76.8299 13.71 76.4499C13.86 75.8799 15.19 72.6099 26.27 66.3399C26.99 65.9299 27.74 65.5299 28.5 65.1199C27.5 63.4299 27.43 61.2799 27.31 59.3299C25.54 60.2499 23.85 61.1699 22.31 62.0899C11.35 68.4399 6.77001 73.7299 8.28001 78.2599C9.15001 80.8899 11.84 82.4999 16.41 83.0999C20.6621 83.5151 24.9483 83.4278 29.18 82.8399C39.92 81.6099 53.63 78.3399 67.76 73.6399C81.89 68.9399 94.84 63.3599 104.18 57.9099C115.11 51.5499 119.68 46.2599 118.18 41.7299Z" fill="url(#paint9_radial_108_219)"/>
<g id="Group_2" style="mix-blend-mode:screen">
<path id="Vector_14" style="mix-blend-mode:screen" d="M27.67 62.8301C26.75 63.3101 25.85 63.8301 25 64.2801C13.91 70.5501 12.58 73.8201 12.43 74.4001C12.3317 74.6365 12.2879 74.8921 12.3022 75.1478C12.3164 75.4035 12.3883 75.6526 12.5123 75.8766C12.6363 76.1007 12.8094 76.2938 13.0185 76.4416C13.2276 76.5893 13.4674 76.688 13.72 76.7301C14.98 73.6301 18.55 70.7301 26.27 66.3401C26.99 65.9301 27.74 65.5301 28.5 65.1201C28.1006 64.407 27.8202 63.6335 27.67 62.8301V62.8301Z" fill="url(#paint10_radial_108_219)"/>
<path id="Vector_15" style="mix-blend-mode:screen" d="M111.48 41.4801C111.01 41.1101 107.99 39.2801 95.3501 40.9001C94.0738 41.028 92.8076 41.2418 91.5601 41.5401C91.7265 41.8196 91.8735 42.1103 92.0001 42.4101C92.2444 42.7718 92.4584 43.1531 92.6401 43.5501C94.0001 43.3201 95.3401 43.1201 96.6401 42.9601C104.53 41.9601 110.28 42.2901 112.64 43.6201C113.13 42.9401 112.51 42.1201 111.48 41.4801Z" fill="url(#paint11_radial_108_219)"/>
<path id="Vector_16" style="mix-blend-mode:screen" d="M116.9 39.68C118.41 44.2 113.83 49.49 102.9 55.85C93.56 61.3 80.6301 66.85 66.4901 71.58C52.3501 76.31 38.65 79.58 27.9 80.78C23.6668 81.3546 19.3806 81.4284 15.13 81C11.94 80.63 9.68005 79.72 8.30005 78.31C9.19005 80.91 11.87 82.51 16.41 83.1C20.6622 83.5152 24.9484 83.4279 29.18 82.84C39.92 81.61 53.63 78.34 67.76 73.64C81.89 68.94 94.84 63.36 104.18 57.91C115.11 51.55 119.68 46.26 118.18 41.73C117.915 40.944 117.474 40.229 116.89 39.64C116.89 39.64 116.9 39.66 116.9 39.68Z" fill="url(#paint12_radial_108_219)"/>
</g>
</g>
<defs>
<radialGradient id="paint0_radial_108_219" cx="0" cy="0" r="1" gradientUnits="userSpaceOnUse" gradientTransform="translate(59.6778 60.0302) rotate(-36.68) scale(42.85)">
<stop stop-color="#2AB512"/>
<stop offset="0.62" stop-color="#5EA329"/>
<stop offset="0.74" stop-color="#5BA12A"/>
<stop offset="0.82" stop-color="#52992C"/>
<stop offset="0.89" stop-color="#438B30"/>
<stop offset="0.96" stop-color="#2E7835"/>
<stop offset="1" stop-color="#1A663A"/>
</radialGradient>
<radialGradient id="paint1_radial_108_219" cx="0" cy="0" r="1" gradientUnits="userSpaceOnUse" gradientTransform="translate(79.9934 42.8722) scale(59.73)">
<stop stop-color="#C9EE4F"/>
<stop offset="0.94" stop-color="#00FF48"/>
</radialGradient>
<radialGradient id="paint2_radial_108_219" cx="0" cy="0" r="1" gradientUnits="userSpaceOnUse" gradientTransform="translate(86.2844 60.7325) rotate(-14.96) scale(64.76 64.76)">
<stop stop-color="#0C9C02"/>
<stop offset="0.62" stop-color="#00B63D"/>
<stop offset="0.64" stop-color="#00AD3A"/>
<stop offset="0.75" stop-color="#01892C"/>
<stop offset="0.84" stop-color="#027323"/>
<stop offset="0.9" stop-color="#026B20"/>
</radialGradient>
<radialGradient id="paint3_radial_108_219" cx="0" cy="0" r="1" gradientUnits="userSpaceOnUse" gradientTransform="translate(80.0901 72.9899) scale(20.12)">
<stop offset="0.08" stop-color="#08C444"/>
<stop offset="1" stop-color="#44D466"/>
</radialGradient>
<radialGradient id="paint4_radial_108_219" cx="0" cy="0" r="1" gradientUnits="userSpaceOnUse" gradientTransform="translate(80.0901 72.9899) scale(20.12)">
<stop offset="0.08" stop-color="#08C444"/>
<stop offset="1" stop-color="#50FA78"/>
</radialGradient>
<radialGradient id="paint5_radial_108_219" cx="0" cy="0" r="1" gradientUnits="userSpaceOnUse" gradientTransform="translate(41.05 58.16) scale(27.4 27.4)">
<stop offset="0.08" stop-color="#08C444"/>
<stop offset="1" stop-color="#50FA78"/>
</radialGradient>
<radialGradient id="paint6_radial_108_219" cx="0" cy="0" r="1" gradientUnits="userSpaceOnUse" gradientTransform="translate(44.35 57.93) scale(26.29 26.29)">
<stop offset="0.08" stop-color="#08C444"/>
<stop offset="1" stop-color="#50FA78"/>
</radialGradient>
<radialGradient id="paint7_radial_108_219" cx="0" cy="0" r="1" gradientUnits="userSpaceOnUse" gradientTransform="translate(56.77 67.0399) scale(31.28)">
<stop stop-color="#28B302"/>
<stop offset="0.62" stop-color="#71FF00"/>
<stop offset="0.63" stop-color="#6CFA01"/>
<stop offset="0.72" stop-color="#3EC809"/>
<stop offset="0.79" stop-color="#1DA30E"/>
<stop offset="0.86" stop-color="#088D12"/>
<stop offset="0.9" stop-color="#018513"/>
</radialGradient>
<radialGradient id="paint8_radial_108_219" cx="0" cy="0" r="1" gradientUnits="userSpaceOnUse" gradientTransform="translate(38.0948 52.4099) rotate(180) scale(65.1652 64.52)">
<stop stop-color="#6AFD6C"/>
<stop offset="0.62" stop-color="#73FF8A"/>
<stop offset="0.63" stop-color="#72FC89"/>
<stop offset="0.8" stop-color="#6AE683"/>
<stop offset="0.9" stop-color="#67DE81"/>
</radialGradient>
<radialGradient id="paint9_radial_108_219" cx="0" cy="0" r="1" gradientUnits="userSpaceOnUse" gradientTransform="translate(63.1272 59.995) rotate(-37.52) scale(42.42)">
<stop offset="0.08" stop-color="#00C32A"/>
<stop offset="1" stop-color="#45C100"/>
</radialGradient>
<radialGradient id="paint10_radial_108_219" cx="0" cy="0" r="1" gradientUnits="userSpaceOnUse" gradientTransform="translate(21.4948 67.4159) rotate(-37.52) scale(8.96)">
<stop offset="0.08" stop-color="#B4A62B"/>
<stop offset="1" stop-color="#004A1C"/>
</radialGradient>
<radialGradient id="paint11_radial_108_219" cx="0" cy="0" r="1" gradientUnits="userSpaceOnUse" gradientTransform="translate(101.986 42.5251) rotate(-37.52) scale(7.85 7.85)">
<stop offset="0.08" stop-color="#B4A62B"/>
<stop offset="1" stop-color="#004A1C"/>
</radialGradient>
<radialGradient id="paint12_radial_108_219" cx="0" cy="0" r="1" gradientUnits="userSpaceOnUse" gradientTransform="translate(64.6499 61.9779) rotate(-37.52) scale(41.74 41.74)">
<stop offset="0.08" stop-color="#B4A62B"/>
<stop offset="1" stop-color="#004A1C"/>
</radialGradient>
</defs>
</svg>
