<svg width="130" height="130" viewBox="0 0 125 98" fill="none" xmlns="http://www.w3.org/2000/svg">
<path d="M101.211 57.3275C105.809 35.3191 91.6949 13.7505 69.6865 9.15275C47.6781 4.55496 26.1096 18.669 21.5118 40.6774C16.914 62.6858 31.0281 84.2543 53.0364 88.8521C75.0448 93.4499 96.6134 79.3359 101.211 57.3275Z" fill="url(#paint0_radial_202_147)"/>
<path d="M74.4213 82.894C92.7496 75.4926 101.608 54.6346 94.2062 36.3063C86.8048 17.9781 65.9468 9.1201 47.6186 16.5215C29.2903 23.9229 20.4323 44.7808 27.8337 63.1091C35.2351 81.4374 56.0931 90.2953 74.4213 82.894Z" fill="url(#paint1_linear_202_147)"/>
<path style="mix-blend-mode:overlay" d="M77.37 27.0002C83.3 27.9402 88.47 30.3002 93.01 33.6802C87.13 21.9702 75.01 13.9302 61.01 13.9302C56.56 13.9302 52.3 14.7402 48.37 16.2302C48.52 17.3702 48.86 18.6402 49.44 20.0602C53.9 31.1102 68.33 25.5802 77.37 27.0102V27.0002Z" fill="url(#paint2_radial_202_147)"/>
<path style="mix-blend-mode:overlay" d="M41.75 23.55C41.19 22.61 40.74 21.56 40.33 20.5C35.29 24.08 31.21 28.93 28.57 34.58C31.18 41.38 36.15 47.67 42.92 48.26C54.4 49.26 63.41 40.16 75.81 44.44C85.13 47.66 89.78 55 94.36 62.66C95.92 58.64 96.78 54.27 96.78 49.71C96.78 47.74 96.62 45.81 96.31 43.93C94.43 42.81 92.27 41.7 89.8 40.54C75.12 33.7 50.53 38.42 41.73 23.54L41.75 23.55Z" fill="url(#paint3_radial_202_147)"/>
<path d="M91.14 69.03C87.29 62.74 81.97 55.79 78.77 53.95C64.55 45.77 36.8 63.5 27.43 46.79C27.26 46.48 26.62 44.81 25.86 42.97C25.44 45.15 25.22 47.41 25.22 49.71C25.22 52.71 25.59 55.62 26.29 58.41C32.4 61.48 43.91 58.4 50.44 58.63C67.78 59.24 72.52 69.69 73.91 83.1C81.03 80.34 87.06 75.37 91.13 69.03H91.14Z" fill="#F73D99"/>
<path d="M36.11 63.7401C34.99 63.7401 31.12 63.6101 28.07 63.6901C33.51 76.5101 46.22 85.4901 61.02 85.4901C63.8 85.4901 66.5 85.1701 69.1 84.5701C69.57 80.5701 66.79 76.0401 62.98 72.1001C56.05 64.9301 45.51 63.6801 36.11 63.7301V63.7401Z" fill="#F73D99"/>
<path style="mix-blend-mode:overlay" d="M89.02 57.31C88.83 56.94 85.18 49.66 70.86 55.43C66.59 57.15 59.18 55.44 60.82 45.75C61.44 42.12 62.72 39.69 62.87 34.75C62.95 31.87 60.53 29.53 57.65 29.53C55.57 29.53 54.4 30.67 54.37 30.69C50.42 33.68 45.13 40.55 40.12 29.46C40.09 29.38 39.85 28.83 39.71 28.66C39.26 27.95 38.54 27.8 37.66 28.12C37.66 28.12 34.97 29.24 33.19 28.4C32.82 28.23 32.47 28.21 32.41 28.18C27.86 34.18 25.16 41.66 25.16 49.78C25.16 69.54 41.18 85.57 60.95 85.57C70.57 85.57 79.3 81.77 85.73 75.59C89.5 69.89 91.65 62.31 89.03 57.31H89.02Z" fill="url(#paint4_radial_202_147)"/>
<path style="mix-blend-mode:darken" opacity="0.36" d="M65.38 81.56C45.62 81.56 29.59 65.5401 29.59 45.7701C29.59 36.3101 33.26 27.7 39.26 21.3C30.68 27.84 25.15 38.1601 25.15 49.7701C25.15 69.5301 41.17 85.56 60.94 85.56C70.21 85.56 78.66 82.03 85.02 76.25C83.67 76.94 82.28 77.5401 80.84 78.0501C76.16 80.2901 70.92 81.5501 65.38 81.5501V81.56Z" fill="url(#paint5_radial_202_147)"/>
<path opacity="0.25" d="M83.67 25.7102C90.6 32.0402 93.29 40.3702 89.68 44.3202C86.07 48.2702 77.53 46.3402 70.6 40.0102C63.67 33.6802 60.98 25.3502 64.59 21.4002C68.2 17.4502 76.74 19.3802 83.67 25.7102V25.7102Z" fill="white"/>
<path opacity="0.5" d="M80.36 25.32C82.4 27.3 83.47 29.5 82.75 30.24C82.03 30.98 79.8 29.97 77.77 27.99C75.73 26.01 74.66 23.81 75.38 23.07C76.1 22.33 78.33 23.34 80.36 25.32Z" fill="white"/>
<path opacity="0.5" d="M86.2 31.37C86.85 32 86.88 33.02 86.27 33.65C85.66 34.28 84.64 34.28 83.99 33.65C83.34 33.02 83.31 32 83.92 31.37C84.53 30.74 85.55 30.74 86.2 31.37V31.37Z" fill="white"/>
<path d="M100.24 24.1502C100.24 24.9702 99.58 25.6302 98.76 25.6302C97.94 25.6302 97.28 24.9702 97.28 24.1502C97.28 23.3302 97.94 22.6702 98.76 22.6702C99.58 22.6702 100.24 23.3302 100.24 24.1502Z" fill="url(#paint6_linear_202_147)"/>
<path d="M100.1 16.4101C100.1 18.5101 98.4 20.2101 96.3 20.2101C94.2 20.2101 92.5 18.5101 92.5 16.4101C92.5 14.3101 94.2 12.6101 96.3 12.6101C98.4 12.6101 100.1 14.3101 100.1 16.4101Z" fill="url(#paint7_linear_202_147)"/>
<path opacity="0.25" d="M98.46 13.9402C99.27 14.6802 99.58 15.6502 99.16 16.1202C98.74 16.5802 97.74 16.3602 96.93 15.6202C96.12 14.8802 95.81 13.9102 96.23 13.4402C96.65 12.9802 97.65 13.2002 98.46 13.9402Z" fill="#EF755B"/>
<path opacity="0.5" d="M98.07 13.9C98.31 14.13 98.43 14.39 98.35 14.47C98.27 14.56 98.01 14.44 97.77 14.21C97.53 13.98 97.41 13.72 97.49 13.64C97.57 13.56 97.83 13.67 98.07 13.9Z" fill="#EF755B"/>
<path opacity="0.5" d="M98.75 14.61C98.83 14.68 98.83 14.8 98.75 14.88C98.68 14.95 98.56 14.95 98.48 14.88C98.4 14.81 98.4 14.69 98.48 14.61C98.56 14.53 98.67 14.54 98.75 14.61Z" fill="#EF755B"/>
<path opacity="0.25" d="M99.69 23.2101C99.99 23.4801 100.1 23.8401 99.95 24.0101C99.8 24.1801 99.43 24.1001 99.13 23.8301C98.83 23.5601 98.72 23.2001 98.87 23.0301C99.02 22.8601 99.39 22.9401 99.69 23.2101Z" fill="#EF755B"/>
<path opacity="0.5" d="M99.55 23.1902C99.64 23.2702 99.68 23.3702 99.65 23.4002C99.62 23.4302 99.52 23.3902 99.44 23.3002C99.35 23.2202 99.31 23.1202 99.34 23.0902C99.37 23.0602 99.47 23.1002 99.55 23.1902Z" fill="#EF755B"/>
<path opacity="0.5" d="M99.8 23.45C99.8 23.45 99.83 23.52 99.8 23.55C99.77 23.58 99.73 23.58 99.7 23.55C99.67 23.52 99.67 23.48 99.7 23.45C99.73 23.42 99.77 23.42 99.8 23.45Z" fill="#EF755B"/>
<path d="M88.02 15.18C88.8374 15.18 89.5 14.5174 89.5 13.7C89.5 12.8826 88.8374 12.22 88.02 12.22C87.2026 12.22 86.54 12.8826 86.54 13.7C86.54 14.5174 87.2026 15.18 88.02 15.18Z" fill="url(#paint8_linear_202_147)"/>
<path opacity="0.25" d="M88.95 12.7602C89.25 13.0302 89.36 13.3902 89.21 13.5602C89.06 13.7302 88.69 13.6502 88.39 13.3802C88.09 13.1102 87.98 12.7502 88.13 12.5802C88.28 12.4102 88.65 12.4902 88.95 12.7602Z" fill="#EF755B"/>
<path opacity="0.5" d="M88.81 12.74C88.9 12.82 88.94 12.92 88.91 12.95C88.88 12.98 88.78 12.94 88.7 12.85C88.61 12.77 88.57 12.67 88.6 12.64C88.63 12.61 88.73 12.65 88.81 12.74Z" fill="#EF755B"/>
<path opacity="0.5" d="M89.06 13C89.06 13 89.09 13.07 89.06 13.1C89.03 13.13 88.99 13.13 88.96 13.1C88.93 13.07 88.93 13.03 88.96 13C88.99 12.97 89.03 12.97 89.06 13Z" fill="#EF755B"/>
<path d="M35.82 81.27C35.82 82.09 35.16 82.75 34.34 82.75C33.52 82.75 32.86 82.09 32.86 81.27C32.86 80.45 33.52 79.79 34.34 79.79C35.16 79.79 35.82 80.45 35.82 81.27Z" fill="url(#paint9_linear_202_147)"/>
<path d="M29.67 79.6801C29.67 81.7801 27.97 83.4801 25.87 83.4801C23.77 83.4801 22.07 81.7801 22.07 79.6801C22.07 77.5801 23.77 75.8801 25.87 75.8801C27.97 75.8801 29.67 77.5801 29.67 79.6801Z" fill="url(#paint10_linear_202_147)"/>
<path opacity="0.25" d="M28.03 77.2102C28.84 77.9502 29.15 78.9202 28.73 79.3902C28.31 79.8502 27.31 79.6302 26.5 78.8902C25.69 78.1502 25.38 77.1802 25.8 76.7102C26.22 76.2502 27.22 76.4702 28.03 77.2102Z" fill="#EF755B"/>
<path opacity="0.5" d="M27.65 77.1701C27.89 77.4001 28.01 77.6601 27.93 77.7401C27.85 77.8301 27.59 77.7101 27.35 77.4801C27.11 77.2501 26.99 76.9901 27.07 76.9101C27.15 76.8201 27.41 76.9401 27.65 77.1701Z" fill="#EF755B"/>
<path opacity="0.5" d="M28.33 77.8701C28.41 77.9401 28.41 78.0601 28.33 78.1401C28.26 78.2101 28.14 78.2101 28.06 78.1401C27.98 78.0701 27.98 77.9501 28.06 77.8701C28.13 77.8001 28.25 77.8001 28.33 77.8701Z" fill="#EF755B"/>
<path opacity="0.25" d="M35.28 80.32C35.58 80.59 35.69 80.95 35.54 81.12C35.39 81.29 35.02 81.21 34.72 80.94C34.42 80.67 34.31 80.31 34.46 80.14C34.61 79.97 34.98 80.05 35.28 80.32Z" fill="#EF755B"/>
<path opacity="0.5" d="M35.14 80.3C35.23 80.38 35.27 80.48 35.24 80.51C35.21 80.54 35.11 80.5 35.03 80.41C34.94 80.33 34.9 80.23 34.93 80.2C34.96 80.17 35.06 80.21 35.14 80.3Z" fill="#EF755B"/>
<path opacity="0.5" d="M35.38 80.5601C35.38 80.5601 35.41 80.6301 35.38 80.6601C35.35 80.6901 35.31 80.6901 35.28 80.6601C35.25 80.6301 35.25 80.5901 35.28 80.5601C35.31 80.5301 35.35 80.5301 35.38 80.5601Z" fill="#EF755B"/>
<path d="M30.38 72.8201C30.38 73.6401 29.72 74.3001 28.9 74.3001C28.08 74.3001 27.42 73.6401 27.42 72.8201C27.42 72.0001 28.08 71.3401 28.9 71.3401C29.72 71.3401 30.38 72.0001 30.38 72.8201Z" fill="url(#paint11_linear_202_147)"/>
<path opacity="0.25" d="M29.84 71.87C30.14 72.14 30.25 72.5 30.1 72.67C29.95 72.84 29.58 72.76 29.28 72.49C28.98 72.22 28.87 71.86 29.02 71.69C29.17 71.52 29.54 71.6 29.84 71.87Z" fill="#EF755B"/>
<path opacity="0.5" d="M29.7 71.8601C29.79 71.9401 29.83 72.0401 29.8 72.0701C29.77 72.1001 29.67 72.0601 29.59 71.9701C29.5 71.8901 29.46 71.7901 29.49 71.7601C29.52 71.7301 29.62 71.7701 29.7 71.8601Z" fill="#EF755B"/>
<path opacity="0.5" d="M29.95 72.1202C29.95 72.1202 29.98 72.1902 29.95 72.2202C29.92 72.2502 29.88 72.2502 29.85 72.2202C29.82 72.1902 29.82 72.1502 29.85 72.1202C29.88 72.0902 29.92 72.0902 29.95 72.1202Z" fill="#EF755B"/>
<path d="M21.61 71.72C22.4274 71.72 23.09 71.0574 23.09 70.24C23.09 69.4226 22.4274 68.76 21.61 68.76C20.7926 68.76 20.13 69.4226 20.13 70.24C20.13 71.0574 20.7926 71.72 21.61 71.72Z" fill="url(#paint12_linear_202_147)"/>
<path opacity="0.25" d="M22.54 69.3C22.84 69.57 22.95 69.93 22.8 70.1C22.65 70.27 22.28 70.19 21.98 69.92C21.68 69.65 21.57 69.29 21.72 69.12C21.87 68.95 22.24 69.03 22.54 69.3Z" fill="#EF755B"/>
<path opacity="0.5" d="M22.4 69.28C22.49 69.36 22.53 69.46 22.5 69.49C22.47 69.52 22.37 69.48 22.29 69.39C22.2 69.31 22.16 69.21 22.19 69.18C22.22 69.15 22.32 69.19 22.4 69.28Z" fill="#EF755B"/>
<path opacity="0.5" d="M22.64 69.5401C22.64 69.5401 22.67 69.6101 22.64 69.6401C22.61 69.6701 22.57 69.6701 22.54 69.6401C22.51 69.6101 22.51 69.5701 22.54 69.5401C22.57 69.5101 22.61 69.5101 22.64 69.5401Z" fill="#EF755B"/>
<path d="M96.21 43.5401C96.21 43.8101 96.16 44.0801 96.08 44.3401C96.2 44.8901 96.38 45.4201 96.55 45.9701C96.75 46.6101 96.9 47.2401 97.01 47.8901C107.61 53.7301 113.76 59.4801 112.53 63.3801C110.36 70.2701 86.02 68.7501 58.15 59.9901C30.28 51.2301 9.44 38.5401 11.6 31.6501C12.82 27.7601 21.11 26.5601 33.1 27.8101C33.71 26.5801 34.6 25.4401 35.71 24.6101C16.17 21.3601 1.98 22.3601 0.190001 28.0601C-2.47 36.5101 23.08 52.0701 57.26 62.8101C91.43 73.5501 121.29 75.4101 123.95 66.9601C125.76 61.2001 114.44 52.1301 96.21 43.5301V43.5401Z" fill="#BA00CF"/>
<path d="M100.02 46.64C100.23 46.31 100.52 46.04 100.86 45.82C99.37 45.06 97.81 44.3 96.2 43.54C96.2 43.81 96.15 44.08 96.07 44.34C96.19 44.89 96.37 45.42 96.54 45.97C96.74 46.61 96.89 47.24 97 47.89C107.6 53.73 113.75 59.48 112.52 63.38C110.35 70.27 86.01 68.75 58.14 59.99C30.28 51.23 9.44 38.54 11.6 31.65C12.82 27.76 21.11 26.56 33.1 27.81C33.71 26.58 34.6 25.44 35.71 24.61C25.57 22.92 16.88 22.38 10.61 23.05C18 23.33 30.6 24.01 29.61 25.39C28.22 27.33 4.06 21.22 9.89 34.83C15.72 48.44 54.61 60.11 69.75 64.41C84.89 68.72 106.28 70.94 115.44 66.77C124.61 62.6 97.66 50.38 100.02 46.63V46.64Z" fill="#9600A1"/>
<path d="M4.57 31.7702C4.03 30.9802 3.8 30.1002 3.9 29.6002C3.94 29.3602 4.01 29.1902 4.08 29.0702C4.13 28.9102 4.2 28.7502 4.27 28.6002C4.34 28.4302 4.44 28.2602 4.55 28.1102C5.24 27.0502 6.55 26.4302 7.62 25.9802C8.07 25.7902 8.51 25.6102 8.95 25.4402C8.32 25.5002 7.61 25.6002 6.91 25.7502C5.88 25.9402 4.76 26.2402 3.95 26.7202C3.54 26.9502 3.22 27.2202 3.01 27.4402C2.8 27.6602 2.7 27.8102 2.7 27.8102C2.7 27.8102 2.6 27.9602 2.47 28.2502C2.34 28.5402 2.2 28.9802 2.19 29.5102C2.16 30.6002 2.75 31.7702 3.54 32.6102C4.34 33.4602 5.2 34.0202 5.79 34.5202C6.39 35.0002 6.74 35.3802 6.86 35.3102C6.97 35.2502 6.81 34.7002 6.33 34.0302C5.87 33.3502 5.1 32.5802 4.57 31.7902V31.7702Z" fill="#DC90F0"/>
<path d="M121.51 62.66C121.06 61.95 120.53 61.32 119.94 60.7C119.5 60.25 119.04 59.83 118.57 59.46C119.61 60.88 120.33 62.54 120.58 64.23C120.65 64.51 120.68 64.76 120.67 64.99C120.65 65.42 120.49 65.78 120.36 66.01C120.23 66.25 120.12 66.37 120.12 66.37C120.12 66.37 120.04 66.51 119.86 66.72C119.67 66.94 119.39 67.23 118.94 67.51C118.08 68.09 116.57 68.5 115 68.85C111.89 69.58 108.68 69.87 108.68 70.11C108.68 70.36 111.95 70.51 115.21 70.07C116.81 69.87 118.52 69.59 119.75 68.91C120.36 68.59 120.83 68.19 121.12 67.89C121.41 67.58 121.55 67.38 121.55 67.38C121.55 67.38 121.7 67.18 121.88 66.79C122.06 66.4 122.3 65.78 122.27 64.99C122.25 64.21 121.94 63.38 121.5 62.67L121.51 62.66Z" fill="#DC90F0"/>
<defs>
<radialGradient id="paint0_radial_202_147" cx="0" cy="0" r="1" gradientUnits="userSpaceOnUse" gradientTransform="translate(60.9688 49.0575) rotate(-36.68) scale(41.17)">
<stop stop-color="#F503E9"/>
<stop offset="0.62" stop-color="#FF0082"/>
<stop offset="0.75" stop-color="#FC0182"/>
<stop offset="0.83" stop-color="#F30685"/>
<stop offset="0.91" stop-color="#E40D8A"/>
<stop offset="0.97" stop-color="#CF1891"/>
<stop offset="1" stop-color="#C41F95"/>
</radialGradient>
<linearGradient id="paint1_linear_202_147" x1="30.0232" y1="67.6117" x2="92.0132" y2="31.8217" gradientUnits="userSpaceOnUse">
<stop stop-color="#9D0281"/>
<stop offset="0.15" stop-color="#AE0B80"/>
<stop offset="0.52" stop-color="#D31F7D"/>
<stop offset="0.81" stop-color="#EB2C7C"/>
<stop offset="1" stop-color="#F4317C"/>
</linearGradient>
<radialGradient id="paint2_radial_202_147" cx="0" cy="0" r="1" gradientUnits="userSpaceOnUse" gradientTransform="translate(70.69 23.8002) scale(17.26 17.26)">
<stop stop-color="white"/>
<stop offset="1" stop-color="white"/>
</radialGradient>
<radialGradient id="paint3_radial_202_147" cx="0" cy="0" r="1" gradientUnits="userSpaceOnUse" gradientTransform="translate(62.69 41.58) scale(28.35)">
<stop stop-color="white"/>
<stop offset="1" stop-color="white"/>
</radialGradient>
<radialGradient id="paint4_radial_202_147" cx="0" cy="0" r="1" gradientUnits="userSpaceOnUse" gradientTransform="translate(57.67 56.77) scale(30.71)">
<stop stop-color="white"/>
<stop offset="1" stop-color="white"/>
</radialGradient>
<radialGradient id="paint5_radial_202_147" cx="0" cy="0" r="1" gradientUnits="userSpaceOnUse" gradientTransform="translate(85.56 57.18) scale(63.59 63.59)">
<stop stop-color="#FA1784"/>
<stop offset="0.62" stop-color="#F92AFF"/>
<stop offset="0.69" stop-color="#D41BE4"/>
<stop offset="0.78" stop-color="#B00CC9"/>
<stop offset="0.85" stop-color="#9A03B8"/>
<stop offset="0.9" stop-color="#9200B3"/>
</radialGradient>
<linearGradient id="paint6_linear_202_147" x1="97.48" y1="24.8902" x2="100.04" y2="23.4102" gradientUnits="userSpaceOnUse">
<stop stop-color="#9D0281"/>
<stop offset="0.09" stop-color="#AA0980"/>
<stop offset="0.34" stop-color="#CA1A7E"/>
<stop offset="0.58" stop-color="#E1267D"/>
<stop offset="0.8" stop-color="#EF2E7C"/>
<stop offset="1" stop-color="#F4317C"/>
</linearGradient>
<linearGradient id="paint7_linear_202_147" x1="93.01" y1="18.3101" x2="99.59" y2="14.5101" gradientUnits="userSpaceOnUse">
<stop stop-color="#9D0281"/>
<stop offset="0.07" stop-color="#A70780"/>
<stop offset="0.33" stop-color="#C8197E"/>
<stop offset="0.58" stop-color="#E0267D"/>
<stop offset="0.81" stop-color="#EF2E7C"/>
<stop offset="1" stop-color="#F4317C"/>
</linearGradient>
<linearGradient id="paint8_linear_202_147" x1="86.74" y1="14.44" x2="89.3" y2="12.97" gradientUnits="userSpaceOnUse">
<stop stop-color="#9D0281"/>
<stop offset="0.09" stop-color="#AA0980"/>
<stop offset="0.34" stop-color="#CA1A7E"/>
<stop offset="0.58" stop-color="#E1267D"/>
<stop offset="0.8" stop-color="#EF2E7C"/>
<stop offset="1" stop-color="#F4317C"/>
</linearGradient>
<linearGradient id="paint9_linear_202_147" x1="33.07" y1="82" x2="35.62" y2="80.53" gradientUnits="userSpaceOnUse">
<stop stop-color="#9D0281"/>
<stop offset="0.09" stop-color="#AA0980"/>
<stop offset="0.34" stop-color="#CA1A7E"/>
<stop offset="0.58" stop-color="#E1267D"/>
<stop offset="0.8" stop-color="#EF2E7C"/>
<stop offset="1" stop-color="#F4317C"/>
</linearGradient>
<linearGradient id="paint10_linear_202_147" x1="22.59" y1="81.5801" x2="29.17" y2="77.7801" gradientUnits="userSpaceOnUse">
<stop stop-color="#9D0281"/>
<stop offset="0.07" stop-color="#A70780"/>
<stop offset="0.33" stop-color="#C8197E"/>
<stop offset="0.58" stop-color="#E0267D"/>
<stop offset="0.81" stop-color="#EF2E7C"/>
<stop offset="1" stop-color="#F4317C"/>
</linearGradient>
<linearGradient id="paint11_linear_202_147" x1="27.63" y1="73.5601" x2="30.19" y2="72.0801" gradientUnits="userSpaceOnUse">
<stop stop-color="#9D0281"/>
<stop offset="0.09" stop-color="#AA0980"/>
<stop offset="0.34" stop-color="#CA1A7E"/>
<stop offset="0.58" stop-color="#E1267D"/>
<stop offset="0.8" stop-color="#EF2E7C"/>
<stop offset="1" stop-color="#F4317C"/>
</linearGradient>
<linearGradient id="paint12_linear_202_147" x1="20.33" y1="70.98" x2="22.89" y2="69.51" gradientUnits="userSpaceOnUse">
<stop stop-color="#9D0281"/>
<stop offset="0.09" stop-color="#AA0980"/>
<stop offset="0.34" stop-color="#CA1A7E"/>
<stop offset="0.58" stop-color="#E1267D"/>
<stop offset="0.8" stop-color="#EF2E7C"/>
<stop offset="1" stop-color="#F4317C"/>
</linearGradient>
</defs>
</svg>
