<svg width="577" height="190" viewBox="0 0 577 190" fill="none" xmlns="http://www.w3.org/2000/svg">
<path d="M29.5899 44.1094L417.15 139.519L575.37 66.6294C575.37 66.6294 578.33 189.889 575.37 189.889H14.1899L29.5899 44.1094Z" fill="#EEF2FF"/>
<path d="M77.0812 76.7836C91.1987 62.6661 91.1987 39.7772 77.0812 25.6598C62.9638 11.5423 40.0749 11.5423 25.9574 25.6598C11.84 39.7772 11.84 62.6661 25.9574 76.7836C40.0749 90.901 62.9638 90.901 77.0812 76.7836Z" fill="#EEF2FF"/>
<path d="M91.2201 79.6696C99.7308 79.6696 106.63 72.7703 106.63 64.2596C106.63 55.7489 99.7308 48.8496 91.2201 48.8496C82.7094 48.8496 75.8101 55.7489 75.8101 64.2596C75.8101 72.7703 82.7094 79.6696 91.2201 79.6696Z" fill="#EEF2FF"/>
<path d="M143.085 86.5042C153.731 75.8585 153.731 58.5985 143.085 47.9528C132.44 37.3071 115.18 37.3071 104.534 47.9528C93.8883 58.5985 93.8883 75.8586 104.534 86.5042C115.18 97.1499 132.44 97.1499 143.085 86.5042Z" fill="#EEF2FF"/>
<path d="M160.819 79.7793C162.36 73.2485 158.315 66.7047 151.784 65.1632C145.254 63.6218 138.71 67.6665 137.168 74.1974C135.627 80.7282 139.672 87.272 146.203 88.8134C152.733 90.3549 159.277 86.3101 160.819 79.7793Z" fill="#EEF2FF"/>
<path d="M181.59 105.74C194.187 105.74 204.4 95.5277 204.4 82.9301C204.4 70.3325 194.187 60.1201 181.59 60.1201C168.992 60.1201 158.78 70.3325 158.78 82.9301C158.78 95.5277 168.992 105.74 181.59 105.74Z" fill="#EEF2FF"/>
<path d="M233.22 94.6295C234.767 85.1003 228.296 76.1214 218.767 74.5746C209.238 73.0278 200.259 79.4988 198.712 89.0281C197.165 98.5573 203.636 107.536 213.165 109.083C222.695 110.63 231.673 104.159 233.22 94.6295Z" fill="#EEF2FF"/>
<path d="M281.971 98.2495C284.541 82.4183 273.79 67.5015 257.959 64.9317C242.128 62.362 227.211 73.1124 224.641 88.9436C222.071 104.775 232.822 119.692 248.653 122.261C264.484 124.831 279.401 114.081 281.971 98.2495Z" fill="#EEF2FF"/>
<path d="M325.185 115.279C328.493 101.266 319.814 87.225 305.801 83.9176C291.788 80.6102 277.747 89.2889 274.44 103.302C271.132 117.315 279.811 131.356 293.824 134.663C307.837 137.971 321.878 129.292 325.185 115.279Z" fill="#EEF2FF"/>
<path d="M337.413 121.488C338.916 115.119 334.971 108.736 328.602 107.233C322.232 105.73 315.85 109.674 314.347 116.044C312.843 122.414 316.788 128.796 323.158 130.299C329.527 131.803 335.909 127.858 337.413 121.488Z" fill="#EEF2FF"/>
<path d="M378.668 126.947C381.224 116.116 374.516 105.263 363.685 102.707C352.854 100.151 342.002 106.859 339.446 117.69C336.889 128.521 343.597 139.373 354.428 141.929C365.259 144.486 376.112 137.778 378.668 126.947Z" fill="#EEF2FF"/>
<path d="M393.44 152.56C402.934 152.56 410.63 144.863 410.63 135.37C410.63 125.876 402.934 118.18 393.44 118.18C383.946 118.18 376.25 125.876 376.25 135.37C376.25 144.863 383.946 152.56 393.44 152.56Z" fill="#EEF2FF"/>
<path d="M458.274 138.158C460.791 122.654 450.263 108.046 434.758 105.529C419.254 103.012 404.646 113.541 402.129 129.045C399.612 144.549 410.141 159.157 425.645 161.674C441.149 164.191 455.758 153.662 458.274 138.158Z" fill="#EEF2FF"/>
<path d="M469.89 133.59C478.727 133.59 485.89 126.426 485.89 117.59C485.89 108.753 478.727 101.59 469.89 101.59C461.054 101.59 453.89 108.753 453.89 117.59C453.89 126.426 461.054 133.59 469.89 133.59Z" fill="#EEF2FF"/>
<path d="M497.15 128.259C510.571 128.259 521.45 117.38 521.45 103.959C521.45 90.5387 510.571 79.6592 497.15 79.6592C483.73 79.6592 472.85 90.5387 472.85 103.959C472.85 117.38 483.73 128.259 497.15 128.259Z" fill="#EEF2FF"/>
<path d="M571.452 97.4538C574.074 81.3011 563.105 66.0811 546.953 63.4591C530.8 60.8372 515.58 71.8061 512.958 87.9589C510.336 104.112 521.305 119.332 537.458 121.954C553.61 124.576 568.83 113.607 571.452 97.4538Z" fill="#EEF2FF"/>
</svg>
