<svg viewBox="0 0 2911 2447" fill="none" xmlns="http://www.w3.org/2000/svg">
<g opacity="0.25">
<path d="M566.56 2446.34C879.446 2446.34 1133.09 2405.17 1133.09 2354.38C1133.09 2303.59 879.446 2262.42 566.56 2262.42C253.674 2262.42 0.0302734 2303.59 0.0302734 2354.38C0.0302734 2405.17 253.674 2446.34 566.56 2446.34Z" fill="#371A45"/>
</g>
<g opacity="0.25">
<path d="M2342.95 2444.65C2655.84 2444.65 2909.48 2402.74 2909.48 2351.04C2909.48 2299.34 2655.84 2257.43 2342.95 2257.43C2030.06 2257.43 1776.42 2299.34 1776.42 2351.04C1776.42 2402.74 2030.06 2444.65 2342.95 2444.65Z" fill="#371A45"/>
</g>
<path d="M1586.73 825.87C1507.89 875.08 1184.74 1252.86 763.34 1360.23L660.07 1163.99L601.48 1052.61C800.38 1001.26 1027.6 883.29 1246.83 684.08C1246.83 684.08 1265.15 524.53 1311.66 511.88C1373.83 495 1370.08 613.23 1370.08 613.23C1370.08 613.23 1430.37 577.19 1476.97 567.33C1519.16 558.39 1542.85 550.88 1575.74 558.39C1618.67 568.21 1647.33 605.25 1661.12 651.41C1661.91 653.98 1662.6 656.6 1663.3 659.22C1677.3 713.54 1690.39 761.09 1586.73 825.88V825.87Z" fill="#F2F2F2"/>
<path d="M1039.24 848.03C1007.48 1008.84 851.51 1134.89 655.88 1156.04L601.48 1052.6C737.99 1017.35 887.81 950.73 1039.24 848.03Z" fill="#F2F2F2"/>
<path d="M1586.73 825.87C1507.89 875.08 1184.74 1252.86 763.34 1360.23L660.07 1163.99L861.63 1105.35C861.63 1105.35 1012.06 1122.37 1169.34 1048.72C1347.95 965.08 1372.08 703.53 1371.56 621.69C1444.46 729.98 1361.53 781.54 1470.12 791.19C1557.46 798.96 1627.75 723.611 1661.12 651.411C1661.91 653.981 1662.6 656.6 1663.3 659.22C1677.3 713.54 1690.39 761.09 1586.73 825.88V825.87Z" fill="#D8D8D8"/>
<path d="M763.34 1376.22C756.21 1376.22 749.7 1371.41 747.86 1364.17C745.68 1355.62 750.85 1346.91 759.4 1344.73C1082.68 1262.36 1346.37 1019.91 1488.03 889.661C1529.44 851.591 1559.36 824.081 1578.23 812.291C1671.29 754.151 1661.55 716.441 1648.08 664.241L1647.81 663.191C1635.28 614.611 1607.71 582.101 1572.19 573.991C1547.16 568.271 1528.07 572.481 1496.45 579.451C1491.35 580.571 1485.98 581.751 1480.28 582.961C1436.81 592.171 1378.87 626.611 1378.29 626.961C1373.27 629.961 1367.02 629.981 1361.98 627.021C1356.94 624.061 1353.92 618.581 1354.11 612.741C1354.86 587.571 1349.88 542.751 1333.28 529.661C1330.17 527.211 1325.39 524.721 1315.87 527.311C1294.28 533.171 1270.95 614.031 1262.71 685.881C1262.27 689.731 1260.45 693.281 1257.58 695.891C998.69 931.191 760.06 1028.16 605.46 1068.08C596.92 1070.26 588.19 1065.15 585.98 1056.6C583.77 1048.05 588.91 1039.33 597.46 1037.12C747.69 998.341 979.32 904.231 1231.66 676.231C1237.33 630.561 1257 510.171 1307.49 496.461C1329.23 490.551 1344.3 497.621 1353.11 504.581C1375.78 522.481 1383 560.351 1385.21 586.611C1407.85 574.771 1443.11 558.161 1473.65 551.691C1479.27 550.501 1484.55 549.341 1489.57 548.231C1523.09 540.851 1547.3 535.521 1579.31 542.831C1626.9 553.701 1663.15 594.661 1678.77 655.221L1679.04 656.271C1693.33 711.631 1708.11 768.871 1595.18 839.421C1578.83 849.641 1548.31 877.701 1509.68 913.221C1365.94 1045.38 1098.4 1291.37 767.3 1375.74C765.97 1376.08 764.65 1376.24 763.34 1376.24V1376.22Z" fill="#371A45"/>
<path d="M1187.08 1173.73C1184.11 1173.73 1181.11 1172.91 1178.44 1171.18C1016.53 1066.82 1031.95 849.541 1032.69 840.341C1033.39 831.541 1041.09 824.961 1049.9 825.681C1058.7 826.381 1065.27 834.091 1064.56 842.891C1064.35 845.721 1050.38 1050.6 1195.76 1144.3C1203.18 1149.09 1205.32 1158.98 1200.54 1166.4C1197.48 1171.14 1192.34 1173.72 1187.09 1173.72L1187.08 1173.73Z" fill="#371A45"/>
<path d="M116.11 1057.39C41.9497 1141.47 26.5898 1471.63 85.7498 1654.25C144.91 1836.87 478.1 1782.25 665.72 1736.95C853.34 1691.65 763.96 1264.71 737.72 1150.82C696.74 972.98 226 932.81 116.11 1057.39V1057.39Z" fill="#F2F2F2"/>
<path d="M665.73 1736.95C478.11 1782.25 144.93 1836.85 85.7303 1654.24C78.0003 1630.32 71.5203 1603.9 66.3203 1575.8C127 1605.97 192.1 1554.38 190.45 1502.41C185.14 1335.38 207.16 1216.62 236.16 1133.77C269.73 1037.89 366.68 978.26 467.25 992.61C598.25 1011.3 717.97 1065.03 737.71 1150.82C763.98 1264.69 853.35 1691.63 665.73 1736.93V1736.95Z" fill="#D8D8D8"/>
<path d="M349.2 1797.59C215.28 1797.59 104.12 1762.87 70.5399 1659.19C8.22992 1466.84 26.4299 1134.9 104.12 1046.82L116.11 1057.4L104.12 1046.82C178.37 962.65 388.86 952.23 541.3 990.86C661.81 1021.4 737.1 1076.93 753.3 1147.24C772.56 1230.83 795.94 1354.57 797.9 1469.34C800.76 1635.96 757.55 1731.23 669.47 1752.5C565.64 1777.57 450.86 1797.59 349.2 1797.59V1797.59ZM363.13 1000.93C258.54 1000.93 166.11 1024.88 128.1 1067.97C58.8799 1146.45 43.65 1472.45 100.95 1649.33C155.21 1816.81 475.73 1766.38 661.96 1721.41C829.69 1680.91 750.43 1277.19 722.14 1154.41C708.96 1097.21 640.18 1048.9 533.45 1021.85C477.47 1007.67 418.58 1000.93 363.13 1000.93V1000.93Z" fill="#371A45"/>
<path d="M199.79 1367.04L109.02 1351.04C88.4999 1347.42 69.4099 1362.58 68.3899 1383.39C64.8899 1454.98 67.0199 1601.42 141.37 1616.04C231.47 1633.76 240.98 1532.1 228.26 1397.78C226.8 1382.31 215.09 1369.74 199.78 1367.04H199.79Z" fill="#F2F2F2"/>
<g opacity="0.25">
<path d="M228.049 1397.6C241.079 1531.88 231.799 1633.6 141.659 1616.05C104.639 1608.9 85.4395 1568.97 75.9395 1521.88C85.6395 1533.91 97.7095 1542.27 112.779 1545.18C193.469 1560.85 209.399 1480.96 202.409 1367.63C216.329 1371.17 226.689 1383.12 228.049 1397.6V1397.6Z" fill="#371A45"/>
</g>
<path d="M160.79 1634.01C153.77 1634.01 146.38 1633.26 138.62 1631.75C54.0895 1615.32 48.1895 1468.74 52.1995 1382.83C52.8695 1368.35 59.7495 1354.85 71.0595 1345.77C82.3995 1336.67 97.1295 1332.88 111.46 1335.38L202.26 1351.18C224.64 1355.07 241.79 1373.52 243.98 1396.06C255.84 1518.4 246.16 1584 211.6 1615.41C197.98 1627.79 180.95 1634.01 160.78 1634.01H160.79ZM102.68 1366.6C98.4695 1366.6 94.4395 1368.02 91.0695 1370.72C86.8495 1374.1 84.3895 1378.93 84.1395 1384.31C78.2295 1511.07 100.879 1591.83 144.719 1600.36C164.619 1604.22 179.47 1601.41 190.1 1591.74C227.53 1557.72 215.96 1438.37 212.15 1399.14C211.35 1390.88 205.03 1384.11 196.78 1382.68L105.969 1366.88C104.859 1366.68 103.76 1366.59 102.67 1366.59L102.68 1366.6Z" fill="#371A45"/>
<path d="M101.56 1070.79C112.77 1072.37 123.59 1074.12 134.56 1076C145.48 1077.88 156.38 1079.9 167.25 1082.06C188.99 1086.41 210.64 1091.35 232.06 1097.57C236.31 1098.8 238.75 1103.25 237.52 1107.49C236.38 1111.42 232.49 1113.81 228.55 1113.16H228.48C207.19 1109.69 185.61 1107.46 163.98 1105.81C153.16 1105 142.33 1104.33 131.49 1103.8C120.69 1103.28 109.73 1102.86 99.12 1102.66H99.04C90.19 1102.5 83.1601 1095.19 83.3201 1086.35C83.4801 1077.5 90.7901 1070.47 99.6301 1070.63C100.26 1070.64 100.97 1070.7 101.57 1070.78L101.56 1070.79Z" fill="#371A45"/>
<path d="M998.091 2263.7C998.251 2279.08 991.431 2295.89 973.711 2313.82C919.551 2368.5 643.791 2369.33 610.691 2274.77C590.871 2218.15 602.251 2121.29 608.231 1851.09C609.931 1775.16 607.361 1623.94 600.701 1530.06L929.581 1487.32C929.581 1487.32 938.061 1588.3 941.591 1716.57C945.871 1872.43 942.821 2068.53 908.281 2172.77C908.281 2172.77 997.491 2208.97 998.081 2263.72L998.091 2263.7Z" fill="#F2F2F2"/>
<path d="M998.091 2263.7C998.251 2279.08 991.431 2295.89 973.711 2313.82C919.551 2368.5 643.791 2369.33 610.691 2274.77C590.871 2218.15 602.251 2121.29 608.231 1851.09C609.931 1775.16 607.361 1623.94 600.701 1530.06L929.581 1487.32C929.581 1487.32 938.061 1588.3 941.591 1716.57C923.271 1753.76 883.741 1808.79 800.801 1851.49C713.611 1896.37 658.581 1986.14 659.651 2084.19C660.321 2148.1 669.051 2209.96 696.601 2235.81C761.031 2296.27 937.311 2298.57 998.091 2263.72V2263.7Z" fill="#D8D8D8"/>
<path d="M815.51 2366.96C778.94 2366.96 742.2 2363.36 710.98 2356.32C647.99 2342.1 608.09 2315.73 595.59 2280.05C580.18 2236.04 582.28 2173.19 586.89 2035.48C588.55 1985.92 590.61 1924.24 592.25 1850.72C593.96 1773.77 591.3 1623.6 584.74 1531.16C584.12 1522.35 590.75 1514.7 599.56 1514.08C608.32 1513.51 616.01 1520.09 616.64 1528.89C623.26 1622.21 625.95 1773.77 624.22 1851.43C622.58 1925.13 620.51 1986.91 618.85 2036.55C614.37 2170.14 612.33 2231.12 625.77 2269.48C634.31 2293.86 667.07 2313.63 718.02 2325.13C814.01 2346.8 934.61 2330.57 962.34 2302.58C978.14 2286.64 984.37 2271.77 981.38 2257.15C974.57 2223.78 921.96 2195.6 902.26 2187.56L888.42 2181.91L893.11 2167.72C954.32 1983.02 914.08 1493.56 913.66 1488.64C912.92 1479.84 919.45 1472.11 928.25 1471.37C937.07 1470.72 944.78 1477.17 945.52 1485.96C947.19 1505.85 984.9 1964.8 927.7 2164.01C952.91 2176.4 1003.62 2206.4 1012.69 2250.68C1017.93 2276.25 1008.63 2301.28 985.04 2325.08C957.01 2353.37 886.57 2366.96 815.5 2366.96H815.51Z" fill="#371A45"/>
<path d="M795.66 2012.82C687.57 2012.82 604.14 1979.49 599.22 1977.48C591.04 1974.15 587.12 1964.81 590.46 1956.64C593.79 1948.47 603.12 1944.55 611.29 1947.88C612.91 1948.54 774.81 2012.96 933.76 1959.08C942.12 1956.25 951.2 1960.73 954.03 1969.09C956.86 1977.45 952.38 1986.53 944.02 1989.36C892.86 2006.7 841.99 2012.83 795.65 2012.83L795.66 2012.82Z" fill="#371A45"/>
<path d="M757.371 2176.4C769.661 2177.51 782.491 2177.93 795.031 2177.9C807.621 2177.83 820.181 2177.33 832.561 2176.08C844.911 2174.76 857.131 2172.95 868.861 2170.09C880.521 2167.13 891.711 2163.28 901.641 2158.2L901.911 2158.06C909.791 2154.03 919.441 2157.15 923.461 2165.02C927.491 2172.89 924.371 2182.55 916.501 2186.57C915.991 2186.83 915.461 2187.07 914.931 2187.27C887.561 2197.76 860.241 2199.98 833.641 2200.03C820.321 2199.99 807.121 2199.14 794.031 2197.85C780.881 2196.5 768.051 2194.76 754.881 2192.18C750.551 2191.33 747.721 2187.13 748.571 2182.8C749.361 2178.75 753.081 2176.02 757.101 2176.37L757.371 2176.39V2176.4Z" fill="#371A45"/>
<path d="M902.11 1571.47C863.46 1689.83 774.24 1774.56 614.99 1778.83C512.86 1781.53 351.96 1746.68 305.67 1620.29C301.87 1609.95 298.86 1599 296.68 1587.39C280.84 1502.36 290.22 1406.64 304.66 1299.58C310.24 1258.09 316.57 1214.94 322.5 1170C339.34 1042.34 433.8 900.68 410.02 745.45L861.62 1105.34C893.51 1250.93 929.59 1487.3 902.11 1571.46V1571.47Z" fill="#F2F2F2"/>
<path d="M848.8 1095.1C777.21 1135.54 690.69 1159.15 597.59 1159.15C504.49 1159.15 413.17 1134.19 340.4 1091.66C372.42 985.081 429.05 869.641 410.03 745.471L848.8 1095.11V1095.1Z" fill="#F2F2F2"/>
<path d="M1039.24 848.03C1007.48 1008.84 851.51 1134.89 655.88 1156.04L601.48 1052.6C737.99 1017.35 887.81 950.73 1039.24 848.03Z" fill="#D8D8D8"/>
<path d="M452.57 965.08L420.15 1128.73C369.58 1110.62 323.86 1084.93 285.03 1053.38C341.22 1013.55 399.86 983.27 452.56 965.08H452.57Z" fill="#D8D8D8"/>
<path d="M848.8 1095.1C777.21 1135.54 690.69 1159.15 597.59 1159.15C504.49 1159.15 413.17 1134.19 340.4 1091.66C372.42 985.081 429.05 869.641 410.03 745.471L848.8 1095.11V1095.1Z" fill="#D8D8D8"/>
<path d="M506.19 1585.61C417.15 1609.3 352.53 1618.99 305.68 1620.29C301.88 1609.95 298.87 1599 296.69 1587.39C280.85 1502.36 290.23 1406.64 304.67 1299.58L387.04 1295.83C387.04 1295.83 351.71 1515.27 506.19 1585.61V1585.61Z" fill="#D8D8D8"/>
<path d="M869.441 1103.65C876.941 1124.63 882.961 1145.98 888.311 1167.48C893.731 1188.97 898.201 1210.66 902.251 1232.43C909.801 1276.06 916.801 1319.85 921.471 1364.06C926.071 1408.28 929.381 1452.76 928.241 1498.01C927.441 1520.69 925.951 1543.49 920.241 1567.13L917.651 1576.07L914.851 1584.24C913.021 1589.67 910.881 1595.01 908.811 1600.36C904.521 1611.03 899.681 1621.5 894.451 1631.79C873.311 1672.78 842.991 1710.06 804.751 1737.12C766.661 1764.4 721.941 1781.04 676.751 1788.82C631.471 1796.59 585.421 1796.69 540.341 1790.64C495.311 1784.53 450.641 1772.56 409.201 1751.74C388.531 1741.32 368.791 1728.5 351.061 1712.95C333.361 1697.4 317.791 1678.98 305.871 1658.3C293.901 1637.65 285.701 1614.88 281.251 1591.67C277.271 1569.1 274.491 1546.54 273.421 1523.94C271.121 1478.77 273.661 1433.95 277.881 1389.7C282.221 1345.44 288.201 1301.62 294.281 1257.98L303.361 1192.63L305.561 1176.31L306.661 1168.15L307.931 1159.62C309.671 1148.25 311.941 1137.05 314.571 1126.02C325.081 1081.83 340.451 1040.09 354.511 998.57C368.691 957.11 381.961 915.781 390.011 873.791C398.181 831.901 400.521 789.291 394.271 747.871V747.811C392.941 739.081 398.951 730.931 407.691 729.621C416.421 728.301 424.561 734.301 425.881 743.041C432.811 788.801 430.081 835.391 421.411 879.811C412.861 924.371 399.051 967.101 384.771 1008.89C370.581 1050.7 355.531 1091.81 345.681 1133.36C343.211 1143.74 341.101 1154.13 339.521 1164.52L338.351 1172.32L337.251 1180.52L335.041 1196.93L325.951 1262.39C319.891 1305.95 313.961 1349.39 309.711 1392.76C305.571 1436.1 303.171 1479.46 305.351 1522.26C306.351 1543.65 309.021 1564.85 312.651 1585.63C316.491 1605.64 323.441 1624.85 333.551 1642.31C353.651 1677.44 386.421 1704.54 423.621 1723.22C460.941 1742 502.481 1753.28 544.581 1758.97C586.731 1764.64 629.731 1764.48 671.271 1757.34C712.701 1750.19 752.521 1735.21 786.171 1711.12C819.891 1687.17 846.941 1654.39 865.881 1617.08C870.571 1607.73 874.941 1598.18 878.821 1588.4C880.681 1583.48 882.631 1578.59 884.291 1573.58L886.811 1566.12L888.771 1559.2C893.371 1539.97 894.761 1518.56 895.181 1497.29C895.501 1475.91 894.621 1454.3 893.291 1432.66C891.981 1411.02 890.051 1389.33 887.721 1367.66C879.371 1280.71 862.041 1194.92 853.851 1107.08C853.441 1102.65 856.691 1098.73 861.121 1098.31C864.861 1097.96 868.241 1100.23 869.451 1103.61V1103.66L869.441 1103.65Z" fill="#371A45"/>
<path d="M631.311 1778.14C605.261 1900.73 592.22 2225.94 540.48 2304.91C482.89 2392.82 225.35 2366.25 196.69 2355.61C172.13 2346.49 140.37 2328.78 139.06 2275.99C139.02 2274.72 139.021 2273.42 139.021 2272.11C139.151 2206.45 220.43 2180.62 220.43 2180.62C220.43 2180.62 239.931 1977.23 266.331 1794.95C278.421 1711.31 291.94 1632.17 305.68 1579.12L911.85 1522.32C924.76 1745.52 631.32 1778.16 631.32 1778.16L631.311 1778.14Z" fill="#F2F2F2"/>
<path d="M631.311 1778.14C605.261 1900.73 592.221 2225.94 540.481 2304.91C482.891 2392.82 225.351 2366.25 196.691 2355.61C172.131 2346.49 140.371 2328.78 139.061 2275.99C159.571 2295.1 206.331 2318.57 312.611 2318.57C491.831 2318.57 517.791 2164 532.581 2055.75C555.831 1885.21 533.891 1707.34 266.321 1794.94C278.411 1711.3 291.931 1632.16 305.671 1579.11L911.841 1522.31C924.751 1745.51 631.311 1778.15 631.311 1778.15V1778.14Z" fill="#D8D8D8"/>
<path d="M328.52 2383.75C266.18 2383.75 207.24 2376.55 191.13 2370.57C174.24 2364.29 122.82 2345.16 123.01 2272.05C123.16 2210.08 181.4 2179.28 205.48 2169.18C212.09 2102.11 249.82 1730.89 290.18 1575.1C292.39 1566.55 301.12 1561.4 309.66 1563.64C318.21 1565.85 323.34 1574.58 321.13 1583.12C278.25 1748.62 236.75 2177.82 236.34 2182.14L235.33 2192.65L225.26 2195.85C224.59 2196.06 155.1 2219.08 154.97 2272.13C154.86 2316.81 177.63 2331.44 202.26 2340.6C230.82 2351.22 476.45 2373.44 527.09 2296.14C558.65 2247.97 576.39 2088.33 590.65 1960.06C598.75 1887.24 606.39 1818.46 615.66 1774.84L618.06 1763.55L629.53 1762.28C630.23 1762.2 701.56 1753.86 769.94 1719.31C858.45 1674.58 900.82 1608.61 895.89 1523.22C895.38 1514.4 902.11 1506.85 910.93 1506.34C919.71 1505.9 927.3 1512.56 927.81 1521.38C933.48 1619.52 883.61 1697.97 783.59 1748.24C726.37 1777 668.87 1788.55 644.76 1792.41C636.75 1834.81 629.78 1897.53 622.44 1963.61C606.29 2108.88 589.59 2259.11 553.85 2313.67C526.32 2355.7 460.55 2379.09 358.38 2383.18C348.45 2383.58 338.44 2383.76 328.52 2383.76V2383.75Z" fill="#371A45"/>
<path d="M473.23 1973C332.29 1973 247.54 1933.23 243.02 1931.06C235.06 1927.23 231.71 1917.68 235.54 1909.72C239.36 1901.77 248.9 1898.43 256.85 1902.23C258.2 1902.87 394.21 1966.17 605.67 1929.28C614.36 1927.75 622.65 1933.58 624.17 1942.28C625.69 1950.98 619.87 1959.26 611.17 1960.78C560.76 1969.58 514.58 1973 473.23 1973V1973Z" fill="#371A45"/>
<path d="M1386.07 613.24C1385.77 614.36 1387.19 619.45 1389.14 624.23C1391.12 629.2 1393.7 634.77 1396.11 640.48C1401.02 651.93 1405.56 664.54 1407.82 677.81C1410.16 691.07 1410.14 704.84 1408.03 718.02L1406.14 727.84L1403.3 737.31C1402.45 740.51 1401.23 743.52 1399.94 746.5L1396.19 755.48C1393.65 761.58 1386.64 764.46 1380.54 761.92C1374.65 759.46 1371.76 752.85 1373.86 746.9L1374.25 745.79C1377.92 735.45 1381.52 725.06 1382.28 714.5C1383.33 703.99 1382.77 693.54 1380.38 683.33C1378.03 673.08 1373.91 663.18 1368.82 652.93C1366.28 647.74 1363.53 642.6 1360.72 636.6C1360.02 635.21 1359.33 633.55 1358.65 631.89C1357.99 630.15 1357.25 628.81 1356.67 626.7C1356.08 624.7 1355.45 622.85 1354.97 620.68C1354.58 618.23 1354.28 615.74 1354.08 613.26L1353.84 610.39C1353.1 601.36 1359.82 593.44 1368.85 592.7C1377.88 591.96 1385.8 598.68 1386.54 607.71C1386.7 609.61 1386.5 611.52 1386.05 613.26L1386.07 613.24Z" fill="#371A45"/>
<path d="M927.749 1531.28C959.112 1526.09 980.327 1496.46 975.135 1465.09C969.943 1433.73 940.31 1412.52 908.947 1417.71C877.585 1422.9 856.369 1452.53 861.561 1483.9C866.753 1515.26 896.387 1536.47 927.749 1531.28Z" fill="#F2F2F2"/>
<path d="M975.93 1471.86C977.33 1503.62 952.74 1530.53 920.98 1531.93C889.22 1533.33 862.31 1508.7 860.9 1476.94C860.51 1468.17 862.11 1459.72 865.34 1452.11C875.43 1471.12 895.86 1483.73 918.8 1482.71C941.74 1481.7 960.98 1467.34 969.3 1447.51C973.19 1454.8 975.53 1463.08 975.92 1471.85L975.93 1471.86Z" fill="#D8D8D8"/>
<path d="M918.4 1547.96C879.32 1547.96 846.7 1517.07 844.96 1477.66C843.17 1437.14 874.68 1402.72 915.19 1400.93C934.78 1400.06 953.6 1406.89 968.1 1420.15C982.59 1433.42 991.05 1451.53 991.92 1471.16C993.71 1511.67 962.21 1546.09 921.69 1547.88C920.59 1547.93 919.5 1547.95 918.41 1547.95L918.4 1547.96ZM918.49 1432.83C917.86 1432.83 917.24 1432.84 916.61 1432.87C893.7 1433.88 875.89 1453.34 876.91 1476.24C877.92 1499.14 897.49 1517.04 920.28 1515.94C943.18 1514.92 960.99 1495.47 959.98 1472.57C959.49 1461.47 954.71 1451.23 946.52 1443.73C938.8 1436.66 928.91 1432.82 918.5 1432.82L918.49 1432.83Z" fill="#371A45"/>
<path d="M858.491 1624.98L557.611 1633.47C522.001 1634.49 492.011 1606.16 491.001 1570.51L486.491 1410.4C485.611 1379.18 507.221 1352.34 536.541 1345.46C540.691 1344.46 545.011 1343.91 549.451 1343.78L850.291 1335.29C885.951 1334.27 915.941 1362.6 916.901 1398.25L920.501 1525.06L921.451 1558.36C922.461 1594.02 894.101 1623.96 858.491 1624.97V1624.98Z" fill="#F2F2F2"/>
<path d="M203.231 1419.68C203.231 1419.68 164.501 1432.26 164.361 1482.69C164.251 1522.2 182.151 1539.05 182.151 1539.05C182.151 1539.05 314.501 1587.22 487.011 1546.23C487.011 1546.23 519.551 1532.86 523.051 1485.89C524.391 1467.95 514.181 1440.37 489.151 1433.84C489.151 1433.84 332.461 1461.17 203.231 1419.68V1419.68Z" fill="#F2F2F2"/>
<path d="M858.491 1624.98L557.611 1633.47C522.001 1634.49 492.011 1606.16 491.001 1570.51L486.491 1410.4C485.611 1379.18 507.221 1352.34 536.541 1345.46C540.691 1344.46 545.011 1343.91 549.451 1343.78L850.291 1335.29C885.951 1334.27 915.941 1362.6 916.901 1398.25L920.501 1525.06L921.451 1558.36C922.461 1594.02 894.101 1623.96 858.491 1624.97V1624.98Z" fill="#F2F2F2"/>
<path d="M203.231 1419.68C203.231 1419.68 164.501 1432.26 164.361 1482.69C164.251 1522.2 182.151 1539.05 182.151 1539.05C182.151 1539.05 314.501 1587.22 487.011 1546.23C487.011 1546.23 519.551 1532.86 523.051 1485.89C524.391 1467.95 514.181 1440.37 489.151 1433.84C489.151 1433.84 332.461 1461.17 203.231 1419.68V1419.68Z" fill="#F2F2F2"/>
<path d="M858.491 1624.98L557.611 1633.47C522.001 1634.49 492.011 1606.16 491.001 1570.51L486.491 1410.4C485.611 1379.18 507.221 1352.34 536.541 1345.46C540.691 1344.46 545.011 1343.91 549.451 1343.78L850.291 1335.29C885.951 1334.27 915.941 1362.6 916.901 1398.25L920.501 1525.06L921.451 1558.36C922.461 1594.02 894.101 1623.96 858.491 1624.97V1624.98Z" fill="#F2F2F2"/>
<path d="M858.491 1624.98L557.611 1633.47C522.001 1634.49 492.011 1606.16 491.001 1570.51L486.491 1410.4C485.611 1379.18 507.221 1352.34 536.551 1345.46C553.961 1356.32 565.011 1363.28 565.011 1363.28C583.291 1491.39 621.691 1554.45 781.361 1552.55C850.281 1551.71 893.471 1539.98 920.511 1525.07L921.461 1558.37C922.471 1594.03 894.111 1623.97 858.501 1624.98H858.491Z" fill="#D8D8D8"/>
<path d="M553.831 1649.55C533.681 1649.55 514.571 1641.93 499.781 1627.96C484.451 1613.46 475.671 1593.93 475.081 1572.96L470.451 1408.85C469.861 1387.88 477.511 1367.88 492.011 1352.54C506.501 1337.2 526.041 1328.43 547.011 1327.84L851.841 1319.23C895.211 1318.1 931.621 1352.35 932.851 1395.79L937.481 1559.9C938.071 1580.87 930.421 1600.87 915.921 1616.2C901.431 1631.54 881.891 1640.31 860.921 1640.9L556.091 1649.51C555.341 1649.53 554.581 1649.54 553.831 1649.54V1649.55ZM854.071 1351.18C853.631 1351.18 853.181 1351.18 852.731 1351.2L547.901 1359.81C535.461 1360.16 523.861 1365.38 515.231 1374.51C506.601 1383.64 502.041 1395.52 502.401 1407.95L507.031 1572.06C507.381 1584.5 512.601 1596.1 521.731 1604.73C530.861 1613.35 542.671 1617.96 555.171 1617.56L860.001 1608.95C885.821 1608.22 906.231 1586.63 905.501 1560.81L900.871 1396.69C900.151 1371.32 879.281 1351.17 854.061 1351.17L854.071 1351.18Z" fill="#371A45"/>
<path d="M870.531 1623.45C866.651 1624.37 862.651 1624.88 858.491 1624.98L557.611 1633.47C531.511 1634.2 508.441 1619.22 497.591 1597.06C493.631 1589.01 491.291 1580.02 491.041 1570.51L489.001 1499.38L488.331 1475.91L486.481 1410.4C485.471 1374.74 513.831 1344.8 549.441 1343.79L614.461 1341.97C584.651 1348.46 562.581 1375.52 563.451 1407.06L565.871 1493.55L567.961 1567.22C568.981 1602.83 598.961 1631.2 634.571 1630.18L870.531 1623.47V1623.45Z" fill="#F2F2F2"/>
<path d="M870.531 1623.45C866.651 1624.37 862.651 1624.88 858.491 1624.98L557.611 1633.47C522.001 1634.49 492.011 1606.16 491.041 1570.51L488.331 1475.91C496.371 1492.41 510.541 1512.55 532.361 1514.09C544.331 1514.96 555.831 1506.04 565.871 1493.54L567.961 1567.21C568.981 1602.82 598.961 1631.19 634.571 1630.17L870.531 1623.46V1623.45Z" fill="#D8D8D8"/>
<path d="M555.701 1649.49C535.081 1649.49 515.511 1641.68 500.361 1627.37C484.631 1612.5 475.641 1592.47 475.041 1570.97L470.521 1410.84C469.241 1366.33 504.451 1329.06 549.001 1327.78L614.001 1325.95L617.861 1357.55C594.941 1362.56 578.781 1383.2 579.441 1406.61L583.961 1566.75C584.321 1579.72 589.761 1591.81 599.281 1600.81C608.791 1609.8 621.251 1614.59 634.111 1614.17L870.111 1607.49L874.131 1639.06C869.111 1640.21 863.981 1640.85 858.861 1640.96L558.071 1649.47C557.281 1649.49 556.501 1649.5 555.711 1649.5L555.701 1649.49ZM561.741 1359.4L549.911 1359.73C522.991 1360.5 501.711 1383.02 502.481 1409.92L507.001 1570.07C507.361 1583.03 512.801 1595.12 522.321 1604.12C531.831 1613.11 544.311 1617.9 557.151 1617.48L570.781 1617.09C559.111 1603.19 552.511 1585.94 552.001 1567.61L547.481 1407.48C546.981 1389.82 552.261 1373.11 561.751 1359.38L561.741 1359.4Z" fill="#371A45"/>
<path d="M684.381 1485.07C684.511 1490.99 677.261 1538.99 677.261 1538.99C677.261 1538.99 662.121 1539.33 643.521 1539.75C620.291 1540.27 600.911 1516.64 600.251 1486.97C599.581 1457.3 617.881 1432.82 641.111 1432.3C656.791 1431.95 674.851 1431.54 674.851 1431.54C674.851 1431.54 684.171 1475.43 684.381 1485.08V1485.07Z" fill="#22A7F0"/>
<path d="M684.381 1485.07C684.511 1490.99 677.261 1538.99 677.261 1538.99C677.261 1538.99 662.121 1539.33 643.521 1539.75C620.291 1540.27 600.911 1516.64 600.251 1486.97C599.581 1457.3 617.881 1432.82 641.111 1432.3C656.791 1431.95 674.851 1431.54 674.851 1431.54C674.851 1431.54 684.171 1475.43 684.381 1485.08V1485.07Z" fill="#1B88EA"/>
<path d="M642.741 1551.75C628.131 1551.75 614.461 1544.87 604.151 1532.29C594.291 1520.26 588.641 1504.26 588.261 1487.24C587.881 1470.22 592.791 1453.99 602.111 1441.53C612.081 1428.19 625.841 1420.65 640.841 1420.31L664.391 1419.78C676.161 1419.46 686.331 1427.67 688.671 1439.16C696.171 1476.03 696.321 1482.64 696.371 1484.81C696.411 1486.55 696.491 1490.67 690.641 1530.53C688.921 1542.24 679.081 1550.94 667.221 1551.2L643.791 1551.73C643.441 1551.73 643.091 1551.73 642.741 1551.73V1551.75ZM665.171 1443.94L641.381 1444.28C633.911 1444.45 626.791 1448.57 621.321 1455.88C615.201 1464.07 611.971 1475.02 612.241 1486.7C612.501 1498.38 616.221 1509.18 622.701 1517.08C628.491 1524.14 635.791 1528.02 643.261 1527.76L666.701 1527.23C670.891 1500.02 672.351 1487.67 672.401 1485.27C672.301 1481.95 670.361 1469.39 665.181 1443.93L665.171 1443.94Z" fill="#371A45"/>
<path d="M677.34 1538.95C700.574 1538.42 718.867 1513.95 718.199 1484.27C717.531 1454.6 698.154 1430.97 674.92 1431.49C651.686 1432.02 633.392 1456.5 634.06 1486.17C634.729 1515.84 654.105 1539.47 677.34 1538.95Z" fill="#22A7F0"/>
<g opacity="0.7">
<path d="M717.471 1495.38C712.921 1471.07 695.611 1453.15 675.361 1453.62C655.021 1454.08 638.521 1472.83 635.121 1497.38C634.441 1493.79 634.061 1490.06 633.971 1486.21C633.341 1456.53 651.631 1432.06 674.861 1431.54C698.091 1431.02 717.451 1454.62 718.131 1484.3C718.221 1488.1 717.981 1491.81 717.471 1495.37V1495.38Z" fill="#F2F2F2"/>
</g>
<path d="M677.281 1538.97C654.051 1539.53 634.641 1515.88 633.971 1486.21C633.831 1479.39 634.671 1472.87 636.351 1466.81C642.861 1486.84 658.511 1500.79 676.411 1500.37C694.311 1499.95 709.281 1485.37 714.881 1465.11C716.841 1471.03 717.991 1477.54 718.131 1484.31C718.801 1513.99 700.511 1538.46 677.281 1538.98V1538.97Z" fill="#1B88EA"/>
<path d="M676.491 1550.99C661.881 1550.99 648.211 1544.11 637.901 1531.53C628.041 1519.5 622.391 1503.5 622.011 1486.48C621.631 1469.46 626.541 1453.23 635.861 1440.76C645.831 1427.42 659.591 1419.88 674.591 1419.54C689.611 1419.11 703.671 1426.11 714.231 1438.99C724.091 1451.02 729.741 1467.02 730.121 1484.04C730.501 1501.06 725.591 1517.29 716.271 1529.76C706.301 1543.1 692.541 1550.64 677.541 1550.98C677.191 1550.98 676.841 1550.98 676.491 1550.98V1550.99ZM675.601 1443.51C675.441 1443.51 675.291 1443.51 675.121 1443.51C667.651 1443.68 660.531 1447.8 655.061 1455.11C648.941 1463.3 645.711 1474.25 645.981 1485.94C646.241 1497.62 649.961 1508.42 656.441 1516.32C662.231 1523.38 669.431 1527.33 677.001 1527C684.471 1526.83 691.591 1522.71 697.061 1515.4C703.181 1507.21 706.411 1496.26 706.141 1484.57C705.881 1472.89 702.161 1462.09 695.681 1454.19C690.021 1447.28 682.901 1443.5 675.601 1443.5V1443.51Z" fill="#371A45"/>
<path d="M764.921 1638.45C758.331 1638.45 752.961 1633.12 752.931 1626.51L752.561 1545.46C752.451 1522.6 763.741 1501.35 782.751 1488.64C795.351 1480.21 802.651 1466.13 802.281 1450.97L799.451 1336.76C799.291 1330.14 804.521 1324.64 811.141 1324.47C817.911 1324.51 823.261 1329.54 823.431 1336.16L826.261 1450.37C826.841 1473.79 815.561 1495.54 796.091 1508.56C783.791 1516.79 776.481 1530.54 776.551 1545.34L776.921 1626.39C776.951 1633.01 771.611 1638.4 764.981 1638.44H764.921V1638.45Z" fill="#371A45"/>
<path d="M203.231 1419.68C203.231 1419.68 164.501 1432.26 164.361 1482.69C164.251 1522.2 182.151 1539.05 182.151 1539.05C182.151 1539.05 314.501 1587.22 487.011 1546.23C487.011 1546.23 519.551 1532.86 523.051 1485.89C524.391 1467.95 514.181 1440.37 489.151 1433.84C489.151 1433.84 332.461 1461.17 203.231 1419.68V1419.68Z" fill="#F2F2F2"/>
<g opacity="0.25">
<path d="M523.041 1485.9C519.561 1532.84 487.011 1546.22 487.011 1546.22C314.511 1587.21 182.141 1539.03 182.141 1539.03C182.141 1539.03 164.241 1522.23 164.361 1482.69C164.411 1470.72 166.601 1460.89 169.991 1452.83C174.101 1479.57 186.501 1491.19 186.501 1491.19C186.501 1491.19 318.871 1539.37 491.371 1498.38C491.371 1498.38 510.081 1490.68 520.601 1466.52C522.731 1473.28 523.471 1480.1 523.041 1485.9Z" fill="#371A45"/>
</g>
<path d="M345.171 1578.85C246.391 1578.85 180.581 1555.48 176.691 1554.06L173.601 1552.93L171.201 1550.68C168.851 1548.47 148.251 1527.78 148.371 1482.63C148.541 1421.33 196.261 1405.12 198.291 1404.46L203.201 1402.86L208.121 1404.44C332.171 1444.27 484.891 1418.34 486.411 1418.07L489.831 1417.47L493.191 1418.35C524.461 1426.51 541.031 1459.69 538.991 1487.06C534.801 1543.22 494.791 1560.29 493.091 1560.99L490.711 1561.76C437.551 1574.4 388.211 1578.84 345.171 1578.84V1578.85ZM191.451 1525.28C213.941 1532.41 332.961 1565.95 481.711 1531.04C485.831 1528.85 504.701 1517.09 507.111 1484.69C507.821 1475.13 502.831 1456.12 487.961 1450.23C462.471 1454.25 324.441 1473.31 204.201 1436.72C196.271 1441.04 180.431 1453.35 180.351 1482.72C180.281 1506.88 187.821 1520.24 191.451 1525.27V1525.28Z" fill="#371A45"/>
<path d="M470.981 1706.33C445.151 1714.4 424.601 1694.86 392.271 1694.86C359.941 1694.86 316.271 1713.75 288.431 1709.26C216.791 1697.57 47.7806 1646.92 38.7906 1467.3C38.4806 1461.32 38.3506 1455.39 38.3506 1449.46C39.0006 1217.62 278.301 1025.26 452.561 965.101L387.031 1295.85C387.031 1295.85 320.721 1379.05 341.311 1413.17C358.281 1441.35 411.381 1425.69 457.711 1442.23C483.581 1451.44 515.211 1488.3 526.511 1517.18C538.861 1548.64 537.641 1685.54 470.971 1706.35L470.981 1706.33Z" fill="#F2F2F2"/>
<path d="M452.57 965.08L420.15 1128.73C369.58 1110.62 323.86 1084.93 285.03 1053.38C341.22 1013.55 399.86 983.27 452.56 965.08H452.57Z" fill="#D8D8D8"/>
<path d="M470.981 1706.33C445.151 1714.4 424.601 1694.86 392.271 1694.86C359.941 1694.86 316.271 1713.75 288.431 1709.26C216.791 1697.57 47.7806 1646.92 38.7906 1467.3C38.4806 1461.32 38.3506 1455.39 38.3506 1449.46C50.6506 1501.2 81.1906 1556.04 150.081 1590.73C240.831 1636.45 279.521 1628.99 340.561 1618.04C401.551 1607.05 506.171 1709.96 526.501 1517.17C538.851 1548.63 537.631 1685.53 470.961 1706.34L470.981 1706.33Z" fill="#D8D8D8"/>
<path d="M457.79 980.181C388.15 1004.62 322.88 1043.17 264.23 1088.88C205.82 1134.97 153.53 1189.54 114.85 1252.42L107.71 1264.25L101.09 1276.35C96.51 1284.34 92.8199 1292.74 88.7399 1300.97C81.2999 1317.71 74.38 1334.71 69.34 1352.24C63.83 1369.65 60.28 1387.54 57.53 1405.48C56.62 1414.51 55.1699 1423.49 55.0099 1432.57C54.8199 1437.1 54.5 1441.62 54.4 1446.15L54.64 1459.74C55.44 1495.79 63.4499 1531.24 80.3199 1562.28C97.0599 1593.34 122.06 1619.72 151.81 1639.83C181.52 1660.06 215.43 1674.69 250.62 1684.5C259.43 1686.95 268.32 1689.09 277.26 1690.9C281.73 1691.78 286.21 1692.61 290.69 1693.34C294.09 1693.74 297.45 1694.01 301.51 1693.71C309.42 1693.27 318.19 1691.66 327.15 1689.74L355.02 1683.47C364.67 1681.44 374.64 1679.49 385.58 1678.8C396.64 1678.03 408.49 1679.4 418.8 1682.01C429.14 1684.61 438.44 1688.09 446.28 1690.1C450.17 1691.05 453.77 1691.74 456.89 1691.81C460.01 1691.83 462.84 1691.55 465.67 1690.69C478.36 1686.98 489 1675.76 496.54 1661.2C504.11 1646.64 508.85 1629.48 511.79 1612C514.67 1594.46 515.85 1576.32 515.36 1558.51C515.11 1549.63 514.34 1540.75 512.92 1532.67C512.54 1530.72 512.16 1528.68 511.69 1527.03C511.46 1526.19 511.24 1525.25 510.99 1524.66C510.76 1523.99 510.59 1523.36 510.12 1522.36C508.61 1518.76 506.87 1515.06 504.77 1511.43C496.53 1496.86 485.21 1482.85 472.71 1471.83C466.49 1466.38 459.73 1461.58 453.72 1459.05C452.42 1458.39 450.4 1457.77 448.43 1457.16C446.47 1456.56 444.59 1455.83 442.52 1455.41L436.41 1453.93L430.08 1452.77C421.51 1451.38 412.56 1450.52 403.24 1449.83C393.89 1449.12 384.14 1448.59 373.64 1447.09C368.41 1446.33 362.92 1445.3 357.15 1443.5C354.37 1442.83 351.25 1441.29 348.35 1440.11C345.4 1438.76 342.36 1436.75 339.48 1434.88C333.71 1430.24 328.8 1424.92 325.41 1417.71C322.12 1410.55 321.21 1403.34 321.23 1396.94C321.23 1390.46 322.25 1384.65 323.56 1379.18C324.85 1373.66 326.57 1368.54 328.46 1363.59C332.3 1353.72 337 1344.66 342.32 1336.13C353.16 1319.17 365.46 1303.93 380.8 1290.89C384.23 1287.98 389.36 1288.39 392.28 1291.82C394.4 1294.32 394.76 1297.73 393.46 1300.52L393.3 1300.86C385.37 1317.91 376.38 1334.35 368.78 1350.68C364.93 1358.82 361.26 1366.89 358.4 1374.84C355.5 1382.67 353.47 1390.76 353.57 1396.97C353.6 1400.05 354.14 1402.46 354.88 1403.94C355.09 1404.64 355.96 1405.43 356.53 1406.29C357.03 1407.24 358.2 1407.64 358.85 1408.52C362.62 1411.24 369.92 1413.28 378.24 1414.33C395.07 1416.47 415.02 1416.22 435.4 1419.38L443.12 1420.7L450.9 1422.47C453.49 1422.99 456.1 1423.89 458.69 1424.66C461.27 1425.45 463.81 1426.17 466.85 1427.5C478.43 1432.33 487.25 1438.93 495.32 1445.96C511.27 1460.18 524.16 1476.21 534.69 1494.73C537.33 1499.34 539.69 1504.26 541.83 1509.43C542.89 1511.86 544.14 1515.66 544.78 1518.27C545.59 1521.2 546.08 1523.85 546.59 1526.57C548.44 1537.23 549.23 1547.37 549.52 1557.5C550.03 1577.71 548.74 1597.73 545.25 1617.71C541.67 1637.64 536.25 1657.66 526.12 1676.87C521.01 1686.42 514.6 1695.77 506.12 1703.94C497.68 1712.07 487.04 1718.93 475.03 1722.34C468.73 1724.21 461.99 1724.89 455.62 1724.67C449.21 1724.42 443.44 1723.17 438.11 1721.84C427.55 1719 419 1715.72 410.88 1713.69C402.75 1711.67 395.49 1710.82 387.54 1711.28C379.48 1711.73 370.68 1713.33 361.73 1715.19L333.88 1721.33C324.23 1723.33 314.24 1725.26 303.14 1725.85C297.71 1726.23 291.53 1725.91 285.51 1725.04C280.6 1724.22 275.73 1723.3 270.87 1722.32C261.17 1720.31 251.57 1717.95 242.04 1715.32C204.01 1704.7 167.05 1688.88 133.78 1666.26C100.54 1643.82 71.5399 1613.51 52.1599 1577.46C32.5799 1541.48 23.5399 1500.56 22.6699 1460.7L22.4199 1445.76C22.5199 1440.78 22.8599 1435.81 23.0699 1430.84C23.2799 1420.87 24.82 1411.02 25.84 1401.12C28.83 1381.48 32.75 1361.94 38.71 1343.04C44.21 1323.99 51.6499 1305.64 59.6699 1287.64C64.0199 1278.81 68.03 1269.79 72.9 1261.25L79.9799 1248.32L87.58 1235.72C128.78 1168.8 183.57 1111.84 244.45 1063.77C274.98 1039.75 307.32 1018.09 341.07 998.801C358 989.231 375.3 980.301 392.96 972.041C410.7 963.931 428.79 956.481 447.33 949.991C455.66 947.071 464.78 951.461 467.7 959.791C470.62 968.121 466.23 977.241 457.9 980.161L457.76 980.211L457.79 980.181Z" fill="#371A45"/>
<path d="M1145.84 535.3C1147.71 624.62 1127.02 714.97 1082.58 797.62C1073.51 814.47 1063.51 830.97 1052.49 847.07C1047.15 854.92 1041.51 862.68 1035.68 870.4C1017.99 893.56 998.79 914.9 978.27 934.41C960.63 951.27 941.99 966.74 922.61 980.83C899.21 997.86 874.64 1012.83 849.21 1025.76C839.92 1030.45 830.54 1034.88 821.06 1039.05C647.43 1115.09 439.32 1099.06 277.94 979.19C40.1801 802.66 -6.00989 467.72 174.67 231.11C209.5 185.56 250.2 146.88 294.95 115.57C300.15 111.86 305.47 108.29 310.86 104.83C325.22 95.4804 339.93 86.8504 354.97 78.9704C389.76 60.7504 426.26 46.4404 463.69 36.1204C501.1 25.7704 539.54 19.4104 578.19 17.1604C590.48 16.4304 602.78 16.1104 615.13 16.2204C633.63 16.4004 652.12 17.4704 670.62 19.5604C762.72 29.7004 853.2 63.4905 932.39 122.31C1069.16 223.85 1142.52 377.79 1145.82 535.29L1145.84 535.3Z" fill="#F2F2F2"/>
<path d="M600.61 1086.83C485.45 1086.83 371.54 1050.72 276.99 980.49C162.11 895.2 87.9004 770.52 68.0204 629.41C47.9804 487.18 85.4103 345.38 173.41 230.14C207.77 185.21 248.36 146.22 294.05 114.25C298.99 110.72 304.37 107.1 310.01 103.47C324.32 94.15 339.21 85.4201 354.25 77.5401C388.81 59.4401 425.5 44.98 463.29 34.57C500.73 24.21 539.36 17.81 578.12 15.55C590.56 14.82 603.05 14.5 615.17 14.61C634.1 14.8 652.82 15.9201 670.82 17.9601C765.91 28.4301 856.7 64.07 933.37 121.02C1065.96 219.46 1143.99 370.44 1147.45 535.26C1149.37 626.63 1127.42 717.62 1083.99 798.38C1074.79 815.47 1064.64 832.15 1053.81 847.97C1048.87 855.24 1043.35 862.89 1036.96 871.36C1019.46 894.27 1000.09 915.87 979.38 935.57C962.06 952.12 943.28 967.79 923.56 982.13C900.49 998.92 875.73 1014.08 849.95 1027.19C840.7 1031.86 831.2 1036.34 821.72 1040.52C750.82 1071.57 675.45 1086.82 600.62 1086.82L600.61 1086.83ZM610.42 17.81C599.85 17.81 589.07 18.13 578.3 18.77C539.77 21.02 501.36 27.38 464.14 37.68C426.56 48.03 390.09 62.4101 355.73 80.4001C340.78 88.2401 325.98 96.9101 311.75 106.18C306.13 109.78 300.8 113.38 295.9 116.88C250.47 148.67 210.12 187.43 175.96 232.09C88.4804 346.65 51.2804 487.59 71.2004 628.96C90.9604 769.2 164.73 893.13 278.91 977.9C433.97 1093.08 641.46 1115.94 820.42 1037.57C829.85 1033.42 839.29 1028.96 848.49 1024.32C874.11 1011.29 898.73 996.21 921.66 979.52C941.27 965.26 959.94 949.69 977.16 933.24C997.75 913.65 1017.01 892.18 1034.4 869.41C1040.76 860.99 1046.24 853.38 1051.16 846.15C1061.93 830.42 1072.02 813.83 1081.16 796.85C1124.32 716.58 1146.14 626.14 1144.23 535.33C1140.79 371.51 1063.24 221.44 931.45 123.6C855.24 66.99 764.99 31.5601 670.46 21.1501C652.56 19.1301 633.95 18.01 615.13 17.82C613.57 17.81 612 17.8 610.42 17.8V17.81Z" fill="#371A45"/>
<path d="M277.941 979.19C439.311 1099.08 647.461 1115.1 821.071 1039.04C830.551 1034.88 839.931 1030.45 849.201 1025.77C874.641 1012.85 899.201 997.86 922.601 980.85C941.971 966.74 960.631 951.28 978.261 934.43C998.791 914.92 1017.98 893.58 1035.69 870.41C1041.49 862.68 1047.14 854.93 1052.5 847.09C1063.51 830.98 1073.49 814.46 1082.57 797.62C1127.01 714.97 1147.73 624.63 1145.84 535.29C1144.82 486.22 1136.99 437.47 1122.56 390.55C1122.38 475.85 1101.58 561.69 1059.18 640.54C1050.13 657.41 1040.12 673.9 1029.11 690.01C1023.79 697.85 1018.13 705.6 1012.3 713.33C994.591 736.5 975.401 757.84 954.901 777.35C937.241 794.2 918.611 809.66 899.241 823.77C875.841 840.78 851.241 855.77 825.841 868.69C816.531 873.38 807.161 877.81 797.671 881.97C624.061 958.03 415.951 942.01 254.541 822.12C160.361 752.21 96.2908 657.43 64.4208 553.79C63.9908 715.61 137.581 875.01 277.931 979.2L277.941 979.19Z" fill="#D8D8D8"/>
<path d="M600.611 1097.61C483.161 1097.61 366.991 1060.78 270.551 989.15C153.341 902.13 77.621 774.9 57.331 630.92C36.881 485.81 75.061 341.15 164.831 223.59C199.871 177.77 241.261 138.02 287.861 105.41C292.861 101.84 298.381 98.1097 304.191 94.3897C318.721 84.9297 333.901 76.0297 349.241 67.9897C384.481 49.5297 421.891 34.7897 460.431 24.1697C498.591 13.6197 537.981 7.0897 577.491 4.7897C590.171 4.0397 602.881 3.70974 615.271 3.82974C634.571 4.01974 653.671 5.16972 672.041 7.24972C769.001 17.9297 861.611 54.2797 939.811 112.37C1075.09 212.81 1154.71 366.87 1158.24 535.05C1160.19 628.28 1137.81 721.1 1093.5 803.5C1084.12 820.93 1073.76 837.94 1062.72 854.08C1057.7 861.47 1052.08 869.27 1045.57 877.88C1027.69 901.29 1007.94 923.31 986.811 943.4C969.171 960.27 950.011 976.24 929.901 990.87C906.381 1007.99 881.121 1023.45 854.831 1036.82C845.381 1041.59 835.711 1046.15 826.061 1050.4C753.771 1082.06 676.911 1097.61 600.611 1097.61V1097.61ZM610.421 28.5897C600.061 28.5897 589.491 28.8997 578.931 29.5297C541.151 31.7297 503.501 37.9697 467.011 48.0697C430.161 58.2197 394.411 72.3097 360.731 89.9497C346.091 97.6297 331.581 106.13 317.631 115.22C312.101 118.77 306.921 122.27 302.161 125.66C257.551 156.87 218.001 194.86 184.521 238.65C98.811 350.89 62.361 488.97 81.871 627.47C101.231 764.84 173.481 886.22 285.331 969.26C437.301 1082.14 640.681 1104.55 816.091 1027.71C825.331 1023.64 834.601 1019.27 843.631 1014.71C868.711 1001.95 892.841 987.18 915.311 970.82C934.531 956.84 952.831 941.58 969.701 925.46C989.901 906.25 1008.77 885.2 1025.82 862.88C1032.04 854.65 1037.42 847.18 1042.23 840.1C1052.8 824.66 1062.7 808.4 1071.66 791.75C1113.95 713.12 1135.31 624.53 1133.45 535.56C1130.08 375.1 1054.11 228.1 925.021 132.27C850.341 76.7897 761.911 42.0797 669.281 31.8797C651.721 29.8997 633.481 28.7997 615.031 28.6197C613.501 28.6097 611.971 28.5997 610.431 28.5997L610.421 28.5897Z" fill="#371A45"/>
<path d="M600.611 1101.2C482.401 1101.2 365.481 1064.13 268.411 992.03C150.421 904.43 74.2006 776.36 53.7706 631.42C33.1906 485.35 71.6106 339.74 161.971 221.41C197.231 175.3 238.891 135.28 285.791 102.47C290.811 98.8799 296.391 95.1199 302.241 91.3699C316.841 81.8599 332.131 72.8999 347.561 64.8099C383.031 46.2299 420.681 31.3899 459.461 20.7099C497.861 10.0899 537.501 3.51991 577.271 1.19991C590.031 0.449913 602.801 0.119891 615.291 0.239891C634.721 0.429891 653.941 1.58989 672.431 3.67989C770.011 14.4199 863.231 51.0099 941.941 109.49C1078.12 210.59 1158.27 365.68 1161.82 534.98C1163.79 628.83 1141.25 722.27 1096.65 805.2C1087.21 822.74 1076.79 839.87 1065.67 856.11C1060.62 863.54 1054.97 871.38 1048.43 880.05C1030.42 903.62 1010.54 925.79 989.281 946.01C971.531 962.98 952.251 979.06 932.001 993.78C908.331 1011.01 882.911 1026.57 856.451 1040.03C846.931 1044.83 837.211 1049.42 827.501 1053.7C754.741 1085.56 677.401 1101.21 600.601 1101.21L600.611 1101.2ZM610.421 32.1799C600.141 32.1799 589.641 32.4899 579.151 33.1099C541.621 35.2999 504.221 41.4899 467.981 51.5199C431.371 61.6099 395.861 75.5999 362.411 93.1199C347.871 100.75 333.461 109.19 319.601 118.22C314.101 121.75 308.971 125.21 304.251 128.58C259.921 159.6 220.641 197.33 187.381 240.82C102.271 352.28 66.0606 489.42 85.4406 626.95C104.661 763.35 176.411 883.89 287.481 966.35C438.421 1078.46 640.421 1100.7 814.651 1024.4C823.821 1020.36 833.041 1016.01 842.011 1011.48C866.911 998.81 890.881 984.14 913.201 967.9C932.291 954.02 950.471 938.86 967.221 922.84C987.291 903.75 1006.04 882.84 1022.97 860.68C1029.14 852.51 1034.48 845.09 1039.26 838.06C1049.77 822.71 1059.59 806.56 1068.49 790.02C1110.48 711.93 1131.7 623.96 1129.85 535.61C1126.51 376.27 1051.07 230.29 922.871 135.13C848.701 80.0299 760.871 45.5599 668.881 35.4299C651.431 33.4599 633.311 32.3699 614.981 32.1899C613.461 32.1799 611.941 32.1699 610.411 32.1699L610.421 32.1799Z" fill="#371A45"/>
<path d="M1130.93 671.61C965 1018.12 512.38 1097.14 303.71 781.79C161.74 567.24 265.9 262.29 484.31 138.83C643.28 48.9701 837.61 29.6402 1043.91 234.16C1043.91 234.16 1120.96 338.77 1133.19 430.73C1145.41 522.69 1141.58 614.31 1141.58 614.31L1130.93 671.6V671.61Z" fill="#371A45"/>
<path d="M303.72 781.79C512.38 1097.14 965.001 1018.11 1130.93 671.63L1133.08 660.01C860.84 886.25 455.74 880.28 238.73 565.37C239.53 640.77 259.93 715.57 303.72 781.79V781.79Z" fill="#220F2D"/>
<path d="M662.151 1048.02C629.911 1048.02 597.881 1045.03 566.451 1038.96C434.571 1013.47 323.611 937.68 245.591 819.8C173.941 711.53 152.571 576.64 185.411 439.99C221.891 288.18 321.871 153.35 452.851 79.3199C525.641 38.1699 598.511 13.89 669.451 7.12L670.731 7L672.001 7.14001C769.011 17.82 861.641 54.18 939.861 112.28C1075.17 212.74 1154.8 366.83 1158.33 535.04C1160.29 628.28 1137.89 721.13 1093.58 803.54C1084.2 820.97 1073.84 837.99 1062.8 854.13C1057.78 861.52 1052.16 869.32 1045.65 877.93C1027.77 901.34 1008.01 923.37 986.881 943.47L985.371 944.7C887.601 1012.2 773.751 1048.02 662.151 1048.02V1048.02ZM670.551 32.13C603.531 38.72 534.431 61.92 465.151 101.08C340.101 171.77 244.611 300.65 209.721 445.83C178.521 575.67 198.661 703.58 266.441 806C340.671 918.16 446.051 990.23 571.201 1014.42C704.571 1040.19 849.991 1007.5 970.371 924.69C990.281 905.68 1008.91 884.87 1025.75 862.82C1031.96 854.59 1037.34 847.12 1042.16 840.05C1052.73 824.61 1062.62 808.35 1071.58 791.71C1113.86 713.09 1135.22 624.52 1133.35 535.58C1129.98 375.15 1054.03 228.19 924.971 132.37C850.651 77.16 762.701 42.52 670.561 32.15L670.551 32.13Z" fill="#371A45"/>
<path d="M665.03 995.93C512.72 995.93 377.53 922.33 290.37 790.61C225.88 693.14 206.62 571.78 236.16 448.88C268.93 312.54 358.75 191.43 476.43 124.91C679.26 10.2503 873.97 43.2003 1055.15 222.81L1056.77 224.68C1060.02 229.09 1136.4 333.68 1149.02 428.63C1161.29 520.92 1157.69 611.19 1157.53 614.99L1157.28 617.24L1146.25 676.61L1145.34 678.52C1058.16 860.57 886.83 981.75 698.19 994.78C687.06 995.55 675.99 995.93 665.03 995.93V995.93ZM708.19 90.7403C637.43 90.7403 565.34 111.39 492.17 152.74C382.07 214.98 297.99 328.48 267.25 456.36C239.81 570.54 257.49 682.98 317.03 772.97C403.93 904.29 542.03 973.52 695.98 962.88C872.51 950.69 1033.1 837.23 1115.59 666.6L1125.63 612.55C1126 601.95 1128.5 516.93 1117.33 432.84C1106.4 350.63 1039.32 255.19 1031.72 244.6C928 142.11 819.75 90.7403 708.18 90.7403H708.19Z" fill="#371A45"/>
<path d="M83.5108 880.49C130.481 974.74 226.391 1025.84 297.751 994.6C369.111 963.36 388.881 861.63 341.911 767.38C341.631 766.78 341.301 766.17 340.981 765.58C293.721 672.47 198.531 622.24 127.671 653.26C72.5408 677.39 48.2108 743.59 61.6308 815.9C65.5908 837.19 72.8308 859.04 83.5108 880.47V880.49Z" fill="#F2F2F2"/>
<path d="M83.5109 880.49C130.481 974.74 226.391 1025.84 297.751 994.6C369.111 963.36 388.881 861.63 341.911 767.38C341.631 766.78 341.301 766.17 340.981 765.58C337.951 778.69 330.491 793.56 312.351 797.59C280.571 804.64 198.371 766.79 198.371 766.79C198.371 766.79 138.931 787.7 61.6309 815.91C65.5909 837.2 72.8309 859.05 83.5109 880.48V880.49Z" fill="#D8D8D8"/>
<path d="M253.32 1019.62C184.56 1019.62 109.51 968.55 69.1901 887.63C40.0001 829.04 33.9101 766.05 52.5001 714.79C65.4901 678.96 89.2701 652.63 121.25 638.63C200.19 604.1 305.58 658.63 356.22 760.24C385.41 818.83 391.5 881.82 372.9 933.07C359.91 968.9 336.13 995.23 304.15 1009.23C288.08 1016.26 270.9 1019.61 253.32 1019.61V1019.62ZM97.8101 873.37C140.96 959.97 227.78 1007.79 291.33 979.95C315.09 969.55 332.91 949.57 342.84 922.18C358.23 879.75 352.53 824.55 327.59 774.51C284.44 687.92 197.63 640.09 134.06 667.93C110.3 678.33 92.4801 698.31 82.5501 725.7C67.1601 768.13 72.8601 823.33 97.8001 873.37H97.8101Z" fill="#371A45"/>
<path d="M259.507 986.725C313.182 953.198 320.742 868.46 276.392 797.458C232.042 726.455 152.577 696.076 98.9013 729.603C45.2257 763.13 37.6656 847.868 82.0156 918.871C126.366 989.873 205.831 1020.25 259.507 986.725Z" fill="#F2F2F2"/>
<path d="M210.171 1002.12C175.101 1002.12 138.291 985.1 108.011 954.61C49.6209 895.8 33.8609 804.76 72.9009 751.65C89.1509 729.54 112.431 716.77 140.231 714.71C177.641 711.93 217.711 729.15 250.261 761.93C308.651 820.74 324.411 911.78 285.371 964.89C269.121 987 245.841 999.77 218.041 1001.83C215.431 1002.03 212.801 1002.12 210.171 1002.12ZM148.101 717.75C145.541 717.75 143.001 717.84 140.471 718.03C113.671 720.02 91.2409 732.32 75.5909 753.62C37.4909 805.46 53.1009 894.56 110.381 952.25C142.241 984.34 181.361 1001.18 217.791 998.5C244.591 996.51 267.021 984.21 282.671 962.91C320.771 911.07 305.161 821.97 247.881 764.28C218.231 734.42 182.281 717.75 148.101 717.75V717.75Z" fill="#371A45"/>
<path d="M304.871 867.76C298.821 839.7 284.941 813.25 266.311 791.18C274.651 856.36 234.561 904.42 172.331 900.61C132.121 898.16 91.9108 874.58 63.0908 840.41C63.5908 844.52 64.3408 848.74 65.2508 853C80.7008 924.45 146.861 985.67 213.041 989.74C279.221 993.81 320.311 939.17 304.881 867.76H304.871Z" fill="#D8D8D8"/>
<path d="M214.911 1016.21C159.891 1016.21 99.3306 973.04 64.6506 904.13C39.6406 854.43 33.7306 800.01 48.8506 758.56C58.7406 731.47 76.6506 711.72 100.651 701.43C163.301 674.59 246.051 720.45 289.021 805.85C314.031 855.55 319.941 909.97 304.821 951.42C294.931 978.51 277.021 998.26 253.021 1008.55C240.931 1013.73 228.071 1016.2 214.911 1016.21V1016.21ZM138.031 725.94C129.321 725.94 120.971 727.51 113.251 730.82C97.5606 737.54 85.6706 750.93 78.8906 769.52C66.7306 802.84 72.0906 847.79 93.2106 889.76C127.431 957.75 194.851 998.71 240.431 979.17C256.121 972.45 268.011 959.06 274.791 940.47C286.951 907.15 281.591 862.2 260.471 820.23C232.051 763.76 180.721 725.94 138.031 725.94V725.94Z" fill="#371A45"/>
<g opacity="0.5">
<path d="M419.33 287.89C419.33 287.89 635.7 163.11 820.14 216.98C820.33 217.04 820.53 217.09 820.72 217.15C859.53 228.52 896.66 268.84 924.15 298.1C960.51 336.79 979.78 368.77 995.65 397.58C1043.85 485.22 1049.78 535.35 1049.78 535.35C1074.98 461.49 1074.62 393.39 1035.21 319.99C1031.31 312.76 1027.01 305.46 1022.35 298.1C1021.28 296.4 1020.19 294.74 1019.06 293.08C1019.09 293.04 1019.06 293.01 1018.98 292.99C1008.49 278.75 993.99 260.56 975.88 241.4C921.31 183.6 834.13 116.9 725.86 122.83C523.4 133.92 406.97 282.72 419.34 287.88L419.33 287.89Z" fill="#F2F2F2"/>
</g>
<g opacity="0.5">
<path d="M397.371 670.471C436.3 661.39 459.403 617.779 448.972 573.062C438.542 528.346 398.527 499.457 359.598 508.538C320.669 517.618 297.566 561.229 307.997 605.946C318.427 650.663 358.441 679.551 397.371 670.471Z" fill="#F2F2F2"/>
</g>
<g opacity="0.5">
<path d="M418.77 770.293C435.12 768.054 446.287 751.006 443.713 732.216C441.139 713.426 425.799 700.009 409.449 702.249C393.1 704.488 381.932 721.536 384.506 740.326C387.08 759.116 402.421 772.533 418.77 770.293Z" fill="#F2F2F2"/>
</g>
<path d="M405.431 2204.35C389.431 2206.06 373.941 2206.77 358.181 2207.09C342.481 2207.35 326.761 2207.23 311.051 2206.46C295.341 2205.7 279.621 2204.61 263.951 2202.83C248.251 2201.22 232.621 2198.82 216.991 2196.22C208.271 2194.77 202.381 2186.52 203.831 2177.8C205.281 2169.08 213.531 2163.19 222.251 2164.64C222.691 2164.71 223.131 2164.81 223.561 2164.91L223.861 2164.99C238.501 2168.74 253.231 2172.33 268.141 2175.17C283.021 2178.19 298.051 2180.53 313.141 2182.58C328.231 2184.64 343.421 2186.07 358.641 2187.12C373.791 2188.13 389.271 2188.72 404.131 2188.42H404.411C408.821 2188.32 412.481 2191.83 412.571 2196.24C412.661 2200.41 409.501 2203.9 405.431 2204.35V2204.35Z" fill="#371A45"/>
<path d="M38.7801 1483.29C29.9501 1483.29 22.79 1476.13 22.79 1467.3C22.79 1443.96 50.24 1395.8 101.79 1366.07C149.67 1338.46 230.8 1319.46 345.44 1385.8C353.08 1390.22 355.69 1400 351.27 1407.65C346.85 1415.3 337.07 1417.9 329.42 1413.48C228 1354.79 158.34 1370.37 117.76 1393.77C73.7101 1419.18 54.7601 1458.34 54.7601 1467.3C54.7601 1476.26 47.6001 1483.29 38.7701 1483.29H38.7801Z" fill="#371A45"/>
<path d="M2796.44 1057.39C2870.6 1141.47 2885.96 1471.63 2826.8 1654.25C2767.64 1836.87 2434.45 1782.25 2246.83 1736.95C2059.21 1691.65 2148.59 1264.71 2174.83 1150.82C2215.81 972.981 2686.55 932.811 2796.44 1057.39V1057.39Z" fill="#F2F2F2"/>
<path d="M2246.82 1736.95C2434.44 1782.25 2767.62 1836.85 2826.82 1654.24C2834.55 1630.32 2841.03 1603.9 2846.23 1575.8C2785.55 1605.97 2720.45 1554.38 2722.1 1502.41C2727.41 1335.38 2705.39 1216.62 2676.39 1133.77C2642.82 1037.89 2545.87 978.261 2445.3 992.611C2314.3 1011.3 2194.58 1065.03 2174.84 1150.82C2148.57 1264.69 2059.2 1691.63 2246.82 1736.93V1736.95Z" fill="#D8D8D8"/>
<path d="M2563.34 1797.59C2461.67 1797.59 2346.92 1777.57 2243.07 1752.5C2154.99 1731.23 2111.78 1635.96 2114.64 1469.34C2116.61 1354.57 2139.98 1230.83 2159.24 1147.24C2175.44 1076.94 2250.73 1021.4 2371.24 990.86C2523.68 952.23 2734.18 962.64 2808.42 1046.82C2886.11 1134.9 2904.31 1466.84 2842 1659.19C2808.42 1762.86 2697.23 1797.59 2563.34 1797.59ZM2549.42 1000.93C2493.96 1000.93 2435.09 1007.66 2379.1 1021.85C2272.36 1048.9 2203.58 1097.21 2190.41 1154.41C2162.12 1277.18 2082.85 1680.91 2250.59 1721.41C2436.82 1766.38 2757.34 1816.81 2811.6 1649.33C2868.9 1472.45 2853.68 1146.45 2784.46 1067.97C2746.46 1024.89 2654.01 1000.93 2549.43 1000.93H2549.42Z" fill="#371A45"/>
<path d="M2712.76 1367.04L2803.53 1351.04C2824.05 1347.42 2843.14 1362.58 2844.16 1383.39C2847.66 1454.98 2845.53 1601.42 2771.18 1616.04C2681.08 1633.76 2671.57 1532.1 2684.29 1397.78C2685.76 1382.31 2697.46 1369.74 2712.77 1367.04H2712.76Z" fill="#F2F2F2"/>
<path d="M2684.5 1397.6C2671.47 1531.88 2680.75 1633.6 2770.89 1616.05C2807.91 1608.9 2827.11 1568.97 2836.61 1521.88C2826.91 1533.91 2814.84 1542.27 2799.77 1545.18C2719.08 1560.85 2703.15 1480.96 2710.14 1367.63C2696.22 1371.17 2685.86 1383.12 2684.5 1397.6V1397.6Z" fill="#D8D8D8"/>
<path d="M2751.75 1634.01C2731.59 1634.01 2714.56 1627.79 2700.93 1615.41C2666.38 1584 2656.69 1518.4 2668.55 1396.06C2670.74 1373.53 2687.89 1355.07 2710.27 1351.18L2801.08 1335.38C2815.4 1332.88 2830.14 1336.67 2841.48 1345.77C2852.8 1354.85 2859.67 1368.35 2860.34 1382.83C2864.34 1468.74 2858.44 1615.32 2773.91 1631.75C2766.15 1633.26 2758.76 1634.01 2751.74 1634.01H2751.75ZM2809.86 1366.6C2808.77 1366.6 2807.67 1366.69 2806.56 1366.89L2715.75 1382.69C2707.5 1384.12 2701.18 1390.89 2700.38 1399.15C2696.58 1438.37 2685 1557.72 2722.44 1591.75C2733.07 1601.42 2747.91 1604.24 2767.82 1600.37C2811.66 1591.85 2834.31 1511.09 2828.41 1384.32C2828.16 1378.93 2825.7 1374.11 2821.48 1370.73C2818.11 1368.02 2814.07 1366.61 2809.86 1366.61V1366.6Z" fill="#371A45"/>
<path d="M2813.44 1102.67C2802.83 1102.87 2791.87 1103.29 2781.07 1103.81C2770.23 1104.34 2759.4 1105.01 2748.58 1105.82C2726.95 1107.47 2705.37 1109.7 2684.08 1113.16H2684.01C2679.65 1113.88 2675.53 1110.92 2674.82 1106.55C2674.16 1102.51 2676.65 1098.69 2680.49 1097.58C2701.91 1091.36 2723.57 1086.42 2745.3 1082.07C2756.17 1079.91 2767.07 1077.89 2777.99 1076.01C2788.95 1074.13 2799.78 1072.38 2810.99 1070.8C2819.75 1069.56 2827.85 1075.66 2829.09 1084.42C2830.33 1093.18 2824.23 1101.28 2815.47 1102.52C2814.85 1102.61 2814.23 1102.66 2813.62 1102.67H2813.45H2813.44Z" fill="#371A45"/>
<path d="M1914.46 2263.7C1914.3 2279.08 1921.12 2295.89 1938.84 2313.82C1993 2368.5 2268.76 2369.33 2301.86 2274.77C2321.68 2218.15 2310.3 2121.29 2304.32 1851.09C2302.62 1775.16 2305.19 1623.94 2311.85 1530.06L1982.97 1487.32C1982.97 1487.32 1974.49 1588.3 1970.96 1716.57C1966.68 1872.43 1969.73 2068.53 2004.27 2172.77C2004.27 2172.77 1915.06 2208.97 1914.47 2263.72L1914.46 2263.7Z" fill="#F2F2F2"/>
<path d="M1914.46 2263.7C1914.3 2279.08 1921.12 2295.89 1938.84 2313.82C1993 2368.5 2268.76 2369.33 2301.86 2274.77C2321.68 2218.15 2310.3 2121.29 2304.32 1851.09C2302.62 1775.16 2305.19 1623.94 2311.85 1530.06L1982.97 1487.32C1982.97 1487.32 1974.49 1588.3 1970.96 1716.57C1989.28 1753.76 2028.81 1808.79 2111.75 1851.49C2198.94 1896.37 2253.97 1986.14 2252.9 2084.19C2252.23 2148.1 2243.5 2209.96 2215.95 2235.81C2151.52 2296.27 1975.24 2298.57 1914.46 2263.72V2263.7Z" fill="#D8D8D8"/>
<path d="M2097.04 2366.96C2025.97 2366.96 1955.53 2353.37 1927.5 2325.08C1903.91 2301.28 1894.61 2276.25 1899.85 2250.68C1908.93 2206.4 1959.64 2176.4 1984.84 2164.01C1927.65 1964.8 1965.35 1505.85 1967.02 1485.96C1967.76 1477.16 1975.52 1470.72 1984.29 1471.37C1993.09 1472.11 1999.62 1479.84 1998.88 1488.64C1998.47 1493.56 1958.23 1983.02 2019.43 2167.72L2024.14 2181.93L2010.27 2187.56C1990.58 2195.59 1937.97 2223.77 1931.16 2257.14C1928.18 2271.77 1934.41 2286.63 1950.21 2302.57C1977.94 2330.56 2098.53 2346.8 2194.52 2325.12C2245.47 2313.62 2278.24 2293.86 2286.78 2269.47C2300.21 2231.11 2298.17 2170.13 2293.7 2036.53C2292.04 1986.89 2289.97 1925.12 2288.33 1851.42C2286.61 1773.78 2289.29 1622.23 2295.91 1528.88C2296.54 1520.08 2304.19 1513.5 2312.99 1514.07C2321.8 1514.69 2328.43 1522.34 2327.81 1531.15C2321.25 1623.62 2318.59 1773.78 2320.3 1850.71C2321.93 1924.23 2324 1985.91 2325.66 2035.46C2330.27 2173.17 2332.38 2236.02 2316.96 2280.04C2304.46 2315.72 2264.56 2342.1 2201.56 2356.31C2170.35 2363.35 2133.61 2366.95 2097.04 2366.95V2366.96Z" fill="#371A45"/>
<path d="M2116.88 2012.82C2070.54 2012.82 2019.69 2006.7 1968.51 1989.35C1960.15 1986.51 1955.67 1977.44 1958.5 1969.08C1961.34 1960.72 1970.42 1956.24 1978.77 1959.07C2137.71 2012.94 2299.63 1948.53 2301.25 1947.87C2309.44 1944.55 2318.75 1948.48 2322.08 1956.65C2325.41 1964.82 2321.49 1974.14 2313.32 1977.48C2308.4 1979.49 2224.96 2012.82 2116.88 2012.82V2012.82Z" fill="#371A45"/>
<path d="M2157.67 2192.2C2144.5 2194.78 2131.67 2196.52 2118.52 2197.87C2105.42 2199.16 2092.23 2200 2078.91 2200.05C2052.31 2200 2024.99 2197.78 1997.62 2187.29C1989.36 2184.13 1985.23 2174.86 1988.39 2166.6C1991.55 2158.34 2000.82 2154.21 2009.08 2157.37C2009.61 2157.57 2010.13 2157.8 2010.63 2158.06L2010.92 2158.21C2020.85 2163.29 2032.04 2167.14 2043.7 2170.1C2055.43 2172.96 2067.65 2174.77 2080 2176.09C2092.38 2177.34 2104.93 2177.84 2117.53 2177.91C2130.07 2177.93 2142.9 2177.51 2155.19 2176.41L2155.42 2176.39C2159.82 2175.99 2163.71 2179.24 2164.1 2183.64C2164.47 2187.75 2161.63 2191.42 2157.67 2192.2V2192.2Z" fill="#371A45"/>
<path d="M2010.44 1571.47C2049.09 1689.83 2138.31 1774.56 2297.56 1778.83C2399.69 1781.53 2560.59 1746.68 2606.88 1620.29C2610.68 1609.95 2613.69 1599 2615.87 1587.39C2631.71 1502.36 2622.33 1406.64 2607.89 1299.58C2602.31 1258.09 2595.98 1214.94 2590.05 1170C2573.21 1042.34 2478.75 900.68 2502.53 745.45L2050.93 1105.34C2019.04 1250.93 1982.96 1487.3 2010.44 1571.46V1571.47Z" fill="#F2F2F2"/>
<path d="M2063.75 1095.1C2135.34 1135.54 2221.86 1159.15 2314.96 1159.15C2408.06 1159.15 2499.38 1134.19 2572.15 1091.66C2540.13 985.081 2483.5 869.641 2502.52 745.471L2063.75 1095.11V1095.1Z" fill="#F2F2F2"/>
<path d="M2459.98 965.08L2492.4 1128.73C2542.97 1110.62 2588.69 1084.93 2627.52 1053.38C2571.33 1013.55 2512.69 983.27 2459.99 965.08H2459.98Z" fill="#D8D8D8"/>
<path d="M2406.36 1585.61C2495.4 1609.3 2560.02 1618.99 2606.87 1620.29C2610.67 1609.95 2613.68 1599 2615.86 1587.39C2631.7 1502.36 2622.32 1406.64 2607.88 1299.58L2525.51 1295.83C2525.51 1295.83 2560.84 1515.27 2406.36 1585.61V1585.61Z" fill="#D8D8D8"/>
<path d="M2058.73 1107.07C2050.54 1194.91 2033.21 1280.7 2024.86 1367.65C2022.53 1389.32 2020.6 1411 2019.29 1432.65C2017.96 1454.28 2017.07 1475.9 2017.4 1497.28C2017.82 1518.55 2019.21 1539.95 2023.81 1559.19L2025.77 1566.11L2028.29 1573.57C2029.95 1578.58 2031.9 1583.47 2033.76 1588.39C2037.64 1598.17 2042 1607.71 2046.7 1617.07C2065.64 1654.37 2092.68 1687.16 2126.41 1711.11C2160.06 1735.2 2199.88 1750.18 2241.31 1757.33C2282.85 1764.47 2325.85 1764.63 2368 1758.96C2410.1 1753.28 2451.64 1741.99 2488.96 1723.21C2526.16 1704.53 2558.93 1677.43 2579.03 1642.3C2589.14 1624.84 2596.09 1605.63 2599.93 1585.62C2603.56 1564.84 2606.23 1543.64 2607.23 1522.25C2609.41 1479.46 2607.01 1436.1 2602.87 1392.75C2598.62 1349.38 2592.7 1305.94 2586.63 1262.38L2577.54 1196.92L2575.33 1180.51L2574.23 1172.31L2573.06 1164.51C2571.48 1154.12 2569.37 1143.73 2566.9 1133.35C2557.05 1091.8 2542.01 1050.7 2527.81 1008.88C2513.53 967.09 2499.73 924.36 2491.17 879.8C2482.5 835.38 2479.78 788.79 2486.7 743.03C2488.02 734.3 2496.17 728.29 2504.9 729.62C2513.63 730.94 2519.64 739.09 2518.31 747.82V747.87C2512.06 789.29 2514.4 831.89 2522.57 873.79C2530.62 915.77 2543.89 957.1 2558.07 998.57C2572.14 1040.09 2587.51 1081.83 2598.01 1126.02C2600.64 1137.05 2602.91 1148.25 2604.65 1159.62L2605.92 1168.15L2607.02 1176.31L2609.22 1192.63L2618.3 1257.98C2624.37 1301.62 2630.36 1345.44 2634.7 1389.7C2638.92 1433.95 2641.46 1478.77 2639.16 1523.94C2638.09 1546.54 2635.3 1569.1 2631.33 1591.67C2626.88 1614.88 2618.69 1637.65 2606.71 1658.3C2594.79 1678.99 2579.22 1697.41 2561.52 1712.95C2543.79 1728.5 2524.05 1741.33 2503.38 1751.74C2461.94 1772.56 2417.27 1784.54 2372.24 1790.64C2327.16 1796.69 2281.11 1796.59 2235.83 1788.82C2190.64 1781.04 2145.92 1764.41 2107.83 1737.12C2069.59 1710.05 2039.26 1672.77 2018.13 1631.79C2012.89 1621.5 2008.06 1611.03 2003.77 1600.36C2001.7 1595 1999.56 1589.67 1997.73 1584.24L1994.93 1576.07L1992.34 1567.13C1986.63 1543.49 1985.14 1520.69 1984.34 1498.01C1983.19 1452.75 1986.5 1408.27 1991.11 1364.06C1995.78 1319.85 2002.78 1276.06 2010.33 1232.43C2014.38 1210.66 2018.85 1188.97 2024.27 1167.48C2029.61 1145.98 2035.64 1124.63 2043.14 1103.65V1103.61C2044.65 1099.42 2049.26 1097.24 2053.45 1098.74C2056.99 1100 2059.09 1103.5 2058.76 1107.07H2058.73Z" fill="#371A45"/>
<path d="M2281.24 1778.14C2307.29 1900.73 2320.33 2225.94 2372.07 2304.91C2429.66 2392.82 2687.2 2366.25 2715.86 2355.61C2740.42 2346.49 2772.18 2328.78 2773.49 2275.99C2773.53 2274.72 2773.53 2273.42 2773.53 2272.11C2773.4 2206.45 2692.12 2180.62 2692.12 2180.62C2692.12 2180.62 2672.62 1977.23 2646.22 1794.95C2634.13 1711.31 2620.61 1632.17 2606.87 1579.12L2000.7 1522.32C1987.79 1745.52 2281.23 1778.16 2281.23 1778.16L2281.24 1778.14Z" fill="#F2F2F2"/>
<path d="M2281.24 1778.14C2307.29 1900.73 2320.33 2225.94 2372.07 2304.91C2429.66 2392.82 2687.2 2366.25 2715.86 2355.61C2740.42 2346.49 2772.18 2328.78 2773.49 2275.99C2752.98 2295.1 2706.22 2318.57 2599.94 2318.57C2420.72 2318.57 2394.76 2164 2379.97 2055.75C2356.72 1885.21 2378.66 1707.34 2646.23 1794.94C2634.14 1711.3 2620.62 1632.16 2606.88 1579.11L2000.71 1522.31C1987.8 1745.51 2281.24 1778.15 2281.24 1778.15V1778.14Z" fill="#D8D8D8"/>
<path d="M2584.03 2383.75C2574.11 2383.75 2564.11 2383.57 2554.17 2383.17C2452 2379.07 2386.23 2355.68 2358.7 2313.66C2322.96 2259.09 2306.26 2108.88 2290.11 1963.61C2282.76 1897.52 2275.79 1834.8 2267.79 1792.4C2243.68 1788.53 2186.17 1776.99 2128.96 1748.23C2028.95 1697.96 1979.07 1619.51 1984.74 1521.37C1985.25 1512.55 1992.73 1505.89 2001.62 1506.33C2010.43 1506.84 2017.17 1514.4 2016.66 1523.21C2011.73 1608.6 2054.11 1674.57 2142.61 1719.3C2210.99 1753.86 2282.31 1762.2 2283.03 1762.27L2294.48 1763.56L2296.88 1774.84C2306.15 1818.47 2313.79 1887.25 2321.89 1960.08C2336.15 2088.34 2353.89 2247.97 2385.45 2296.14C2436.08 2373.44 2681.72 2351.22 2710.28 2340.6C2734.91 2331.44 2757.68 2316.81 2757.57 2272.13C2757.44 2218.74 2687.99 2196.07 2687.28 2195.85L2677.21 2192.65L2676.2 2182.14C2675.79 2177.82 2634.28 1748.62 2591.41 1583.12C2589.2 1574.57 2594.33 1565.85 2602.88 1563.64C2611.41 1561.41 2620.15 1566.56 2622.36 1575.1C2662.72 1730.89 2700.46 2102.11 2707.06 2169.18C2731.14 2179.27 2789.38 2210.08 2789.53 2272.05C2789.72 2345.17 2738.3 2364.29 2721.41 2370.57C2705.31 2376.56 2646.36 2383.75 2584.02 2383.75H2584.03Z" fill="#371A45"/>
<path d="M2439.32 1973C2397.97 1973 2351.8 1969.58 2301.38 1960.78C2292.68 1959.27 2286.86 1950.99 2288.38 1942.28C2289.9 1933.58 2298.2 1927.75 2306.88 1929.28C2518.33 1966.17 2654.35 1902.87 2655.7 1902.23C2663.66 1898.43 2673.2 1901.79 2677.01 1909.75C2680.82 1917.7 2677.48 1927.24 2669.53 1931.05C2665.01 1933.23 2580.24 1972.99 2439.32 1972.99V1973Z" fill="#371A45"/>
<path d="M2005.48 1518.03C2027.96 1495.55 2027.96 1459.11 2005.48 1436.63C1983.01 1414.15 1946.56 1414.15 1924.08 1436.63C1901.6 1459.11 1901.6 1495.55 1924.08 1518.03C1946.56 1540.51 1983.01 1540.51 2005.48 1518.03Z" fill="#F2F2F2"/>
<path d="M1907.29 1474.77C1905.89 1506.53 1930.48 1533.44 1962.24 1534.84C1994 1536.24 2020.91 1511.61 2022.32 1479.85C2022.71 1471.08 2021.11 1462.63 2017.88 1455.02C2007.79 1474.03 1987.36 1486.64 1964.42 1485.62C1941.48 1484.61 1922.24 1470.25 1913.92 1450.42C1910.03 1457.71 1907.69 1465.99 1907.3 1474.76L1907.29 1474.77Z" fill="#D8D8D8"/>
<path d="M1964.82 1550.88C1963.73 1550.88 1962.64 1550.86 1961.54 1550.81C1921.02 1549.01 1889.52 1514.59 1891.31 1474.08C1892.18 1454.46 1900.63 1436.34 1915.13 1423.07C1929.62 1409.81 1948.4 1403 1968.04 1403.85C1987.66 1404.71 2005.78 1413.18 2019.04 1427.66C2032.31 1442.15 2039.14 1460.94 2038.27 1480.57C2036.53 1519.99 2003.9 1550.88 1964.83 1550.88H1964.82ZM1964.73 1435.75C1954.32 1435.75 1944.43 1439.59 1936.71 1446.66C1928.52 1454.16 1923.74 1464.4 1923.25 1475.49C1922.24 1498.4 1940.05 1517.85 1962.95 1518.86C1985.81 1519.87 2005.31 1502.06 2006.32 1479.15C2006.81 1468.06 2002.95 1457.44 1995.45 1449.25C1987.95 1441.06 1977.71 1436.28 1966.62 1435.79C1965.99 1435.76 1965.36 1435.75 1964.74 1435.75H1964.73Z" fill="#371A45"/>
<path d="M2024.73 1627.89L2325.61 1636.38C2361.22 1637.4 2391.21 1609.07 2392.22 1573.42L2396.73 1413.31C2397.61 1382.09 2376 1355.25 2346.68 1348.38C2342.53 1347.38 2338.21 1346.83 2333.77 1346.7L2032.93 1338.21C1997.27 1337.19 1967.28 1365.52 1966.32 1401.17L1962.72 1527.98L1961.77 1561.28C1960.76 1596.94 1989.12 1626.88 2024.73 1627.89V1627.89Z" fill="#F2F2F2"/>
<path d="M2679.99 1422.6C2679.99 1422.6 2718.72 1435.18 2718.86 1485.61C2718.97 1525.13 2701.07 1541.97 2701.07 1541.97C2701.07 1541.97 2568.72 1590.14 2396.21 1549.15C2396.21 1549.15 2363.67 1535.77 2360.17 1488.81C2358.83 1470.87 2369.04 1443.29 2394.07 1436.76C2394.07 1436.76 2550.76 1464.09 2679.99 1422.6Z" fill="#F2F2F2"/>
<path d="M2024.73 1627.89L2325.61 1636.38C2361.22 1637.4 2391.21 1609.07 2392.22 1573.42L2396.73 1413.31C2397.61 1382.09 2376 1355.25 2346.68 1348.38C2342.53 1347.38 2338.21 1346.83 2333.77 1346.7L2032.93 1338.21C1997.27 1337.19 1967.28 1365.52 1966.32 1401.17L1962.72 1527.98L1961.77 1561.28C1960.76 1596.94 1989.12 1626.88 2024.73 1627.89V1627.89Z" fill="#F2F2F2"/>
<path d="M2679.99 1422.6C2679.99 1422.6 2718.72 1435.18 2718.86 1485.61C2718.97 1525.13 2701.07 1541.97 2701.07 1541.97C2701.07 1541.97 2568.72 1590.14 2396.21 1549.15C2396.21 1549.15 2363.67 1535.77 2360.17 1488.81C2358.83 1470.87 2369.04 1443.29 2394.07 1436.76C2394.07 1436.76 2550.76 1464.09 2679.99 1422.6Z" fill="#F2F2F2"/>
<path d="M2024.73 1627.89L2325.61 1636.38C2361.22 1637.4 2391.21 1609.07 2392.22 1573.42L2396.73 1413.31C2397.61 1382.09 2376 1355.25 2346.68 1348.38C2342.53 1347.38 2338.21 1346.83 2333.77 1346.7L2032.93 1338.21C1997.27 1337.19 1967.28 1365.52 1966.32 1401.17L1962.72 1527.98L1961.77 1561.28C1960.76 1596.94 1989.12 1626.88 2024.73 1627.89V1627.89Z" fill="#F2F2F2"/>
<path d="M2024.73 1627.89L2325.61 1636.38C2361.22 1637.4 2391.21 1609.07 2392.22 1573.42L2396.73 1413.31C2397.61 1382.09 2376 1355.25 2346.67 1348.38C2329.26 1359.24 2318.21 1366.2 2318.21 1366.2C2299.93 1494.31 2261.53 1557.37 2101.86 1555.47C2032.94 1554.63 1989.75 1542.9 1962.71 1527.99L1961.76 1561.29C1960.75 1596.95 1989.11 1626.89 2024.72 1627.9L2024.73 1627.89Z" fill="#D8D8D8"/>
<path d="M2329.4 1652.46C2328.65 1652.46 2327.89 1652.46 2327.13 1652.43L2022.3 1643.82C1978.86 1642.59 1944.52 1606.25 1945.74 1562.81L1950.38 1398.7C1950.97 1377.72 1959.75 1358.19 1975.08 1343.7C1990.41 1329.21 2010.33 1321.57 2031.39 1322.14L2336.22 1330.75C2357.19 1331.35 2376.73 1340.12 2391.22 1355.45C2405.71 1370.78 2413.37 1390.79 2412.78 1411.76L2408.15 1575.86C2407.56 1596.84 2398.78 1616.37 2383.45 1630.86C2368.66 1644.83 2349.55 1652.45 2329.41 1652.45L2329.4 1652.46ZM2029.15 1354.09C2017.2 1354.09 2005.84 1358.63 1997.04 1366.94C1987.91 1375.57 1982.69 1387.17 1982.34 1399.61L1977.7 1563.72C1976.97 1589.54 1997.38 1611.14 2023.2 1611.87L2328.03 1620.48C2340.5 1620.9 2352.34 1616.28 2361.47 1607.65C2370.6 1599.02 2375.82 1587.42 2376.17 1574.98L2380.8 1410.88C2381.15 1398.44 2376.6 1386.56 2367.97 1377.43C2359.34 1368.3 2347.74 1363.08 2335.3 1362.73L2030.47 1354.12C2030.02 1354.11 2029.58 1354.1 2029.13 1354.1L2029.15 1354.09Z" fill="#371A45"/>
<path d="M2012.69 1626.37C2016.57 1627.29 2020.57 1627.8 2024.73 1627.9L2325.61 1636.39C2351.71 1637.12 2374.78 1622.14 2385.63 1599.98C2389.59 1591.93 2391.93 1582.94 2392.18 1573.43L2394.22 1502.3L2394.89 1478.83L2396.74 1413.32C2397.75 1377.66 2369.39 1347.72 2333.78 1346.71L2268.76 1344.89C2298.57 1351.38 2320.64 1378.44 2319.77 1409.98L2317.35 1496.47L2315.26 1570.14C2314.24 1605.75 2284.26 1634.12 2248.65 1633.1L2012.69 1626.39V1626.37Z" fill="#F2F2F2"/>
<path d="M2012.69 1626.37C2016.57 1627.29 2020.57 1627.8 2024.73 1627.9L2325.61 1636.39C2361.22 1637.41 2391.21 1609.08 2392.18 1573.43L2394.89 1478.83C2386.85 1495.33 2372.68 1515.47 2350.86 1517.01C2338.89 1517.88 2327.39 1508.96 2317.35 1496.46L2315.26 1570.13C2314.24 1605.74 2284.26 1634.11 2248.65 1633.09L2012.69 1626.38V1626.37Z" fill="#D8D8D8"/>
<path d="M2327.51 1652.41C2326.73 1652.41 2325.95 1652.4 2325.16 1652.38L2024.28 1643.87C2019.26 1643.76 2014.12 1643.12 2009.1 1641.97L2013.12 1610.41L2249.11 1617.09C2262.11 1617.48 2274.43 1612.71 2283.95 1603.72C2293.47 1594.72 2298.91 1582.63 2299.26 1569.67L2303.78 1409.52C2304.44 1386.1 2288.29 1365.47 2265.36 1360.46L2269.22 1328.86L2334.21 1330.69C2355.72 1331.31 2375.75 1340.31 2390.61 1356.02C2405.48 1371.75 2413.32 1392.25 2412.7 1413.75L2408.18 1573.88C2407.58 1595.38 2398.59 1615.41 2382.87 1630.27C2367.72 1644.59 2348.14 1652.4 2327.51 1652.4V1652.41ZM2312.45 1620.03L2326.07 1620.42C2339.02 1620.84 2351.39 1616.04 2360.91 1607.05C2370.43 1598.05 2375.87 1585.96 2376.22 1573L2380.74 1412.85C2381.11 1399.88 2376.37 1387.5 2367.37 1377.99C2358.37 1368.47 2346.27 1363.02 2333.3 1362.65L2321.48 1362.32C2330.96 1376.06 2336.24 1392.76 2335.74 1410.43L2331.22 1570.56C2330.71 1588.88 2324.11 1606.13 2312.44 1620.03H2312.45Z" fill="#371A45"/>
<path d="M2198.84 1487.99C2198.71 1493.91 2205.96 1541.91 2205.96 1541.91C2205.96 1541.91 2221.1 1542.25 2239.7 1542.67C2262.93 1543.19 2282.31 1519.56 2282.97 1489.89C2283.64 1460.22 2265.34 1435.74 2242.11 1435.22C2226.43 1434.87 2208.37 1434.46 2208.37 1434.46C2208.37 1434.46 2199.05 1478.35 2198.84 1488V1487.99Z" fill="#22A7F0"/>
<path d="M2198.84 1487.99C2198.71 1493.91 2205.96 1541.91 2205.96 1541.91C2205.96 1541.91 2221.1 1542.25 2239.7 1542.67C2262.93 1543.19 2282.31 1519.56 2282.97 1489.89C2283.64 1460.22 2265.34 1435.74 2242.11 1435.22C2226.43 1434.87 2208.37 1434.46 2208.37 1434.46C2208.37 1434.46 2199.05 1478.35 2198.84 1488V1487.99Z" fill="#1B88EA"/>
<path d="M2240.48 1554.66C2240.13 1554.66 2239.78 1554.66 2239.43 1554.66L2215.99 1554.13C2204.14 1553.86 2194.29 1545.16 2192.58 1533.45C2186.73 1493.6 2186.81 1489.48 2186.85 1487.73C2186.98 1481.87 2189.57 1466.51 2194.55 1442.07C2196.88 1430.58 2207.18 1422.27 2218.82 1422.69L2242.38 1423.22C2257.38 1423.56 2271.13 1431.09 2281.11 1444.44C2290.42 1456.9 2295.34 1473.14 2294.96 1490.15C2294.58 1507.17 2288.93 1523.17 2279.07 1535.2C2268.76 1547.78 2255.08 1554.66 2240.48 1554.66V1554.66ZM2210.83 1488.19C2210.88 1490.59 2212.34 1502.94 2216.31 1529.96L2239.97 1530.67C2247.54 1530.99 2254.74 1527.05 2260.53 1519.99C2267.01 1512.08 2270.73 1501.29 2270.99 1489.61C2271.25 1477.93 2268.03 1466.98 2261.91 1458.79C2256.45 1451.48 2249.32 1447.36 2241.85 1447.19L2218.29 1446.66C2212.88 1472.28 2210.93 1484.85 2210.83 1488.19Z" fill="#371A45"/>
<path d="M2249.32 1489.19C2249.98 1459.52 2231.69 1435.04 2208.46 1434.52C2185.22 1433.99 2165.84 1457.62 2165.18 1487.3C2164.51 1516.97 2182.8 1541.45 2206.04 1541.97C2229.27 1542.49 2248.65 1518.86 2249.32 1489.19Z" fill="#22A7F0"/>
<g opacity="0.7">
<path d="M2165.76 1498.29C2170.31 1473.98 2187.62 1456.06 2207.87 1456.53C2228.21 1456.99 2244.71 1475.74 2248.11 1500.29C2248.79 1496.7 2249.17 1492.97 2249.26 1489.12C2249.89 1459.44 2231.6 1434.97 2208.37 1434.45C2185.14 1433.93 2165.78 1457.53 2165.1 1487.21C2165.01 1491.01 2165.25 1494.72 2165.76 1498.28V1498.29Z" fill="#F2F2F2"/>
</g>
<path d="M2205.94 1541.89C2229.17 1542.45 2248.58 1518.8 2249.25 1489.13C2249.39 1482.31 2248.55 1475.79 2246.87 1469.73C2240.36 1489.76 2224.71 1503.71 2206.81 1503.29C2188.91 1502.87 2173.94 1488.29 2168.34 1468.03C2166.38 1473.95 2165.23 1480.46 2165.09 1487.23C2164.42 1516.91 2182.71 1541.38 2205.94 1541.9V1541.89Z" fill="#1B88EA"/>
<path d="M2206.74 1553.9C2206.39 1553.9 2206.04 1553.9 2205.69 1553.9C2190.69 1553.56 2176.94 1546.03 2166.96 1532.68C2157.65 1520.22 2152.73 1503.98 2153.11 1486.97C2153.49 1469.95 2159.14 1453.95 2169 1441.92C2179.56 1429.04 2193.68 1422.08 2208.64 1422.47C2223.64 1422.81 2237.39 1430.34 2247.37 1443.69C2256.68 1456.16 2261.6 1472.39 2261.22 1489.41C2260.84 1506.43 2255.19 1522.43 2245.33 1534.45C2235.02 1547.03 2221.35 1553.91 2206.74 1553.91V1553.9ZM2207.63 1446.43C2200.33 1446.43 2193.21 1450.21 2187.55 1457.12C2181.07 1465.03 2177.35 1475.82 2177.09 1487.5C2176.83 1499.18 2180.05 1510.13 2186.17 1518.32C2191.63 1525.63 2198.76 1529.75 2206.23 1529.92C2213.67 1530.2 2221.01 1526.3 2226.79 1519.24C2233.27 1511.33 2236.99 1500.54 2237.25 1488.86C2237.51 1477.18 2234.29 1466.23 2228.17 1458.03C2222.71 1450.72 2215.58 1446.6 2208.11 1446.43C2207.95 1446.43 2207.79 1446.43 2207.63 1446.43V1446.43Z" fill="#371A45"/>
<path d="M2118.3 1641.36H2118.24C2111.62 1641.33 2106.27 1635.94 2106.3 1629.31L2106.67 1548.27C2106.74 1533.47 2099.43 1519.72 2087.13 1511.49C2067.66 1498.47 2056.38 1476.71 2056.96 1453.3L2059.79 1339.09C2059.95 1332.47 2065.39 1327.4 2072.08 1327.4C2078.7 1327.57 2083.93 1333.06 2083.77 1339.69L2080.94 1453.9C2080.56 1469.06 2087.86 1483.14 2100.46 1491.57C2119.47 1504.28 2130.75 1525.53 2130.65 1548.39L2130.28 1629.44C2130.25 1636.05 2124.89 1641.38 2118.29 1641.38L2118.3 1641.36Z" fill="#371A45"/>
<path d="M2679.99 1422.6C2679.99 1422.6 2718.72 1435.18 2718.86 1485.61C2718.97 1525.13 2701.07 1541.97 2701.07 1541.97C2701.07 1541.97 2568.72 1590.14 2396.21 1549.15C2396.21 1549.15 2363.67 1535.77 2360.17 1488.81C2358.83 1470.87 2369.04 1443.29 2394.07 1436.76C2394.07 1436.76 2550.76 1464.09 2679.99 1422.6Z" fill="#F2F2F2"/>
<path d="M2360.18 1488.82C2363.66 1535.76 2396.21 1549.14 2396.21 1549.14C2568.71 1590.13 2701.08 1541.95 2701.08 1541.95C2701.08 1541.95 2718.98 1525.15 2718.86 1485.61C2718.81 1473.64 2716.62 1463.81 2713.23 1455.75C2709.12 1482.49 2696.72 1494.11 2696.72 1494.11C2696.72 1494.11 2564.35 1542.29 2391.85 1501.3C2391.85 1501.3 2373.14 1493.6 2362.62 1469.44C2360.49 1476.2 2359.75 1483.02 2360.18 1488.82Z" fill="#D8D8D8"/>
<path d="M2538.05 1581.77C2495 1581.77 2445.68 1577.33 2392.51 1564.69L2390.13 1563.92C2388.43 1563.22 2348.42 1546.14 2344.23 1489.98C2342.19 1462.62 2358.76 1429.44 2390.03 1421.28L2393.38 1420.41L2396.8 1421C2398.33 1421.27 2551.26 1447.14 2675.1 1407.37L2680.02 1405.79L2684.93 1407.39C2686.96 1408.05 2734.68 1424.26 2734.85 1485.56C2734.97 1530.71 2714.37 1551.39 2712.02 1553.61L2709.62 1555.86L2706.53 1556.99C2702.64 1558.41 2636.82 1581.78 2538.05 1581.78V1581.77ZM2401.57 1533.98C2550.34 1568.89 2669.38 1535.3 2691.81 1528.19C2695.31 1523.34 2702.93 1509.96 2702.87 1485.65C2702.79 1456.28 2686.95 1443.97 2679.02 1439.65C2558.78 1476.23 2420.75 1457.17 2395.26 1453.16C2380.39 1459.05 2375.4 1478.06 2376.11 1487.62C2378.51 1519.76 2397.1 1531.59 2401.57 1533.98V1533.98Z" fill="#371A45"/>
<path d="M2508.41 2188.42C2523.28 2188.72 2538.75 2188.13 2553.9 2187.12C2569.12 2186.06 2584.3 2184.63 2599.4 2182.58C2614.49 2180.53 2629.52 2178.19 2644.4 2175.17C2659.31 2172.33 2674.04 2168.74 2688.68 2164.99L2688.95 2164.92C2697.51 2162.73 2706.23 2167.89 2708.43 2176.45C2710.62 2185.01 2705.46 2193.73 2696.9 2195.93C2696.46 2196.04 2695.99 2196.14 2695.56 2196.21C2679.93 2198.81 2664.3 2201.21 2648.6 2202.82C2632.93 2204.61 2617.2 2205.69 2601.5 2206.45C2585.79 2207.22 2570.07 2207.35 2554.37 2207.08C2538.61 2206.76 2523.12 2206.05 2507.12 2204.34C2502.73 2203.87 2499.55 2199.93 2500.02 2195.54C2500.46 2191.39 2504.01 2188.33 2508.1 2188.4H2508.41V2188.42Z" fill="#371A45"/>
<path d="M2444.24 1220.31L2370.33 1361.97L2279.63 1341.16C2279.63 1341.16 2020.13 1609.21 1894.52 1506.21C1835.53 1457.83 1827.2 1389.16 1845.35 1317.69C1879.12 1184.45 2005.03 1041.44 2066.72 1002.04C2105.64 977.171 2179.24 1002.04 2179.24 1002.04C2179.24 1002.04 2050.67 1187.85 2081.64 1175.24C2153.36 1146.01 2239.79 1128.64 2294.85 1137.2C2359.68 1147.23 2425.69 1203.6 2440.96 1217.34C2443.1 1219.22 2444.23 1220.31 2444.23 1220.31H2444.24Z" fill="#F2F2F2"/>
<path d="M2444.24 1220.31L2370.33 1361.97L2279.63 1341.16C2279.63 1341.16 2020.13 1609.21 1894.52 1506.21C1835.53 1457.83 1827.2 1389.16 1845.35 1317.69C1851.81 1361.93 1879.6 1438.98 1994.47 1439.28C2155.68 1439.72 2230.06 1326.85 2211.61 1276.59C2194.77 1230.78 2248.08 1301.72 2280.37 1253.47C2302.4 1220.49 2285.34 1247.58 2313.05 1274.5C2340.75 1301.46 2406.41 1280.7 2439.14 1220.62C2439.79 1219.4 2440.41 1218.31 2440.97 1217.35C2443.11 1219.23 2444.24 1220.32 2444.24 1220.32V1220.31Z" fill="#D8D8D8"/>
<path d="M1995.97 1212.2C2010.85 1197.13 2028.45 1185.45 2046.53 1175.13L2060.32 1167.79C2065 1165.55 2069.75 1163.46 2074.47 1161.29C2079.17 1159.07 2083.99 1157.16 2088.81 1155.27C2093.65 1153.42 2098.42 1151.36 2103.33 1149.73C2122.77 1142.55 2142.65 1136.67 2162.72 1131.38C2182.89 1126.41 2203.38 1122.55 2224.22 1119.86C2245.13 1117.44 2266.43 1116.41 2288.44 1118.63L2296.7 1119.53C2299.45 1119.92 2302.21 1120.58 2304.97 1121.1L2313.22 1122.8L2321.18 1125.12C2323.81 1125.94 2326.51 1126.64 2329.08 1127.56L2336.73 1130.44C2341.89 1132.26 2346.78 1134.5 2351.68 1136.73C2371.28 1145.63 2389.35 1156.71 2406.5 1168.75C2423.68 1180.99 2439.65 1193.71 2455.23 1208.74C2460.53 1213.71 2461.66 1221.47 2458.46 1227.61L2458.39 1227.73L2384.48 1369.39C2381.04 1375.98 2373.65 1379.16 2366.73 1377.58L2276.04 1356.76L2291.1 1352.3C2273.43 1370.18 2255.55 1386.64 2236.96 1402.9C2218.4 1419.05 2199.34 1434.66 2179.62 1449.52C2140.12 1479.06 2098.36 1506.45 2051.46 1525.98C2027.99 1535.54 2003.08 1543.2 1976.41 1545.27C1963.11 1546.21 1949.38 1545.79 1935.78 1542.97C1922.23 1540.09 1908.79 1535.09 1896.91 1527.54C1893.97 1525.62 1890.98 1523.76 1888.26 1521.57L1884.12 1518.37L1880.45 1515.02L1873.13 1508.29C1870.72 1506.02 1868.17 1503.9 1866.09 1501.25C1861.82 1496.11 1857.16 1491.29 1853.3 1485.81C1849.67 1480.16 1845.6 1474.77 1842.43 1468.85C1829.25 1445.31 1822.55 1418.6 1821.22 1392.43C1819.83 1366.16 1823.31 1340.34 1829.35 1315.64C1835.39 1290.88 1844.34 1267.25 1854.57 1244.43C1875.19 1198.79 1901.64 1156.55 1931.37 1117.01C1946.25 1097.23 1962 1078.12 1978.71 1059.8C1995.46 1041.49 2013.07 1023.92 2032.51 1007.67C2037.26 1003.54 2042.5 999.71 2047.57 995.79C2053.03 992.05 2057.88 988.29 2065.32 984.65C2079.21 977.91 2093.47 975.78 2106.96 975.19C2120.51 974.68 2133.6 975.87 2146.38 977.9C2152.77 978.92 2159.08 980.21 2165.34 981.66C2171.69 983.18 2177.6 984.74 2184.32 986.9C2192.72 989.61 2197.34 998.61 2194.63 1007.02C2191.92 1015.42 2182.92 1020.04 2174.51 1017.33L2174.08 1017.19C2163.95 1013.98 2152.3 1011.21 2141.27 1009.46C2130.11 1007.68 2118.92 1006.72 2108.23 1007.13C2097.58 1007.54 2087.35 1009.42 2079.39 1013.36C2075.85 1014.95 2070.94 1018.48 2066.42 1021.61C2061.91 1025.12 2057.33 1028.43 2052.93 1032.26C2035.14 1047.13 2018.3 1063.87 2002.31 1081.35C1986.33 1098.87 1971.19 1117.24 1956.91 1136.22C1928.35 1174.17 1903.05 1214.71 1883.71 1257.54C1874.11 1278.94 1865.82 1300.9 1860.37 1323.31C1854.89 1345.67 1851.94 1368.47 1853.13 1390.69C1854.28 1412.88 1859.8 1434.41 1870.35 1453.28C1872.88 1458.05 1876.25 1462.34 1879.1 1466.93C1882.2 1471.37 1886.1 1475.25 1889.51 1479.48C1891.15 1481.66 1893.32 1483.4 1895.33 1485.27L1901.4 1490.86L1904.42 1493.67L1907.49 1496.02C1909.48 1497.66 1911.67 1498.97 1913.8 1500.38C1922.41 1505.87 1932.08 1509.44 1942.21 1511.63C1952.38 1513.75 1963.14 1514.12 1974 1513.36C1995.8 1511.71 2017.93 1505.12 2039.28 1496.39C2082.11 1478.6 2122.3 1452.48 2160.35 1423.96C2179.38 1409.62 2197.88 1394.48 2215.91 1378.78C2233.84 1363.1 2251.65 1346.67 2268.09 1330.04L2268.2 1329.92C2272.23 1325.84 2277.94 1324.39 2283.15 1325.57L2373.84 1346.39L2356.09 1354.58L2430 1212.92L2433.16 1231.9C2426.33 1225.87 2418.43 1219.65 2410.81 1213.79C2403.14 1207.82 2395.17 1202.25 2387.17 1196.8C2371.04 1186.11 2354.27 1176.58 2337.12 1168.86C2332.82 1166.96 2328.53 1165.03 2324.15 1163.56L2317.63 1161.16C2315.45 1160.4 2313.25 1159.88 2311.06 1159.22L2304.51 1157.28L2297.95 1155.94C2295.76 1155.52 2293.61 1154.96 2291.38 1154.65L2284.61 1153.92C2266.49 1152.05 2247.28 1152.85 2228.13 1154.71C2189.73 1159.11 2151.23 1168.04 2114.03 1180.39C2076.84 1193.09 2040.9 1207.94 2005.38 1225.07L2005.21 1225.15C2001.18 1227.09 1996.34 1225.4 1994.4 1221.38C1992.87 1218.22 1993.6 1214.54 1995.93 1212.18L1995.97 1212.2Z" fill="#371A45"/>
<path d="M1766.71 535.3C1764.84 624.62 1785.53 714.97 1829.97 797.62C1839.04 814.47 1849.04 830.97 1860.06 847.07C1865.4 854.92 1871.04 862.68 1876.87 870.4C1894.56 893.56 1913.76 914.9 1934.28 934.41C1951.92 951.27 1970.56 966.74 1989.94 980.83C2013.34 997.86 2037.91 1012.83 2063.34 1025.76C2072.63 1030.45 2082.01 1034.88 2091.49 1039.05C2265.12 1115.09 2473.23 1099.06 2634.61 979.19C2872.37 802.66 2918.56 467.72 2737.88 231.11C2703.05 185.56 2662.35 146.88 2617.6 115.57C2612.4 111.86 2607.08 108.29 2601.69 104.83C2587.33 95.4804 2572.62 86.8504 2557.58 78.9704C2522.79 60.7504 2486.29 46.4404 2448.86 36.1204C2411.45 25.7704 2373.01 19.4104 2334.36 17.1604C2322.07 16.4304 2309.77 16.1104 2297.42 16.2204C2278.92 16.4004 2260.43 17.4704 2241.93 19.5604C2149.83 29.7004 2059.35 63.4905 1980.16 122.31C1843.39 223.85 1770.03 377.79 1766.73 535.29L1766.71 535.3Z" fill="#F2F2F2"/>
<path d="M2311.94 1086.83C2237.1 1086.83 2161.75 1071.58 2090.84 1040.53C2081.37 1036.36 2071.88 1031.88 2062.61 1027.2C2036.83 1014.08 2012.06 998.92 1988.99 982.13C1969.28 967.8 1950.5 952.13 1933.17 935.57C1912.45 915.86 1893.08 894.26 1875.6 871.37C1869.21 862.91 1863.69 855.25 1858.74 847.97C1847.92 832.15 1837.76 815.47 1828.56 798.38C1785.13 717.62 1763.19 626.64 1765.1 535.26C1768.56 370.44 1846.59 219.45 1979.18 121.02C2055.85 64.0705 2146.64 28.4305 2241.74 17.9605C2259.74 15.9305 2278.46 14.8005 2297.39 14.6105C2309.53 14.5005 2322 14.8105 2334.44 15.5505C2373.19 17.8105 2411.83 24.2105 2449.27 34.5705C2487.07 44.9905 2523.76 59.4405 2558.31 77.5405C2573.35 85.4305 2588.23 94.1504 2602.56 103.48C2608.2 107.1 2613.58 110.73 2618.53 114.26C2664.21 146.22 2704.8 185.21 2739.16 230.14C2827.16 345.39 2864.59 487.191 2844.55 629.411C2824.67 770.511 2750.45 895.2 2635.58 980.49C2541.04 1050.71 2427.11 1086.83 2311.96 1086.83H2311.94ZM1766.71 535.301L1768.32 535.33C1766.42 626.15 1788.23 716.58 1831.39 796.85C1840.54 813.83 1850.63 830.421 1861.39 846.151C1866.32 853.391 1871.8 861.011 1878.16 869.421C1895.54 892.171 1914.79 913.64 1935.39 933.24C1952.62 949.7 1971.29 965.281 1990.89 979.531C2013.82 996.221 2038.44 1011.29 2064.07 1024.33C2073.28 1028.97 2082.72 1033.43 2092.14 1037.58C2162.62 1068.44 2237.56 1083.61 2311.95 1083.61C2426.43 1083.61 2539.66 1047.72 2633.65 977.901C2747.83 893.121 2821.59 769.2 2841.36 628.96C2861.28 487.59 2824.07 346.64 2736.6 232.09C2702.45 187.43 2662.1 148.67 2616.67 116.89C2611.75 113.38 2606.42 109.781 2600.81 106.181C2586.56 96.9005 2571.77 88.2305 2556.82 80.3905C2522.47 62.4005 2486 48.0205 2448.42 37.6705C2411.2 27.3705 2372.79 21.0105 2334.26 18.7605C2321.89 18.0305 2309.51 17.7105 2297.42 17.8205C2278.61 18.0105 2259.99 19.1305 2242.1 21.1505C2147.57 31.5605 2057.32 66.9804 1981.11 123.6C1849.32 221.44 1771.77 371.51 1768.33 535.33L1766.72 535.301H1766.71Z" fill="#371A45"/>
<path d="M2634.6 979.191C2473.23 1099.08 2265.09 1115.1 2091.47 1039.04C2081.99 1034.88 2072.61 1030.45 2063.34 1025.77C2037.9 1012.85 2013.34 997.861 1989.94 980.851C1970.57 966.741 1951.91 951.281 1934.28 934.431C1913.75 914.921 1894.56 893.581 1876.85 870.411C1871.05 862.681 1865.4 854.931 1860.04 847.091C1849.03 830.981 1839.05 814.461 1829.97 797.621C1785.53 714.971 1764.81 624.631 1766.7 535.291C1767.72 486.221 1775.55 437.471 1789.98 390.551C1790.16 475.851 1810.96 561.691 1853.36 640.541C1862.41 657.411 1872.42 673.901 1883.43 690.011C1888.75 697.851 1894.41 705.601 1900.24 713.331C1917.95 736.501 1937.14 757.841 1957.64 777.351C1975.3 794.201 1993.93 809.661 2013.3 823.771C2036.7 840.781 2061.3 855.771 2086.7 868.691C2096.01 873.381 2105.38 877.811 2114.87 881.971C2288.48 958.031 2496.59 942.011 2658 822.121C2752.18 752.211 2816.25 657.431 2848.12 553.791C2848.55 715.611 2774.96 875.011 2634.61 979.201L2634.6 979.191Z" fill="#D8D8D8"/>
<path d="M2311.93 1097.61C2235.62 1097.61 2158.8 1082.06 2086.51 1050.41C2076.85 1046.15 2067.18 1041.59 2057.75 1036.83C2031.43 1023.44 2006.17 1007.98 1982.64 990.851C1962.54 976.241 1943.39 960.261 1925.71 943.371C1904.6 923.291 1884.85 901.261 1867.02 877.921C1860.48 869.271 1854.86 861.471 1849.81 854.031C1838.79 837.921 1828.44 820.911 1819.06 803.491C1774.75 721.091 1752.36 628.261 1754.32 535.041C1757.85 366.861 1837.47 212.801 1972.75 112.361C2050.95 54.2706 2143.56 17.9207 2240.55 7.24065C2258.88 5.17065 2277.98 4.02068 2297.27 3.83068C2309.67 3.72068 2322.38 4.04064 2335.07 4.79064C2374.58 7.10064 2413.97 13.6207 2452.14 24.1807C2490.67 34.8007 2528.08 49.5406 2563.31 67.9906C2578.65 76.0306 2593.83 84.9306 2608.44 94.4406C2614.17 98.1106 2619.69 101.841 2624.79 105.481C2671.3 138.021 2712.69 177.781 2747.72 223.581C2837.49 341.141 2875.67 485.801 2855.22 630.911C2834.93 774.891 2759.21 902.111 2642 989.141C2545.57 1060.77 2429.38 1097.6 2311.94 1097.6L2311.93 1097.61ZM1779.1 535.551C1777.23 624.511 1798.6 713.101 1840.89 791.741C1849.85 808.391 1859.75 824.651 1870.29 840.061C1875.13 847.181 1880.51 854.651 1886.76 862.921C1903.76 885.171 1922.63 906.221 1942.82 925.421C1959.72 941.571 1978.02 956.831 1997.22 970.801C2019.7 987.161 2043.83 1001.93 2068.95 1014.71C2077.96 1019.25 2087.23 1023.63 2096.48 1027.7C2271.88 1104.51 2475.25 1082.11 2627.21 969.241C2739.06 886.201 2811.31 764.821 2830.67 627.451C2850.18 488.961 2813.73 350.871 2728.02 238.631C2694.55 194.861 2655 156.861 2610.48 125.721C2605.62 122.251 2600.44 118.751 2594.98 115.261C2580.95 106.121 2566.45 97.6206 2551.8 89.9406C2518.14 72.3106 2482.38 58.2207 2445.54 48.0707C2409.04 37.9707 2371.38 31.7307 2333.61 29.5307C2321.48 28.8107 2309.35 28.5106 2297.5 28.6106C2279.06 28.7906 2260.82 29.8907 2243.29 31.8707C2150.63 42.0707 2062.19 76.7807 1987.52 132.261C1858.43 228.101 1782.46 375.091 1779.09 535.561L1779.1 535.551Z" fill="#371A45"/>
<path d="M2311.93 1101.21C2235.13 1101.21 2157.83 1085.57 2085.07 1053.7C2075.35 1049.42 2065.62 1044.83 2056.13 1040.04C2029.63 1026.56 2004.21 1010.99 1980.53 993.76C1960.3 979.06 1941.03 962.97 1923.23 945.97C1901.99 925.76 1882.11 903.59 1864.17 880.1C1857.58 871.38 1851.93 863.54 1846.84 856.05C1835.75 839.85 1825.33 822.72 1815.89 805.19C1771.29 722.25 1748.75 628.8 1750.72 534.96C1754.27 365.66 1834.42 210.58 1970.61 109.47C2049.32 51.0002 2142.53 14.4102 2240.16 3.66025C2258.61 1.58025 2277.83 0.420253 2297.24 0.230253C2309.72 0.100253 2322.52 0.440275 2335.28 1.19027C2375.04 3.51027 2414.68 10.0803 2453.1 20.7003C2491.87 31.3803 2529.52 46.2203 2564.98 64.7903C2580.42 72.8903 2595.7 81.8403 2610.4 91.4203C2616.16 95.1103 2621.73 98.8703 2626.87 102.55C2673.65 135.28 2715.31 175.3 2750.57 221.4C2840.93 339.74 2879.36 485.35 2858.77 631.42C2838.35 776.36 2762.12 904.43 2644.13 992.03C2547.08 1064.12 2430.12 1101.2 2311.93 1101.2V1101.21ZM1782.69 535.64C1780.84 623.98 1802.06 711.96 1844.05 790.05C1852.95 806.58 1862.78 822.73 1873.25 838.04C1878.06 845.12 1883.41 852.54 1889.62 860.76C1906.49 882.85 1925.24 903.75 1945.29 922.83C1962.08 938.87 1980.25 954.03 1999.33 967.91C2021.65 984.16 2045.62 998.83 2070.57 1011.52C2079.51 1016.03 2088.73 1020.38 2097.92 1024.43C2272.12 1100.72 2474.13 1078.49 2625.06 966.37C2736.13 883.91 2807.88 763.37 2827.1 626.97C2846.48 489.44 2810.27 352.3 2725.15 240.83C2691.9 197.35 2652.62 159.62 2608.41 128.68C2603.57 125.23 2598.44 121.76 2593.03 118.3C2579.08 109.21 2564.67 100.77 2550.12 93.1403C2516.68 75.6303 2481.17 61.6303 2444.58 51.5503C2408.32 41.5203 2370.92 35.3203 2333.4 33.1303C2321.34 32.4203 2309.29 32.0902 2297.54 32.2202C2279.23 32.4002 2261.11 33.4903 2243.7 35.4603C2151.66 45.5903 2063.83 80.0703 1989.67 135.16C1861.47 230.33 1786.03 376.3 1782.69 535.65V535.64Z" fill="#371A45"/>
<path d="M1781.62 671.61C1947.55 1018.12 2400.17 1097.14 2608.84 781.79C2750.81 567.24 2646.65 262.29 2428.24 138.83C2269.27 48.9701 2074.94 29.6402 1868.64 234.16C1868.64 234.16 1791.59 338.77 1779.36 430.73C1767.14 522.69 1770.97 614.31 1770.97 614.31L1781.62 671.6V671.61Z" fill="#371A45"/>
<path d="M2608.82 781.79C2400.16 1097.14 1947.54 1018.11 1781.61 671.63L1779.46 660.01C2051.7 886.25 2456.8 880.28 2673.81 565.37C2673.01 640.77 2652.61 715.57 2608.82 781.79Z" fill="#220F2D"/>
<path d="M2250.41 1051.51C2138.09 1051.51 2023.56 1015.49 1925.2 947.57L1923.26 946C1901.99 925.77 1882.11 903.6 1864.17 880.11C1857.58 871.39 1851.93 863.55 1846.84 856.06C1835.75 839.86 1825.33 822.73 1815.89 805.2C1771.29 722.26 1748.75 628.81 1750.72 534.97C1754.27 365.67 1834.42 210.59 1970.61 109.48C2049.32 51.0102 2142.53 14.4202 2240.16 3.67023L2241.79 3.49023L2243.42 3.64026C2314.85 10.4503 2388.19 34.8903 2461.41 76.2703C2593.22 150.77 2693.82 286.43 2730.53 439.16C2763.6 576.76 2742.06 712.62 2669.87 821.71C2591.32 940.39 2479.59 1016.7 2346.76 1042.37C2315.13 1048.48 2282.85 1051.49 2250.41 1051.49V1051.51ZM1944.4 921.97C2063.96 1004.14 2208.33 1036.58 2340.7 1010.99C2464.9 986.99 2569.51 915.44 2643.21 804.08C2710.45 702.47 2730.42 575.53 2699.45 446.65C2664.78 302.39 2569.92 174.34 2445.69 104.12C2376.96 65.2702 2308.46 42.2403 2242.04 35.6403C2150.64 45.9903 2063.41 80.3903 1989.69 135.15C1861.49 230.32 1786.05 376.29 1782.71 535.64C1780.86 623.98 1802.08 711.96 1844.07 790.05C1852.97 806.58 1862.8 822.73 1873.27 838.04C1878.08 845.12 1883.43 852.54 1889.64 860.76C1906.26 882.52 1924.69 903.12 1944.4 921.96V921.97Z" fill="#371A45"/>
<path d="M2247.52 995.93C2236.55 995.93 2225.5 995.55 2214.36 994.78C2025.72 981.75 1854.38 860.56 1767.21 678.52L1766.3 676.61L1755.01 614.99C1754.85 611.19 1751.26 520.92 1763.53 428.63C1776.15 333.69 1852.53 229.09 1855.78 224.68L1857.4 222.81C2038.57 43.1902 2233.28 10.2502 2436.12 124.91C2553.8 191.43 2643.62 312.54 2676.39 448.88C2705.93 571.78 2686.68 693.14 2622.18 790.61C2535.02 922.32 2399.82 995.93 2247.52 995.93ZM1796.96 666.6C1879.45 837.23 2040.04 950.69 2216.57 962.88C2370.53 973.54 2508.62 904.3 2595.52 772.97C2655.07 682.98 2672.75 570.54 2645.3 456.36C2614.57 328.48 2530.48 214.98 2420.38 152.75C2231.87 46.2001 2050.34 77.1101 1880.83 244.61C1873.23 255.2 1806.15 350.64 1795.22 432.85C1784.03 517.05 1786.54 601.96 1786.91 612.56L1796.95 666.61L1796.96 666.6Z" fill="#371A45"/>
<path d="M2829.04 880.491C2782.07 974.741 2686.16 1025.84 2614.8 994.601C2543.44 963.361 2523.67 861.631 2570.64 767.381C2570.92 766.781 2571.25 766.171 2571.57 765.581C2618.83 672.471 2714.02 622.241 2784.88 653.261C2840.01 677.391 2864.34 743.591 2850.92 815.901C2846.96 837.191 2839.72 859.041 2829.04 880.471V880.491Z" fill="#F2F2F2"/>
<path d="M2829.04 880.49C2782.07 974.74 2686.16 1025.84 2614.8 994.6C2543.44 963.36 2523.67 861.63 2570.64 767.38C2570.92 766.78 2571.25 766.17 2571.57 765.58C2574.6 778.69 2582.06 793.56 2600.2 797.59C2631.98 804.64 2714.18 766.79 2714.18 766.79C2714.18 766.79 2773.62 787.7 2850.92 815.91C2846.96 837.2 2839.72 859.05 2829.04 880.48V880.49Z" fill="#D8D8D8"/>
<path d="M2659.23 1019.62C2641.64 1019.62 2624.47 1016.28 2608.4 1009.24C2576.42 995.24 2552.65 968.9 2539.65 933.08C2521.06 881.83 2527.14 818.83 2556.34 760.25C2606.97 658.64 2712.37 604.09 2791.3 638.64C2823.28 652.64 2847.05 678.98 2860.05 714.8C2878.64 766.05 2872.55 829.05 2843.36 887.63C2803.04 968.54 2727.99 1019.62 2659.23 1019.62ZM2739.55 660C2683.03 660 2619.77 704.62 2584.95 774.51C2560.01 824.55 2554.31 879.76 2569.7 922.18C2579.64 949.57 2597.45 969.55 2621.21 979.95C2684.76 1007.78 2771.58 959.96 2814.73 873.37C2839.67 823.33 2845.37 768.13 2829.98 725.7C2820.05 698.3 2802.23 678.33 2778.47 667.92C2766.2 662.55 2753.07 660 2739.55 660Z" fill="#371A45"/>
<path d="M2830.7 919.153C2875.05 848.15 2867.49 763.412 2813.81 729.885C2760.14 696.358 2680.67 726.737 2636.32 797.74C2591.97 868.742 2599.53 953.48 2653.21 987.007C2706.88 1020.53 2786.35 990.155 2830.7 919.153Z" fill="#F2F2F2"/>
<path d="M2702.37 1002.12C2699.73 1002.12 2697.11 1002.02 2694.5 1001.83C2666.7 999.771 2643.42 986.991 2627.17 964.891C2588.14 911.781 2603.89 820.731 2662.28 761.931C2694.84 729.141 2734.93 711.941 2772.31 714.711C2800.11 716.771 2823.39 729.551 2839.64 751.651C2878.67 804.761 2862.92 895.811 2804.53 954.611C2774.25 985.101 2737.44 1002.12 2702.37 1002.12V1002.12ZM2764.44 717.751C2730.26 717.751 2694.31 734.421 2664.66 764.281C2607.38 821.971 2591.77 911.071 2629.87 962.911C2645.52 984.201 2667.95 996.511 2694.75 998.501C2731.16 1001.19 2770.3 984.341 2802.16 952.251C2859.44 894.561 2875.05 805.461 2836.95 753.621C2821.3 732.331 2798.87 720.021 2772.07 718.031C2769.54 717.841 2766.99 717.751 2764.44 717.751V717.751Z" fill="#371A45"/>
<path d="M2607.68 867.761C2613.73 839.701 2627.61 813.251 2646.24 791.181C2637.9 856.361 2677.99 904.421 2740.22 900.611C2780.43 898.161 2820.64 874.581 2849.46 840.411C2848.96 844.521 2848.21 848.741 2847.3 853.001C2831.85 924.451 2765.69 985.671 2699.51 989.741C2633.33 993.811 2592.24 939.171 2607.67 867.761H2607.68Z" fill="#D8D8D8"/>
<path d="M2697.64 1016.21C2684.47 1016.21 2671.63 1013.74 2659.53 1008.55C2635.52 998.26 2617.61 978.51 2607.73 951.42C2592.61 909.97 2598.51 855.55 2623.52 805.85C2666.5 720.45 2749.25 674.6 2811.89 701.43C2835.9 711.72 2853.81 731.47 2863.69 758.56C2878.81 800.01 2872.91 854.43 2847.89 904.13C2813.21 973.04 2752.64 1016.21 2697.63 1016.21H2697.64ZM2774.52 725.94C2731.82 725.94 2680.5 763.75 2652.08 820.23C2630.96 862.2 2625.61 907.15 2637.76 940.47C2644.54 959.06 2656.43 972.45 2672.12 979.17C2717.69 998.69 2785.12 957.76 2819.34 889.76C2840.46 847.79 2845.81 802.84 2833.66 769.53C2826.88 750.93 2815 737.55 2799.3 730.83C2791.58 727.52 2783.23 725.95 2774.52 725.95V725.94Z" fill="#371A45"/>
<g opacity="0.5">
<path d="M2503.77 290.93C2503.77 290.93 2294.22 169.37 2107.49 223.91C2107.29 223.97 2107.1 224.02 2106.9 224.08C2067.61 235.59 2020.5 271.64 1992.67 301.26C1955.86 340.43 1936.34 372.81 1920.28 401.98C1871.48 490.71 1865.48 541.46 1865.48 541.46C1839.96 466.68 1840.33 397.73 1880.23 323.42C1884.18 316.11 1888.54 308.71 1893.25 301.26C1894.33 299.54 1895.44 297.86 1896.58 296.18C1896.55 296.14 1896.58 296.11 1896.66 296.09C1907.28 281.67 1921.96 263.25 1940.29 243.86C1995.54 185.34 2089.93 127.2 2199.56 133.2C2404.54 144.42 2516.29 285.69 2503.77 290.92V290.93Z" fill="#F2F2F2"/>
</g>
<g opacity="0.5">
<path d="M2604.57 605.956C2615 561.24 2591.9 517.629 2552.97 508.548C2514.04 499.467 2474.03 528.356 2463.6 573.072C2453.16 617.789 2476.27 661.4 2515.2 670.481C2554.13 679.562 2594.14 650.673 2604.57 605.956Z" fill="#F2F2F2"/>
</g>
<g opacity="0.5">
<path d="M2528.23 740.459C2530.8 721.669 2519.63 704.621 2503.28 702.382C2486.94 700.142 2471.59 713.559 2469.02 732.349C2466.45 751.139 2477.61 768.187 2493.96 770.426C2510.31 772.666 2525.65 759.249 2528.23 740.459Z" fill="#F2F2F2"/>
</g>
<path d="M2426.31 1635.56C2222.74 1648.08 2114.19 1480.55 2114.19 1480.55C2114.19 1480.55 2170.95 1437.45 2217.55 1392.9C2264.15 1348.36 2289.14 1326.67 2289.14 1326.67L2333.38 1328.55L2378.97 1330.51C2378.97 1330.51 2429.23 1271.7 2452.35 1177.07L2431.58 1096.05C2515.22 979.91 2698.24 970.23 2718.87 1159.14C2721.05 1178.9 2722.53 1201.15 2722.84 1224.93V1224.97C2725.11 1386.87 2674.59 1620.28 2426.3 1635.55L2426.31 1635.56Z" fill="#F2F2F2"/>
<path d="M2426.31 1635.56C2222.74 1648.08 2114.19 1480.55 2114.19 1480.55C2114.19 1480.55 2170.95 1437.45 2217.55 1392.9C2264.15 1348.36 2289.14 1326.67 2289.14 1326.67L2378.97 1328.55C2383.54 1367.63 2286.02 1494.13 2381.5 1529.76C2584.65 1605.57 2700.47 1390.85 2722.85 1224.97C2725.12 1386.87 2674.6 1620.28 2426.31 1635.55V1635.56Z" fill="#D8D8D8"/>
<path d="M2425.09 1091.37C2438.78 1063.92 2461.07 1040.6 2487.69 1024C2501.03 1015.69 2515.54 1009.17 2530.69 1004.43C2545.84 999.691 2561.71 996.76 2577.87 996.19C2594.01 995.61 2610.46 997.45 2626.27 1002.16C2642.07 1006.84 2657.16 1014.45 2670.32 1024.52C2683.52 1034.56 2694.65 1047.02 2703.58 1060.56C2712.56 1074.11 2719.24 1088.8 2724.28 1103.76C2729.31 1118.74 2732.63 1134.04 2734.78 1149.34C2736.82 1164.66 2738.02 1179.2 2738.93 1194.2C2740.67 1223.98 2740.67 1253.83 2738.79 1283.65C2736.93 1313.46 2733.17 1343.24 2727.06 1372.7C2720.98 1402.15 2712.51 1431.33 2700.68 1459.4C2688.91 1487.46 2673.99 1514.57 2655.05 1539.05C2636.2 1563.53 2613.42 1585.39 2587.48 1602.67C2561.57 1620 2532.77 1632.73 2503.07 1640.97C2473.29 1649.25 2442.89 1653.13 2412.35 1653.83C2381.74 1654.71 2350.98 1650.88 2321.2 1643.65C2306.35 1639.88 2291.65 1635.37 2277.46 1629.65C2270.27 1627 2263.36 1623.72 2256.36 1620.66C2249.52 1617.26 2242.6 1614.02 2235.96 1610.25C2209.11 1595.73 2184.31 1577.81 2161.61 1557.71C2150.29 1547.61 2139.57 1536.88 2129.42 1525.6C2124.34 1519.96 2119.42 1514.18 2114.67 1508.2C2112.28 1505.23 2109.95 1502.19 2107.66 1499.09C2105.31 1495.92 2103.22 1493.01 2100.75 1489.25C2096.17 1482.24 2097.82 1472.98 2104.32 1467.95L2104.49 1467.82C2119.55 1456.25 2134.68 1444.11 2149.41 1431.83C2164.18 1419.54 2178.72 1406.98 2192.81 1394.08C2206.72 1381.31 2220.84 1367.49 2235.13 1354.25C2249.46 1340.89 2263.67 1327.76 2278.65 1314.6C2281.81 1311.83 2285.76 1310.55 2289.65 1310.7H2289.8L2379.63 1314.53L2366.79 1320.12C2370.15 1315.27 2374.06 1309.23 2377.7 1303.68C2381.29 1297.91 2384.99 1292.19 2388.4 1286.28C2391.94 1280.44 2395.32 1274.5 2398.61 1268.5L2403.57 1259.5L2408.25 1250.34C2414.55 1238.15 2420.29 1225.66 2425.97 1213.06C2431.94 1200.55 2437.45 1187.82 2444.56 1175.16L2444.71 1174.89C2446.93 1170.93 2451.94 1169.53 2455.89 1171.75C2458.58 1173.26 2460.09 1176.08 2460.08 1178.96C2459.99 1193.93 2457.77 1208.73 2453.9 1223.03C2450.22 1237.42 2444.68 1251.21 2438.91 1264.88C2432.95 1278.48 2426 1291.65 2418.24 1304.37C2414.32 1310.7 2410.2 1316.94 2405.77 1322.99C2401.26 1329.15 2396.82 1334.72 2391.1 1340.89L2390.59 1341.44C2387.31 1344.97 2382.73 1346.67 2378.26 1346.48L2288.43 1342.65L2299.58 1338.76C2285.37 1351.24 2271.03 1364.46 2256.95 1377.6C2242.74 1390.77 2229.1 1404.15 2214.39 1417.65C2199.83 1430.99 2184.95 1443.84 2169.86 1456.39C2154.74 1468.98 2139.57 1481.17 2123.82 1493.27L2127.57 1471.85C2129.14 1474.15 2131.32 1477.14 2133.36 1479.78C2135.44 1482.5 2137.58 1485.21 2139.8 1487.88C2144.19 1493.24 2148.8 1498.48 2153.55 1503.59C2163.05 1513.82 2173.13 1523.54 2183.66 1532.7C2204.73 1551.02 2227.63 1567.23 2252.16 1580.2C2258.23 1583.58 2264.54 1586.45 2270.76 1589.49C2277.14 1592.18 2283.41 1595.12 2289.93 1597.44C2302.8 1602.5 2316.07 1606.42 2329.47 1609.7C2356.33 1616.01 2383.94 1619.02 2411.59 1618.25C2439.26 1617.6 2467.1 1613.99 2493.47 1606.59C2519.88 1599.22 2545.01 1588.04 2567.54 1572.94C2590.1 1557.87 2609.91 1538.84 2626.57 1517.18C2643.29 1495.53 2656.72 1471.16 2667.44 1445.52C2688.81 1394.1 2699.83 1337.89 2703.81 1281.33C2705.8 1253.01 2706.02 1224.49 2704.57 1196.1C2703.83 1182.01 2702.71 1167.49 2701 1153.93C2699.2 1140.38 2696.39 1127.07 2692.23 1114.4C2684.01 1089.08 2670.06 1066.17 2650.1 1050.76C2630.28 1035.24 2604.79 1027.8 2578.85 1028.64C2552.81 1029.27 2526.87 1037.95 2503.47 1050.98C2479.77 1063.82 2458.45 1080.99 2438.01 1100.72L2437.91 1100.82C2434.69 1103.93 2429.57 1103.84 2426.46 1100.62C2424.02 1098.09 2423.56 1094.36 2425.04 1091.38L2425.09 1091.37Z" fill="#371A45"/>
<path d="M2070.88 1082.16C2055.1 1128.82 2043.81 1186.76 2043.81 1186.76Z" fill="#F2F2F2"/>
<path d="M2078.45 1084.72C2074.09 1101.94 2070.53 1119.43 2067.44 1137.01C2065.9 1145.8 2064.46 1154.61 2063.13 1163.44C2061.81 1172.23 2060.55 1181.18 2059.51 1189.81V1189.86C2058.44 1198.65 2050.46 1204.92 2041.67 1203.86C2032.88 1202.8 2026.61 1194.81 2027.67 1186.02C2027.76 1185.25 2027.93 1184.42 2028.13 1183.7C2030.61 1174.66 2033.18 1166 2035.86 1157.22C2038.54 1148.48 2041.32 1139.77 2044.21 1131.1C2050 1113.76 2056.24 1096.54 2063.32 1079.6C2065.03 1075.52 2069.72 1073.59 2073.8 1075.3C2077.51 1076.85 2079.44 1080.87 2078.48 1084.66L2078.46 1084.73L2078.45 1084.72Z" fill="#371A45"/>
<path d="M2579.09 1602.77C2578.66 1602.77 2578.22 1602.76 2577.78 1602.72C2568.98 1602.01 2562.42 1594.3 2563.13 1585.5C2579.25 1386.21 2397.79 1326.07 2390.05 1323.61C2381.65 1320.93 2376.99 1311.95 2379.65 1303.55C2382.31 1295.15 2391.28 1290.48 2399.68 1293.13C2401.87 1293.82 2453.9 1310.54 2504.09 1355.02C2550.81 1396.43 2604.51 1470.48 2595 1588.09C2594.32 1596.45 2587.33 1602.79 2579.08 1602.79L2579.09 1602.77Z" fill="#371A45"/>
<path d="M1951.07 1545.1C1948.19 1545.1 1945.27 1544.32 1942.64 1542.69C1903.54 1518.38 1885.14 1476.66 1889.41 1422.04C1897.15 1323.07 1979.75 1200.97 2062.71 1165.88C2070.85 1162.44 2080.22 1166.24 2083.66 1174.38C2087.1 1182.51 2083.3 1191.89 2075.16 1195.33C2002.88 1225.9 1928.1 1337.29 1921.28 1424.54C1917.95 1467.08 1930.82 1497.7 1959.52 1515.54C1967.02 1520.2 1969.32 1530.06 1964.66 1537.56C1961.63 1542.43 1956.41 1545.11 1951.07 1545.11V1545.1Z" fill="#371A45"/>
</svg>
