<svg width="250" height="250" viewBox="0 0 2809 2782" fill="none" xmlns="http://www.w3.org/2000/svg">
<path d="M529.33 2131.15L1121.68 1966.01L1266 1997L1288.82 2197.82L754.33 2348.25" fill="#00AAFF"/>
<path d="M49.3105 2069.96V1976.42L427.251 1989.5V2087.98L101.831 2076.17" fill="#F6F6F6"/>
<path d="M1108.05 1828.75V1987L472.25 2136.15L471 2136.1L34.25 2113.1C22.6 2112.5 13.5 2102.85 13.5 2091.25C13.5 2079.05 23.35 2069.3 35.4 2069.3C35.75 2069.3 36.1 2069.35 36.45 2069.35L427.25 2088V1989.5L49.3 1976.4C32.6 1975.85 19.35 1962.1 19.35 1945.4C19.35 1937.9 22 1930.95 26.55 1925.5C31.05 1920.1 37.4 1916.2 44.8 1914.85L698.5 1795.35L1108.05 1828.75V1828.75Z" fill="#FF1717"/>
<g opacity="0.6">
<path d="M1108.05 1828.75V1841.35L698.501 1821.6L44.8006 1941.1C37.4006 1942.45 31.0506 1946.35 26.5506 1951.75C24.8506 1953.8 23.4006 1956.05 22.2506 1958.45C20.4006 1954.5 19.3506 1950.05 19.3506 1945.4C19.3506 1937.9 22.0006 1930.95 26.5506 1925.5C31.0506 1920.1 37.4006 1916.2 44.8006 1914.85L698.501 1795.35L1108.05 1828.75V1828.75Z" fill="#F6F6F6"/>
</g>
<path d="M472.25 2148.68C472.03 2148.68 471.81 2148.68 471.59 2148.66L33.5803 2125.59C15.3103 2124.62 0.990234 2109.53 0.990234 2091.23C0.990234 2081.73 4.78027 2072.88 11.6503 2066.33C18.5303 2059.77 27.5103 2056.42 37.0303 2056.86L414.73 2074.87V2001.58L48.8502 1988.91C25.2802 1988.09 6.81024 1968.98 6.81024 1945.39C6.81024 1924.35 21.8303 1906.33 42.5303 1902.55L696.23 1783.04C697.31 1782.84 698.41 1782.8 699.5 1782.88L1109.05 1816.31C1115.54 1816.84 1120.53 1822.26 1120.53 1828.77V1987.01C1120.53 1992.81 1116.54 1997.85 1110.89 1999.18L475.09 2148.35C474.15 2148.57 473.2 2148.68 472.24 2148.68H472.25ZM35.3903 2081.82C32.9703 2081.82 30.6802 2082.73 28.9102 2084.42C27.0302 2086.21 26.0002 2088.63 26.0002 2091.23C26.0002 2096.23 29.9102 2100.36 34.9102 2100.62L471.13 2123.6L1095.55 1977.09V1840.28L699.13 1807.92L47.0502 1927.14C38.2302 1928.75 31.8403 1936.42 31.8403 1945.38C31.8403 1955.43 39.7102 1963.57 49.7502 1963.92L427.69 1977.01C434.42 1977.24 439.76 1982.77 439.76 1989.5V2087.98C439.76 2091.4 438.36 2094.67 435.89 2097.03C433.42 2099.39 430.1 2100.67 426.67 2100.47L35.8702 2081.83C35.7202 2081.83 35.5602 2081.83 35.4102 2081.83L35.3903 2081.82Z" fill="#232323"/>
<path d="M49.3105 2082.46C42.4105 2082.46 36.8105 2076.86 36.8105 2069.96V1976.42C36.8105 1969.52 42.4105 1963.92 49.3105 1963.92C56.2105 1963.92 61.8105 1969.52 61.8105 1976.42V2069.96C61.8105 2076.86 56.2105 2082.46 49.3105 2082.46Z" fill="#232323"/>
<path d="M472.25 2146.18C466.76 2146.18 462.29 2141.75 462.25 2136.25L461.06 1955.38L24.1403 1938.23C18.6203 1938.01 14.3203 1933.36 14.5403 1927.84C14.7603 1922.32 19.3503 1918.03 24.9303 1918.24L471.4 1935.77C476.74 1935.98 480.97 1940.35 481.01 1945.7L482.26 2136.12C482.3 2141.64 477.85 2146.15 472.33 2146.19H472.26L472.25 2146.18Z" fill="#232323"/>
<path d="M470.991 1955.75C466.271 1955.75 462.071 1952.39 461.171 1947.58C460.161 1942.15 463.741 1936.93 469.171 1935.92L1076.05 1823C1081.46 1821.99 1086.7 1825.57 1087.71 1831C1088.72 1836.43 1085.14 1841.65 1079.71 1842.66L472.831 1955.58C472.211 1955.69 471.601 1955.75 470.991 1955.75Z" fill="#232323"/>
<g opacity="0.3">
<path d="M1108.05 1843.25V1987L472.25 2136.15L471 2136.1V1945.75L1077.9 1832.85L1108.05 1843.25Z" fill="#232323"/>
</g>
<path d="M622.85 2110.84C617.55 2110.84 613.13 2106.68 612.87 2101.33L604 1919.64C603.73 1914.12 607.98 1909.43 613.5 1909.16C619.02 1908.95 623.7 1913.15 623.98 1918.66L632.85 2100.35C633.12 2105.87 628.87 2110.56 623.35 2110.83C623.18 2110.83 623.02 2110.84 622.85 2110.84Z" fill="#232323"/>
<path d="M973.49 2031.17C968.36 2031.17 963.99 2027.24 963.54 2022.03L949.17 1855.79C948.69 1850.29 952.77 1845.44 958.27 1844.96C963.74 1844.49 968.62 1848.56 969.1 1854.06L983.47 2020.3C983.95 2025.8 979.87 2030.65 974.37 2031.13C974.08 2031.15 973.79 2031.17 973.5 2031.17H973.49Z" fill="#232323"/>
<g opacity="0.3">
<path d="M54.75 2009.99L421 2021.17L427.25 1989.5L54.75 1980.33" fill="#232323"/>
</g>
<path d="M55.07 2011.17L106.08 2020.33C107.45 2020.58 108.37 2021.89 108.12 2023.26C107.92 2024.39 107 2025.2 105.92 2025.33L54.43 2031.16C48.88 2031.79 43.88 2027.8 43.25 2022.25C42.62 2016.71 46.61 2011.7 52.16 2011.07C53.14 2010.96 54.16 2011 55.08 2011.17H55.07Z" fill="#232323"/>
<path d="M427.251 2045.33L337.671 2037.83C336.291 2037.72 335.261 2036.5 335.381 2035.12C335.481 2033.88 336.471 2032.93 337.671 2032.83L427.251 2025.33C432.771 2024.87 437.621 2028.97 438.091 2034.49C438.551 2040.01 434.451 2044.87 428.931 2045.33C428.381 2045.38 427.791 2045.37 427.261 2045.33H427.251Z" fill="#232323"/>
<path d="M845.54 2324.76L1320.42 2158.99L1336 2331.12L861.12 2496.89" fill="#F2C819"/>
<path d="M777.251 2186.15H248.391V2281.15H777.251V2186.15Z" fill="#F6F6F6"/>
<path d="M828.5 2164.9V2297C828.5 2315.64 813.39 2330.75 794.75 2330.75H238.3C224.6 2330.75 213.5 2319.65 213.5 2305.95C213.5 2292.25 224.6 2281.15 238.3 2281.15H777.25V2186.15H233.3C219.6 2186.15 208.5 2175.05 208.5 2161.35V2155.95C208.5 2142.25 219.6 2131.15 233.3 2131.15H794.75C813.39 2131.15 828.5 2146.26 828.5 2164.9V2164.9Z" fill="#00AAFF"/>
<path d="M794.75 2343.25H238.3C217.73 2343.25 201 2326.52 201 2305.95C201 2285.38 217.73 2268.65 238.3 2268.65H764.75V2198.65H233.3C212.73 2198.65 196 2181.92 196 2161.35V2155.95C196 2135.38 212.73 2118.65 233.3 2118.65H794.75C820.25 2118.65 841 2139.4 841 2164.9V2297C841 2322.5 820.25 2343.25 794.75 2343.25V2343.25ZM238.3 2293.65C231.52 2293.65 226 2299.17 226 2305.95C226 2312.73 231.52 2318.25 238.3 2318.25H794.75C806.47 2318.25 816 2308.72 816 2297V2164.9C816 2153.18 806.47 2143.65 794.75 2143.65H233.3C226.52 2143.65 221 2149.17 221 2155.95V2161.35C221 2168.13 226.52 2173.65 233.3 2173.65H777.25C784.15 2173.65 789.75 2179.25 789.75 2186.15V2281.15C789.75 2288.05 784.15 2293.65 777.25 2293.65H238.3V2293.65Z" fill="#232323"/>
<path d="M248.391 2293.65C241.491 2293.65 235.891 2288.05 235.891 2281.15V2186.15C235.891 2179.25 241.491 2173.65 248.391 2173.65C255.291 2173.65 260.891 2179.25 260.891 2186.15V2281.15C260.891 2288.05 255.291 2293.65 248.391 2293.65Z" fill="#232323"/>
<g opacity="0.3">
<path d="M828.5 2241.88C828.5 2241.88 1141.56 2154.39 1152.71 2145.75C1163.86 2137.12 1212.25 2087.98 1212.25 2087.98L1242.79 2112L1168.5 2212.02L839.671 2324.23H818.19L828.5 2297" fill="#232323"/>
</g>
<path d="M248.611 2223.45L342.321 2231.15C343.701 2231.26 344.721 2232.47 344.611 2233.85C344.501 2235.13 343.441 2236.11 342.181 2236.15L248.181 2238.45C244.031 2238.55 240.591 2235.27 240.491 2231.12C240.391 2226.97 243.671 2223.53 247.811 2223.43C248.081 2223.43 248.351 2223.43 248.611 2223.45Z" fill="#232323"/>
<path d="M777.25 2241.15L686.63 2236.15C685.25 2236.07 684.19 2234.89 684.27 2233.51C684.34 2232.23 685.38 2231.22 686.63 2231.15L777.25 2226.15C781.39 2225.92 784.94 2229.09 785.16 2233.23C785.39 2237.37 782.22 2240.92 778.07 2241.15C777.79 2241.16 777.51 2241.16 777.24 2241.15H777.25Z" fill="#232323"/>
<g opacity="0.3">
<path d="M276 2120.75C279.75 2122 443.5 2186.15 443.5 2186.15L706 2136.15L1090.77 1997L596.01 2112.56" fill="#232323"/>
</g>
<g opacity="0.3">
<path d="M777.251 2186.15H248.391V2233.65H777.251V2186.15Z" fill="#232323"/>
</g>
<path d="M819.53 2379.24H290.67V2462.35H819.53V2379.24Z" fill="#F6F6F6"/>
<path d="M870.78 2360.65V2476.22C870.78 2492.53 855.67 2505.75 837.03 2505.75H280.58C266.88 2505.75 255.78 2496.04 255.78 2484.05C255.78 2472.07 266.88 2462.35 280.58 2462.35H819.53V2379.24H275.58C261.88 2379.24 250.78 2369.53 250.78 2357.54V2352.82C250.78 2340.84 261.88 2331.12 275.58 2331.12H837.03C855.67 2331.12 870.78 2344.34 870.78 2360.65V2360.65Z" fill="#F2C819"/>
<g opacity="0.3">
<path d="M870.78 2400.02L1168.5 2310.75C1168.5 2310.75 1163.16 2409.5 1152.71 2414.5C1142.25 2419.5 870.78 2493.52 870.78 2493.52V2450.47C870.78 2450.47 871.81 2459.7 870.78 2441.47" fill="#232323"/>
</g>
<path d="M837.03 2517.44H280.58C260.46 2517.44 244.09 2502.46 244.09 2484.05C244.09 2465.64 260.46 2450.66 280.58 2450.66H807.84V2390.93H275.58C255.46 2390.93 239.09 2375.95 239.09 2357.54V2352.82C239.09 2334.41 255.46 2319.43 275.58 2319.43H837.03C862.09 2319.43 882.47 2337.92 882.47 2360.65V2476.22C882.47 2498.95 862.08 2517.44 837.03 2517.44V2517.44ZM280.58 2474.05C273.48 2474.05 267.47 2478.63 267.47 2484.05C267.47 2489.47 273.47 2494.05 280.58 2494.05H837.03C849.19 2494.05 859.09 2486.05 859.09 2476.22V2360.65C859.09 2350.81 849.19 2342.81 837.03 2342.81H275.58C268.48 2342.81 262.47 2347.39 262.47 2352.81V2357.53C262.47 2362.95 268.47 2367.54 275.58 2367.54H819.53C825.99 2367.54 831.22 2372.77 831.22 2379.23V2462.34C831.22 2468.8 825.99 2474.03 819.53 2474.03H280.58V2474.05Z" fill="#232323"/>
<path d="M290.67 2474.05C284.21 2474.05 278.98 2468.82 278.98 2462.36V2379.25C278.98 2372.79 284.21 2367.56 290.67 2367.56C297.13 2367.56 302.36 2372.79 302.36 2379.25V2462.36C302.36 2468.82 297.13 2474.05 290.67 2474.05Z" fill="#232323"/>
<path d="M290.841 2411.42L384.58 2418.46C385.87 2418.56 386.84 2419.68 386.74 2420.97C386.65 2422.18 385.651 2423.1 384.461 2423.13L290.48 2425.44C286.6 2425.54 283.38 2422.47 283.29 2418.59C283.19 2414.71 286.26 2411.49 290.14 2411.4C290.37 2411.4 290.611 2411.4 290.841 2411.42Z" fill="#232323"/>
<path d="M819.53 2427.81L728.91 2423.13C727.62 2423.06 726.63 2421.96 726.69 2420.67C726.75 2419.46 727.73 2418.52 728.91 2418.45L819.53 2413.77C823.4 2413.57 826.71 2416.55 826.91 2420.42C827.11 2424.29 824.13 2427.6 820.26 2427.8C820.02 2427.81 819.77 2427.81 819.54 2427.8L819.53 2427.81Z" fill="#232323"/>
<g opacity="0.3">
<path d="M819.53 2379.24H290.67V2420.8H819.53V2379.24Z" fill="#232323"/>
</g>
<path d="M861.12 2509.4C855.95 2509.4 851.12 2506.17 849.32 2501.02C847.04 2494.5 850.48 2487.38 857 2485.1L1322.67 2322.54L1309.41 2176.07L849.651 2336.56C843.141 2338.83 836 2335.4 833.73 2328.88C831.45 2322.36 834.891 2315.23 841.411 2312.96L1316.29 2147.19C1319.93 2145.92 1323.94 2146.4 1327.18 2148.48C1330.42 2150.57 1332.51 2154.03 1332.86 2157.86L1348.44 2329.99C1348.96 2335.7 1345.52 2341.03 1340.11 2342.92L865.23 2508.69C863.87 2509.17 862.48 2509.39 861.11 2509.39L861.12 2509.4Z" fill="#232323"/>
<path d="M818.19 2153.12C813.06 2153.12 808.24 2149.93 806.42 2144.82C804.1 2138.32 807.49 2131.17 813.99 2128.84L1275.1 1964.11C1281.6 1961.79 1288.75 1965.18 1291.08 1971.68C1293.4 1978.18 1290.01 1985.33 1283.51 1987.66L822.4 2152.39C821.01 2152.89 819.59 2153.12 818.2 2153.12H818.19Z" fill="#232323"/>
<path d="M2791.75 2041.5C2792.95 2083 2773.95 2122.6 2740.5 2147.25C2705.45 2173.1 2647.65 2202.15 2553.5 2222.7L2269.35 1554.4L2314.35 1216C2314.35 1216 2491 1182 2542.65 1227C2558.15 1240.5 2586.15 1270.55 2618 1321.85C2689.65 1437.2 2780.7 1659.8 2791.75 2041.5V2041.5Z" fill="#F6F6F6"/>
<path d="M2553.49 2238.94C2546.01 2238.94 2539.29 2233.75 2537.63 2226.15C2535.72 2217.38 2541.28 2208.72 2550.04 2206.81C2627.56 2189.91 2688.4 2165.46 2730.88 2134.16C2759.87 2112.8 2776.54 2078.33 2775.49 2041.97C2768.73 1808.49 2731.58 1609.39 2665.08 1450.18C2605.69 1308.02 2543.8 1249.54 2532 1239.25C2498.71 1210.25 2382.71 1219.38 2317.41 1231.94C2308.6 1233.65 2300.08 1227.87 2298.38 1219.05C2296.68 1210.24 2302.45 1201.72 2311.27 1200.02C2330.15 1196.39 2497.33 1165.95 2553.35 1214.74C2577.58 1235.84 2790.54 1438.29 2807.98 2041.02C2809.34 2088.03 2787.73 2132.63 2750.17 2160.32C2703.99 2194.36 2638.99 2220.68 2556.97 2238.56C2555.8 2238.81 2554.64 2238.94 2553.49 2238.94V2238.94Z" fill="#232323"/>
<g opacity="0.3">
<path d="M2550.49 2210.03C2626.02 2190.29 2674.61 2165.03 2705.5 2142.25C2738.95 2117.6 2757.95 2078 2756.75 2036.5C2747.49 1716.81 2682.12 1508.77 2619.03 1381.83C2614.66 1448.33 2589.97 1550.97 2483.5 1587C2460.9 1594.65 2436.45 1607.75 2411.5 1624.9L2551.35 2213.66L2550.49 2210.03V2210.03Z" fill="#232323"/>
</g>
<path d="M2323.78 1304.93C2319.83 1304.93 2316.09 1302.57 2314.51 1298.68C2312.43 1293.56 2314.9 1287.73 2320.02 1285.66C2450.82 1232.63 2535.05 1213.84 2535.88 1213.65C2541.27 1212.46 2546.61 1215.88 2547.79 1221.27C2548.98 1226.66 2545.57 1232 2540.17 1233.18C2539.35 1233.36 2456.6 1251.86 2327.53 1304.19C2326.3 1304.69 2325.03 1304.92 2323.78 1304.92V1304.93Z" fill="#232323"/>
<path d="M2793.2 1790.1C2792.75 1810.7 2779.75 1829 2760.4 1836.3L2598.85 1897L2576.35 1734.65L2553.05 1566.65L2708 1518.25C2727.55 1535.15 2743.7 1556.2 2756.45 1581.3C2783.1 1633.6 2795.1 1703.5 2793.2 1790.1V1790.1Z" fill="#F6F6F6"/>
<path d="M2598.84 1912C2592.77 1912 2587.06 1908.29 2584.8 1902.27C2581.89 1894.52 2585.81 1885.87 2593.56 1882.95L2755.15 1822.23C2768.84 1817.08 2777.9 1804.33 2778.22 1789.74C2780.84 1669.96 2755.97 1584.37 2704.28 1535.11L2557.53 1580.94C2549.64 1583.41 2541.21 1579 2538.74 1571.09C2536.27 1563.18 2540.68 1554.77 2548.59 1552.3L2703.53 1503.92C2708.48 1502.38 2713.89 1503.5 2717.81 1506.89C2780.72 1561.26 2811.14 1656.65 2808.22 1790.4C2807.63 1817.31 2790.94 1840.83 2765.71 1850.31L2604.12 1911.03C2602.38 1911.68 2600.6 1911.99 2598.85 1911.99L2598.84 1912Z" fill="#232323"/>
<path d="M2584.75 1622C2580.57 1622 2576.66 1619.35 2575.27 1615.16C2573.52 1609.92 2576.35 1604.26 2581.59 1602.51L2740.38 1549.54C2745.6 1547.79 2751.28 1550.62 2753.03 1555.86C2754.78 1561.1 2751.95 1566.76 2746.71 1568.51L2587.92 1621.48C2586.87 1621.83 2585.8 1622 2584.75 1622Z" fill="#232323"/>
<path d="M2476 2508.25C2472.85 2574.05 2439.5 2619 2393.8 2655.45C2388.3 2659.9 2382.55 2664.15 2376.7 2668.35L2178.25 2513.75L2081.8 2438.65H1892.65C1726.2 2523.95 1540.95 2580.05 1344.35 2618.65C1216.15 2665.95 1123.9 2663.75 1072.6 2605.05C1058.15 2588.45 1049.2 2567.75 1045.4 2546.05L1033.45 2477L998.8 2276.95C991.1 2232.7 1000.65 2186.65 1027.35 2150.55C1091.05 2064.45 1202.25 2089.85 1272.5 2185L1849.35 2137.1C1880.15 2137.2 2151.4 2015 2151.4 2015L2543.5 1924.15C2545.15 1926.35 2546.75 1928.55 2548.3 1930.8C2660.95 2090.5 2637.15 2389.9 2476 2508.25V2508.25Z" fill="#F6F6F6"/>
<g opacity="0.3">
<path d="M2476 2508.25C2472.85 2574.05 2439.5 2619 2393.8 2655.45C2405.5 2591.8 2405.8 2492 2405.8 2492C2478.1 2457 2436.1 2374.9 2436.1 2374.9L2397.1 2318.45C2537.15 2375.85 2551 2058.75 2381.25 1997L2548.3 1930.8C2660.95 2090.5 2637.15 2389.9 2476 2508.25V2508.25Z" fill="#232323"/>
</g>
<g opacity="0.3">
<path d="M2793.2 1790.1C2792.75 1810.7 2779.75 1829 2760.4 1836.3L2598.85 1897L2576.35 1734.65C2582.05 1735.4 2587.8 1736.15 2593.5 1737C2743.25 1758.85 2756.3 1626.45 2756.45 1581.3C2783.1 1633.6 2795.1 1703.5 2793.2 1790.1V1790.1Z" fill="#232323"/>
</g>
<path d="M2376.71 2683.34C2372.02 2683.34 2367.41 2681.15 2364.48 2677.05C2359.67 2670.3 2361.24 2660.94 2367.99 2656.13C2429.47 2612.29 2458.17 2566.46 2461.02 2507.53C2461.24 2503.02 2463.48 2498.84 2467.12 2496.17C2534.25 2446.87 2581.74 2358.17 2597.42 2252.81C2615.13 2133.7 2589.87 2011.21 2531.49 1933.14C2526.53 1926.51 2527.88 1917.11 2534.52 1912.15C2541.15 1907.19 2550.56 1908.54 2555.51 1915.18C2618.51 1999.43 2645.94 2130.49 2627.09 2257.23C2610.68 2367.54 2561.07 2461.4 2490.52 2516.1C2483.55 2601.14 2427.49 2650.57 2385.4 2680.58C2382.76 2682.46 2379.72 2683.37 2376.7 2683.37L2376.71 2683.34Z" fill="#232323"/>
<path d="M2617 1873C2597.55 1905.2 2566.2 1928.4 2530.35 1939.75L2422.6 1974.05L2418.95 1975.2L1398.4 1777.85C1399.85 1764.2 1401.45 1750.75 1403.1 1737.45C1417.95 1619.05 1459.05 1505.45 1522.65 1404.5L1922.6 1338.3L2262.65 1282C2292 1284.45 2319.25 1291.75 2344.65 1303.25C2354.7 1307.75 2364.45 1312.95 2373.95 1318.8C2481.95 1384.85 2555.2 1530.4 2620.05 1695.35C2626.25 1711.1 2631.35 1727.35 2634.65 1743.95C2645.15 1796.4 2637.85 1838.6 2617 1873V1873Z" fill="#F6F6F6"/>
<g opacity="0.3">
<path d="M2617 1873C2597.55 1905.2 2566.2 1928.4 2530.35 1939.75L2422.6 1974.05L2407.25 1851.15C2512.9 1809.4 2503.5 1723.25 2503.5 1723.25C2500.82 1616.97 2438.35 1515.82 2380.8 1444.7C2354.09 1411.69 2306.83 1405.34 2271.79 1429.35C2112.54 1538.49 1860.56 1521.52 1635.99 1480.6C1645.59 1469.25 1828.49 1384.4 1922.59 1338.3L2262.64 1282C2291.99 1284.45 2319.24 1291.75 2344.64 1303.25C2346.69 1304.15 2348.74 1305.1 2350.79 1306.1C2358.69 1309.9 2366.39 1314.15 2373.94 1318.8C2481.94 1384.85 2555.19 1530.4 2620.04 1695.35C2626.24 1711.1 2631.34 1727.35 2634.64 1743.95C2645.14 1796.4 2637.84 1838.6 2616.99 1873H2617Z" fill="#232323"/>
</g>
<path d="M1556.01 2578.46C1555.15 2578.46 1554.28 2578.35 1553.41 2578.12C1548.08 2576.69 1544.91 2571.2 1546.34 2565.87C1554.05 2537.14 1546.17 2477.27 1546.09 2476.66C1545.36 2471.19 1549.2 2466.15 1554.67 2465.42C1560.14 2464.67 1565.18 2468.53 1565.91 2474C1566.26 2476.62 1574.41 2538.45 1565.66 2571.05C1564.46 2575.52 1560.42 2578.46 1556.01 2578.46V2578.46Z" fill="#232323"/>
<g opacity="0.3">
<path d="M2192.15 2204.05C2124.25 2228.3 2085 2321.9 2081.85 2438.65H1892.65C1726.2 2523.95 1540.95 2580.05 1344.35 2618.65C1216.15 2665.95 1123.9 2663.75 1072.6 2605.05C1058.15 2588.45 1049.2 2567.75 1045.4 2546.05L1033.45 2477C1181.25 2528.35 1218.9 2331.95 1218.9 2331.95C1218.9 2331.95 1242.55 2482 1242.8 2483.4C1243.05 2484.75 1286 2475.35 1286 2475.35L1432.25 2441.45C1438.5 2374.7 1349.75 2253.25 1349.75 2253.25L2181.45 2186.15C2181.45 2186.15 2185.8 2193.1 2192.15 2204.05V2204.05Z" fill="#232323"/>
</g>
<path d="M1660.81 2545.92C1660.06 2545.92 1659.29 2545.83 1658.53 2545.66C1653.15 2544.41 1649.81 2539.03 1651.06 2533.65C1655.96 2512.63 1643.79 2441.93 1638.69 2416.46C1637.61 2411.05 1641.12 2405.78 1646.53 2404.69C1651.95 2403.59 1657.21 2407.12 1658.3 2412.53C1660.27 2422.33 1677.3 2509.16 1670.53 2538.18C1669.46 2542.8 1665.34 2545.91 1660.8 2545.91L1660.81 2545.92Z" fill="#232323"/>
<path d="M2240.74 1487.99C2242.62 1508.32 2245.66 1528.88 2249.4 1549.07C2253.18 1569.29 2257.79 1589.32 2263.54 1608.88C2269.31 1628.42 2276.14 1647.57 2284.8 1665.47C2293.35 1683.37 2303.98 1700.05 2316.92 1712.97L2298.05 1710.54C2301.24 1708.84 2303.67 1707.74 2306.42 1706.54C2309.1 1705.34 2311.77 1704.31 2314.44 1703.23C2319.8 1701.19 2325.16 1699.29 2330.58 1697.65C2341.41 1694.34 2352.32 1691.6 2363.37 1689.71C2374.41 1687.82 2385.48 1686.37 2396.58 1685.88C2407.66 1685.15 2418.76 1685.46 2429.75 1686.01C2433.06 1686.18 2435.61 1689 2435.44 1692.31C2435.29 1695.34 2432.92 1697.73 2429.98 1697.99L2429.75 1698.01C2419.25 1698.95 2408.83 1700.11 2398.6 1702.25C2388.34 1704.15 2378.28 1706.95 2368.43 1710.09C2358.57 1713.23 2348.99 1717.14 2339.73 1721.45C2335.09 1723.6 2330.58 1725.96 2326.16 1728.39C2323.99 1729.64 2321.78 1730.87 2319.71 1732.19C2317.67 1733.43 2315.39 1734.92 2313.97 1735.98C2308.49 1740.06 2300.94 1739.39 2296.25 1734.7L2295.1 1733.55C2279.8 1715.82 2269.43 1695.88 2261.45 1675.7C2253.43 1655.48 2247.74 1634.81 2243.2 1614.07C2238.7 1593.31 2235.46 1572.44 2233.1 1551.52C2230.77 1530.56 2229.2 1509.73 2228.77 1488.53C2228.7 1485.22 2231.34 1482.48 2234.65 1482.41C2237.81 1482.35 2240.45 1484.74 2240.74 1487.84L2240.76 1488.01L2240.74 1487.99Z" fill="#232323"/>
<path d="M2284.33 1814.5H2266.83C2265.35 1814.5 2263.88 1814.24 2262.49 1813.72L2222.49 1798.91C2219.93 1797.96 2217.75 1796.2 2216.28 1793.9L2179.61 1736.3C2176.07 1730.73 2177.46 1723.36 2182.8 1719.48L2261.97 1661.88C2267.55 1657.82 2275.37 1659.05 2279.43 1664.63C2283.49 1670.21 2282.26 1678.03 2276.68 1682.09L2207.01 1732.78L2235.11 1776.92L2269.06 1789.49H2284.32C2291.22 1789.49 2296.82 1795.09 2296.82 1801.99C2296.82 1808.89 2291.22 1814.49 2284.32 1814.49L2284.33 1814.5Z" fill="#232323"/>
<path d="M2418.95 1990.21C2412.59 1990.21 2406.69 1986.14 2404.66 1979.75C2402.15 1971.85 2406.51 1963.42 2414.41 1960.91L2525.83 1925.48C2559.32 1914.83 2587.15 1893.44 2604.18 1865.25C2624.12 1832.25 2629.28 1793.54 2619.96 1746.91C2617.01 1732.13 2612.47 1717.07 2606.09 1700.85C2527.15 1500.07 2430.98 1312.3 2263.25 1297.11L1531.8 1418.19C1471.43 1515.83 1432.11 1626.71 1417.98 1739.31C1416.38 1752.08 1414.82 1765.57 1413.34 1779.42C1412.46 1787.65 1405.05 1793.61 1396.84 1792.75C1388.6 1791.87 1382.63 1784.49 1383.51 1776.25C1385 1762.21 1386.59 1748.53 1388.21 1735.58C1403.16 1616.46 1445.27 1499.22 1509.97 1396.51C1512.26 1392.88 1515.98 1390.41 1520.21 1389.71L2260.21 1267.21C2261.42 1267.01 2262.66 1266.95 2263.9 1267.06C2449.1 1282.4 2551.23 1479.34 2634 1689.87C2641.03 1707.76 2646.06 1724.49 2649.37 1741.03C2660.08 1794.6 2653.52 1841.62 2629.85 1880.77C2609.05 1915.18 2575.34 1941.21 2534.91 1954.07L2423.49 1989.5C2421.98 1989.98 2420.45 1990.21 2418.94 1990.21H2418.95Z" fill="#232323"/>
<path d="M1608.91 1504.59C1606.03 1512.68 1603.5 1521.35 1601.38 1529.88C1599.23 1538.45 1597.51 1547.1 1596.14 1555.75C1594.73 1564.39 1593.81 1573.06 1593.31 1581.66C1592.69 1590.26 1592.91 1598.8 1593.27 1607.2L1593.29 1607.6C1593.64 1615.91 1587.19 1622.94 1578.88 1623.29C1570.57 1623.64 1563.54 1617.19 1563.19 1608.88C1563.16 1608.07 1563.19 1607.2 1563.29 1606.42C1564.47 1596.77 1565.85 1587.24 1568.09 1577.98C1570.2 1568.7 1572.75 1559.6 1575.76 1550.71C1578.74 1541.81 1582.05 1533.09 1585.76 1524.56C1589.49 1515.99 1593.44 1507.76 1598.09 1499.41C1599.7 1496.51 1603.36 1495.47 1606.26 1497.09C1608.86 1498.54 1609.97 1501.64 1609 1504.35L1608.91 1504.6V1504.59Z" fill="#232323"/>
<path d="M2167.25 1894.5C2166.97 1894.5 2166.7 1894.5 2166.42 1894.47L1814.22 1871.12C1808.36 1870.73 1803.56 1866.31 1802.69 1860.5L1760.29 1577.6C1759.76 1574.05 1760.78 1570.45 1763.08 1567.7C1765.39 1564.96 1768.76 1563.33 1772.35 1563.25L2151.4 1554.15C2178.02 1553.52 2201.44 1569.84 2210.12 1594.91L2244.57 1694.51C2246.83 1701.04 2243.37 1708.15 2236.84 1710.41C2230.32 1712.67 2223.2 1709.21 2220.94 1702.68L2186.49 1603.08C2181.4 1588.36 2167.64 1578.86 2152.03 1579.14L1787.12 1587.9L1825.93 1846.84L2163.43 1869.22L2256.49 1798.58C2257.58 1794.77 2260.45 1791.54 2264.49 1790.16C2271.03 1787.95 2278.13 1791.44 2280.35 1797.97L2281.2 1800.47C2282.93 1805.56 2281.2 1811.2 2276.92 1814.45L2174.82 1891.95C2172.64 1893.61 2169.98 1894.49 2167.26 1894.49L2167.25 1894.5Z" fill="#232323"/>
<path d="M2181.43 1848.76C2177.37 1848.76 2173.54 1846.26 2172.05 1842.22L2109.03 1671.78H1859.33C1853.81 1671.78 1849.33 1667.3 1849.33 1661.78C1849.33 1656.26 1853.81 1651.78 1859.33 1651.78H2116C2120.18 1651.78 2123.93 1654.39 2125.38 1658.31L2190.81 1835.28C2192.72 1840.46 2190.08 1846.21 2184.9 1848.13C2183.76 1848.55 2182.59 1848.75 2181.43 1848.75V1848.76Z" fill="#232323"/>
<path d="M2116 1671.79C2113.76 1671.79 2111.51 1671.04 2109.65 1669.51C2105.38 1666 2104.77 1659.7 2108.29 1655.44L2179.12 1569.4C2182.63 1565.13 2188.93 1564.52 2193.19 1568.04C2197.46 1571.55 2198.07 1577.85 2194.55 1582.11L2123.72 1668.15C2121.74 1670.55 2118.88 1671.79 2116 1671.79V1671.79Z" fill="#232323"/>
<g opacity="0.3">
<path d="M2116 1661.79L2186.83 1575.75L2215.27 1648.08C2215.27 1648.08 2255.99 1637.83 2247.66 1605.75L2273.71 1672L2231.46 1694.91L2200.15 1724.31L2224.53 1783.6L2181.41 1811.45L2157.65 1774.5L2125.27 1686.92" fill="#232323"/>
</g>
<path d="M1644.35 2475.35H1522.65L1474.8 2301.4L1395.05 2011.6L1345.5 1831.6L1336 1797H1451L1460.85 1831.6L1604.35 2335L1644.35 2475.35Z" fill="#3185FF"/>
<path d="M1103.5 1589.05L1206 1518.25C1298.64 1581.72 1364.89 1662.14 1404.75 1759.5C1501.21 1651.76 1609.37 1564.15 1752.67 1537L1908.17 1595.42L1505.84 1797L1296.84 1805.33" fill="#F6F6F6"/>
<path d="M2167.25 2295.75C1986.55 2305.6 1812.8 2369.5 1644.35 2475.35L1604.35 2335L1451 1797C1598.55 1685.3 1767.35 1608 1971 1587L2073.7 1957.9L2167.25 2295.75Z" fill="#3185FF"/>
<g opacity="0.6">
<path d="M1980.45 1621.2C1778.4 1645.2 1609.7 1723 1461.6 1834.2L1451 1797C1598.55 1685.3 1767.35 1608 1971 1587L1980.45 1621.2Z" fill="#F6F6F6"/>
</g>
<path d="M1522.65 2475.35C1443.8 2350.45 1352.2 2249.65 1249.75 2169.5L1206.3 2025.25L1071 1575.75C1175.45 1613.25 1261.25 1692.6 1336 1797L1395.05 2011.6L1474.8 2301.4L1522.65 2475.35Z" fill="#3185FF"/>
<g opacity="0.6">
<path d="M1081.88 1611.9C1182.66 1666.52 1267.37 1743.49 1336 1842.83V1787C1254.53 1689.58 1170.64 1608.06 1077.88 1584.51" fill="#F6F6F6"/>
</g>
<g opacity="0.6">
<path d="M1460.85 1831.6H1345.5L1336 1797H1451L1460.85 1831.6Z" fill="#F6F6F6"/>
</g>
<path d="M1644.33 2487.83H1522.66C1517.03 2487.83 1512.1 2484.07 1510.61 2478.65L1323.95 1800.31C1322.92 1796.55 1323.7 1792.52 1326.06 1789.42C1328.42 1786.32 1332.1 1784.5 1336 1784.5H1451C1456.58 1784.5 1461.49 1788.2 1463.02 1793.57L1656.35 2471.9C1657.42 2475.67 1656.67 2479.73 1654.31 2482.86C1651.95 2485.99 1648.25 2487.83 1644.33 2487.83ZM1532.19 2462.83H1627.77L1441.56 1809.49H1352.4L1532.19 2462.83Z" fill="#232323"/>
<path d="M1644.35 2487.84C1640.19 2487.84 1636.13 2485.77 1633.75 2481.99C1630.08 2476.14 1631.84 2468.43 1637.68 2464.76C1809.02 2357.11 1981.66 2296.42 2151.09 2284.25L1961.78 1600.57C1779.39 1621.23 1614.66 1688.81 1458.54 1806.97C1453.03 1811.14 1445.2 1810.05 1441.03 1804.55C1436.86 1799.04 1437.95 1791.21 1443.45 1787.04C1606.32 1663.78 1778.46 1594.28 1969.71 1574.57C1975.76 1573.95 1981.41 1577.79 1983.04 1583.67L2179.29 2292.42C2180.3 2296.07 2179.6 2299.98 2177.4 2303.05C2175.19 2306.12 2171.71 2308.03 2167.93 2308.24C1995.44 2317.63 1826.34 2375.75 1650.98 2485.93C1648.91 2487.23 1646.61 2487.85 1644.34 2487.85L1644.35 2487.84Z" fill="#232323"/>
<path d="M1522.68 2487.84C1518.53 2487.84 1514.48 2485.78 1512.1 2482.01C1436.35 2362.07 1345.49 2260.24 1242.05 2179.35C1240.02 2177.76 1238.52 2175.58 1237.78 2173.11L1059.03 1579.36C1057.67 1574.84 1058.97 1569.94 1062.4 1566.69C1065.82 1563.44 1070.78 1562.4 1075.23 1563.99C1174.24 1599.55 1262.87 1673.38 1346.17 1789.73C1350.19 1795.34 1348.9 1803.15 1343.28 1807.17C1337.67 1811.19 1329.86 1809.89 1325.84 1804.28C1252.37 1701.67 1175.13 1633.57 1090.42 1596.87L1260.59 2162.11C1364.99 2244.38 1456.72 2347.5 1533.24 2468.66C1536.93 2474.5 1535.18 2482.22 1529.35 2485.9C1527.28 2487.21 1524.97 2487.83 1522.69 2487.83L1522.68 2487.84Z" fill="#232323"/>
<g opacity="0.3">
<path d="M2167.25 2295.75C1986.55 2305.6 1812.8 2369.5 1644.35 2475.35H1522.65C1443.8 2350.45 1352.2 2249.65 1249.75 2169.5L1206.3 2025.25C1244.65 2019.2 1275.75 2015 1275.75 2015C1288.85 2186.85 1418.5 2182.7 1395.05 2011.6L1474.8 2301.4C1512.25 2395.75 1585.12 2343.75 1593.92 2298.39L1593.9 2281.99C1991.85 2199.49 1959.15 1896.99 1959.15 1896.99L2073.7 1957.89L2167.25 2295.74V2295.75Z" fill="#232323"/>
</g>
<path d="M1404.75 1772C1404.04 1772 1403.33 1771.94 1402.63 1771.82C1398.39 1771.09 1394.82 1768.22 1393.19 1764.24C1355.47 1672.12 1292.51 1594.51 1205.98 1533.46L1110.61 1599.34C1104.93 1603.26 1097.14 1601.84 1093.22 1596.16C1089.3 1590.48 1090.72 1582.69 1096.4 1578.77L1198.9 1507.97C1203.17 1505.03 1208.8 1505.02 1213.07 1507.94C1301.55 1568.57 1367.24 1645.47 1408.55 1736.73C1522.25 1613.48 1628.28 1547.85 1750.34 1524.72C1752.59 1524.29 1754.92 1524.49 1757.06 1525.3L1912.56 1583.73C1919.02 1586.16 1922.29 1593.37 1919.86 1599.83C1917.43 1606.29 1910.23 1609.56 1903.76 1607.13L1751.56 1549.94C1632.01 1573.48 1527.76 1640.82 1414.05 1767.84C1411.66 1770.51 1408.26 1772 1404.74 1772H1404.75Z" fill="#232323"/>
<path d="M1160.26 1545.22C1168.52 1549.74 1175.6 1554.58 1182.76 1559.85C1189.83 1565.1 1196.64 1570.64 1203.09 1576.57C1209.54 1582.49 1215.77 1588.63 1221.55 1595.16C1227.44 1601.59 1232.78 1608.48 1237.96 1615.44C1238.79 1616.55 1238.56 1618.12 1237.45 1618.94C1236.41 1619.71 1234.97 1619.56 1234.11 1618.63L1234.05 1618.56C1228.33 1612.27 1222.51 1606.1 1216.21 1600.44C1210.02 1594.67 1203.45 1589.35 1196.72 1584.29C1190 1579.21 1182.98 1574.57 1175.81 1570.25C1168.71 1565.99 1161.1 1561.89 1153.95 1558.84L1153.71 1558.74C1149.89 1557.11 1148.12 1552.7 1149.75 1548.88C1151.38 1545.06 1155.79 1543.29 1159.61 1544.92C1159.83 1545.02 1160.06 1545.13 1160.27 1545.24L1160.26 1545.22Z" fill="#232323"/>
<path d="M1310.62 1679L1388.19 1793.01C1390.52 1796.44 1389.63 1801.11 1386.21 1803.44C1382.78 1805.77 1378.11 1804.88 1375.78 1801.46C1375.68 1801.31 1375.58 1801.15 1375.49 1801L1306.39 1681.67C1305.7 1680.48 1306.11 1678.95 1307.3 1678.25C1308.44 1677.59 1309.89 1677.94 1310.62 1679.01V1679Z" fill="#232323"/>
<path d="M1830.41 1573.19C1792.93 1578.09 1756.03 1588.09 1720.35 1601.49C1684.63 1614.89 1650.07 1631.61 1616.42 1650C1615.21 1650.66 1613.69 1650.22 1613.03 1649.01C1612.39 1647.83 1612.79 1646.36 1613.93 1645.67C1646.9 1625.75 1680.97 1607.39 1716.64 1592.21C1752.28 1577.04 1789.59 1565.12 1828.15 1558.37C1832.23 1557.65 1836.12 1560.37 1836.84 1564.46C1837.56 1568.54 1834.84 1572.43 1830.75 1573.15C1830.65 1573.17 1830.52 1573.19 1830.42 1573.2L1830.41 1573.19Z" fill="#232323"/>
<path d="M2418.5 1985.55L2226.85 2044.5C2068.5 2229.1 1919.1 2055.6 1947.15 1929.6C1956.4 1887.8 1985.15 1851.2 2039.6 1834.65L2013.25 1739.55C2079.9 1735.35 2137.75 1762 2186.85 1819.5L2306 1723.25C2352.45 1760.15 2383.2 1803.1 2400.75 1851.15C2415.85 1892.4 2421.25 1937.4 2418.5 1985.55Z" fill="#F6F6F6"/>
<path d="M1218.9 2131.17C1218.9 2131.17 1270.97 2163.67 1286.4 2220.34C1301.83 2277.01 1238.5 2203.96 1238.5 2203.96L1218.9 2166.18" fill="#F6F6F6"/>
<path d="M2085.97 2137.5C2066.35 2137.5 2049.89 2133.21 2037.57 2128.37C1974.08 2103.44 1928.4 2028.79 1931.32 1954.73C1933.7 1894.26 1967.42 1848.16 2024.39 1826.63L2001.21 1742.9C2000.2 1739.27 2000.89 1735.38 2003.07 1732.32C2005.25 1729.25 2008.7 1727.33 2012.46 1727.09C2079.31 1722.86 2138.38 1748.13 2188.27 1802.27L2298.15 1713.52C2302.7 1709.84 2309.19 1709.81 2313.77 1713.45C2397.99 1780.31 2437.42 1872.09 2430.98 1986.24C2430.68 1991.46 2427.17 1995.95 2422.17 1997.49L2233.93 2055.39C2177.31 2120.21 2125.3 2137.5 2085.96 2137.5H2085.97ZM2029.56 1751.64L2051.62 1831.33C2053.43 1837.86 2049.7 1844.65 2043.21 1846.62C1970.45 1868.76 1957.52 1924.48 1956.29 1955.72C1953.77 2019.65 1992.64 2083.87 2046.7 2105.1C2100.58 2126.26 2161.18 2101.84 2217.34 2036.36C2218.88 2034.57 2220.89 2033.24 2223.15 2032.55L2406.41 1976.19C2409.98 1876.86 2377.05 1799.22 2305.94 1739.36L2194.67 1829.23C2189.4 1833.49 2181.7 1832.77 2177.31 1827.62C2134.39 1777.32 2085.92 1752.36 2029.55 1751.65L2029.56 1751.64Z" fill="#232323"/>
<path d="M2198.58 1815.23L2204.86 1854.46C2205.3 1857.24 2203.41 1859.85 2200.64 1860.29C2198.53 1860.63 2196.5 1859.6 2195.46 1857.88L2175.08 1823.78C2171.47 1817.74 2173.44 1809.93 2179.48 1806.32C2185.51 1802.71 2193.33 1804.68 2196.94 1810.71C2197.79 1812.13 2198.33 1813.69 2198.58 1815.23V1815.23Z" fill="#232323"/>
<path d="M2214.33 2044.5L2221.83 1985.55C2222.18 1982.79 2224.7 1980.84 2227.47 1981.19C2229.8 1981.49 2231.55 1983.33 2231.83 1985.55L2239.33 2044.5C2240.21 2051.4 2235.32 2057.71 2228.42 2058.59C2221.52 2059.47 2215.21 2054.58 2214.33 2047.68C2214.2 2046.62 2214.21 2045.51 2214.33 2044.5V2044.5Z" fill="#232323"/>
<g opacity="0.3">
<path d="M2418.5 1985.55L2226.85 2044.5C2068.5 2229.1 1919.1 2055.6 1947.15 1929.6C2024.7 2091.85 2200.15 2044.5 2214.75 1929.5L2400.75 1851.15C2415.85 1892.4 2421.25 1937.4 2418.5 1985.55Z" fill="#232323"/>
</g>
<path d="M1255.3 2075.5C1242.9 2093.9 1219.1 2101.55 1198.35 2093.55C1123.6 2064.85 1069.75 1963.5 1064.7 1874.05C1061.45 1817.6 1077.75 1765.85 1120.5 1740.15L1139.85 1804.5C1186.4 1795.4 1225.9 1830.1 1250.4 1879.3C1250.45 1879.35 1250.5 1879.45 1250.55 1879.55C1281.35 1941.6 1288.25 2026.6 1255.3 2075.5V2075.5Z" fill="#F6F6F6"/>
<path d="M1215.14 2109.15C1207.99 2109.15 1200.78 2107.88 1193.88 2105.23C1112.13 2073.85 1060.17 1967.33 1052.78 1883.03C1046.6 1812.55 1068.94 1756.57 1114.06 1729.44C1117.36 1727.45 1121.4 1727.1 1125 1728.49C1128.6 1729.88 1131.35 1732.85 1132.47 1736.55L1148.78 1790.73C1185.81 1788.16 1220.71 1808.93 1248.05 1850.18C1289.6 1912.88 1308.15 2019.51 1265.69 2082.47C1254.22 2099.47 1234.89 2109.15 1215.15 2109.15H1215.14ZM1113.63 1760.7C1086.06 1785.41 1073.06 1828.13 1077.69 1880.85C1085.6 1971.11 1139.41 2057.54 1202.85 2081.89C1218.07 2087.73 1235.78 2082.1 1244.97 2068.49C1280.5 2015.81 1264.48 1920.22 1227.22 1863.99C1213.24 1842.89 1183.6 1808.71 1142.28 1816.77C1135.97 1817.99 1129.76 1814.26 1127.91 1808.11L1113.64 1760.71L1113.63 1760.7Z" fill="#232323"/>
<path d="M1145.89 1815.45L1105.91 1828.88C1103.25 1829.77 1100.37 1828.34 1099.48 1825.68C1098.79 1823.62 1099.5 1821.41 1101.09 1820.12L1133.84 1793.55C1139.29 1789.13 1147.29 1789.96 1151.71 1795.41C1156.13 1800.86 1155.3 1808.86 1149.85 1813.28C1148.65 1814.25 1147.28 1814.99 1145.89 1815.46V1815.45Z" fill="#232323"/>
<g opacity="0.3">
<path d="M1255.3 2075.5C1242.9 2093.9 1219.1 2101.55 1198.35 2093.55C1123.6 2064.85 1069.75 1963.5 1064.7 1874.05C1099.8 2015.15 1265.85 2036.8 1250.35 1879.25L1250.4 1879.3C1250.45 1879.35 1250.5 1879.45 1250.55 1879.55C1281.35 1941.6 1288.25 2026.6 1255.3 2075.5Z" fill="#232323"/>
</g>
<path d="M1795.07 1480.75C2198.93 1480.75 2526.32 1153.36 2526.32 749.5C2526.32 345.642 2198.93 18.25 1795.07 18.25C1391.21 18.25 1063.82 345.642 1063.82 749.5C1063.82 1153.36 1391.21 1480.75 1795.07 1480.75Z" fill="white"/>
<g opacity="0.3">
<path d="M2526.3 749.5C2526.3 1153.35 2198.95 1480.75 1795.05 1480.75C1524.35 1480.75 1288 1333.65 1161.6 1115.05C1278.95 1195.25 1420.85 1242.15 1573.7 1242.15C1977.6 1242.15 2304.95 914.75 2304.95 510.9C2304.95 377.75 2269.35 252.9 2207.15 145.35C2399.85 277.05 2526.3 498.5 2526.3 749.5Z" fill="#232323"/>
</g>
<path d="M2343.35 927.35C2253.5 1297 1903.25 1477 1573.7 1446.65C1415.1 1386.4 1290.9 1298.85 1204.75 1181.1C1202.05 1177.4 1199.4 1173.7 1196.8 1170C1184.55 1152.55 1173.15 1134.45 1162.6 1115.7C1102.8 1009.95 1069.25 883.35 1064 734.35C1237.45 276.5 1976 269.5 2253.5 567.5L2283.45 687.55L2343.35 927.35Z" fill="#232323"/>
<path d="M2343.35 927.35C2253.5 1297 1903.25 1477 1573.7 1446.65C1424.1 1399.2 1295.4 1304.95 1204.75 1181.1C1202.05 1177.4 1199.4 1173.7 1196.8 1170C1184.25 1152.25 1172.5 1133.9 1161.6 1115.05C1161.95 1115.3 1162.25 1115.5 1162.6 1115.7C1279.75 1195.5 1421.3 1242.15 1573.7 1242.15C1916.7 1242.15 2204.45 1006.05 2283.45 687.55L2343.35 927.35V927.35Z" fill="#020202"/>
<path d="M1795.07 1498.25C1382.21 1498.25 1046.32 1162.36 1046.32 749.5C1046.32 336.64 1382.21 0.75 1795.07 0.75C2207.93 0.75 2543.82 336.64 2543.82 749.5C2543.82 1162.36 2207.93 1498.25 1795.07 1498.25ZM1795.07 35.75C1401.51 35.75 1081.32 355.94 1081.32 749.5C1081.32 1143.06 1401.51 1463.25 1795.07 1463.25C2188.63 1463.25 2508.82 1143.06 2508.82 749.5C2508.82 355.94 2188.63 35.75 1795.07 35.75Z" fill="#232323"/>
<path d="M2556.78 683.76C2582.69 817.84 2549.19 937.08 2453.86 955.5C2358.53 973.92 2266.03 880.52 2240.12 746.43C2214.21 612.35 2264.69 488.36 2360.02 469.93C2455.35 451.51 2530.87 549.67 2556.78 683.75V683.76Z" fill="white"/>
<g opacity="0.3">
<path d="M2453.85 955.51C2358.54 973.91 2266.04 880.54 2240.09 746.44C2238.9 740.33 2237.88 734.23 2237.04 728.14C2275.77 767.69 2323.79 787.54 2372.56 778.11C2466.76 759.87 2500.6 643.15 2476.28 510.89C2514.42 549.64 2542.78 611.49 2556.74 683.77C2582.69 817.81 2549.16 937.05 2453.84 955.51H2453.85Z" fill="#232323"/>
</g>
<path d="M2429.67 975.33C2387.09 975.33 2344.96 956.46 2308.66 920.61C2266.66 879.12 2236.21 818.44 2222.93 749.76C2194.6 603.19 2253.35 472.73 2356.69 452.76C2456.58 433.45 2543.9 524.95 2573.96 680.45C2604.01 835.94 2557.08 953.38 2457.18 972.7C2448.03 974.47 2438.84 975.34 2429.67 975.34V975.33ZM2382.65 485.23C2376.35 485.23 2369.92 485.84 2363.33 487.11C2279.27 503.36 2232.69 615.8 2257.3 743.11C2269.25 804.93 2296.22 859.13 2333.25 895.7C2368.89 930.91 2410.54 946.05 2450.53 938.31C2541.68 920.69 2560.59 795.72 2539.59 687.07C2520.11 586.27 2463.5 485.22 2382.65 485.22V485.23Z" fill="#232323"/>
<path d="M2484.01 942.35C2447.09 942.35 2410.28 924.26 2378.46 890.02C2342.5 851.33 2315.96 795.21 2303.73 732C2291.5 668.68 2295.11 606.3 2313.91 556.36C2333.88 503.29 2369.07 469.4 2412.97 460.92C2415.3 460.47 2417.62 460.09 2419.94 459.77C2428.12 458.62 2435.71 464.39 2436.83 472.6C2437.95 480.81 2432.21 488.37 2424 489.49C2422.22 489.73 2420.43 490.03 2418.64 490.37C2385.37 496.8 2358.13 523.98 2341.97 566.92C2325.1 611.75 2321.97 668.35 2333.17 726.3C2344.35 784.07 2368.24 834.96 2400.42 869.59C2431.15 902.65 2466.47 917.29 2499.87 910.82C2503.77 910.06 2507.44 909.07 2510.79 907.88C2518.59 905.08 2527.17 909.15 2529.96 916.95C2532.75 924.75 2528.69 933.34 2520.89 936.12C2516.13 937.82 2510.98 939.22 2505.59 940.27C2498.41 941.66 2491.2 942.35 2484 942.35H2484.01Z" fill="#232323"/>
<path d="M1097.46 544.65C1094.85 544.65 1092.19 543.97 1089.78 542.53C1082.67 538.28 1080.34 529.08 1084.59 521.96C1181.3 359.97 1383.56 253.94 1625.63 238.33C1900.07 220.62 2158.59 321.52 2300.42 501.63C2305.54 508.14 2304.42 517.57 2297.92 522.69C2291.42 527.81 2281.98 526.7 2276.86 520.19C2141.04 347.72 1892.24 251.2 1627.57 268.27C1395.36 283.25 1202.01 383.84 1110.36 537.35C1107.55 542.05 1102.57 544.66 1097.47 544.66L1097.46 544.65Z" fill="#232323"/>
<path d="M1063.99 744.36C1062.81 744.36 1061.62 744.15 1060.45 743.71C1055.28 741.75 1052.68 735.98 1054.64 730.82C1125.26 544.42 1292.68 416.53 1526.07 370.72C1803.77 316.2 2105.91 394.33 2260.84 560.7C2264.6 564.74 2264.38 571.07 2260.33 574.83C2256.29 578.59 2249.96 578.37 2246.2 574.32C2095.73 412.74 1801.19 337.09 1529.92 390.33C1303.57 434.77 1141.41 558.2 1073.34 737.9C1071.83 741.9 1068.02 744.36 1063.99 744.36V744.36Z" fill="#232323"/>
<path d="M1646.07 1459.95C1621.69 1459.95 1597.25 1458.83 1572.8 1456.58C1567.3 1456.07 1563.25 1451.2 1563.76 1445.7C1564.27 1440.2 1569.11 1436.13 1574.64 1436.66C1883.12 1465.08 2242.88 1298.44 2333.61 924.97C2334.91 919.61 2340.32 916.33 2345.69 917.61C2351.06 918.91 2354.35 924.32 2353.05 929.69C2310.17 1106.19 2206.67 1249.96 2053.73 1345.46C1933.95 1420.25 1791.46 1459.94 1646.08 1459.94L1646.07 1459.95Z" fill="#232323"/>
<path d="M1783.86 1493.12C1778.02 1493.12 1772.79 1489 1771.61 1483.05C1770.26 1476.28 1774.66 1469.7 1781.43 1468.35C2130.7 1398.96 2303.37 1248.3 2377.41 948.35C2379.06 941.65 2385.83 937.55 2392.54 939.21C2399.24 940.87 2403.33 947.64 2401.68 954.34C2324.93 1265.26 2146.65 1421.28 1786.3 1492.87C1785.48 1493.03 1784.66 1493.11 1783.85 1493.11L1783.86 1493.12Z" fill="#232323"/>
<g opacity="0.35">
<path d="M1518.38 500.37C1306.1 678.77 1248.85 913.66 1346.62 1205.04C1352.1 1221.37 1331.97 1234.25 1319.44 1222.43C1224.86 1133.29 1169.32 1008.1 1163.13 837.35C1159.96 749.87 1193.87 664.61 1258.3 605.34C1310.8 557.04 1389.34 504.94 1502.95 471.68C1520.24 466.62 1532.18 488.78 1518.39 500.36L1518.38 500.37Z" fill="white"/>
</g>
<g opacity="0.35">
<path d="M2147.55 940.35C2129.12 967.91 2105.25 974.37 2077.74 966.74C2056.68 960.9 2039.87 944.98 2031.56 924.77L1971.11 777.82C1960.9 753 1964.54 724.05 1982.22 703.87C2022.48 657.92 2106.65 683.23 2159.29 850.08C2168.87 880.44 2165.26 913.9 2147.56 940.36L2147.55 940.35Z" fill="white"/>
</g>
<g opacity="0.35">
<path d="M2052.69 1091.71L2042.46 1150.63C2039.69 1166.61 2042.13 1183.34 2050.7 1197.1C2067.38 1223.87 2095.19 1222.86 2137.36 1186.02C2167.75 1159.47 2180.2 1116.81 2166.04 1079.02C2153.28 1044.98 2123.43 1024.18 2087.66 1042.77C2068.95 1052.5 2056.29 1070.93 2052.68 1091.71H2052.69Z" fill="white"/>
</g>
<path d="M1330.01 2374.78C1324.05 2323.47 1309.45 2273.7 1284.81 2229.91C1272.43 2208.11 1257.6 2187.86 1240.37 2170.26C1231.79 2161.44 1222.58 2153.3 1212.76 2146.15C1202.98 2138.95 1192.75 2132.51 1181.99 2127.32C1160.52 2117.06 1137.02 2111.39 1114.28 2113.88C1091.59 2116.21 1070.29 2126.62 1053.69 2143.06C1036.94 2159.5 1024.34 2180.49 1017.64 2203.26C1010.7 2226.01 1009.58 2250.53 1013.53 2274.12L1040.34 2428.87L1053.75 2506.26L1060.45 2544.79C1062.55 2556.26 1066.32 2567.33 1071.69 2577.4C1082.28 2597.33 1100.53 2613.62 1121.46 2623.34C1142.56 2633.25 1166.89 2636.97 1191.48 2636.78C1216.14 2636.6 1241.17 2632.75 1265.86 2627C1290.59 2621.26 1315.02 2613.42 1339.15 2604.6H1339.19C1339.91 2604.32 1340.72 2604.1 1341.46 2603.96C1435.67 2585.43 1529 2562.57 1620.29 2533.44C1711.54 2504.32 1800.76 2468.88 1885.82 2425.33H1885.83L1885.99 2425.24C1888.12 2424.18 1890.45 2423.68 1892.67 2423.67H2081.84C2090.12 2423.67 2096.84 2430.38 2096.84 2438.67C2096.84 2446.96 2090.12 2453.67 2081.84 2453.67H1892.67L1899.51 2452.02H1899.5C1812.74 2496.45 1721.98 2532.48 1629.41 2562.02C1536.81 2591.56 1442.37 2614.68 1347.25 2633.39L1349.55 2632.75C1324.51 2641.91 1299 2650.11 1272.71 2656.22C1246.45 2662.33 1219.41 2666.57 1191.67 2666.79C1164.08 2666.98 1135.25 2662.92 1108.78 2650.53C1082.39 2638.18 1059.39 2617.96 1045.26 2591.57C1038.3 2578.53 1033.58 2564.52 1030.96 2550.24L1024.21 2511.39L1010.8 2434L983.99 2279.2C979.29 2251.2 980.62 2222.04 988.94 2194.64C997.07 2167.19 1012.16 2141.8 1032.8 2121.57C1043.17 2111.43 1055.21 2102.67 1068.49 2096.11C1081.74 2089.51 1096.26 2085.28 1110.94 2083.61C1140.44 2080.14 1169.99 2086.63 1195.58 2098.97C1221.38 2111.19 1243.68 2129.01 1262.44 2149.38C1271.94 2159.5 1280.35 2170.51 1288 2181.93C1295.65 2193.35 1302.55 2205.22 1308.5 2217.51C1332.48 2266.65 1343.08 2321.05 1342.03 2374.22C1341.96 2377.54 1339.22 2380.18 1335.9 2380.11C1332.85 2380.05 1330.38 2377.72 1330.04 2374.77L1330.01 2374.78Z" fill="#232323"/>
<path d="M1206.29 2663.82C1200.46 2663.82 1195.25 2659.73 1194.05 2653.8C1192.68 2647.03 1197.05 2640.44 1203.82 2639.07C1230.68 2633.63 1250.15 2614.16 1261.69 2581.19C1300.82 2469.36 1238.52 2240.25 1180.18 2170.67C1153.34 2138.96 1124.27 2123.26 1096.09 2125.25C1070.77 2127.06 1045.92 2143.69 1029.61 2169.74C1025.95 2175.59 1018.23 2177.35 1012.38 2173.7C1006.53 2170.04 1004.76 2162.32 1008.42 2156.47C1028.95 2123.68 1061.05 2102.69 1094.31 2100.31C1119.71 2098.48 1158.58 2106.43 1199.3 2154.56C1262.53 2229.97 1327.6 2468.53 1285.29 2589.45C1270.84 2630.74 1244.39 2656.37 1208.79 2663.58C1207.95 2663.75 1207.12 2663.83 1206.3 2663.83L1206.29 2663.82Z" fill="#232323"/>
<path d="M1170.66 2655.75C1166.76 2655.75 1163.05 2653.45 1161.44 2649.63C1159.3 2644.54 1161.68 2638.68 1166.77 2636.53C1273.69 2591.5 1227.35 2385.98 1190.21 2267.49C1171.5 2207.8 1144.23 2168.83 1109.15 2151.64C1074.96 2134.89 1045.64 2145.45 1045.35 2145.55C1040.16 2147.47 1034.42 2144.83 1032.49 2139.66C1030.56 2134.48 1033.2 2128.73 1038.38 2126.8C1039.91 2126.24 1076.13 2113.18 1117.95 2133.67C1158.15 2153.37 1188.88 2196.38 1209.3 2261.5C1257.15 2414.16 1289.96 2606.34 1174.54 2654.96C1173.27 2655.49 1171.96 2655.75 1170.66 2655.75Z" fill="#232323"/>
<path d="M997.44 2236.69C992.72 2236.69 988.52 2233.33 987.62 2228.52C986.6 2223.09 990.18 2217.87 995.61 2216.85L1166.66 2184.89C1172.09 2183.88 1177.31 2187.45 1178.33 2192.88C1179.35 2198.31 1175.77 2203.53 1170.34 2204.55L999.29 2236.51C998.67 2236.63 998.05 2236.68 997.44 2236.68V2236.69Z" fill="#232323"/>
<path d="M1009.79 2350.53C1004.93 2350.53 1000.67 2346.98 999.91 2342.03C999.08 2336.57 1002.84 2331.47 1008.3 2330.64L1204.8 2300.86C1210.25 2300.04 1215.36 2303.79 1216.19 2309.25C1217.02 2314.71 1213.26 2319.81 1207.8 2320.64L1011.3 2350.42C1010.79 2350.5 1010.29 2350.53 1009.79 2350.53Z" fill="#232323"/>
<path d="M1028.84 2460.47C1023.71 2460.47 1019.34 2456.54 1018.89 2451.32C1018.42 2445.82 1022.5 2440.97 1028 2440.5L1237.65 2422.51C1243.09 2422.05 1247.99 2426.11 1248.47 2431.62C1248.94 2437.12 1244.86 2441.97 1239.36 2442.44L1029.71 2460.43C1029.42 2460.45 1029.13 2460.47 1028.84 2460.47Z" fill="#232323"/>
<path d="M1047.55 2566C1042.22 2566 1037.79 2561.79 1037.57 2556.42C1037.34 2550.9 1041.63 2546.24 1047.14 2546.01L1238.08 2538.05C1243.59 2537.79 1248.26 2542.11 1248.49 2547.62C1248.72 2553.14 1244.43 2557.8 1238.92 2558.03L1047.98 2565.99C1047.84 2565.99 1047.69 2565.99 1047.56 2565.99L1047.55 2566Z" fill="#232323"/>
<path d="M1885.77 2449.1L1852.56 2419.72C1849.95 2417.41 1849.7 2413.42 1852.02 2410.81C1853.92 2408.66 1856.97 2408.12 1859.45 2409.29L1899.54 2428.24C1905.84 2431.22 1908.54 2438.75 1905.56 2445.05C1902.58 2451.35 1895.05 2454.05 1888.75 2451.07C1887.66 2450.55 1886.64 2449.86 1885.78 2449.11L1885.77 2449.1Z" fill="#232323"/>
<path d="M2408.27 2462.73C2420.73 2623.33 2355.88 2760.99 2258.14 2768.57C2160.4 2776.15 2095.91 2661.88 2083.45 2501.28C2070.99 2340.68 2121.85 2205.76 2219.58 2198.18C2317.32 2190.6 2395.8 2302.13 2408.26 2462.73H2408.27Z" fill="#F6F6F6"/>
<g opacity="0.3">
<path d="M2258.15 2768.6C2160.4 2776.15 2095.9 2661.9 2083.45 2501.3C2081.35 2474.05 2081.05 2447.5 2082.5 2422.25C2105.35 2548.25 2164.85 2632.15 2249.05 2625.6C2330.45 2619.3 2389.05 2522.75 2399.15 2397.9C2403.4 2418.4 2406.5 2440.1 2408.25 2462.75C2420.7 2623.35 2355.85 2761 2258.15 2768.6V2768.6Z" fill="#232323"/>
</g>
<path d="M2248.91 2781.44C2201.39 2781.44 2159.83 2755.07 2128.22 2704.64C2097.21 2655.17 2077.42 2585.18 2070.99 2502.25C2057.14 2323.7 2117.85 2193.54 2218.62 2185.72C2270.32 2181.75 2319.15 2208.14 2356.1 2260.15C2391.57 2310.08 2414.52 2381.68 2420.73 2461.77C2433.99 2632.74 2363 2772.98 2259.11 2781.04C2255.68 2781.3 2252.29 2781.44 2248.92 2781.44H2248.91ZM2229.15 2210.31C2226.33 2210.31 2223.46 2210.42 2220.55 2210.65C2135.82 2217.22 2083.4 2339.05 2095.92 2500.32C2102.04 2579.24 2120.54 2645.3 2149.41 2691.36C2169.35 2723.17 2204.3 2760.26 2257.17 2756.11C2345.59 2749.25 2407.78 2618.07 2395.8 2463.7C2389.93 2388.06 2368.6 2320.92 2335.71 2274.63C2314.51 2244.78 2279.18 2210.31 2229.15 2210.31Z" fill="#232323"/>
<path d="M2196.23 2196.46C2198.06 2190.89 2199.84 2186.57 2201.99 2181.94C2204.02 2177.37 2206.38 2173.01 2208.73 2168.65C2211.18 2164.36 2213.77 2160.15 2216.43 2156.01C2219.32 2152.01 2221.97 2147.86 2225.06 2144.03C2237.12 2128.53 2251.38 2114.68 2267.65 2103.84C2271.5 2100.83 2275.85 2098.57 2280.05 2096.12C2284.3 2093.74 2288.38 2091.09 2292.92 2089.32L2306.21 2083.46C2310.73 2081.77 2315.39 2080.47 2319.96 2078.97L2326.84 2076.8C2329.13 2076.06 2331.53 2075.77 2333.86 2075.24L2347.94 2072.43C2350.27 2071.87 2352.64 2071.61 2355.02 2071.44L2362.14 2070.79L2376.33 2069.5C2379.07 2069.25 2381.5 2071.27 2381.75 2074.02C2381.99 2076.64 2380.15 2078.98 2377.59 2079.39L2377.06 2079.48L2363.58 2081.63L2356.86 2082.7C2354.61 2083.01 2352.38 2083.4 2350.22 2084.09L2337.15 2087.64C2334.99 2088.28 2332.76 2088.68 2330.67 2089.53L2324.4 2092C2320.24 2093.69 2316.01 2095.16 2311.94 2097L2300.09 2103.21C2296.04 2105.08 2292.48 2107.8 2288.77 2110.21C2285.1 2112.7 2281.3 2114.97 2278.01 2117.96C2263.98 2128.72 2252.07 2142 2242.26 2156.52C2239.74 2160.1 2237.64 2163.98 2235.31 2167.67C2233.21 2171.5 2231.16 2175.37 2229.27 2179.29C2227.48 2183.26 2225.65 2187.21 2224.19 2191.25C2222.65 2195.15 2221.25 2199.58 2220.4 2202.91L2220.25 2203.49C2218.53 2210.18 2211.7 2214.21 2205.01 2212.48C2198.32 2210.75 2194.29 2203.93 2196.02 2197.24C2196.08 2196.99 2196.17 2196.71 2196.25 2196.46H2196.23Z" fill="#232323"/>
<path d="M2356.28 2263.19C2359.07 2264.77 2360.92 2266.01 2363.03 2267.47C2365.12 2268.85 2367.04 2270.34 2368.99 2271.8C2372.87 2274.74 2376.55 2277.83 2380.11 2281.03C2383.65 2284.25 2387.15 2287.48 2390.4 2290.94C2393.79 2294.27 2396.92 2297.82 2399.98 2301.41C2412.31 2315.72 2422.73 2331.38 2431.71 2347.68C2435.82 2356.03 2440.26 2364.2 2443.58 2372.86C2445.29 2377.16 2447.3 2381.34 2448.75 2385.72L2453.19 2398.82C2454.78 2403.15 2455.95 2407.6 2457.09 2412.05L2460.6 2425.37C2462.59 2434.32 2464.13 2443.35 2465.91 2452.31C2466.45 2455.01 2464.69 2457.64 2461.98 2458.18C2459.4 2458.69 2456.89 2457.11 2456.2 2454.61L2456.09 2454.2C2453.75 2445.61 2451.66 2436.97 2449.14 2428.47L2444.87 2415.89C2443.48 2411.69 2442.07 2407.5 2440.25 2403.47L2435.15 2391.27C2433.49 2387.2 2431.29 2383.36 2429.39 2379.41C2425.69 2371.44 2420.96 2364.04 2416.59 2356.49C2407.12 2341.83 2396.46 2328.04 2384.36 2315.82C2381.35 2312.75 2378.3 2309.74 2375.05 2306.96C2371.92 2304.04 2368.59 2301.39 2365.27 2298.76C2361.94 2296.16 2358.51 2293.67 2355.05 2291.41C2353.31 2290.28 2351.58 2289.12 2349.83 2288.14C2348.17 2287.13 2346.16 2286.04 2344.98 2285.49L2344.74 2285.38C2338.5 2282.41 2335.84 2274.95 2338.81 2268.71C2341.77 2262.47 2349.24 2259.81 2355.48 2262.78C2355.75 2262.91 2356.04 2263.06 2356.29 2263.2L2356.28 2263.19Z" fill="#232323"/>
<path d="M2376.69 2358.25H2096.5C2090.98 2358.25 2086.5 2353.77 2086.5 2348.25C2086.5 2342.73 2090.98 2338.25 2096.5 2338.25H2376.69C2382.21 2338.25 2386.69 2342.73 2386.69 2348.25C2386.69 2353.77 2382.21 2358.25 2376.69 2358.25Z" fill="#232323"/>
<path d="M2405.81 2469.5H2081.82C2076.3 2469.5 2071.82 2465.02 2071.82 2459.5C2071.82 2453.98 2076.3 2449.5 2081.82 2449.5H2405.81C2411.33 2449.5 2415.81 2453.98 2415.81 2459.5C2415.81 2465.02 2411.33 2469.5 2405.81 2469.5V2469.5Z" fill="#232323"/>
<path d="M2405.81 2563.08H2089.54C2084.02 2563.08 2079.54 2558.6 2079.54 2553.08C2079.54 2547.56 2084.02 2543.08 2089.54 2543.08H2405.81C2411.33 2543.08 2415.81 2547.56 2415.81 2553.08C2415.81 2558.6 2411.33 2563.08 2405.81 2563.08Z" fill="#232323"/>
<path d="M2376.69 2673.53H2120.68C2115.16 2673.53 2110.68 2669.05 2110.68 2663.53C2110.68 2658.01 2115.16 2653.53 2120.68 2653.53H2376.69C2382.21 2653.53 2386.69 2658.01 2386.69 2663.53C2386.69 2669.05 2382.21 2673.53 2376.69 2673.53V2673.53Z" fill="#232323"/>
<g opacity="0.3">
<path d="M2350.62 2006.43C2350.62 2006.43 2306.91 2056.17 2350.62 2075.75C2280.79 2094.36 2231.02 2130.92 2215.16 2197.82L2159.41 2222.69L2125.24 2118.72L2231.34 2043.12L2350.62 2006.43V2006.43Z" fill="#232323"/>
</g>
<g clip-path="url(#clip0_232_21)">
<path d="M1893.09 1842.53L1972.96 2169.71L1857.59 2248.45L1718.52 2256.48L1581.98 1948.56L1893.09 1842.53Z" fill="#E44D26"/>
<path d="M1848.58 2221.38L1941.8 2157.76L1873.55 1878.17L1746.38 1921.51L1848.58 2221.38Z" fill="#F16529"/>
<path d="M1717.83 2018.19L1772.93 1999.41L1759.66 1960.46L1662 1993.75L1666.49 2003.88L1712.64 2107.95L1799.8 2078.24L1786.52 2039.29L1734.99 2056.86L1717.83 2018.19Z" fill="#EBEBEB"/>
<path d="M1760.11 2113.5L1721.02 2126.83L1747.32 2186.12L1834.65 2181.08L1834.81 2180.97L1821 2140.44L1820.84 2140.55L1773.47 2143.62L1760.11 2113.5Z" fill="#EBEBEB"/>
<path d="M1581.51 1852.4L1601.31 1845.65L1607.97 1865.21L1626.08 1859.04L1619.41 1839.48L1639.2 1832.74L1659.39 1891.96L1639.59 1898.7L1632.84 1878.87L1614.73 1885.04L1621.49 1904.87L1601.7 1911.62L1581.51 1852.4L1581.51 1852.4Z" fill="white"/>
<path d="M1671.93 1843.5L1654.5 1849.44L1647.81 1829.81L1702.46 1811.18L1709.15 1830.82L1691.72 1836.76L1705.21 1876.34L1685.42 1883.08L1671.93 1843.5L1671.93 1843.5Z" fill="white"/>
<path d="M1711.13 1808.22L1731.77 1801.19L1751.56 1817.67L1757.15 1792.54L1777.79 1785.5L1797.98 1844.72L1778.27 1851.44L1768.26 1822.09L1761.82 1847.78L1761.48 1847.9L1740.68 1831.49L1750.68 1860.84L1731.31 1867.44L1711.13 1808.22Z" fill="white"/>
<path d="M1787.65 1782.15L1807.44 1775.4L1820.96 1815.04L1848.79 1805.56L1855.46 1825.13L1807.83 1841.36L1787.65 1782.15Z" fill="white"/>
<path d="M1799.66 2078.29L1847.62 2061.94L1860.32 2113.99L1820.87 2140.52L1834.68 2181.04L1906.99 2131.7L1905.33 2124.92L1879.54 2019.27L1876.92 2008.48L1786.39 2039.34L1799.66 2078.29Z" fill="white"/>
<path d="M1772.76 1999.36L1772.8 1999.46L1866.87 1967.39L1864.67 1958.37L1859.72 1938.02L1857.09 1927.26L1759.52 1960.51L1772.76 1999.36Z" fill="white"/>
</g>
<defs>
<clipPath id="clip0_232_21">
<rect width="465.109" height="465.109" fill="white" transform="translate(1488 1884.27) rotate(-18.8198)"/>
</clipPath>
</defs>
</svg>
