<svg width="3134" height="2750" viewBox="0 0 3134 2750" fill="none" xmlns="http://www.w3.org/2000/svg">
<g clip-path="url(#clip0_107_110)">
<path d="M2550.25 1579.31V2425.53C2550.25 2517.53 2467.47 2592.18 2365.32 2592.18H1509.49C1407.29 2592.18 1324.49 2517.55 1324.49 2425.53V1579.31C1324.54 1547.66 1334.36 1516.8 1352.61 1490.94C1385.32 1443.94 1443.32 1412.65 1509.48 1412.65H2365.31C2436.06 1412.65 2497.53 1448.42 2528.63 1501.02C2542.75 1524.7 2550.22 1551.74 2550.25 1579.31V1579.31Z" fill="#F2F2F2"/>
<path d="M2350.26 2611.22H1524.51C1402.51 2611.22 1303.34 2521.83 1303.34 2411.97V1592.83C1303.34 1482.97 1402.56 1393.59 1524.51 1393.59H2350.26C2472.21 1393.59 2571.43 1482.97 2571.43 1592.83V2412C2571.43 2521.83 2472.21 2611.22 2350.26 2611.22ZM1524.51 1431.69C1425.89 1431.69 1345.65 1503.98 1345.65 1592.83V2412C1345.65 2500.85 1425.89 2573.14 1524.51 2573.14H2350.26C2448.88 2573.14 2529.13 2500.85 2529.13 2412V1592.83C2529.13 1503.98 2448.88 1431.69 2350.26 1431.69H1524.51Z" fill="#371A45"/>
<path d="M1573.56 1478.48C1573.56 1478.48 1139.5 1586.06 1075.15 2483.07H2090.51L2030.35 1423.47L1573.56 1478.48Z" fill="#F2F2F2"/>
<g opacity="0.25">
<path d="M2090.51 2483.06H1075.17C1084.99 2346.06 1204.73 2374 1270.39 2237.61C1467.86 1827.44 2070.16 2124.86 2070.16 2124.86L2090.51 2483.06Z" fill="#371A45"/>
</g>
<path d="M2112.77 2502.12H1052.59L1054.05 2481.84C1087.62 2013.76 1223.52 1761.84 1331.61 1632.91C1451.13 1490.36 1563.24 1461.28 1567.95 1460.11L1570.76 1459.59L2050.3 1401.84L2112.77 2502.12ZM1097.77 2464.01H2068.23L2010.4 1445.1L1578.1 1497.16C1566.34 1500.62 1467.33 1532.74 1362.52 1659.29C1260.64 1782.31 1132.82 2021.41 1097.79 2464L1097.77 2464.01Z" fill="#371A45"/>
<path d="M2891.72 2377.51C2826.72 2501.51 2697.19 2411.08 2697.19 2411.08C2697.19 2411.08 2692.35 2414.51 2655.09 2421.74C2443.09 2462.97 2303.31 2351.61 2303.31 2351.61C2303.31 2351.61 2256.47 2390.72 2210.45 2389.61C2170.99 2388.61 2143.85 2373.09 2130.21 2349.39C2104.93 2305.47 2124.29 2269.04 2165.61 2209.08C2204.69 2152.29 2318.77 2092.91 2483.61 2111.41V2111.32C2492.9 2007.93 2346.3 1892.16 2234.03 1819.38C2165.72 1775.11 2110.17 1746.69 2110.17 1746.69L2287.33 1372.46C2911.57 1843.14 2959 2249.23 2891.72 2377.51Z" fill="#F2F2F2"/>
<g opacity="0.25">
<path d="M2483.65 2111.29C2492.94 2007.9 2346.34 1892.13 2234.07 1819.35C2215.93 1752.92 2231.38 1697.59 2321.41 1684.06C2393.77 1673.22 2495.48 1852.06 2552.69 1950.47C2622.17 2069.97 2679.5 2174.01 2680.28 2175.88C2677.63 2174.11 2604.53 2125.26 2483.65 2111.29Z" fill="#371A45"/>
</g>
<g opacity="0.25">
<path d="M2914.6 2261C2915.04 2310.87 2905.95 2350.39 2891.72 2377.48C2826.72 2501.48 2697.19 2411.05 2697.19 2411.05C2697.19 2411.05 2692.35 2414.48 2655.09 2421.71C2443.09 2462.94 2303.31 2351.58 2303.31 2351.58C2303.31 2351.58 2256.47 2390.69 2210.45 2389.58C2170.99 2388.58 2143.85 2373.06 2130.21 2349.36C2112.21 2318.04 2116.86 2290.55 2135.98 2255.57C2148.65 2261.38 2163.98 2264.78 2181.7 2265.22C2227.7 2266.36 2274.56 2227.22 2274.56 2227.22C2274.56 2227.22 2414.31 2338.59 2626.34 2297.4C2663.6 2290.13 2668.34 2286.73 2668.34 2286.73C2668.34 2286.73 2822.28 2358.87 2914.6 2261Z" fill="#371A45"/>
</g>
<path d="M2793.51 2462C2750.62 2462 2712.02 2442.87 2694.33 2432.55C2686.99 2434.63 2676.07 2437.21 2659.57 2440.42C2476.23 2476.06 2345.48 2403.88 2303.51 2376.06C2284.17 2389.13 2247.51 2409.83 2209.9 2408.69C2164.51 2407.57 2129.54 2389.63 2111.44 2358.19C2080.34 2304.19 2105.57 2260.09 2147.62 2199.03C2190 2137.54 2305.31 2079.44 2462.21 2090.33C2447.08 1966.87 2199.21 1814.13 2099.77 1763.33C2089.61 1758.14 2086.04 1746.51 2091.77 1737.33C2097.5 1728.15 2110.44 1724.98 2120.59 1730.16C2136.94 1738.5 2520.67 1936.6 2504.71 2112.98L2502.92 2132.79L2481.02 2130.34C2330.29 2113.46 2221.16 2164.54 2183.52 2219.14C2141.52 2280.14 2129.97 2307.68 2148.94 2340.66C2159.8 2359.51 2181.27 2369.87 2211.02 2370.66C2241.52 2371.43 2277.55 2347.13 2288.9 2337.66L2302.9 2326.02L2317.22 2337.39C2318.51 2338.39 2452.22 2441.72 2650.55 2403.18C2673.96 2398.62 2683.07 2395.85 2685.84 2394.89L2697.02 2387.01L2710.02 2396.1C2710.51 2396.44 2763.48 2432.54 2811.68 2422.01C2836.57 2416.59 2857.03 2398.89 2872.48 2369.43C2902.48 2312.18 2909.18 2183.9 2829.21 2010.75C2763.02 1867.44 2612.91 1642.9 2273.67 1387.09C2264.67 1380.33 2263.53 1368.32 2271.03 1360.24C2278.53 1352.16 2291.86 1351.11 2300.82 1357.86C2646.61 1618.62 2800.26 1848.86 2868.27 1996.12C2953.47 2180.59 2946.07 2318.32 2910.73 2385.71C2889.49 2426.2 2859.43 2450.9 2821.38 2459.11C2812.22 2461.05 2802.88 2462.02 2793.51 2462V2462Z" fill="#371A45"/>
<path d="M1466.74 1700.61C1381.94 2039.11 1337.31 2552.02 1337.31 2552.02H2537.46C2537.46 2552.02 2492.83 2039.11 2408.03 1700.61C2408.03 1700.61 2206.14 1343.61 1937.39 1343.61C1668.64 1343.61 1466.74 1700.61 1466.74 1700.61Z" fill="#F2F2F2"/>
<g opacity="0.25">
<path d="M2537.44 2552H1337.31C1337.31 2552 1349.93 2407 1374.48 2220.33H2500.28C2524.83 2407 2537.44 2552 2537.44 2552Z" fill="#371A45"/>
</g>
<path d="M1487.37 1704.8C1470.27 1774.25 1455.96 1844.43 1442.97 1914.8C1430.21 1985.27 1419.06 2056.03 1408.69 2126.9C1398.49 2197.8 1389.23 2268.82 1380.91 2339.97C1372.56 2411.06 1364.85 2482.38 1358.39 2553.46L1337.31 2533H2537.46L2516.38 2553.54L2504.44 2446.91L2491.77 2340.25C2483.38 2269.14 2473.77 2198.16 2463.99 2127.25C2458.88 2091.82 2453.99 2056.35 2448.34 2021C2443.17 1985.57 2437.24 1950.27 2431.34 1915C2418.89 1844.46 2405.92 1774.26 2397.68 1702.8V1702.72C2397.07 1697.45 2401.32 1692.72 2407.16 1692.19C2412.16 1691.72 2416.74 1694.48 2418.32 1698.6C2444.52 1767.08 2460.32 1837.87 2473.94 1908.72C2487.56 1979.57 2499.41 2050.72 2510.09 2121.89C2520.77 2193.06 2529.51 2264.49 2537.99 2335.89C2542.31 2371.58 2545.85 2407.35 2549.28 2443.12C2552.71 2478.89 2556 2514.63 2558.52 2550.62L2559.95 2571.17H1314.36L1316.22 2550.62C1322.74 2478.86 1330.46 2407.52 1338.84 2336.09C1347.22 2264.66 1356.5 2193.37 1366.74 2122.09C1377.16 2050.87 1388.37 1979.73 1401.22 1908.74C1414.32 1837.74 1428.75 1766.95 1446.1 1696.46C1448.63 1686.19 1459.93 1679.71 1471.33 1681.99C1482.73 1684.27 1489.93 1694.44 1487.4 1704.72L1487.37 1704.8Z" fill="#371A45"/>
<path d="M1668.63 2247.12C1595.5 2274.82 1482.32 2269.03 1405.17 2260.29C1358.89 2255.05 1326.41 2215.1 1333.17 2171.96C1339.39 2132.59 1376.43 2103.96 1418.92 2105.82C1491.09 2108.98 1599.34 2110.46 1667.92 2096.24" fill="#F2F2F2"/>
<g opacity="0.25">
<path d="M1668.65 2247.11C1595.52 2274.81 1482.3 2269.05 1405.16 2260.29C1358.9 2255.08 1326.41 2215.11 1333.16 2171.93C1334.57 2162.92 1337.65 2154.26 1342.26 2146.39C1354.57 2167.73 1377.38 2183.3 1405.11 2186.46C1482.11 2195.17 1595.11 2200.98 1668.28 2173.39L1668.65 2247.11Z" fill="#371A45"/>
</g>
<path d="M1523.2 2286.56C1480.78 2286.56 1438.62 2283.28 1402.53 2279.2C1375.09 2276.09 1350.53 2263.28 1333.53 2243.11C1315.92 2222.34 1308.2 2195.43 1312.33 2169.27C1320.14 2119.9 1366.23 2084.5 1420.05 2086.79C1526.13 2091.44 1612.49 2088.2 1663.25 2077.67C1673.68 2075.52 1699.62 2075.15 1715.15 2118.47C1732.57 2167.1 1728.96 2244.96 1676.88 2264.69C1633.61 2281.05 1578.19 2286.56 1523.2 2286.56ZM1415 2124.79C1384.58 2124.79 1358.68 2145.79 1354.13 2174.64C1352.84 2182.69 1353.34 2190.92 1355.58 2198.76C1357.82 2206.6 1361.75 2213.85 1367.1 2220C1377.43 2232.07 1392 2239.73 1407.8 2241.41C1517.71 2253.85 1607.43 2249.65 1660.43 2229.58C1670.43 2225.79 1677.86 2212.63 1680.78 2193.48C1686.1 2158.62 1675.18 2125.11 1667.78 2115.82C1597.98 2129.25 1493.88 2128.2 1417.98 2124.82C1417 2124.81 1416 2124.79 1415 2124.79Z" fill="#371A45"/>
<path d="M2228 2247.12C2301.12 2274.82 2414.3 2269.03 2491.46 2260.29C2537.73 2255.05 2570.22 2215.1 2563.4 2171.96C2557.18 2132.59 2520.14 2103.96 2477.65 2105.82C2405.48 2108.98 2297.23 2110.46 2228.65 2096.24" fill="#F2F2F2"/>
<g opacity="0.35">
<path d="M2491.45 2260.29C2414.26 2269.05 2301.09 2274.81 2227.96 2247.11L2228.29 2173.54C2301.41 2201.13 2414.37 2195.32 2491.45 2186.61C2519.18 2183.45 2542.04 2167.78 2554.36 2146.44C2558.9 2154.31 2561.95 2162.95 2563.36 2171.93C2570.2 2215.11 2537.71 2255.08 2491.45 2260.29Z" fill="#371A45"/>
</g>
<path d="M2373.41 2286.56C2318.41 2286.56 2262.99 2281.06 2219.78 2264.69C2167.69 2244.96 2164.09 2167.1 2181.5 2118.47C2197.03 2075.15 2222.97 2075.47 2233.4 2077.67C2284.15 2088.2 2370.5 2091.44 2476.6 2086.79C2530.38 2084.46 2576.52 2119.9 2584.32 2169.27C2588.45 2195.43 2580.73 2222.35 2563.12 2243.12C2546.03 2263.28 2521.51 2276.12 2494.12 2279.2C2458 2283.28 2415.82 2286.56 2373.41 2286.56ZM2236.17 2229.56C2289.17 2249.63 2378.88 2253.83 2488.8 2241.39C2504.6 2239.71 2519.16 2232.06 2529.5 2219.99C2534.84 2213.83 2538.76 2206.58 2540.99 2198.75C2543.23 2190.91 2543.72 2182.69 2542.44 2174.64C2537.73 2144.87 2510.24 2123.46 2478.66 2124.85C2402.77 2128.18 2298.66 2129.24 2228.86 2115.85C2221.42 2125.14 2210.5 2158.65 2215.86 2193.51C2218.79 2212.66 2226.2 2225.82 2236.22 2229.61L2236.17 2229.56Z" fill="#371A45"/>
<path d="M2256.23 2046.37V2288.18C2256.23 2333.06 2216.99 2369.78 2169.08 2369.78H1693.08C1645.08 2369.78 1605.93 2333.06 1605.93 2288.18V2046.37C1605.93 2001.54 1645.12 1964.82 1693.08 1964.82H2169.08C2207.35 1964.82 2240.08 1988.27 2251.73 2020.57C2254.7 2028.85 2256.22 2037.58 2256.23 2046.37V2046.37Z" fill="#F2F2F2"/>
<g opacity="0.25">
<path d="M2256.23 2046.37V2288.18C2256.23 2333.06 2216.99 2369.78 2169.08 2369.78H1693.08C1645.08 2369.78 1605.93 2333.06 1605.93 2288.18V2206.79C1688.05 2249.32 1850.74 2313.18 2014.02 2260.49C2093.78 2234.72 2185.23 2146.49 2185.23 2146.49C2185.23 2146.49 2188.75 2239.12 2203.44 2237.66C2244.28 2233.6 2243.98 2046.18 2251.7 2020.66C2254.67 2028.91 2256.2 2037.6 2256.23 2046.37Z" fill="#371A45"/>
</g>
<path d="M2165.25 2388.81H1696.91C1635.08 2388.81 1584.79 2343.49 1584.79 2287.81V2046.81C1584.79 1991.12 1635.08 1945.81 1696.91 1945.81H2165.25C2227.08 1945.81 2277.37 1991.13 2277.37 2046.81V2287.81C2277.37 2343.49 2227.08 2388.81 2165.25 2388.81ZM1696.91 1983.88C1658.41 1983.88 1627.09 2012.1 1627.09 2046.78V2287.78C1627.09 2322.47 1658.41 2350.69 1696.91 2350.69H2165.25C2203.75 2350.69 2235.07 2322.47 2235.07 2287.78V2046.78C2235.07 2012.1 2203.75 1983.88 2165.25 1983.88H1696.91Z" fill="#371A45"/>
<path d="M2099.7 2237.61C2141.21 2237.61 2174.86 2206.13 2174.86 2167.29C2174.86 2128.45 2141.21 2096.97 2099.7 2096.97C2058.19 2096.97 2024.54 2128.45 2024.54 2167.29C2024.54 2206.13 2058.19 2237.61 2099.7 2237.61Z" fill="#22A7F0"/>
<path d="M2174.88 2167.31C2174.89 2172.02 2174.4 2176.71 2173.4 2181.31C2166.46 2149.11 2136.08 2124.87 2099.69 2124.87C2063.3 2124.87 2032.91 2149.11 2026.02 2181.31C2025.03 2176.71 2024.53 2172.02 2024.54 2167.31C2024.54 2128.47 2058.17 2096.96 2099.69 2096.96C2141.21 2096.96 2174.88 2128.47 2174.88 2167.31Z" fill="#F2F2F2"/>
<g opacity="0.35">
<path d="M2174.86 2167.28C2174.86 2206.14 2141.19 2237.6 2099.7 2237.6C2058.21 2237.6 2024.54 2206.14 2024.54 2167.28C2024.54 2160.9 2025.46 2154.56 2027.27 2148.44C2036.1 2178.09 2065.22 2199.88 2099.7 2199.88C2134.18 2199.88 2163.3 2178.09 2172.13 2148.44C2173.94 2154.56 2174.86 2160.9 2174.86 2167.28V2167.28Z" fill="#371A45"/>
</g>
<path d="M2099.7 2251.9C2049.51 2251.9 2008.7 2213.9 2008.7 2167.29C2008.7 2120.68 2049.54 2082.67 2099.7 2082.67C2149.86 2082.67 2190.7 2120.67 2190.7 2167.29C2190.7 2213.91 2149.89 2251.9 2099.7 2251.9ZM2099.7 2111.26C2067 2111.26 2040.4 2136.39 2040.4 2167.26C2040.4 2198.13 2067 2223.26 2099.7 2223.26C2132.4 2223.26 2159 2198.12 2159 2167.26C2159 2136.4 2132.39 2111.26 2099.7 2111.26Z" fill="#371A45"/>
<path d="M1886.7 2388.81C1875.02 2388.81 1865.55 2380.27 1865.55 2369.75V2246C1865.55 2221.35 1853.05 2197.83 1832.12 2183.08L1820.03 2174.57C1788.93 2152.66 1770.36 2117.92 1770.36 2081.63V1964.83C1770.36 1954.3 1779.83 1945.77 1791.51 1945.77C1803.19 1945.77 1812.66 1954.3 1812.66 1964.83V2081.61C1812.66 2106.27 1825.16 2129.79 1846.09 2144.53L1858.17 2153.04C1889.28 2174.95 1907.85 2209.69 1907.85 2245.98V2369.75C1907.85 2380.27 1898.38 2388.81 1886.7 2388.81Z" fill="#371A45"/>
<g opacity="0.25">
<path d="M2528.64 1501C2375.05 1641.23 2164.2 1726.51 1933.15 1723.43C1705.15 1720.43 1500.25 1631.84 1352.62 1490.92C1385.33 1443.92 1443.33 1412.63 1509.49 1412.63H2365.32C2436.07 1412.65 2497.54 1448.42 2528.64 1501Z" fill="#371A45"/>
</g>
<path d="M2735.51 1138C2726 1137.1 2719.2 1129.17 2720.32 1120.28L2778.8 657.1C2779.92 648.22 2788.54 641.75 2798.05 642.66C2897.81 652.14 2969.14 735.36 2957.38 828.53L2937.44 986.53C2925.67 1079.66 2835.27 1147.5 2735.51 1138Z" fill="#F2F2F2"/>
<path d="M2754.05 1142.32C2747.78 1142.32 2741.47 1142.02 2735.12 1141.42C2729.77 1140.96 2724.78 1138.5 2721.17 1134.52C2719.39 1132.56 2718.05 1130.24 2717.26 1127.72C2716.46 1125.2 2716.22 1122.53 2716.55 1119.91L2775 656.72C2776.36 645.99 2786.92 638.16 2798.42 639.26C2846.42 643.83 2889.73 665.26 2920.35 699.65C2952.59 735.86 2967.08 781.77 2961.13 828.93L2941.18 986.87C2930 1075.82 2848 1142.31 2754.05 1142.32ZM2796.28 646C2789.41 646 2783.41 650.92 2782.58 657.5L2724.1 1120.68C2723.88 1122.39 2724.03 1124.14 2724.55 1125.79C2725.07 1127.43 2725.94 1128.95 2727.1 1130.23C2729.38 1132.75 2732.53 1134.32 2735.91 1134.61V1134.61C2833.44 1143.86 2922.15 1077.26 2933.66 986.1L2953.66 828.1C2959.38 782.77 2945.47 738.66 2914.5 703.89C2885.16 670.89 2843.68 650.39 2797.7 646.02C2797.19 646 2796.73 646 2796.28 646Z" fill="#371A45"/>
<g opacity="0.25">
<path d="M2946.79 912.42L2937.45 986.5C2925.68 1079.64 2835.28 1147.5 2735.5 1138.04C2725.99 1137.15 2719.2 1129.17 2720.31 1120.29L2735.81 997.16C2736.91 1000.19 2738.86 1002.83 2741.42 1004.78C2743.99 1006.74 2747.06 1007.91 2750.27 1008.16L2762.04 1009.24C2840.87 1016.79 2913.91 976 2946.79 912.42Z" fill="#371A45"/>
</g>
<path d="M2754.05 1158C2747.18 1158 2740.26 1157.67 2733.29 1157C2723.45 1156.18 2714.28 1151.66 2707.64 1144.34C2704.44 1140.84 2702.04 1136.69 2700.6 1132.18C2699.16 1127.66 2698.72 1122.88 2699.31 1118.18L2757.79 655C2760.22 635.77 2779.24 621.74 2800.28 623.76C2852.91 628.76 2900.37 652.26 2933.91 689.91C2969.08 729.39 2984.91 779.4 2978.4 830.73L2958.4 988.68C2946.22 1085.53 2856.71 1157.94 2754.05 1158ZM2741.73 1119.44C2828.15 1125.67 2906.15 1065.8 2916.42 984.38L2936.36 826.44C2941.56 785.28 2928.97 745.27 2900.92 713.77C2875.27 684.97 2839.36 666.7 2799.47 662.05L2741.73 1119.44Z" fill="#371A45"/>
<path d="M1161.09 487C1170.6 487.9 1177.4 495.83 1176.27 504.71L1117.8 967.91C1116.67 976.79 1108.06 983.26 1098.55 982.35C998.79 972.87 927.46 889.65 939.22 796.48L959.16 638.48C970.92 545.36 1061.33 477.52 1161.09 487Z" fill="#F2F2F2"/>
<path d="M1100.32 985.86C1099.6 985.86 1098.88 985.86 1098.15 985.76C1050.15 981.19 1006.84 959.76 976.21 925.36C943.97 889.16 929.49 843.25 935.45 796.09L955.38 638.09C967.38 543.21 1059.87 473.89 1161.49 483.55C1166.84 484.002 1171.83 486.468 1175.43 490.45C1177.21 492.406 1178.55 494.725 1179.34 497.248C1180.14 499.77 1180.38 502.436 1180.05 505.06L1121.57 968.3C1120.3 978.35 1111 985.86 1100.32 985.86ZM1142.55 489.55C1052.38 489.55 973.73 553.44 962.93 638.91L943 796.86C937.27 842.19 951.17 886.3 982.14 921.08C1011.48 954.02 1052.97 974.58 1098.94 978.95C1106.47 979.64 1113.13 974.53 1114.02 967.52L1172.5 504.34C1172.72 502.624 1172.57 500.881 1172.05 499.23C1171.53 497.58 1170.66 496.061 1169.5 494.78C1167.22 492.26 1164.07 490.699 1160.69 490.41V490.41C1154.61 489.83 1148.55 489.55 1142.55 489.55Z" fill="#371A45"/>
<g opacity="0.25">
<path d="M1134.06 839.42L1117.82 967.91C1116.71 976.79 1108.04 983.25 1098.53 982.35C1046.18 977.35 1001.6 952.07 972.8 915.64C946.8 882.75 933.66 840.75 939.24 796.51L947.63 730C968.63 791.09 1026.54 837.77 1099.63 844.73L1117.73 846.45C1120.82 846.759 1123.95 846.276 1126.8 845.046C1129.66 843.816 1132.16 841.88 1134.06 839.42V839.42Z" fill="#371A45"/>
</g>
<path d="M1100.32 1001.49C1099 1001.49 1097.67 1001.43 1096.32 1001.3C1043.68 996.3 996.21 972.8 962.67 935.14C927.51 895.66 911.72 845.65 918.2 794.32L938.13 636.38C951.19 533 1052.13 457.44 1163.3 468.06C1173.16 468.867 1182.35 473.392 1189 480.72C1192.2 484.217 1194.6 488.367 1196.04 492.884C1197.48 497.401 1197.92 502.177 1197.33 506.88L1138.85 970.06C1136.54 988.06 1119.69 1001.49 1100.32 1001.49ZM1142.55 505.18C1061.07 505.18 989.96 563.18 980.18 640.68L960.24 798.68C955.04 839.84 967.63 879.85 995.67 911.34C1021.32 940.14 1057.24 958.42 1097.13 963.07L1154.87 505.67C1150.75 505.33 1146.63 505.18 1142.55 505.18Z" fill="#371A45"/>
<path d="M2036.59 1600.31C2504.03 1547.96 2843.47 1152.85 2794.75 717.817C2746.03 282.779 2327.6 -27.4512 1860.16 24.8983C1392.72 77.2477 1053.28 472.353 1102 907.391C1150.72 1342.43 1569.15 1652.66 2036.59 1600.31Z" fill="#F2F2F2"/>
<path d="M1935.28 1609.41C1886.07 1609.4 1836.95 1605.42 1788.38 1597.51C1570.02 1561.94 1379.08 1450.29 1250.72 1283.11C1115.28 1106.72 1064.86 891.02 1108.72 675.76C1197 242.92 1645.43 -47.85 2108.42 27.53C2326.78 63.1 2517.72 174.75 2646.08 341.93C2781.52 518.32 2831.94 734.02 2788.08 949.28C2709.2 1336 2342.72 1609.41 1935.28 1609.41ZM1961.51 22.47C1557.66 22.47 1194.4 293.47 1116.23 676.99C1072.71 890.45 1122.69 1104.33 1256.97 1279.22C1384.18 1444.89 1573.38 1555.53 1789.73 1590.77C2248.58 1665.51 2693.09 1377.18 2780.58 948.05C2824.1 734.58 2774.12 520.71 2639.84 345.82C2512.63 180.15 2323.43 69.51 2107.07 34.27C2058.95 26.4236 2010.27 22.4775 1961.51 22.47V22.47Z" fill="#371A45"/>
<g opacity="0.35">
<path d="M2798.36 839.16C2796.42 875.961 2791.74 912.565 2784.36 948.67C2696.3 1380.33 2250.73 1669.31 1789.07 1594.16C1327.41 1519.01 1024.5 1108 1112.45 676.37C1114.98 663.96 1117.82 651.58 1120.95 639.45C1099.74 1029.12 1389.17 1378.92 1811.57 1447.73C2259.94 1520.72 2693.08 1250.25 2798.36 839.16Z" fill="#371A45"/>
</g>
<path d="M1935.28 1625C1885.03 1625 1834.87 1620.93 1785.28 1612.85C1562.36 1576.54 1367.44 1462.58 1236.44 1291.96C1098.37 1112.17 1047 892.31 1091.69 672.93C1181.69 231.64 1639.13 -64.78 2111.51 12.15C2334.44 48.46 2529.35 162.42 2660.35 333C2798.43 512.83 2849.84 732.69 2805.12 952.07C2724.73 1346.39 2350.93 1625 1935.28 1625ZM1961.51 38.11C1565.85 38.11 1209.94 303.84 1133.29 679.82C1090.61 889.16 1139.6 1098.88 1271.29 1270.32C1395.85 1432.55 1581.09 1540.9 1792.87 1575.39C1839.97 1583.07 1887.61 1586.93 1935.33 1586.93C2331 1586.93 2686.91 1321.2 2763.57 945.22C2806.25 735.87 2757.25 526.16 2625.62 354.72C2501 192.49 2315.77 84.14 2104 49.65C2056.89 41.9727 2009.24 38.1135 1961.51 38.11V38.11Z" fill="#371A45"/>
<path d="M2777.55 968.3C2748.85 1121.64 2668.95 1256.1 2555.83 1360.38C2471.03 1438.56 2161.45 1551.48 1814.36 1502.99C1492.53 1457.99 1230.16 1254.52 1178.42 1156.09C1109.42 1024.8 1082.81 874.54 1111.52 721.2C1187.52 315.43 1591.91 202.53 2052 270.77C2512.09 339.01 2853.52 562.53 2777.55 968.3Z" fill="#371A45"/>
<path d="M1984.67 1529.58C1926.85 1529.61 1869.1 1525.62 1811.84 1517.65C1627.98 1491.97 1478.7 1418.76 1385.84 1361.86C1280.56 1297.36 1193.3 1219.08 1163.53 1162.44C1090.53 1023.57 1066.93 870.14 1095.27 718.74C1132.13 521.86 1245.01 382.58 1430.77 304.74C1593.61 236.53 1809.36 219.74 2054.67 256.09C2356.01 300.78 2579.62 405.54 2701.32 559.02C2792.32 673.81 2823.45 812.34 2793.79 970.74C2765.45 1122.13 2687.24 1260.44 2567.61 1370.74C2517.89 1416.58 2410.61 1463.62 2287.75 1493.5C2188.5 1517.45 2086.77 1529.56 1984.67 1529.58V1529.58ZM1812.83 267.05C1671.98 267.05 1547.16 288.75 1444.66 331.69C1269.33 405.13 1162.66 537.01 1127.76 723.69C1100.55 869.07 1123.21 1016.4 1193.3 1149.75C1243.1 1244.47 1501.14 1444.23 1816.89 1488.34C2166.73 1537.21 2467.71 1420.4 2544.05 1350.03C2658.96 1244.09 2734.05 1111.25 2761.31 965.85C2789.45 815.52 2760.25 684.46 2674.51 576.33C2558.01 429.4 2341.83 328.81 2049.32 285.43C1966.62 273.15 1887.48 267.05 1812.83 267.05Z" fill="#371A45"/>
<g opacity="0.5">
<path d="M2614 919.736C2648.19 848.749 2632.6 770.338 2579.17 744.601C2525.74 718.865 2454.71 755.548 2420.52 826.536C2386.32 897.524 2401.91 975.935 2455.34 1001.67C2508.77 1027.41 2579.8 990.724 2614 919.736Z" fill="#F2F2F2"/>
</g>
<g opacity="0.5">
<path d="M2377.04 1166.6C2401.44 1139.23 2401.99 1099.89 2378.26 1078.74C2354.53 1057.58 2315.52 1062.62 2291.11 1089.99C2266.71 1117.36 2266.16 1156.7 2289.88 1177.86C2313.61 1199.01 2352.63 1193.97 2377.04 1166.6Z" fill="#F2F2F2"/>
</g>
<g opacity="0.35">
<path d="M2686.41 565.72C2771.23 671.67 2808.03 805.3 2777.55 968.28C2748.84 1121.65 2668.91 1256.09 2555.86 1360.38C2471.03 1438.56 2161.43 1551.46 1814.34 1503.01C1691.78 1485.92 1577.89 1445.81 1480.92 1397.21C1909.08 1448.27 2286.46 1309.3 2391.63 1212.33C2535.2 1079.99 2636.63 909.33 2673 714.73C2682.77 662.73 2687 613.07 2686.41 565.72Z" fill="#111A28"/>
</g>
<path d="M2772.46 620.87C2769.41 620.899 2766.38 620.291 2763.57 619.086C2760.77 617.881 2758.24 616.104 2756.16 613.87L2755.78 613.44L2754.29 611.72L2753.29 609.72C2646.64 403.63 2393.65 257 2059.15 207.33C1722.75 157.44 1429.53 226.7 1254.71 397.33L1253.4 398.51C1244.82 405.51 1231.52 405.08 1223.62 397.43C1221.8 395.744 1220.35 393.693 1219.37 391.41C1218.39 389.127 1217.91 386.664 1217.95 384.181C1217.98 381.698 1218.54 379.25 1219.59 376.998C1220.64 374.746 1222.15 372.74 1224.02 371.11C1408.7 191.11 1715.53 117.74 2066.02 169.73C2414.31 221.39 2678.68 375.78 2791.41 593.31C2795.73 601.18 2793.59 610.98 2785.7 616.67C2781.83 619.42 2777.2 620.889 2772.46 620.87V620.87Z" fill="#371A45"/>
<g opacity="0.5">
<path d="M1253.41 990.34C1253.41 990.34 1193.91 570.11 1454.55 444.82C1715.19 319.53 2047.09 369.42 2035.6 388.17C2035.6 388.17 1652.46 416.84 1457.78 667.17C1307.66 860.18 1253.41 990.34 1253.41 990.34Z" fill="#F2F2F2"/>
</g>
<path d="M3128.28 2448.22C3128.28 2590.87 2485.6 2749.06 1567.28 2749.06C648.96 2749.06 6.28027 2590.87 6.28027 2448.22H3128.28Z" fill="#371A45"/>
<path d="M6.24019 2441.52C71.2402 2431.2 136.32 2428.46 201.36 2427.36C266.41 2425.92 331.45 2426.68 396.49 2427.47L494.06 2428.1H591.62H2738H2835.57C2868.09 2428.1 2900.57 2427.2 2933.13 2426.77C2965.69 2426.34 2998.13 2427.01 3030.69 2428.69C3046.95 2429.69 3063.21 2430.98 3079.47 2433.09C3095.73 2435.2 3112 2437.58 3128.26 2441.51C3132.36 2442.51 3134.8 2446.31 3133.69 2450C3133.29 2451.22 3132.58 2452.31 3131.63 2453.17C3130.68 2454.03 3129.51 2454.63 3128.26 2454.9C3112.17 2458.62 3095.88 2461.43 3079.47 2463.32C3063.21 2465.43 3046.95 2466.76 3030.69 2467.72C2998.17 2469.4 2965.65 2470.04 2933.13 2469.64C2900.61 2469.22 2868.13 2468.3 2835.57 2468.31H2738H591.62H494.06L396.49 2468.94C331.49 2469.72 266.41 2470.48 201.36 2469.04C136.36 2467.95 71.2802 2465.21 6.24019 2454.88C2.13019 2454.23 -0.60981 2450.7 0.12019 2447.01C0.461935 2445.58 1.2306 2444.29 2.32388 2443.31C3.41716 2442.33 4.7832 2441.71 6.24019 2441.52V2441.52Z" fill="#371A45"/>
<path d="M2483.66 2111.37C2318.75 2092.9 2204.71 2152.28 2165.59 2209.03C2124.29 2269.03 2104.93 2305.44 2130.21 2349.37C2143.84 2373.04 2171.01 2388.62 2210.48 2389.59C2256.48 2390.73 2303.3 2351.59 2303.3 2351.59C2303.3 2351.59 2443.06 2462.96 2655.11 2421.73C2692.34 2414.49 2697.18 2411.08 2697.18 2411.08L2717.95 2324.3C2717.95 2324.3 2746.85 2211.88 2646.83 2158.15C2563.09 2113.16 2483.66 2111.37 2483.66 2111.37Z" fill="#F2F2F2"/>
<path d="M2560.51 2450.05C2429.51 2450.05 2337.51 2398.52 2303.51 2376.05C2284.17 2389.12 2247.51 2409.82 2209.9 2408.68C2164.51 2407.56 2129.54 2389.62 2111.44 2358.18C2080.34 2304.18 2105.57 2260.08 2147.62 2199.02C2192.14 2134.43 2317.11 2073.56 2486.28 2092.5C2497.87 2093.8 2506.1 2103.32 2504.66 2113.76C2503.22 2124.2 2492.72 2131.62 2481.06 2130.32C2330.33 2113.44 2221.2 2164.52 2183.56 2219.12C2141.56 2280.12 2130.01 2307.66 2148.98 2340.64C2159.84 2359.49 2181.31 2369.85 2211.06 2370.64C2241.56 2371.41 2277.59 2347.11 2288.94 2337.64L2302.94 2326L2317.26 2337.37C2318.55 2338.37 2452.26 2441.7 2650.59 2403.16C2676.59 2398.16 2684.92 2395.25 2686.59 2394.62C2695.59 2389.94 2707.23 2391.82 2713.8 2399.4C2721 2407.68 2719.38 2419.66 2710.18 2426.14C2707.37 2428.14 2701.52 2432.24 2659.54 2440.41C2626.92 2446.79 2593.75 2450.02 2560.51 2450.05V2450.05Z" fill="#371A45"/>
<path d="M2484.81 2092.35C2488.47 2092.44 2491.13 2092.52 2494.13 2092.74C2497.13 2092.96 2499.94 2093.18 2502.79 2093.47C2508.52 2094.06 2514.11 2094.84 2519.72 2095.72C2530.87 2097.57 2541.89 2099.86 2552.72 2102.72C2563.55 2105.58 2574.2 2108.72 2584.66 2112.41C2589.86 2114.31 2595.1 2116.11 2600.25 2118.1L2615.47 2124.48C2635.55 2133.35 2655.06 2143.2 2673.22 2154.79C2682.5 2160.28 2691.14 2166.6 2699.8 2172.79C2708.46 2178.98 2716.46 2185.92 2724.51 2192.65C2725.52 2193.44 2726.34 2194.44 2726.92 2195.58C2727.51 2196.73 2727.84 2197.98 2727.89 2199.26C2727.95 2200.54 2727.72 2201.82 2727.24 2203C2726.75 2204.19 2726.02 2205.26 2725.08 2206.13C2723.38 2207.71 2721.23 2208.74 2718.93 2209.07C2716.63 2209.41 2714.29 2209.04 2712.2 2208.01L2711.44 2207.62C2702.13 2203 2693.44 2197.74 2684.18 2193.3C2674.92 2188.86 2665.94 2184.14 2656.48 2180.2C2638.01 2171.63 2618.8 2164.59 2599.61 2157.96C2580.42 2151.33 2560.61 2146.2 2540.95 2141.51C2531.11 2139.1 2521.19 2137.15 2511.31 2135.19C2506.37 2134.37 2501.42 2133.29 2496.52 2132.6C2494.07 2132.17 2491.62 2131.76 2489.23 2131.43L2482.54 2130.43L2480.75 2130.16C2469.24 2128.44 2461.47 2118.64 2463.38 2108.27C2465.12 2098.74 2474.41 2092.06 2484.81 2092.35Z" fill="#371A45"/>
<path d="M2282.15 2341.61C2282.78 2334.59 2283.78 2327.6 2285.15 2320.68C2286.4 2313.94 2287.91 2307.27 2289.67 2300.68C2293.16 2287.38 2297.66 2274.37 2303.13 2261.75C2308.87 2248.94 2315.87 2236.73 2324.03 2225.3C2332.73 2213.68 2343.03 2203.35 2354.61 2194.6C2356.36 2193.32 2358.51 2192.72 2360.67 2192.91C2362.83 2193.09 2364.85 2194.05 2366.36 2195.6C2367.62 2196.92 2368.31 2198.69 2368.29 2200.52C2368.26 2202.34 2367.52 2204.09 2366.23 2205.38L2365.91 2205.7C2357.25 2214.59 2349.91 2224.67 2344.1 2235.63C2338.67 2246.59 2334.36 2258.06 2331.22 2269.88C2328.26 2281.73 2326.21 2293.78 2325.09 2305.94C2324.52 2312 2324.16 2318.09 2324.09 2324.14C2323.92 2329.99 2324.05 2335.84 2324.48 2341.68C2325.39 2352.2 2316.65 2361.4 2304.97 2362.22C2293.29 2363.04 2283.09 2355.17 2282.18 2344.64C2282.09 2343.63 2282.08 2342.62 2282.15 2341.61V2341.61Z" fill="#371A45"/>
<path d="M2676.12 2409.32C2678.48 2398.44 2681.19 2388.43 2684.25 2378.12C2687.31 2367.81 2690.73 2357.74 2694.69 2347.67C2698.65 2337.37 2703.42 2327.4 2708.97 2317.86C2711.94 2312.8 2715.37 2308.03 2719.21 2303.59C2723.26 2299.05 2728.1 2294.5 2734.91 2291.4C2736.69 2290.55 2738.72 2290.39 2740.61 2290.94C2742.5 2291.49 2744.12 2292.72 2745.16 2294.4C2745.93 2295.79 2746.17 2297.41 2745.81 2298.96C2745.46 2300.5 2744.55 2301.87 2743.25 2302.78L2742.56 2303.3C2736.56 2307.81 2732.26 2316.76 2729.25 2325.62C2726.28 2334.88 2724.06 2344.36 2722.62 2353.97C2721.08 2363.69 2720.02 2373.54 2719.3 2383.43C2718.58 2393.32 2718.17 2403.43 2718.24 2412.84C2718.32 2423.41 2708.87 2432.05 2697.13 2432.12C2685.39 2432.19 2675.81 2423.68 2675.72 2413.12C2675.72 2411.84 2675.86 2410.57 2676.12 2409.32V2409.32Z" fill="#371A45"/>
<path d="M2715.58 2369.43H1723.83V2448.22H2715.58V2369.43Z" fill="#D8D8D8"/>
<path d="M2715.58 2467.27H1723.83C1712.15 2467.27 1702.68 2458.74 1702.68 2448.21V2369.42C1702.68 2358.9 1712.15 2350.37 1723.83 2350.37H2715.58C2727.26 2350.37 2736.73 2358.9 2736.73 2369.42V2448.21C2736.73 2458.74 2727.26 2467.27 2715.58 2467.27ZM1745 2429.16H2694.45V2388.48H1745V2429.16Z" fill="#371A45"/>
<path d="M1699.05 1136.68H235.36C184.296 1136.68 142.9 1178.08 142.9 1229.14V2069.61C142.9 2120.67 184.296 2162.07 235.36 2162.07H1699.05C1750.11 2162.07 1791.51 2120.67 1791.51 2069.61V1229.14C1791.51 1178.08 1750.11 1136.68 1699.05 1136.68Z" fill="#D8D8D8"/>
<g opacity="0.7">
<path d="M1699.05 1136.68H235.36C184.296 1136.68 142.9 1178.08 142.9 1229.14V2069.61C142.9 2120.67 184.296 2162.07 235.36 2162.07H1699.05C1750.11 2162.07 1791.51 2120.67 1791.51 2069.61V1229.14C1791.51 1178.08 1750.11 1136.68 1699.05 1136.68Z" fill="#F2F2F2"/>
</g>
<path d="M1742.59 1221.29V2077.46C1742.59 2099.84 1722.39 2118.03 1697.59 2118.03H236.79C212 2118.03 191.79 2099.84 191.79 2077.46V1221.29C191.79 1198.91 211.98 1180.76 236.79 1180.76H1697.6C1722.39 1180.76 1742.59 1198.91 1742.59 1221.29Z" fill="#D8D8D8"/>
<g opacity="0.25">
<path d="M1742.59 1221.29V2077.46C1742.59 2099.84 1722.39 2118.03 1697.59 2118.03H236.79C236.79 2118.03 1332.33 2024.6 1742.59 1221.29Z" fill="#371A45"/>
</g>
<path d="M1690 2181.13H244.45C176.79 2181.13 121.75 2131.54 121.75 2070.59V1228.17C121.75 1167.17 176.75 1117.63 244.45 1117.63H1690C1757.66 1117.63 1812.7 1167.21 1812.7 1228.17V2070.59C1812.66 2131.54 1757.62 2181.13 1690 2181.13ZM244.45 1155.73C200.12 1155.73 164.05 1188.23 164.05 1228.17V2070.59C164.05 2110.53 200.12 2143.02 244.45 2143.02H1690C1734.33 2143.02 1770.4 2110.53 1770.4 2070.59V1228.17C1770.4 1188.23 1734.33 1155.73 1690 1155.73H244.45Z" fill="#371A45"/>
<path d="M730.49 2387.43H1203.93C1208.44 2387.43 1212.76 2389.22 1215.95 2392.41C1219.14 2395.6 1220.93 2399.92 1220.93 2404.43V2444.33C1220.93 2445.35 1220.52 2446.34 1219.8 2447.06C1219.08 2447.78 1218.09 2448.19 1217.07 2448.19H717.32C716.296 2448.19 715.314 2447.78 714.591 2447.06C713.867 2446.34 713.46 2445.35 713.46 2444.33V2404.43C713.46 2399.92 715.251 2395.6 718.439 2392.41C721.627 2389.22 725.951 2387.43 730.46 2387.43H730.49Z" fill="#D8D8D8"/>
<g opacity="0.25">
<path d="M730.49 2387.43H1203.93C1208.44 2387.43 1212.76 2389.22 1215.95 2392.41C1219.14 2395.6 1220.93 2399.92 1220.93 2404.43V2444.33C1220.93 2445.35 1220.52 2446.34 1219.8 2447.06C1219.08 2447.78 1218.09 2448.19 1217.07 2448.19H717.32C716.296 2448.19 715.314 2447.78 714.591 2447.06C713.867 2446.34 713.46 2445.35 713.46 2444.33V2404.43C713.46 2399.92 715.251 2395.6 718.439 2392.41C721.627 2389.22 725.951 2387.43 730.46 2387.43H730.49Z" fill="#371A45"/>
</g>
<path d="M1098.88 1810.32C1097.12 1785.61 1074.33 1766.4 1046.88 1766.4H887.54C860.06 1766.4 837.27 1785.61 835.54 1810.32L793.93 2387.42H1140.57L1098.88 1810.32ZM967.2 1984.6C927.3 1984.6 894.92 1955.43 894.92 1919.49C894.92 1883.55 927.3 1854.38 967.2 1854.38C1007.1 1854.38 1039.47 1883.54 1039.47 1919.49C1039.47 1955.44 1007.15 1984.6 967.2 1984.6Z" fill="#D8D8D8"/>
<path d="M1140.54 2387.42H793.9L835.51 1810.32C837.27 1785.61 860.06 1766.4 887.51 1766.4H1046.82C1074.3 1766.4 1097.09 1785.61 1098.82 1810.32L1140.54 2387.42Z" fill="#D8D8D8"/>
<g opacity="0.7">
<path d="M1140.54 2387.42H793.9L835.51 1810.32C837.27 1785.61 860.06 1766.4 887.51 1766.4H1046.82C1074.3 1766.4 1097.09 1785.61 1098.82 1810.32L1140.54 2387.42Z" fill="#F2F2F2"/>
</g>
<path d="M1104 2356.58H830.43L831.99 2334.82L869.69 1812.3C870.28 1803.85 878.1 1797.24 887.54 1797.24H1046.85C1056.29 1797.24 1064.12 1803.85 1064.7 1812.3L1080.7 2033.45L1104 2356.58Z" fill="#D8D8D8"/>
<path d="M967.2 1991.51C923.11 1991.51 887.2 1959.2 887.2 1919.51C887.2 1879.82 923.06 1847.51 967.2 1847.51C1011.34 1847.51 1047.2 1879.82 1047.2 1919.51C1047.2 1959.2 1011.28 1991.51 967.2 1991.51ZM967.2 1880.07C943.07 1880.07 923.44 1897.75 923.44 1919.49C923.44 1941.23 943.07 1958.9 967.2 1958.9C991.33 1958.9 1010.95 1941.22 1010.95 1919.49C1010.95 1897.76 991.32 1880.07 967.2 1880.07Z" fill="#371A45"/>
<g opacity="0.25">
<path d="M1104 2356.58H830.43L831.99 2334.82C900.99 2297.6 1027.2 2208.34 1080.69 2033.45L1104 2356.58Z" fill="#371A45"/>
</g>
<path d="M1140.55 2406.47H793.9C788.178 2406.52 782.654 2404.37 778.47 2400.47C776.53 2398.66 775.014 2396.44 774.032 2393.97C773.05 2391.5 772.626 2388.85 772.79 2386.2L814.41 1809.11C816.87 1774.49 849 1747.37 887.54 1747.37H1046.85C1085.4 1747.37 1117.51 1774.48 1119.99 1809.11L1161.65 2386.2C1161.82 2388.85 1161.39 2391.5 1160.41 2393.97C1159.43 2396.44 1157.92 2398.66 1155.98 2400.47C1151.8 2404.37 1146.27 2406.52 1140.55 2406.47V2406.47ZM816.47 2368.36H1118L1077.81 1811.56C1076.81 1796.93 1063.18 1785.48 1046.88 1785.48H887.54C871.24 1785.48 857.66 1796.93 856.62 1811.56L816.47 2368.36Z" fill="#371A45"/>
<path d="M332.23 2512.34C335.93 2511.68 339.68 2511.18 343.33 2510.34C348.33 2509.21 349.33 2507.94 349.95 2503.34C350.33 2500.26 350.64 2497.18 351.04 2494.11C351.04 2493.87 351.5 2493.67 352.04 2493.11C352.74 2496.21 353.32 2499.11 354.04 2501.98C355.45 2507.27 357.11 2508.51 363.31 2508.85C366.73 2509.04 370.15 2509 373.76 2509.85C370.23 2510.76 366.7 2511.63 363.18 2512.56C356.98 2514.2 356.18 2515.11 355.85 2520.99C355.76 2522.53 355.85 2524.09 355.85 2525.64C355.877 2526.97 355.434 2528.27 354.6 2529.31C353.49 2525.81 352.33 2522.31 351.28 2518.81C350.967 2517.52 350.229 2516.37 349.183 2515.55C348.138 2514.74 346.847 2514.29 345.52 2514.3C341.1 2513.95 336.68 2513.64 332.26 2513.3L332.23 2512.34Z" fill="#E5E9EC"/>
<path d="M1179.6 2507.79C1183.38 2507.96 1187.15 2508.27 1190.92 2508.24C1196.04 2508.24 1197.42 2507.24 1199.19 2502.85C1200.38 2499.94 1201.5 2497.02 1202.7 2494.11C1202.79 2493.89 1203.26 2493.79 1203.96 2493.41C1203.82 2496.57 1203.61 2499.52 1203.6 2502.46C1203.6 2507.9 1204.86 2509.46 1210.79 2511.12C1214.05 2512.04 1217.4 2512.73 1220.67 2514.36C1217 2514.48 1213.34 2514.57 1209.67 2514.72C1203.21 2514.98 1202.2 2515.72 1200.31 2521.33C1199.82 2522.81 1199.51 2524.33 1199.05 2525.84C1198.72 2527.15 1197.95 2528.32 1196.87 2529.14C1196.71 2525.5 1196.5 2521.86 1196.42 2518.22C1196.36 2515.41 1194.98 2513.51 1192.01 2512.61C1187.81 2511.32 1183.61 2510.07 1179.4 2508.8L1179.6 2507.79Z" fill="#E5E9EC"/>
<path d="M1649.56 2609.8C1653.19 2610.74 1656.79 2611.8 1660.47 2612.57C1665.47 2613.57 1667.06 2612.89 1669.89 2609.02C1671.78 2606.43 1673.61 2603.81 1675.51 2601.24C1675.66 2601.03 1676.14 2601.03 1676.92 2600.81C1675.99 2603.86 1675.04 2606.68 1674.28 2609.55C1672.87 2614.84 1673.72 2616.62 1679.08 2619.46C1682.08 2621.02 1685.08 2622.39 1687.88 2624.64C1684.28 2624 1680.69 2623.34 1677.09 2622.73C1670.73 2621.66 1669.56 2622.15 1666.31 2627.24C1665.45 2628.58 1664.76 2630.01 1663.93 2631.37C1663.26 2632.59 1662.2 2633.57 1660.93 2634.14C1661.7 2630.56 1662.42 2626.98 1663.26 2623.42C1663.64 2622.19 1663.56 2620.86 1663.03 2619.69C1662.5 2618.51 1661.56 2617.57 1660.39 2617.04C1656.63 2614.93 1652.85 2612.84 1649.08 2610.75L1649.56 2609.8Z" fill="#E5E9EC"/>
<path d="M2334.83 2493.37C2339.39 2492.77 2343.98 2492.37 2348.49 2491.52C2354.6 2490.39 2356 2488.89 2356.98 2483.31C2357.64 2479.59 2358.22 2475.85 2358.9 2472.13C2358.9 2471.83 2359.48 2471.61 2360.22 2471.01C2360.89 2474.83 2361.4 2478.4 2362.15 2481.92C2363.54 2488.43 2365.48 2490.03 2373.01 2490.76C2377.15 2491.17 2381.33 2491.29 2385.67 2492.55C2381.32 2493.46 2376.96 2494.35 2372.61 2495.3C2364.96 2496.98 2363.93 2498.05 2363.15 2505.19C2362.94 2507.07 2362.97 2508.96 2362.81 2510.85C2362.76 2512.48 2362.13 2514.04 2361.05 2515.26C2359.92 2510.94 2358.73 2506.63 2357.68 2502.26C2356.87 2498.91 2354.73 2496.93 2350.94 2496.48C2345.58 2495.83 2340.22 2495.22 2334.86 2494.59L2334.83 2493.37Z" fill="#E5E9EC"/>
<path d="M2674.25 2520.84C2677.9 2519.96 2681.6 2519.22 2685.18 2518.16C2690.05 2516.71 2691.02 2515.38 2691.24 2510.75C2691.38 2507.65 2691.46 2504.56 2691.61 2501.47C2691.61 2501.23 2692.04 2501 2692.61 2500.47C2693.55 2503.52 2694.35 2506.38 2695.33 2509.19C2697.15 2514.37 2698.9 2515.51 2705.11 2515.46C2708.53 2515.46 2711.95 2515.18 2715.61 2515.83C2712.16 2516.95 2708.71 2518.05 2705.27 2519.19C2699.21 2521.19 2698.48 2522.19 2698.6 2528.06C2698.6 2529.61 2698.85 2531.15 2698.92 2532.7C2699.04 2534.03 2698.69 2535.35 2697.92 2536.44C2696.54 2533.02 2695.11 2529.61 2693.8 2526.17C2693.39 2524.9 2692.57 2523.8 2691.46 2523.05C2690.36 2522.3 2689.03 2521.94 2687.7 2522.03C2683.27 2521.96 2678.83 2521.93 2674.4 2521.87C2674.36 2521.52 2674.31 2521.18 2674.25 2520.84Z" fill="#E5E9EC"/>
<path d="M2003.69 2617.54C2007.42 2617.05 2011.19 2616.7 2014.89 2616.02C2019.89 2615.1 2021.05 2613.87 2021.89 2609.29C2022.43 2606.24 2022.89 2603.17 2023.46 2600.12C2023.46 2599.88 2023.94 2599.7 2024.54 2599.21C2025.09 2602.33 2025.54 2605.26 2026.13 2608.16C2027.26 2613.49 2028.85 2614.8 2035.03 2615.41C2038.43 2615.74 2041.86 2615.84 2045.41 2616.87C2041.84 2617.62 2038.27 2618.35 2034.71 2619.13C2028.43 2620.51 2027.58 2621.38 2026.94 2627.23C2026.77 2628.78 2026.8 2630.33 2026.66 2631.88C2026.62 2633.22 2026.11 2634.5 2025.22 2635.5C2024.3 2631.95 2023.32 2628.42 2022.46 2624.86C2021.79 2622.11 2020.04 2620.49 2016.93 2620.11C2012.54 2619.58 2008.14 2619.11 2003.74 2618.57L2003.69 2617.54Z" fill="#E5E9EC"/>
<path d="M1532.22 2501.79C1535.92 2499.79 1539.72 2497.86 1543.29 2495.64C1548.12 2492.64 1548.72 2490.88 1547.29 2485.71C1546.29 2482.27 1545.29 2478.84 1544.37 2475.38C1544.29 2475.11 1544.67 2474.75 1545.06 2473.98C1547.2 2477.06 1549.06 2479.98 1551.2 2482.79C1555.06 2487.97 1557.4 2488.71 1564.2 2486.84C1567.96 2485.84 1571.63 2484.54 1575.9 2484.18C1572.51 2486.42 1569.09 2488.64 1565.72 2490.91C1559.72 2494.91 1559.32 2496.17 1561.56 2502.61C1562.15 2504.31 1562.96 2505.95 1563.56 2507.61C1564.18 2509 1564.28 2510.56 1563.84 2512.02C1561.09 2508.65 1558.3 2505.31 1555.61 2501.91C1554.71 2500.64 1553.44 2499.68 1551.96 2499.18C1550.49 2498.68 1548.9 2498.67 1547.41 2499.13C1542.5 2500.35 1537.6 2501.6 1532.7 2502.84L1532.22 2501.79Z" fill="#E5E9EC"/>
<path d="M922.4 2587.47C926.14 2586.97 929.91 2586.63 933.6 2585.95C938.6 2585.02 939.76 2583.8 940.6 2579.22C941.14 2576.16 941.6 2573.1 942.17 2570.04C942.17 2569.8 942.65 2569.62 943.26 2569.13C943.8 2572.26 944.26 2575.19 944.84 2578.08C945.98 2583.42 947.57 2584.73 953.75 2585.33C957.14 2585.66 960.57 2585.76 964.13 2586.79C960.56 2587.54 956.98 2588.27 953.42 2589.05C947.14 2590.43 946.3 2591.31 945.66 2597.16C945.49 2598.7 945.51 2600.26 945.38 2601.8C945.338 2603.14 944.828 2604.42 943.94 2605.42C943.01 2601.88 942.03 2598.34 941.17 2594.79C940.924 2593.49 940.244 2592.31 939.241 2591.45C938.238 2590.59 936.972 2590.09 935.65 2590.04C931.25 2589.51 926.85 2589.04 922.46 2588.49L922.4 2587.47Z" fill="#E5E9EC"/>
<path d="M704.89 2499.42C711.75 2499.42 718.63 2499.74 725.47 2499.42C734.77 2498.99 737.19 2497.07 740.02 2489.04C741.91 2483.68 743.69 2478.29 745.6 2472.94C745.75 2472.52 746.6 2472.3 747.83 2471.56C747.83 2477.32 747.75 2482.68 747.98 2488.03C748.41 2497.89 750.88 2500.64 761.8 2503.23C767.8 2504.66 773.93 2505.68 780.01 2508.4C773.37 2508.88 766.73 2509.31 760.09 2509.84C748.4 2510.78 746.62 2512.15 743.7 2522.51C742.93 2525.24 742.5 2528.04 741.8 2530.78C741.31 2533.19 740.012 2535.36 738.12 2536.94C737.52 2530.34 736.83 2523.75 736.35 2517.15C735.99 2512.05 733.35 2508.7 727.86 2507.27C720.12 2505.27 712.37 2503.27 704.63 2501.27C704.71 2500.65 704.8 2500 704.89 2499.42Z" fill="#E5E9EC"/>
<path d="M1296.84 2606.89C1303.49 2607.98 1310.11 2609.34 1316.84 2610.09C1325.94 2611.09 1328.66 2609.63 1332.94 2602.28C1335.8 2597.37 1338.56 2592.41 1341.45 2587.52C1341.67 2587.13 1342.53 2587.05 1343.87 2586.52C1342.81 2592.11 1341.66 2597.3 1340.87 2602.52C1339.39 2612.16 1341.26 2615.21 1351.36 2619.42C1356.92 2621.73 1362.66 2623.68 1368.05 2627.26C1361.51 2626.69 1354.98 2626.08 1348.44 2625.57C1336.91 2624.66 1334.92 2625.71 1330.1 2635.31C1328.84 2637.84 1327.88 2640.49 1326.68 2643.04C1325.73 2645.31 1324.07 2647.21 1321.93 2648.44C1322.61 2641.95 1323.2 2635.44 1324 2628.97C1324.62 2623.97 1322.68 2620.3 1317.65 2618.06C1310.53 2614.89 1303.4 2611.74 1296.26 2608.62C1296.43 2608.06 1296.63 2607.47 1296.84 2606.89Z" fill="#E5E9EC"/>
<path d="M1873.24 2492.31C1878.45 2491.82 1883.69 2491.53 1888.86 2490.78C1895.86 2489.78 1897.53 2488.12 1898.95 2481.78C1899.89 2477.57 1900.75 2473.34 1901.71 2469.14C1901.79 2468.81 1902.41 2468.58 1903.27 2467.93C1903.83 2472.29 1904.27 2476.37 1904.9 2480.42C1906.13 2487.87 1908.26 2489.77 1916.78 2490.93C1921.47 2491.56 1926.21 2491.93 1931.08 2493.49C1926.08 2494.35 1921.08 2495.18 1916.08 2496.07C1907.29 2497.66 1906.08 2498.83 1904.8 2506.91C1904.47 2509.03 1904.4 2511.19 1904.12 2513.33C1903.97 2515.18 1903.18 2516.93 1901.89 2518.27C1900.83 2513.27 1899.7 2508.36 1898.73 2503.39C1897.99 2499.54 1895.66 2497.2 1891.38 2496.52C1885.32 2495.52 1879.26 2494.63 1873.2 2493.69L1873.24 2492.31Z" fill="#E5E9EC"/>
<path d="M2247.05 2594.22C2254.05 2594.27 2261.05 2594.59 2267.98 2594.29C2277.43 2593.89 2279.9 2591.94 2282.81 2583.79C2284.81 2578.34 2286.59 2572.87 2288.57 2567.43C2288.72 2567.01 2289.57 2566.79 2290.84 2566.04C2290.84 2571.89 2290.7 2577.35 2290.92 2582.79C2291.31 2592.79 2293.81 2595.63 2304.92 2598.3C2311.02 2599.77 2317.25 2600.84 2323.42 2603.62C2316.66 2604.08 2309.91 2604.5 2303.16 2605.02C2291.26 2605.93 2289.44 2607.31 2286.43 2617.84C2285.63 2620.61 2285.19 2623.46 2284.43 2626.25C2283.92 2628.7 2282.59 2630.9 2280.66 2632.49C2280.08 2625.78 2279.4 2619.08 2278.95 2612.36C2278.6 2607.17 2275.95 2603.76 2270.35 2602.28C2262.5 2600.19 2254.63 2598.15 2246.76 2596.09C2246.86 2595.47 2247 2594.84 2247.05 2594.22Z" fill="#E5E9EC"/>
<path d="M1208.48 2467.27H725.93C707.39 2467.27 692.31 2453.68 692.31 2436.99C692.31 2399.16 726.47 2368.38 768.46 2368.38H1166C1208 2368.38 1242.15 2399.16 1242.15 2436.99C1242.1 2453.68 1227 2467.27 1208.48 2467.27ZM735.74 2429.16H1198.67C1194.82 2416.16 1181.61 2406.49 1165.95 2406.49H768.46C752.8 2406.49 739.59 2416.12 735.74 2429.16Z" fill="#371A45"/>
<path d="M2844.84 2013.91C2841.4 2013.92 2838.01 2013.15 2834.91 2011.67C2680.37 1937.59 2474.85 2003.03 2472.8 2003.67C2461.8 2007.24 2449.69 2002.13 2445.72 1992.24C2441.75 1982.35 2447.4 1971.43 2458.38 1967.84C2467.49 1964.84 2683.44 1895.84 2854.79 1977.99C2865.1 1982.93 2869.01 1994.47 2863.52 2003.76C2859.72 2010.24 2852.4 2013.91 2844.84 2013.91Z" fill="#371A45"/>
</g>
<defs>
<clipPath id="clip0_107_110">
<rect width="3133.98" height="2749.06" fill="white"/>
</clipPath>
</defs>
</svg>
