<svg width="200" height="200" viewBox="0 0 4000 4000" fill="none" xmlns="http://www.w3.org/2000/svg">
<g id="astronaut-sitting">
<path id="Vector" d="M877.5 1883.8C881.1 1883.8 884.689 1884.21 888.2 1885H866.85C870.344 1884.2 873.916 1883.8 877.5 1883.8V1883.8Z" fill="white"/>
<path id="Vector_2" d="M3133.15 1885H3111.8C3115.31 1884.21 3118.9 1883.8 3122.5 1883.8C3126.08 1883.8 3129.66 1884.2 3133.15 1885V1885Z" fill="white"/>
<path id="Vector_3" d="M888.2 1885H866.85C870.344 1884.2 873.916 1883.8 877.5 1883.8C881.1 1883.8 884.689 1884.21 888.2 1885V1885Z" fill="white"/>
<path id="Vector_4" d="M3133.15 1885H3111.8C3115.31 1884.21 3118.9 1883.8 3122.5 1883.8C3126.08 1883.8 3129.66 1884.2 3133.15 1885V1885Z" fill="white"/>
<path id="Vector_5" d="M3168.9 1950.05C3172.38 1940.49 3172.81 1930.08 3170.14 1920.26C3167.48 1910.44 3161.84 1901.69 3154 1895.2V1895.2C3147.96 1890.24 3140.83 1886.76 3133.2 1885.05C3253.45 1824.35 3201.4 1730.05 3096.25 1777.55L2980 1826.25C2941.25 1732.5 2851.25 1758.75 2815 1837.5L2667.75 1885L2482 1945H1518.1L1332.3 1885L1185 1837.5C1148.75 1758.75 1058.75 1732.5 1020 1826.25L903.75 1777.5C798.6 1730 746.55 1824.3 866.75 1885C858.948 1886.73 851.685 1890.34 845.587 1895.5C839.49 1900.67 834.741 1907.24 831.75 1914.65C830.61 1917.47 829.723 1920.38 829.1 1923.35C827.289 1932.26 827.982 1941.51 831.1 1950.05C755.8 1951.3 728.25 2016.45 802.7 2040.05L1482.5 2266.3L1481.9 2279.05L1466.45 2607.6C1464.68 2644.92 1451.02 2680.7 1427.45 2709.7L1216.25 2970C1076.25 2838.75 789.85 2924.85 992.5 3161.25L1076.25 3240.3L1085.9 3249.4L1201.7 3358.65C1223.48 3379.2 1252.13 3390.89 1282.07 3391.44C1312.01 3392 1341.07 3381.38 1363.6 3361.65L1888.5 2902.5C1919.35 2875.46 1958.98 2860.55 2000 2860.55C2041.02 2860.55 2080.65 2875.46 2111.5 2902.5L2636.4 3361.65C2658.93 3381.38 2687.99 3392 2717.93 3391.44C2747.87 3390.89 2776.52 3379.2 2798.3 3358.65L2847.3 3312.4L2923.7 3240.3L3007.45 3161.25C3210.1 2924.85 2923.7 2838.75 2783.7 2970L2572.5 2709.65C2548.95 2680.65 2535.3 2644.87 2533.55 2607.55L2517.5 2266.25L3197.3 2040C3271.75 2016.45 3244.2 1951.3 3168.9 1950.05ZM877.5 1883.8C881.1 1883.8 884.689 1884.21 888.2 1885H866.85C870.344 1884.2 873.916 1883.8 877.5 1883.8V1883.8ZM3111.8 1885C3115.31 1884.21 3118.9 1883.8 3122.5 1883.8C3126.08 1883.8 3129.66 1884.2 3133.15 1885H3111.8Z" fill="white"/>
<path id="Vector_6" d="M2000 2109C2436.3 2109 2790 1755.3 2790 1319C2790 882.695 2436.3 529 2000 529C1563.7 529 1210 882.695 1210 1319C1210 1755.3 1563.7 2109 2000 2109Z" fill="white"/>
<path id="Vector_7" d="M1216.86 1214.57C1023.46 1249.69 1110.19 1727.42 1303.6 1692.31Z" fill="white"/>
<path id="Vector_8" d="M2794.08 1214.57C2987.49 1249.69 2900.75 1727.42 2707.34 1692.31Z" fill="white"/>
<path id="Vector_9" d="M2000 2129C1553.36 2129 1190 1765.63 1190 1319C1190 872.37 1553.36 509 2000 509C2446.64 509 2810 872.36 2810 1319C2810 1765.64 2446.64 2129 2000 2129ZM2000 549C1575.42 549 1230 894.42 1230 1319C1230 1743.58 1575.42 2089 2000 2089C2424.58 2089 2770 1743.58 2770 1319C2770 894.42 2424.58 549 2000 549Z" fill="#232323"/>
<path id="Vector_10" d="M1282.84 1714.22C1183.12 1714.22 1116.45 1598.73 1095.5 1483.35C1072.89 1358.82 1100.11 1215.45 1213.29 1194.9C1218.47 1194.05 1223.77 1195.27 1228.06 1198.29C1232.34 1201.31 1235.27 1205.9 1236.21 1211.06C1237.15 1216.22 1236.02 1221.54 1233.07 1225.88C1230.12 1230.22 1225.58 1233.23 1220.44 1234.25C1138.13 1249.25 1115.08 1367.25 1134.85 1476.25C1153.33 1578.02 1209.62 1674.13 1284.06 1674.14C1289.43 1674.13 1294.78 1673.65 1300.06 1672.68C1302.67 1672.15 1305.35 1672.15 1307.96 1672.68C1310.56 1673.2 1313.04 1674.24 1315.24 1675.74C1317.44 1677.23 1319.32 1679.15 1320.77 1681.38C1322.22 1683.6 1323.21 1686.1 1323.69 1688.72C1324.16 1691.33 1324.11 1694.02 1323.54 1696.61C1322.96 1699.21 1321.87 1701.66 1320.34 1703.83C1318.8 1706.01 1316.85 1707.85 1314.6 1709.26C1312.34 1710.66 1309.82 1711.61 1307.2 1712.03C1299.16 1713.49 1291.01 1714.22 1282.84 1714.22V1714.22Z" fill="#232323"/>
<path id="Vector_11" d="M2685.3 1660.4C2685.3 1660.4 2685.25 1660.4 2685.25 1660.5C2476.95 1929.35 2083.8 2015.3 1750.15 1928.5C1706.23 1917.16 1663.2 1902.62 1621.4 1885C1621.35 1884.99 1621.3 1884.99 1621.25 1885C1508.1 1837.25 1406.95 1767.25 1329.15 1675.4C1108.1 1157.5 1559.6 853.7 1987.5 835C2199.9 825.7 2424.4 889.4 2569.55 1030.5C2709.75 1166.8 2775.85 1375.45 2685.3 1660.4Z" fill="#232323"/>
<path id="Vector_12" d="M2685.3 1660.4C2685.3 1660.4 2685.25 1660.4 2685.25 1660.5C2476.95 1929.35 2083.8 2015.3 1750.15 1928.5C1675.25 1903.4 1624.25 1886 1621.4 1885C1621.35 1884.99 1621.3 1884.99 1621.25 1885C2381.6 1878 2604.8 1535 2569.55 1030.5C2709.75 1166.8 2775.85 1375.45 2685.3 1660.4Z" fill="#020202"/>
<g id="Group" opacity="0.3">
<path id="Vector_13" d="M2790 1319C2790 1755.3 2436.3 2109 2000 2109C1793.9 2109 1606.2 2030.1 1465.55 1900.7C1561.67 1940.72 1664.78 1961.25 1768.9 1961.1C2205.2 1961.1 2558.9 1607.4 2558.9 1171.1C2558.9 940.95 2460.5 733.8 2303.45 589.4C2589.15 708.35 2790 990.2 2790 1319Z" fill="#232323"/>
</g>
<path id="Vector_14" d="M2727.73 1714.18C2719.68 1714.17 2711.65 1713.44 2703.73 1711.98C2701.11 1711.56 2698.59 1710.61 2696.34 1709.21C2694.08 1707.8 2692.13 1705.96 2690.59 1703.78C2689.06 1701.61 2687.97 1699.16 2687.39 1696.56C2686.82 1693.97 2686.77 1691.28 2687.24 1688.67C2687.72 1686.05 2688.71 1683.55 2690.16 1681.33C2691.61 1679.1 2693.49 1677.18 2695.69 1675.69C2697.89 1674.19 2700.37 1673.15 2702.97 1672.63C2705.58 1672.1 2708.26 1672.1 2710.87 1672.63C2746.99 1679.17 2780.49 1664.63 2810.44 1629.28C2875.01 1553.11 2902.11 1403.84 2868.44 1309.84C2852.82 1266.24 2826.58 1240.84 2790.44 1234.25C2785.3 1233.23 2780.76 1230.22 2777.81 1225.88C2774.86 1221.54 2773.73 1216.22 2774.67 1211.06C2775.61 1205.9 2778.54 1201.31 2782.82 1198.29C2787.11 1195.27 2792.41 1194.05 2797.59 1194.9C2848.07 1204.06 2885.59 1239.14 2906.07 1296.35C2944.56 1403.78 2914.73 1568.09 2840.93 1655.14C2808 1694.08 2769.21 1714.18 2727.73 1714.18Z" fill="#232323"/>
<path id="Vector_15" d="M1210.87 1302.33C1209.06 1302.33 1207.26 1302.08 1205.52 1301.6C1202.99 1300.9 1200.62 1299.7 1198.55 1298.09C1196.48 1296.47 1194.75 1294.46 1193.46 1292.18C1192.16 1289.89 1191.33 1287.37 1191.01 1284.76C1190.69 1282.16 1190.89 1279.51 1191.59 1276.98C1241.21 1097.98 1353.73 950.28 1516.98 849.81C1664.14 759.24 1847.52 711.43 2033.44 715.16C2211.88 718.75 2384.09 770.28 2518.35 860.25C2667.67 960.32 2768.04 1104.69 2808.6 1277.76C2809.81 1282.93 2808.92 1288.36 2806.12 1292.87C2803.33 1297.38 2798.86 1300.59 2793.69 1301.8C2788.52 1303.01 2783.09 1302.12 2778.58 1299.32C2774.07 1296.53 2770.86 1292.06 2769.65 1286.89C2679.82 903.55 2316.48 760.89 2032.65 755.15C1708.56 748.71 1334.65 910.76 1230.15 1287.67C1228.98 1291.89 1226.46 1295.6 1222.98 1298.25C1219.5 1300.9 1215.24 1302.33 1210.87 1302.33V1302.33Z" fill="#232323"/>
<path id="Vector_16" d="M2006.52 1981.08C1727.52 1981.08 1469.93 1872.6 1313.89 1688.32C1312.6 1686.8 1311.54 1685.09 1310.76 1683.25C1225.93 1484.52 1232.01 1298.59 1328.35 1145.57C1389.5 1048.43 1486.56 966.1 1609.03 907.48C1723.27 852.79 1853.85 820.82 1986.63 815.02C2255.46 803.27 2504.63 903.41 2637.08 1076.36C2754.86 1230.2 2778.13 1434.25 2704.36 1666.45C2704.01 1667.54 2703.57 1668.6 2703.05 1669.62C2702.48 1670.72 2701.81 1671.77 2701.05 1672.75C2554.05 1862.46 2309.45 1974.75 2029.95 1980.83C2022.14 1981 2014.31 1981.08 2006.52 1981.08ZM1346.37 1664.77C1499.27 1843.65 1754.37 1946.77 2029.09 1940.84C2295.09 1935.06 2527.49 1829.46 2667.3 1651.01C2735.67 1433.2 2714.3 1243.01 2605.3 1100.68C2480.7 937.94 2244.24 843.79 1988.3 854.98C1719.81 866.72 1474.02 989.14 1362.13 1166.88C1273.62 1307.59 1268.16 1479.71 1346.37 1664.77Z" fill="#232323"/>
<path id="Vector_17" d="M2680.4 1695.4C2677.24 1695.4 2674.12 1694.65 2671.3 1693.21C2668.48 1691.77 2666.05 1689.69 2664.19 1687.12C2662.34 1684.56 2661.12 1681.59 2660.63 1678.47C2660.15 1675.34 2660.41 1672.14 2661.4 1669.14L2662.2 1666.72C2663.54 1662.63 2664.88 1658.58 2666.15 1654.52C2666.94 1652.01 2668.21 1649.69 2669.9 1647.67C2671.59 1645.66 2673.65 1643.99 2675.98 1642.78C2678.31 1641.56 2680.86 1640.82 2683.48 1640.59C2686.1 1640.36 2688.73 1640.64 2691.24 1641.43C2693.75 1642.22 2696.07 1643.49 2698.09 1645.18C2700.1 1646.87 2701.77 1648.93 2702.98 1651.26C2704.2 1653.59 2704.94 1656.14 2705.17 1658.76C2705.4 1661.38 2705.12 1664.01 2704.33 1666.52C2702.99 1670.77 2701.59 1675.02 2700.18 1679.3L2699.39 1681.7C2698.07 1685.69 2695.52 1689.16 2692.11 1691.62C2688.7 1694.08 2684.6 1695.4 2680.4 1695.4V1695.4Z" fill="#232323"/>
<g id="Group_2" opacity="0.4">
<path id="Vector_18" d="M2061.49 1168.52C1872.89 1219.77 1704.49 1330.2 1548.7 1477.31C1520.34 1504.08 1474.02 1483.31 1474.86 1444.31C1479.91 1210.88 1757.35 859.96 2075.76 1090.88C2105.49 1112.46 2096.93 1158.89 2061.49 1168.52Z" fill="white"/>
</g>
<g id="Group_3" opacity="0.4">
<path id="Vector_19" d="M2361.25 1300C2406.12 1300 2442.5 1256.91 2442.5 1203.75C2442.5 1150.59 2406.12 1107.5 2361.25 1107.5C2316.38 1107.5 2280 1150.59 2280 1203.75C2280 1256.91 2316.38 1300 2361.25 1300Z" fill="white"/>
</g>
<path id="Vector_20" d="M1518.05 1964.94C1515.96 1964.93 1513.88 1964.59 1511.9 1963.94L1178.9 1856.5C1176.27 1855.65 1173.85 1854.26 1171.78 1852.42C1169.72 1850.59 1168.05 1848.34 1166.9 1845.83C1150.29 1809.74 1120.48 1785.88 1092.4 1786.41C1063.87 1786.98 1047.4 1812.53 1038.55 1833.86C1037.54 1836.29 1036.07 1838.51 1034.2 1840.37C1032.34 1842.23 1030.12 1843.7 1027.69 1844.71C1025.25 1845.71 1022.64 1846.22 1020.01 1846.21C1017.38 1846.21 1014.77 1845.68 1012.34 1844.66L896 1795.94L895.5 1795.72C855.43 1777.62 826.31 1783.53 819.26 1798.29C811.74 1814.04 829 1843.52 875.83 1867.14C878.235 1868.29 880.387 1869.9 882.159 1871.89C883.932 1873.88 885.289 1876.2 886.151 1878.72C887.014 1881.24 887.364 1883.91 887.181 1886.57C886.999 1889.22 886.287 1891.82 885.088 1894.2C883.889 1896.58 882.226 1898.69 880.199 1900.42C878.171 1902.15 875.818 1903.45 873.279 1904.26C870.74 1905.06 868.065 1905.36 865.412 1905.11C862.759 1904.87 860.181 1904.1 857.83 1902.85C783.83 1865.55 767.05 1814.85 783.18 1781.05C798.3 1749.42 844.96 1729.11 911.72 1759.16L1010.31 1800.5C1029.61 1766.5 1058.46 1747.1 1091.53 1746.5C1133.36 1745.59 1174.93 1774.69 1199.19 1821.12L1524.19 1925.95C1528.7 1927.43 1532.53 1930.47 1535.01 1934.52C1537.49 1938.57 1538.44 1943.37 1537.7 1948.06C1536.97 1952.74 1534.59 1957.02 1530.99 1960.11C1527.39 1963.21 1522.81 1964.92 1518.06 1964.95L1518.05 1964.94Z" fill="#232323"/>
<path id="Vector_21" d="M935.43 2026.09C926.488 2026.08 917.633 2024.34 909.35 2020.97L851.43 1997.48C842.899 1994.12 835.12 1989.1 828.541 1982.71C821.962 1976.33 816.714 1968.7 813.101 1960.27C809.487 1951.84 807.58 1942.78 807.49 1933.62C807.399 1924.45 809.127 1915.35 812.573 1906.85C816.02 1898.36 821.116 1890.63 827.567 1884.11C834.019 1877.6 841.698 1872.43 850.161 1868.9C858.623 1865.37 867.702 1863.55 876.871 1863.55C886.04 1863.55 895.118 1865.37 903.58 1868.9L961.49 1892.38C976.386 1898.45 988.712 1909.5 996.363 1923.65C1004.01 1937.8 1006.51 1954.16 1003.44 1969.95C1000.36 1985.74 991.897 1999.97 979.493 2010.21C967.089 2020.45 951.514 2026.06 935.43 2026.09V2026.09ZM877.54 1903.81C870.724 1903.81 864.12 1906.17 858.857 1910.5C853.595 1914.84 850.001 1920.86 848.693 1927.55C847.385 1934.24 848.443 1941.18 851.686 1947.17C854.929 1953.16 860.155 1957.85 866.47 1960.41L924.38 1983.9C927.968 1985.42 931.823 1986.21 935.72 1986.23C939.617 1986.24 943.478 1985.48 947.079 1983.99C950.68 1982.5 953.948 1980.31 956.694 1977.55C959.439 1974.78 961.607 1971.5 963.071 1967.88C964.535 1964.27 965.265 1960.41 965.22 1956.51C965.175 1952.61 964.356 1948.76 962.809 1945.19C961.262 1941.61 959.019 1938.38 956.211 1935.67C953.402 1932.97 950.084 1930.86 946.45 1929.45L888.55 1906C885.055 1904.57 881.317 1903.82 877.54 1903.81V1903.81Z" fill="#232323"/>
<path id="Vector_22" d="M1231.3 2956.83C1263.41 2999.91 1291.16 3046.7 1309.3 3096.91C1309.94 3098.69 1309.89 3100.64 1309.16 3102.38C1308.43 3104.13 1307.07 3105.53 1305.35 3106.31C1303.63 3107.1 1301.68 3107.2 1299.88 3106.61C1298.09 3106.02 1296.58 3104.78 1295.66 3103.13V3103.13C1270.66 3058.13 1237.66 3018.66 1201.19 2983.21C1197.37 2979.5 1195.19 2974.42 1195.12 2969.1C1195.05 2963.77 1197.09 2958.64 1200.81 2954.82C1204.52 2951.01 1209.59 2948.83 1214.92 2948.75C1220.24 2948.68 1225.37 2950.73 1229.19 2954.44C1229.92 2955.15 1230.59 2955.92 1231.19 2956.74L1231.3 2956.83Z" fill="#232323"/>
<path id="Vector_23" d="M1564.46 3203.52C1563.67 3203.52 1562.89 3203.47 1562.11 3203.37C1557.51 3202.75 1553.35 3200.32 1550.54 3196.63C1547.73 3192.94 1546.49 3188.29 1547.11 3183.69C1556.77 3111.9 1535.97 3040.59 1488.56 2982.89C1440.41 2924.29 1368.71 2885.32 1301.45 2881.18C1299.13 2881.08 1296.86 2880.51 1294.76 2879.52C1292.66 2878.52 1290.78 2877.12 1289.23 2875.4C1287.67 2873.67 1286.48 2871.65 1285.72 2869.46C1284.95 2867.27 1284.63 2864.95 1284.77 2862.63C1284.91 2860.31 1285.52 2858.04 1286.54 2855.96C1287.57 2853.88 1289 2852.02 1290.75 2850.5C1292.5 2848.97 1294.54 2847.81 1296.74 2847.08C1298.95 2846.35 1301.28 2846.07 1303.59 2846.25C1381.41 2851.03 1460.66 2893.81 1515.59 2960.67C1569.25 3025.97 1592.75 3106.83 1581.79 3188.35C1581.23 3192.55 1579.16 3196.4 1575.97 3199.19C1572.79 3201.98 1568.7 3203.52 1564.46 3203.52V3203.52Z" fill="#232323"/>
<path id="Vector_24" d="M1462.7 2263.44L1487.57 2177.28C1488.08 2175.53 1489.2 2174.02 1490.74 2173.03C1492.27 2172.03 1494.11 2171.63 1495.92 2171.89C1497.72 2172.14 1499.38 2173.04 1500.57 2174.42C1501.77 2175.8 1502.43 2177.56 1502.43 2179.39L1502.3 2269.06C1502.18 2274.34 1500 2279.36 1496.23 2283.05C1492.45 2286.74 1487.38 2288.81 1482.11 2288.81C1476.83 2288.81 1471.76 2286.74 1467.98 2283.05C1464.21 2279.36 1462.03 2274.34 1461.91 2269.06C1461.92 2267.16 1462.18 2265.27 1462.7 2263.44V2263.44Z" fill="#232323"/>
<path id="Vector_25" d="M1039.38 1831.19C1033.81 1859.39 1029.53 1887.49 1029.87 1914.57C1030.26 1928 1031.81 1941.13 1035.48 1952.71C1036.21 1955.78 1037.57 1958.22 1038.55 1961.03C1039.53 1963.84 1041.12 1966.03 1042.41 1968.41C1045.03 1972.49 1048.36 1976.08 1052.24 1978.98C1055.77 1981.25 1059.81 1982.6 1063.99 1982.9C1068.25 1983.34 1072.99 1981.9 1077.79 1979.66C1082.59 1977.42 1087.18 1973.59 1091.65 1969.51C1096.07 1964.87 1099.97 1959.75 1103.27 1954.26C1110.27 1942.98 1115.18 1929.85 1119 1916.2C1122.61 1902.44 1124.41 1888.05 1125.83 1873.44V1873.17C1125.98 1871.28 1126.83 1869.51 1128.23 1868.22C1129.63 1866.93 1131.46 1866.22 1133.36 1866.23C1135.26 1866.23 1137.08 1866.96 1138.47 1868.26C1139.86 1869.56 1140.7 1871.33 1140.83 1873.23C1142.3 1888.87 1142.24 1904.61 1140.64 1920.23C1138.87 1936.49 1134.58 1952.38 1127.93 1967.32C1124.32 1975.17 1119.84 1982.59 1114.58 1989.45C1108.8 1996.25 1102.58 2003.08 1094.05 2008.06C1085.82 2013.06 1076.05 2017.21 1065.21 2017.73C1054.32 2018.38 1043.46 2016.01 1033.84 2010.86C1024.99 2005.77 1017.24 1998.98 1011.05 1990.86C1008.27 1987.01 1005.73 1983.01 1003.42 1978.86C1001.47 1974.76 999.02 1970.65 997.7 1966.45C991.703 1950.35 988.297 1933.39 987.61 1916.22C986.36 1883.17 991.51 1851.34 1000.61 1821.36C1001.98 1816.32 1005.27 1812.01 1009.77 1809.37C1014.28 1806.72 1019.64 1805.94 1024.71 1807.19C1029.78 1808.45 1034.16 1811.64 1036.91 1816.08C1039.66 1820.52 1040.57 1825.86 1039.43 1830.96L1039.38 1831.19Z" fill="#232323"/>
<path id="Vector_26" d="M2122.5 2292.5H1875C1815.63 2292.5 1767.5 2340.63 1767.5 2400V2542.5C1767.5 2601.87 1815.63 2650 1875 2650H2122.5C2181.87 2650 2230 2601.87 2230 2542.5V2400C2230 2340.63 2181.87 2292.5 2122.5 2292.5Z" fill="white"/>
<g id="Group_4" opacity="0.3">
<path id="Vector_27" d="M2275 2554.55V2593.75C2274.99 2622.26 2263.66 2649.6 2243.51 2669.76C2223.35 2689.91 2196.01 2701.24 2167.5 2701.25H1920C1898.81 2701.25 1878.1 2695 1860.46 2683.26C1842.81 2671.53 1829.04 2654.84 1820.85 2635.3C1837.26 2644.95 1855.96 2650.03 1875 2650H2122.5C2149.98 2650 2176.41 2639.48 2196.37 2620.59C2216.33 2601.7 2228.29 2575.89 2229.8 2548.45L2230 2556.25H2264.4C2268 2556.25 2271.58 2555.68 2275 2554.55V2554.55Z" fill="#232323"/>
</g>
<g id="Group_5" opacity="0.3">
<path id="Vector_28" d="M2230 2400V2542.5C2229.99 2571.01 2218.66 2598.35 2198.51 2618.51C2178.35 2638.66 2151.01 2649.99 2122.5 2650H1875C1851.78 2650.01 1829.18 2642.49 1810.59 2628.57C1792.01 2614.65 1778.43 2595.08 1771.9 2572.8C1784.06 2577.46 1796.98 2579.83 1810 2579.8H2057.5C2086.01 2579.79 2113.35 2568.46 2133.51 2548.31C2153.66 2528.15 2164.99 2500.81 2165 2472.3V2329.8C2165.02 2319.54 2163.55 2309.34 2160.65 2299.5C2181.04 2307.24 2198.59 2321 2210.98 2338.95C2223.36 2356.9 2230 2378.19 2230 2400Z" fill="#232323"/>
</g>
<path id="Vector_29" d="M1157.8 2175.69C1153.51 2175.69 1149.36 2174.12 1146.15 2171.26C1142.94 2168.41 1140.9 2164.47 1140.4 2160.2C1139.91 2155.94 1141 2151.64 1143.47 2148.12C1145.94 2144.61 1149.62 2142.13 1153.8 2141.15C1193.03 2131.92 1226.25 2106.01 1247.34 2068.15C1276.81 2015.29 1279.34 1945.15 1254.49 1870.78C1253.76 1868.6 1253.47 1866.3 1253.63 1864.01C1253.79 1861.71 1254.4 1859.47 1255.43 1857.42C1256.46 1855.36 1257.88 1853.53 1259.61 1852.02C1261.35 1850.51 1263.37 1849.36 1265.55 1848.64C1267.73 1847.91 1270.03 1847.62 1272.32 1847.78C1274.61 1847.94 1276.85 1848.55 1278.91 1849.58C1280.96 1850.6 1282.8 1852.02 1284.3 1853.76C1285.81 1855.49 1286.96 1857.51 1287.69 1859.69C1315.69 1943.55 1312.23 2023.63 1277.91 2085.19C1251.97 2131.71 1210.74 2163.67 1161.82 2175.19C1160.5 2175.51 1159.16 2175.68 1157.8 2175.69Z" fill="#232323"/>
<path id="Vector_30" d="M2122.5 2667.5H1875C1841.86 2667.46 1810.09 2654.28 1786.65 2630.85C1763.22 2607.41 1750.04 2575.64 1750 2542.5V2400C1750.04 2366.86 1763.22 2335.09 1786.65 2311.65C1810.09 2288.22 1841.86 2275.04 1875 2275H2122.5C2155.64 2275.04 2187.41 2288.22 2210.85 2311.65C2234.28 2335.09 2247.46 2366.86 2247.5 2400V2542.5C2247.46 2575.64 2234.28 2607.41 2210.85 2630.85C2187.41 2654.28 2155.64 2667.46 2122.5 2667.5ZM1875 2310C1851.14 2310.03 1828.26 2319.52 1811.39 2336.39C1794.52 2353.26 1785.03 2376.14 1785 2400V2542.5C1785.03 2566.36 1794.52 2589.24 1811.39 2606.11C1828.26 2622.98 1851.14 2632.47 1875 2632.5H2122.5C2146.36 2632.47 2169.24 2622.98 2186.11 2606.11C2202.98 2589.24 2212.47 2566.36 2212.5 2542.5V2400C2212.47 2376.14 2202.98 2353.26 2186.11 2336.39C2169.24 2319.52 2146.36 2310.03 2122.5 2310H1875Z" fill="#232323"/>
<path id="Vector_31" d="M2264.38 2573.75H2230C2225.36 2573.75 2220.91 2571.91 2217.63 2568.62C2214.34 2565.34 2212.5 2560.89 2212.5 2556.25C2212.5 2551.61 2214.34 2547.16 2217.63 2543.88C2220.91 2540.59 2225.36 2538.75 2230 2538.75H2264.38C2268.85 2538.74 2273.14 2536.96 2276.31 2533.8C2279.47 2530.63 2281.25 2526.34 2281.25 2521.87V2404.37C2281.24 2399.9 2279.47 2395.61 2276.3 2392.45C2273.14 2389.28 2268.85 2387.51 2264.38 2387.5H2225.74C2221.1 2387.5 2216.65 2385.66 2213.37 2382.37C2210.08 2379.09 2208.24 2374.64 2208.24 2370C2208.24 2365.36 2210.08 2360.91 2213.37 2357.63C2216.65 2354.34 2221.1 2352.5 2225.74 2352.5H2264.38C2278.13 2352.52 2291.32 2357.99 2301.04 2367.71C2310.76 2377.43 2316.23 2390.62 2316.25 2404.37V2521.87C2316.24 2535.62 2310.77 2548.81 2301.04 2558.54C2291.32 2568.26 2278.13 2573.73 2264.38 2573.75V2573.75Z" fill="#232323"/>
<path id="Vector_32" d="M1763.24 2573.75H1728.86C1715.11 2573.73 1701.92 2568.26 1692.2 2558.54C1682.47 2548.81 1677 2535.62 1676.99 2521.87V2404.37C1677.01 2390.62 1682.48 2377.43 1692.2 2367.71C1701.92 2357.99 1715.11 2352.52 1728.86 2352.5H1767.5C1772.14 2352.5 1776.59 2354.34 1779.87 2357.63C1783.16 2360.91 1785 2365.36 1785 2370C1785 2374.64 1783.16 2379.09 1779.87 2382.37C1776.59 2385.66 1772.14 2387.5 1767.5 2387.5H1728.86C1724.39 2387.51 1720.1 2389.28 1716.94 2392.45C1713.77 2395.61 1712 2399.9 1711.99 2404.37V2521.87C1711.99 2526.34 1713.77 2530.63 1716.93 2533.8C1720.1 2536.96 1724.39 2538.74 1728.86 2538.75H1763.24C1767.88 2538.75 1772.33 2540.59 1775.61 2543.88C1778.9 2547.16 1780.74 2551.61 1780.74 2556.25C1780.74 2560.89 1778.9 2565.34 1775.61 2568.62C1772.33 2571.91 1767.88 2573.75 1763.24 2573.75V2573.75Z" fill="#232323"/>
<path id="Vector_33" d="M1228.83 3363.54C1213.75 3363.54 1196.29 3360.99 1176.44 3355.9C1174.17 3355.37 1172.03 3354.39 1170.14 3353.02C1168.26 3351.65 1166.66 3349.92 1165.45 3347.93C1164.25 3345.94 1163.45 3343.72 1163.11 3341.42C1162.77 3339.11 1162.89 3336.76 1163.47 3334.5C1164.05 3332.24 1165.07 3330.13 1166.49 3328.27C1167.9 3326.41 1169.66 3324.86 1171.68 3323.7C1173.7 3322.53 1175.93 3321.78 1178.25 3321.49C1180.56 3321.2 1182.91 3321.38 1185.15 3322.01C1227.24 3332.82 1249.58 3328.42 1256.46 3320.7C1262.46 3314 1261.55 3299.55 1254.02 3280C1249.64 3268.66 1243.25 3257.22 1234.48 3245C1180.4 3169.82 1117.22 3108.8 1046.69 3063.64C1030.27 3053.13 1010.69 3049.95 993.07 3054.9C974.35 3060.14 965.71 3071.62 962.25 3095.83C961.925 3098.11 961.155 3100.29 959.984 3102.27C958.813 3104.25 957.264 3105.98 955.426 3107.36C953.587 3108.73 951.495 3109.74 949.268 3110.31C947.042 3110.88 944.725 3111 942.45 3110.68C940.175 3110.35 937.986 3109.58 936.008 3108.41C934.031 3107.24 932.303 3105.69 930.924 3103.86C929.545 3102.02 928.542 3099.92 927.972 3097.7C927.401 3095.47 927.275 3093.15 927.6 3090.88C933.01 3053.04 951.34 3030.25 983.6 3021.2C1010.87 3013.56 1040.73 3018.28 1065.54 3034.2C1139.81 3081.75 1206.2 3145.81 1262.88 3224.59C1273.42 3239.25 1281.19 3253.25 1286.65 3267.42C1299.5 3300.75 1298.13 3326.51 1282.58 3343.98C1271 3357 1253 3363.54 1228.83 3363.54Z" fill="#232323"/>
<path id="Vector_34" d="M2482 1964.94C2477.25 1964.91 2472.67 1963.2 2469.07 1960.1C2465.47 1957.01 2463.09 1952.73 2462.36 1948.05C2461.62 1943.36 2462.57 1938.56 2465.05 1934.51C2467.53 1930.46 2471.36 1927.42 2475.87 1925.94L2800.87 1821.11C2825.13 1774.68 2866.6 1745.7 2908.53 1746.49C2941.61 1747.14 2970.45 1766.58 2989.75 1800.49L3088.34 1759.15C3155.1 1729.09 3201.76 1749.41 3216.88 1781.03C3233.01 1814.79 3216.18 1865.54 3142.23 1902.84C3137.51 1905.09 3132.1 1905.4 3127.15 1903.71C3122.21 1902.01 3118.12 1898.45 3115.77 1893.79C3113.42 1889.12 3112.98 1883.72 3114.57 1878.73C3116.15 1873.75 3119.62 1869.59 3124.23 1867.13C3171.05 1843.51 3188.32 1814.03 3180.8 1798.28C3173.8 1783.53 3144.63 1777.61 3104.57 1795.71L3104.07 1795.93L2987.82 1844.68C2985.39 1845.7 2982.78 1846.23 2980.15 1846.24C2977.51 1846.25 2974.9 1845.73 2972.47 1844.73C2970.03 1843.73 2967.81 1842.25 2965.95 1840.39C2964.09 1838.53 2962.61 1836.31 2961.6 1833.88C2952.78 1812.55 2936.28 1787 2907.75 1786.43C2880.03 1785.88 2849.86 1809.76 2833.25 1845.85C2832.1 1848.36 2830.43 1850.61 2828.37 1852.44C2826.3 1854.28 2823.88 1855.67 2821.25 1856.52L2488.1 1964C2486.13 1964.63 2484.07 1964.94 2482 1964.94V1964.94Z" fill="#232323"/>
<path id="Vector_35" d="M3064.57 2026.09C3048.48 2026.08 3032.89 2020.48 3020.47 2010.24C3008.05 2000 2999.58 1985.77 2996.5 1969.97C2993.42 1954.18 2995.92 1937.8 3003.58 1923.65C3011.25 1909.5 3023.59 1898.45 3038.5 1892.39L3096.43 1868.9C3113.48 1861.99 3132.58 1862.13 3149.53 1869.3C3166.47 1876.46 3179.88 1890.07 3186.79 1907.12C3193.7 1924.17 3193.56 1943.27 3186.39 1960.22C3179.23 1977.16 3165.62 1990.57 3148.57 1997.48L3090.65 2021C3082.37 2024.36 3073.51 2026.09 3064.57 2026.09V2026.09ZM3122.5 1903.8C3118.73 1903.81 3114.99 1904.54 3111.5 1905.97L3053.58 1929.45C3046.44 1932.44 3040.77 1938.12 3037.8 1945.26C3034.82 1952.4 3034.78 1960.43 3037.69 1967.6C3040.6 1974.77 3046.21 1980.5 3053.32 1983.55C3060.43 1986.6 3068.46 1986.73 3075.66 1983.9V1983.9L3133.58 1960.41C3139.89 1957.84 3145.1 1953.17 3148.34 1947.18C3151.58 1941.19 3152.65 1934.27 3151.35 1927.58C3150.05 1920.9 3146.47 1914.88 3141.22 1910.54C3135.98 1906.2 3129.39 1903.82 3122.58 1903.8H3122.5Z" fill="#232323"/>
<path id="Vector_36" d="M1284.3 3411.69C1248.44 3411.68 1213.95 3397.9 1187.95 3373.21L978.77 3175.8C978.261 3175.31 977.777 3174.8 977.32 3174.27C857.71 3034.75 909.61 2957.68 937.48 2931.03C969.54 2900.36 1020.26 2885.11 1076.59 2889.21C1127.06 2892.87 1174.97 2911.21 1213.65 2941.47L1412 2697.06C1432.92 2671.4 1445.02 2639.68 1446.49 2606.6L1461.83 2280.44L796.4 2059C749.19 2044.08 735.93 2013.61 739.4 1990.1C744.4 1955.53 782.05 1930.84 830.86 1930.1C833.486 1930.06 836.095 1930.53 838.538 1931.5C840.981 1932.46 843.21 1933.9 845.097 1935.73C846.985 1937.56 848.494 1939.74 849.538 1942.15C850.583 1944.56 851.142 1947.15 851.185 1949.78C851.228 1952.4 850.753 1955.01 849.787 1957.45C848.821 1959.9 847.384 1962.13 845.557 1964.01C843.73 1965.9 841.549 1967.41 839.139 1968.45C836.729 1969.5 834.136 1970.06 831.51 1970.1C798.17 1970.64 780.45 1985.83 778.98 1995.93C777.65 2005.02 789.35 2014.86 808.78 2021L1488.85 2247.34C1492.99 2248.72 1496.56 2251.41 1499.03 2255.01C1501.49 2258.6 1502.72 2262.9 1502.51 2267.26L1486.51 2608.55C1484.59 2650.15 1469.34 2690.02 1443 2722.27L1231.78 2982.6C1230.05 2984.73 1227.9 2986.49 1225.46 2987.75C1223.02 2989.02 1220.35 2989.77 1217.61 2989.96C1214.87 2990.15 1212.12 2989.77 1209.53 2988.85C1206.94 2987.92 1204.57 2986.48 1202.57 2984.6C1128.93 2915.6 1012.47 2914.67 965.13 2959.95C923.76 2999.5 939 3067.82 1007 3147.43L1215.41 3344.12C1233.53 3361.34 1257.43 3371.14 1282.42 3371.61C1307.4 3372.08 1331.66 3363.18 1350.41 3346.66L1875.31 2887.48C1946.38 2825.32 2053.57 2825.31 2124.65 2887.48L2649.56 3346.66C2668.31 3363.18 2692.57 3372.08 2717.55 3371.61C2742.54 3371.14 2766.44 3361.34 2784.56 3344.12L2993 3147.44C3061 3067.81 3076.24 2999.51 3034.87 2959.94C2987.53 2914.66 2871.07 2915.56 2797.43 2984.59C2795.43 2986.47 2793.06 2987.91 2790.47 2988.84C2787.88 2989.76 2785.13 2990.14 2782.39 2989.95C2779.65 2989.76 2776.98 2989.01 2774.54 2987.74C2772.1 2986.48 2769.95 2984.72 2768.22 2982.59L2557 2722.27C2530.68 2689.99 2515.47 2650.09 2513.6 2608.48L2497.55 2267.19C2497.34 2262.83 2498.57 2258.53 2501.03 2254.94C2503.5 2251.34 2507.07 2248.65 2511.21 2247.27L3191 2021C3210.71 2014.77 3222.41 2004.93 3221.09 1995.84C3219.61 1985.74 3201.9 1970.55 3168.56 1970.01C3165.93 1969.97 3163.34 1969.41 3160.93 1968.37C3158.52 1967.32 3156.34 1965.81 3154.51 1963.93C3152.68 1962.04 3151.25 1959.81 3150.28 1957.37C3149.31 1954.93 3148.84 1952.32 3148.88 1949.69C3148.92 1947.06 3149.48 1944.47 3150.52 1942.06C3151.57 1939.65 3153.08 1937.47 3154.96 1935.64C3156.85 1933.81 3159.08 1932.38 3161.52 1931.41C3163.96 1930.44 3166.57 1929.97 3169.2 1930.01C3218 1930.79 3255.62 1955.48 3260.67 1990.01C3264.1 2013.52 3250.84 2044.01 3203.34 2059.01L2538.22 2280.38L2553.56 2606.54C2555.04 2639.62 2567.13 2671.34 2588.06 2697L2786.39 2941.41C2825.06 2911.19 2872.97 2892.81 2923.45 2889.15C2979.79 2885.06 3030.45 2900.3 3062.55 2930.97C3090.42 2957.62 3142.32 3034.69 3022.71 3174.21C3022.25 3174.74 3021.77 3175.25 3021.26 3175.74L2812 3373.21C2786.67 3397.29 2753.24 3411.01 2718.29 3411.67C2683.35 3412.33 2649.42 3399.88 2623.2 3376.77L2098.29 2917.59C2042.23 2868.59 1957.69 2868.59 1901.63 2917.59L1376.72 3376.77C1351.18 3399.25 1318.33 3411.67 1284.3 3411.69V3411.69Z" fill="#232323"/>
<path id="Vector_37" d="M2798.8 2983.17C2762.34 3018.62 2729.33 3058.11 2704.33 3103.09C2703.41 3104.73 2701.9 3105.97 2700.11 3106.56C2698.32 3107.14 2696.37 3107.04 2694.65 3106.26C2692.94 3105.47 2691.58 3104.08 2690.84 3102.34C2690.11 3100.6 2690.06 3098.66 2690.69 3096.88C2708.86 3046.67 2736.61 2999.88 2768.69 2956.8C2771.87 2952.53 2776.62 2949.71 2781.89 2948.94C2787.15 2948.17 2792.51 2949.53 2796.77 2952.72C2801.04 2955.9 2803.87 2960.64 2804.63 2965.91C2805.4 2971.18 2804.04 2976.53 2800.86 2980.8C2800.23 2981.64 2799.54 2982.43 2798.8 2983.17V2983.17Z" fill="#232323"/>
<path id="Vector_38" d="M2435.54 3203.52C2431.31 3203.51 2427.22 3201.97 2424.03 3199.18C2420.85 3196.4 2418.78 3192.55 2418.22 3188.35C2407.22 3106.83 2430.76 3025.97 2484.41 2960.68C2539.41 2893.81 2618.62 2851.03 2696.41 2846.25C2698.72 2846.07 2701.05 2846.35 2703.26 2847.08C2705.46 2847.81 2707.5 2848.97 2709.25 2850.5C2711 2852.02 2712.43 2853.88 2713.46 2855.96C2714.48 2858.04 2715.09 2860.31 2715.23 2862.63C2715.37 2864.95 2715.05 2867.27 2714.28 2869.46C2713.52 2871.65 2712.33 2873.67 2710.77 2875.4C2709.22 2877.12 2707.34 2878.52 2705.24 2879.52C2703.14 2880.51 2700.87 2881.08 2698.55 2881.18C2631.29 2885.32 2559.55 2924.29 2511.44 2982.89C2464.03 3040.6 2443.23 3111.89 2452.89 3183.69C2453.5 3188.29 2452.27 3192.94 2449.46 3196.63C2446.65 3200.32 2442.49 3202.74 2437.89 3203.37C2437.11 3203.47 2436.33 3203.52 2435.54 3203.52V3203.52Z" fill="#232323"/>
<path id="Vector_39" d="M2497.7 2269.06L2497.57 2179.39C2497.57 2177.56 2498.23 2175.8 2499.43 2174.42C2500.62 2173.04 2502.28 2172.14 2504.08 2171.89C2505.89 2171.63 2507.73 2172.03 2509.26 2173.03C2510.8 2174.02 2511.92 2175.53 2512.43 2177.28L2537.3 2263.44C2538.68 2268.55 2537.99 2274 2535.39 2278.62C2532.79 2283.23 2528.49 2286.64 2523.4 2288.11C2518.31 2289.58 2512.85 2288.99 2508.19 2286.47C2503.53 2283.95 2500.05 2279.7 2498.49 2274.64C2497.98 2272.82 2497.71 2270.95 2497.7 2269.06V2269.06Z" fill="#232323"/>
<path id="Vector_40" d="M2999.38 1821.31C3008.49 1851.31 3013.64 1883.12 3012.38 1916.17C3011.69 1933.34 3008.29 1950.3 3002.29 1966.4C3000.97 1970.6 2998.52 1974.71 2996.57 1978.81C2994.26 1982.96 2991.72 1986.96 2988.94 1990.81C2982.75 1998.93 2975 2005.73 2966.15 2010.81C2956.53 2015.96 2945.67 2018.33 2934.78 2017.68C2923.92 2017.16 2914.17 2013.04 2905.94 2008.01C2897.46 2003.01 2891.19 1996.2 2885.41 1989.4C2880.15 1982.54 2875.67 1975.12 2872.06 1967.27C2865.41 1952.33 2861.12 1936.44 2859.35 1920.18C2857.75 1904.56 2857.69 1888.82 2859.16 1873.18C2859.29 1871.28 2860.13 1869.51 2861.52 1868.21C2862.9 1866.91 2864.73 1866.18 2866.63 1866.17C2868.53 1866.16 2870.36 1866.87 2871.76 1868.16C2873.15 1869.45 2874.01 1871.22 2874.16 1873.11V1873.39C2875.58 1888 2877.38 1902.39 2880.99 1916.15C2884.81 1929.8 2889.72 1942.93 2896.72 1954.21C2900.02 1959.7 2903.92 1964.82 2908.34 1969.46C2912.81 1973.54 2917.34 1977.46 2922.2 1979.61C2927.06 1981.76 2931.74 1983.29 2936 1982.85C2940.18 1982.55 2944.22 1981.2 2947.75 1978.93C2951.63 1976.03 2954.96 1972.44 2957.58 1968.36C2958.87 1965.93 2960.32 1963.64 2961.44 1960.98C2962.56 1958.32 2963.78 1955.73 2964.51 1952.66C2968.18 1941.08 2969.73 1927.95 2970.12 1914.52C2970.46 1887.44 2966.18 1859.34 2960.61 1831.14V1830.96C2959.43 1825.85 2960.29 1820.48 2963.03 1816.01C2965.77 1811.53 2970.15 1808.31 2975.24 1807.04C2980.33 1805.77 2985.71 1806.55 2990.24 1809.21C2994.76 1811.86 2998.05 1816.19 2999.41 1821.26L2999.38 1821.31Z" fill="#232323"/>
<path id="Vector_41" d="M2842.2 2175.69C2840.85 2175.69 2839.51 2175.53 2838.2 2175.22C2789.28 2163.71 2748.05 2131.75 2722.11 2085.22C2687.79 2023.66 2684.32 1943.58 2712.33 1859.72C2713.8 1855.32 2716.96 1851.68 2721.11 1849.61C2725.27 1847.53 2730.07 1847.19 2734.47 1848.66C2738.88 1850.14 2742.52 1853.29 2744.59 1857.45C2746.66 1861.6 2747 1866.41 2745.53 1870.81C2720.67 1945.22 2723.21 2015.32 2752.68 2068.18C2773.77 2106 2806.99 2131.91 2846.21 2141.18C2850.39 2142.16 2854.07 2144.64 2856.54 2148.15C2859.01 2151.67 2860.1 2155.97 2859.61 2160.23C2859.11 2164.5 2857.07 2168.44 2853.86 2171.29C2850.65 2174.15 2846.5 2175.72 2842.21 2175.72L2842.2 2175.69Z" fill="#232323"/>
<path id="Vector_42" d="M2771.17 3363.54C2747.01 3363.54 2729 3357.01 2717.4 3343.97C2701.85 3326.5 2700.48 3300.74 2713.33 3267.41C2718.79 3253.24 2726.57 3239.24 2737.11 3224.58C2793.78 3145.8 2860.17 3081.74 2934.44 3034.19C2959.25 3018.3 2989.11 3013.57 3016.38 3021.19C3048.66 3030.24 3066.99 3053.03 3072.38 3090.87C3072.71 3093.15 3072.58 3095.46 3072.01 3097.69C3071.44 3099.91 3070.43 3102.01 3069.06 3103.85C3067.68 3105.68 3065.95 3107.23 3063.97 3108.4C3061.99 3109.57 3059.81 3110.34 3057.53 3110.67C3055.25 3110.99 3052.94 3110.87 3050.71 3110.3C3048.49 3109.73 3046.39 3108.72 3044.55 3107.35C3042.72 3105.97 3041.17 3104.24 3040 3102.26C3038.83 3100.28 3038.06 3098.1 3037.73 3095.82C3034.27 3071.61 3025.63 3060.14 3006.91 3054.89C2989.24 3049.89 2969.7 3053.12 2953.3 3063.63C2882.76 3108.79 2819.58 3169.81 2765.5 3244.99C2756.73 3257.19 2750.34 3268.63 2745.96 3279.99C2738.43 3299.54 2737.56 3313.99 2743.52 3320.69C2750.4 3328.41 2772.74 3332.81 2814.82 3322C2817.06 3321.38 2819.4 3321.21 2821.71 3321.5C2824.02 3321.8 2826.24 3322.55 2828.26 3323.71C2830.27 3324.88 2832.03 3326.43 2833.44 3328.28C2834.84 3330.14 2835.87 3332.25 2836.45 3334.5C2837.02 3336.75 2837.15 3339.1 2836.81 3341.4C2836.48 3343.7 2835.68 3345.91 2834.48 3347.9C2833.28 3349.9 2831.69 3351.63 2829.81 3353C2827.94 3354.37 2825.8 3355.35 2823.54 3355.89C2803.73 3361 2786.27 3363.55 2771.17 3363.54Z" fill="#232323"/>
<path id="Vector_43" d="M2495 2522.5H2298.75V2435H2495C2506.6 2435 2517.73 2439.61 2525.94 2447.81C2534.14 2456.02 2538.75 2467.15 2538.75 2478.75V2478.75C2538.75 2490.35 2534.14 2501.48 2525.94 2509.69C2517.73 2517.89 2506.6 2522.5 2495 2522.5V2522.5Z" fill="white"/>
<path id="Vector_44" d="M2538.75 2478.75C2538.74 2488.89 2535.23 2498.71 2528.8 2506.55L2526.05 2447.9C2534.19 2456.11 2538.75 2467.19 2538.75 2478.75Z" fill="white"/>
<path id="Vector_45" d="M1498.24 2522.5H1694.49V2435H1498.24C1486.64 2435 1475.51 2439.61 1467.3 2447.81C1459.1 2456.02 1454.49 2467.15 1454.49 2478.75V2478.75C1454.49 2490.35 1459.1 2501.48 1467.3 2509.69C1475.51 2517.89 1486.64 2522.5 1498.24 2522.5V2522.5Z" fill="white"/>
<path id="Vector_46" d="M2495 2540H2298.75C2294.11 2540 2289.66 2538.15 2286.38 2534.87C2283.1 2531.59 2281.25 2527.14 2281.25 2522.5V2435C2281.25 2430.36 2283.09 2425.91 2286.38 2422.63C2289.66 2419.34 2294.11 2417.5 2298.75 2417.5H2495C2511.24 2417.5 2526.82 2423.95 2538.31 2435.44C2549.8 2446.93 2556.25 2462.51 2556.25 2478.75C2556.25 2494.99 2549.8 2510.57 2538.31 2522.06C2526.82 2533.55 2511.24 2540 2495 2540V2540ZM2316.25 2505H2495C2501.96 2505 2508.64 2502.23 2513.56 2497.31C2518.48 2492.39 2521.25 2485.71 2521.25 2478.75C2521.25 2471.79 2518.48 2465.11 2513.56 2460.19C2508.64 2455.27 2501.96 2452.5 2495 2452.5H2316.25V2505Z" fill="#232323"/>
<path id="Vector_47" d="M1694.49 2540H1498.24C1482 2540 1466.42 2533.55 1454.93 2522.06C1443.44 2510.57 1436.99 2494.99 1436.99 2478.75C1436.99 2462.51 1443.44 2446.93 1454.93 2435.44C1466.42 2423.95 1482 2417.5 1498.24 2417.5H1694.49C1696.79 2417.5 1699.07 2417.95 1701.19 2418.83C1703.31 2419.71 1705.24 2421 1706.87 2422.62C1708.5 2424.25 1709.79 2426.18 1710.67 2428.3C1711.55 2430.42 1712 2432.7 1712 2435V2522.5C1712 2527.14 1710.15 2531.59 1706.87 2534.88C1703.58 2538.16 1699.13 2540 1694.49 2540V2540ZM1498.24 2452.5C1491.28 2452.5 1484.6 2455.27 1479.68 2460.19C1474.76 2465.11 1471.99 2471.79 1471.99 2478.75C1471.99 2485.71 1474.76 2492.39 1479.68 2497.31C1484.6 2502.23 1491.28 2505 1498.24 2505H1677V2452.5H1498.24Z" fill="#232323"/>
<g id="Group_6" opacity="0.3">
<path id="Vector_48" d="M3007.5 3161.25L2923.75 3240.3C3034.35 3097.45 3001.45 2902.5 2711 3050L2446 2756.65C2411.59 2718.57 2392.54 2669.07 2392.55 2617.75V2522.5H2495C2500.75 2522.5 2506.44 2521.38 2511.75 2519.18C2517.06 2516.98 2521.89 2513.76 2525.95 2509.7C2526.95 2508.7 2527.9 2507.65 2528.8 2506.55L2533.55 2607.55C2535.3 2644.87 2548.95 2680.65 2572.5 2709.65L2783.75 2970C2923.75 2838.75 3210.15 2924.85 3007.5 3161.25Z" fill="#232323"/>
</g>
<g id="Group_7" opacity="0.3">
<path id="Vector_49" d="M3197.3 2040L2517.5 2266.25L2526.05 2447.9C2521.98 2443.81 2517.14 2440.57 2511.81 2438.35C2506.48 2436.14 2500.77 2435 2495 2435H2392.5V2235.45C2392.5 2220.37 2394.9 2205.38 2399.6 2191.05C2207.95 2243.5 1939.25 2216.25 1771.9 2075.55C2001.45 2132.85 2215.1 2132.75 2532.4 1928.65L2607.5 1895.2C2639.05 1962.6 2632.15 2021.7 2598.75 2070.2L2902.85 1985.65C2902.85 1985.65 2992.95 2009.55 2991.45 1945L3018.7 1938.55C3032.45 1981.45 3167.7 1938.2 3154 1895.25C3161.84 1901.74 3167.48 1910.49 3170.14 1920.31C3172.81 1930.13 3172.38 1940.54 3168.9 1950.1C3244.2 1951.3 3271.75 2016.45 3197.3 2040Z" fill="#232323"/>
</g>
<g id="Group_8" opacity="0.3">
<path id="Vector_50" d="M2079.7 2880.55C2049.36 2864.38 2014.82 2857.83 1980.67 2861.76C1946.52 2865.68 1914.37 2879.91 1888.5 2902.55L1363.6 3361.7C1341.07 3381.43 1312.01 3392.05 1282.07 3391.49C1252.13 3390.94 1223.48 3379.25 1201.7 3358.7L1085.9 3249.4C1183.35 3335.75 1338.33 3314.98 1338.33 3138.33L1719.33 2789C1782.83 2744.3 1865.18 2734.9 1936.53 2765.65C1984.1 2786.1 2036 2821.05 2079.7 2880.55Z" fill="#232323"/>
</g>
<g id="Group_9" opacity="0.3">
<path id="Vector_51" d="M1495 2140V2201.65L1481.9 2279L1482.5 2266.25L802.7 2040C728.25 2016.45 755.8 1951.3 831.1 1950C827.982 1941.46 827.289 1932.21 829.1 1923.3L842.5 1919.95L985.85 1974.95L999.15 1961.05L1021.15 1970.25L1071 2000.35L1495 2140Z" fill="#232323"/>
</g>
<path id="Vector_52" fill-rule="evenodd" clip-rule="evenodd" d="M1907.07 2408.9C1919.19 2407.42 1931.48 2409.56 1942.39 2415.07C1953.29 2420.57 1962.32 2429.18 1968.33 2439.82C1974.33 2450.45 1977.05 2462.62 1976.14 2474.8C1975.23 2486.98 1970.73 2498.62 1963.2 2508.24C1955.68 2517.86 1945.47 2525.03 1933.87 2528.85C1922.27 2532.67 1909.79 2532.96 1898.03 2529.69C1886.26 2526.42 1875.73 2519.73 1867.76 2510.47C1859.79 2501.22 1854.75 2489.8 1853.27 2477.68C1851.29 2461.43 1855.84 2445.05 1865.93 2432.15C1876.02 2419.25 1890.82 2410.89 1907.07 2408.9Z" fill="#22A7F0"/>
<g id="Group_10" opacity="0.3">
<path id="Vector_53" fill-rule="evenodd" clip-rule="evenodd" d="M1917.6 2495C1904.07 2496.64 1890.39 2493.76 1878.67 2486.81C1866.95 2479.86 1857.86 2469.23 1852.81 2456.57C1851.48 2465.95 1852.33 2475.51 1855.29 2484.51C1858.26 2493.51 1863.25 2501.71 1869.88 2508.47C1876.52 2515.24 1884.62 2520.38 1893.57 2523.51C1902.51 2526.64 1912.05 2527.67 1921.46 2526.52C1930.86 2525.37 1939.88 2522.07 1947.8 2516.88C1955.73 2511.69 1962.35 2504.74 1967.17 2496.58C1971.98 2488.42 1974.85 2479.26 1975.55 2469.81C1976.26 2460.36 1974.78 2450.88 1971.23 2442.09C1969.38 2455.59 1963.12 2468.1 1953.42 2477.67C1943.72 2487.24 1931.13 2493.34 1917.6 2495V2495Z" fill="#232323"/>
</g>
<g id="Group_11" opacity="0.6">
<path id="Vector_54" fill-rule="evenodd" clip-rule="evenodd" d="M1910.26 2434.94C1924.25 2433.24 1938.4 2436.37 1950.37 2443.82C1962.33 2451.27 1971.39 2462.58 1976.04 2475.89C1976.9 2466.7 1975.69 2457.44 1972.5 2448.78C1969.31 2440.12 1964.22 2432.28 1957.61 2425.85C1950.99 2419.42 1943.01 2414.55 1934.27 2411.6C1925.52 2408.66 1916.23 2407.71 1907.07 2408.83C1897.91 2409.95 1889.11 2413.11 1881.33 2418.07C1873.56 2423.04 1866.99 2429.68 1862.12 2437.52C1857.24 2445.36 1854.19 2454.19 1853.18 2463.36C1852.17 2472.54 1853.23 2481.82 1856.28 2490.53C1857.59 2476.5 1863.65 2463.33 1873.47 2453.22C1883.29 2443.11 1896.27 2436.66 1910.26 2434.94V2434.94Z" fill="white"/>
</g>
<path id="Vector_55" d="M1914.51 2547.69C1894.35 2547.69 1874.98 2539.85 1860.51 2525.82C1846.03 2511.78 1837.59 2492.67 1836.97 2472.52C1836.35 2452.37 1843.6 2432.76 1857.18 2417.87C1870.77 2402.97 1889.62 2393.95 1909.74 2392.72C1929.86 2391.48 1949.68 2398.13 1964.98 2411.25C1980.28 2424.38 1989.88 2442.94 1991.73 2463.02C1993.57 2483.09 1987.53 2503.1 1974.88 2518.8C1962.23 2534.49 1943.97 2544.65 1923.96 2547.11C1920.82 2547.5 1917.67 2547.69 1914.51 2547.69V2547.69ZM1914.66 2424.18C1912.76 2424.18 1910.86 2424.29 1908.98 2424.53V2424.53C1897.17 2426 1886.4 2432.01 1878.94 2441.28C1871.48 2450.55 1867.93 2462.37 1869.03 2474.22C1870.13 2486.07 1875.8 2497.02 1884.84 2504.76C1893.87 2512.51 1905.57 2516.43 1917.45 2515.69C1929.33 2514.96 1940.45 2509.64 1948.47 2500.84C1956.49 2492.05 1960.77 2480.48 1960.41 2468.59C1960.05 2456.69 1955.07 2445.4 1946.53 2437.12C1937.99 2428.83 1926.56 2424.19 1914.66 2424.18V2424.18Z" fill="#232323"/>
<path id="Vector_56" d="M2135.37 2647.43H2135.3C2133.33 2647.42 2131.38 2647.02 2129.56 2646.26C2127.75 2645.5 2126.1 2644.39 2124.71 2642.99C2123.33 2641.59 2122.23 2639.93 2121.48 2638.11C2120.74 2636.28 2120.36 2634.33 2120.37 2632.36L2120.89 2525.77C2120.9 2520.9 2119.53 2516.13 2116.93 2512.02C2114.33 2507.9 2110.6 2504.61 2106.2 2502.54L2070.36 2485.78C2060.82 2481.29 2052.75 2474.19 2047.08 2465.29C2041.42 2456.4 2038.39 2446.08 2038.36 2435.53L2038.29 2313.27C2038.29 2311.3 2038.68 2309.35 2039.43 2307.53C2040.19 2305.71 2041.29 2304.06 2042.68 2302.66C2044.08 2301.27 2045.73 2300.17 2047.55 2299.41C2049.37 2298.66 2051.32 2298.27 2053.29 2298.27C2057.27 2298.27 2061.08 2299.85 2063.9 2302.66C2066.71 2305.48 2068.29 2309.29 2068.29 2313.27L2068.36 2435.54C2068.37 2440.38 2069.76 2445.13 2072.36 2449.21C2074.96 2453.3 2078.67 2456.57 2083.05 2458.63L2118.89 2475.39C2128.48 2479.9 2136.59 2487.04 2142.25 2496C2147.92 2504.95 2150.92 2515.33 2150.89 2525.93L2150.37 2632.53C2150.34 2636.49 2148.75 2640.28 2145.94 2643.07C2143.13 2645.86 2139.33 2647.43 2135.37 2647.43V2647.43Z" fill="#232323"/>
</g>
</svg>
