<svg width="130" height="130" viewBox="0 0 119 117" fill="none" xmlns="http://www.w3.org/2000/svg">
<g id="planet-earth" clip-path="url(#clip0_112_905)">
<path id="Vector" d="M118.13 64.57C118.106 67.0661 117.416 69.5105 116.13 71.65C115.941 71.9801 115.681 72.2649 115.371 72.4842C115.06 72.7036 114.704 72.8524 114.33 72.92C114.139 72.9214 113.95 72.8798 113.777 72.7985C113.604 72.7172 113.451 72.5981 113.33 72.45C113.2 72.3224 113.113 72.1577 113.081 71.9786C113.049 71.7995 113.073 71.6149 113.15 71.45C112.8 71.34 112.44 71.67 112.36 72.02C112.3 72.3843 112.3 72.7558 112.36 73.12C112.48 74.86 111.01 77.26 110.28 78.8C109.716 79.6687 109.243 80.5936 108.87 81.56C108.6 82.56 108.56 83.68 108.34 84.72C108.256 85.154 108.142 85.5816 108 86C107.49 87.5386 106.647 88.9454 105.53 90.12C104.36 91.17 102.47 91.55 101.9 93.01C101.48 94.06 101.9 95.27 101.7 96.37C101.31 98.05 99.48 98.91 97.86 99.53C97.1211 99.8881 96.2961 100.03 95.48 99.94C95.3598 99.9207 95.2423 99.8871 95.13 99.84C94.27 99.48 93.89 98.07 94.71 97.63C93.3534 98.1421 91.9196 98.4194 90.47 98.45C90.09 98.45 89.65 98.45 89.47 98.1C89.3666 97.9037 89.3314 97.6786 89.37 97.46C89.6042 96.0405 90.3559 94.758 91.48 93.86C92.55 92.86 93.79 92.18 94.9 91.28C96.6117 89.898 97.9807 88.1388 98.9 86.14C99.63 84.54 100.09 82.75 101.33 81.51C101.98 80.85 102.81 80.38 103.49 79.75C106.13 77.27 104.36 71.02 103.61 68.02C102.52 63.68 100.95 59.35 101.03 54.81C101.17 52.5002 101.461 50.202 101.9 47.93C102.1 46.58 101.77 45.46 102.47 44.26C103.29 42.9844 104.49 41.9981 105.9 41.44C106.118 41.3518 106.342 41.2783 106.57 41.22C107.076 41.0674 107.612 41.0433 108.13 41.15C108.557 41.2832 108.953 41.4993 109.296 41.7858C109.639 42.0724 109.923 42.4238 110.13 42.82C110.759 44.002 111.053 45.3332 110.98 46.67C110.98 49.18 110.19 51.87 110.56 54.38C110.581 54.7463 110.717 55.0965 110.95 55.38C111.47 55.92 112.34 55.69 113.09 55.64C114.074 55.6679 115.027 55.9855 115.831 56.5529C116.635 57.1204 117.254 57.9125 117.61 58.83C118.232 60.6759 118.41 62.6424 118.13 64.57Z" fill="#F5DBBC"/>
<path id="Vector_2" d="M27.42 100.17C27.2624 100.391 27.0381 100.556 26.78 100.64C25.3282 101.279 23.7562 101.6 22.17 101.58C20.6375 101.573 19.1388 101.129 17.85 100.3C15.85 98.92 14.62 96.62 13.53 94.41C13.2231 93.853 12.991 93.2578 12.84 92.64C12.56 91.19 13.2 89.64 12.9 88.22C12.6 86.8 11.57 85.62 11.99 84.32C8.47001 84.92 4.47001 84.44 2.04001 81.83C1.16259 80.8104 0.540013 79.5968 0.223583 78.2894C-0.0928457 76.9819 -0.0940713 75.618 0.220008 74.31C0.876568 71.6843 2.40714 69.3602 4.56001 67.72C4.81001 67.51 5.10001 67.23 5.00001 66.92C4.90001 66.61 4.72001 66.61 4.53001 66.5C3.99759 66.1049 3.59069 65.5643 3.35828 64.9434C3.12587 64.3225 3.07785 63.6476 3.22001 63C3.55937 61.672 4.16495 60.4269 5.00001 59.34C3.42853 57.8835 2.3737 55.9551 1.99486 53.8462C1.61601 51.7373 1.93372 49.5624 2.90001 47.65C3.9035 45.7276 5.44211 44.1369 7.33001 43.07C7.70955 42.8502 8.10006 42.65 8.50001 42.47C10 41.78 12 41 13.5 42.06C15.72 43.66 16.43 47.45 16.79 49.99C17.1849 53.1242 16.9744 56.3051 16.17 59.36C15.3041 62.0232 14.5797 64.7303 14 67.47C13.5169 71.6696 14.2093 75.9208 16 79.75C17.7701 83.5614 20.0109 87.1359 22.67 90.39C24.77 93.11 27.07 95.93 27.54 99.33C27.5983 99.6155 27.5559 99.9123 27.42 100.17V100.17Z" fill="#F5DBBC"/>
<path id="Vector_3" d="M22.17 101.58C20.6375 101.573 19.1388 101.129 17.85 100.3C15.85 98.9199 14.62 96.62 13.53 94.41C13.2231 93.8529 12.991 93.2578 12.84 92.6399C12.56 91.1899 13.2 89.6399 12.9 88.2199C12.6 86.7999 11.57 85.6199 11.99 84.3199C8.47001 84.9199 4.47001 84.4399 2.04001 81.8299C1.16259 80.8103 0.540013 79.5968 0.223583 78.2893C-0.0928457 76.9819 -0.0940713 75.618 0.220008 74.3099C0.876568 71.6843 2.40714 69.3602 4.56001 67.7199C4.81001 67.5099 5.10001 67.2299 5.00001 66.9199C4.90001 66.6099 4.72001 66.6099 4.53001 66.4999C3.99759 66.1048 3.59069 65.5643 3.35828 64.9434C3.12587 64.3224 3.07785 63.6475 3.22001 62.9999C3.55937 61.672 4.16495 60.4268 5.00001 59.3399C3.42853 57.8834 2.3737 55.9551 1.99486 53.8462C1.61601 51.7373 1.93372 49.5624 2.90001 47.6499C3.9035 45.7276 5.44211 44.1369 7.33001 43.0699C7.71021 44.812 7.7068 46.616 7.31999 48.3566C6.93318 50.0972 6.17225 51.7329 5.09001 53.1499C4.71431 53.5127 4.49538 54.0079 4.48001 54.5299C4.57228 54.908 4.76589 55.2537 5.04001 55.5299C7.70001 58.9099 6.04001 64.0499 7.89001 67.9499C8.71001 69.7199 10.28 71.4199 9.89001 73.3199C9.43001 75.3999 6.76001 76.5699 6.70001 78.6899C6.64001 80.8099 8.90001 81.8699 10.7 82.8199C11.9544 83.3586 12.9657 84.3415 13.54 85.5799C13.95 86.7399 13.66 88.0099 13.7 89.2399C13.7503 90.8921 14.405 92.4684 15.54 93.6699C16.495 94.5556 17.5182 95.3647 18.6 96.0899C20.1738 97.2171 21.3612 98.8026 22 100.63C22.0834 100.941 22.1403 101.259 22.17 101.58V101.58Z" fill="#FCF7EA"/>
<path id="Vector_4" d="M44.2101 2.38997C42.1137 2.45238 40.1208 3.31469 38.6401 4.79997C38.0943 5.28708 37.6779 5.90203 37.4283 6.58969C37.1787 7.27734 37.1037 8.01619 37.2101 8.73997C35.8622 8.87291 34.5761 9.37076 33.4901 10.18C32.4901 11.08 32.1101 12.82 33.0701 13.76C30.8101 14.38 29.2101 16.34 27.7801 18.2C27.1698 18.8818 26.7129 19.6866 26.4401 20.56C26.3061 21.0073 26.3193 21.4858 26.4777 21.9251C26.6361 22.3644 26.9314 22.7411 27.3201 23C27.7763 23.1561 28.2623 23.2057 28.7406 23.1451C29.219 23.0844 29.6772 22.915 30.0801 22.65C33.4801 21.01 35.7701 18.65 38.8901 16.65C40.2658 15.6932 41.7755 14.9451 43.3701 14.43C46.1201 13.68 48.9401 14.32 51.7201 13.95C54.1301 13.63 55.8401 13.21 58.3401 13.81L63.5101 15C65.3801 15.45 67.3801 15.9 69.2101 15.3C71.0401 14.7 72.5401 12.61 71.7801 10.84C71.1501 9.38997 69.3101 8.65997 68.9001 7.12997C68.8178 6.69785 68.771 6.25972 68.7601 5.81997C68.6275 4.54561 67.994 3.37612 66.9991 2.56877C66.0043 1.76143 64.7294 1.38237 63.4551 1.51497C62.1807 1.64758 61.0112 2.281 60.2039 3.27588C59.3965 4.27076 59.0175 5.54561 59.1501 6.81997C56.8601 6.89997 56.2401 5.45997 55.0001 3.99997C53.7601 2.53997 51.7801 2.77997 50.0001 2.89997C48.0001 2.99997 46.1801 2.37997 44.2101 2.38997Z" fill="#FCF7EA"/>
<path id="Vector_5" d="M104.937 80.0892C115.776 55.1483 104.345 26.1426 79.4037 15.3032C54.4628 4.46378 25.4572 15.8953 14.6177 40.8361C3.7783 65.777 15.2098 94.7827 40.1507 105.622C65.0916 116.462 94.0972 105.03 104.937 80.0892Z" fill="url(#paint0_radial_112_905)"/>
<g id="Vector_6" style="mix-blend-mode:multiply">
<path d="M107.06 67.8C107.33 64.53 107.59 61.26 107.86 57.99C108.04 56.8315 108.14 55.6621 108.16 54.49C108.089 53.8175 107.979 53.1497 107.83 52.49C107.83 52.49 107.49 51.28 107.42 51.43C104.02 59.2433 100.517 67.02 96.9099 74.76C96.1685 76.2342 95.5659 77.7741 95.1099 79.36C94.7546 80.8816 94.5668 82.4375 94.5499 84C94.4982 85.8343 94.5416 87.6701 94.6799 89.5C94.6525 90.7703 95.0738 92.0097 95.8699 93C98.0246 91.8571 99.7274 90.0167 100.7 87.78C101.76 85.61 102.4 83.26 103.29 81.01C104.442 78.5736 105.444 76.0689 106.29 73.51C106.716 71.6334 106.974 69.7225 107.06 67.8V67.8Z" fill="#A6E0D1"/>
</g>
<g id="Vector_7" style="mix-blend-mode:multiply">
<path d="M52.6101 110C56.755 111.067 61.1328 110.776 65.1001 109.17C64.2937 107.207 63.8303 105.12 63.7301 103C63.6601 101.18 63.9301 99.37 63.9901 97.55C64.0036 94.8198 63.7861 92.0934 63.3401 89.4C63.3236 89.1367 63.2484 88.8804 63.1201 88.65C62.7901 88.15 62.1201 88.12 61.4801 88.14C57.8164 88.3488 54.1438 88.3488 50.4801 88.14C48.632 87.9205 46.7708 87.8303 44.9101 87.87C42.7401 88.01 40.6301 88.67 38.4701 88.87C35.7743 88.9838 33.0768 88.687 30.4701 87.99C27.5855 87.4964 24.8303 86.4249 22.3701 84.84C19.6301 82.84 18.7301 80.14 18.3701 76.91C18.8409 76.746 19.3426 76.6906 19.8379 76.7477C20.3331 76.8049 20.809 76.9731 21.2301 77.24C22.0643 77.7823 22.9328 78.27 23.8301 78.7C24.7431 78.9821 25.6945 79.1204 26.6501 79.11L33.7201 79.37C34.6069 79.4251 35.4967 79.405 36.3801 79.31C37.7306 79.1333 39.0123 78.6096 40.1001 77.79C40.9301 77.17 42.1001 76.37 42.2601 75.26C42.2941 74.6943 42.2054 74.1281 42.0001 73.6C41.221 70.9216 40.1302 68.344 38.7501 65.92C37.8301 64.44 36.6701 63.03 36.3701 61.32C35.9001 58.63 37.7001 56.07 39.7101 54.22C40.7601 53.22 42.0001 51.63 43.4601 53.14C44.0733 53.9323 44.4727 54.8689 44.6201 55.86C46.048 61.368 49.2019 66.2742 53.6201 69.86C55.0001 71 56.7301 72 58.4201 71.47C59.2401 71.2 60.0101 70.58 60.8501 70.73C61.6901 70.88 62.1801 71.73 62.7001 72.41C64.7001 75.08 68.4201 75.79 71.7001 76.3C73.6301 71.3 78.7601 68.53 82.3401 64.61C84.2006 62.4858 85.7833 60.1336 87.0501 57.61C89.912 52.1979 92.0567 46.4361 93.4301 40.47C93.8699 38.9541 94.0624 37.3771 94.0001 35.8C93.7301 32.8 91.8801 30.19 90.5701 27.45C89.3401 24.87 88.3401 21.82 85.7701 20.57C84.3905 20.0166 82.9023 19.7874 81.4201 19.9C71.2172 19.7865 61.0557 21.216 51.2801 24.14C41.4782 27.0885 32.5319 32.3574 25.2001 39.5C22.8137 41.7602 20.8704 44.4463 19.4701 47.42C18.2101 50.34 17.7701 53.54 16.8101 56.57C15.2901 61.35 12.4501 65.84 12.3601 70.85C12.4363 73.9127 13.1875 76.9209 14.5601 79.66C16.9658 84.9447 20.3601 89.7205 24.5601 93.73C29.0001 97.96 34.4201 100.44 39.2201 104.09C43.2471 106.929 47.7989 108.938 52.6101 110V110Z" fill="#A6E0D1"/>
</g>
<path id="Vector_8" style="mix-blend-mode:screen" d="M99.6001 40.17C106.6 53.57 108.01 72.77 94.4701 81.27C89.0501 84.68 82.1601 85.09 75.9101 83.69C67.3794 81.7801 59.8493 76.7991 54.754 69.6956C49.6588 62.5922 47.3545 53.8627 48.2801 45.17C48.577 41.442 49.7598 37.8387 51.7301 34.66C54.6401 30.25 59.4901 27.36 64.6101 26.04C74.3401 23.52 86.6101 24.11 93.8601 31.92C96.1328 34.4016 98.0633 37.1763 99.6001 40.17V40.17Z" fill="url(#paint1_linear_112_905)"/>
<path id="Vector_9" d="M108 50.83C107.645 53.7312 107.022 56.5934 106.14 59.38C104.45 61.38 104.2 64.04 103.39 66.46C102.749 69.3352 101.456 72.0245 99.6101 74.32C98.8601 75.74 97.3901 76.66 97.1701 78.37C95.8801 81.53 97.5901 84.67 97.3101 87.91C97.2001 89.48 98.0501 91.69 96.9001 92.91C97.3401 93.03 97.9001 92.53 98.3401 92.31C98.9001 91.66 99.7301 91.47 100.34 90.94C102.57 89.36 103.5 86.66 105.15 84.58C106.15 83.44 107.66 83.27 108.91 82.58C109.9 82.0734 110.838 81.4705 111.71 80.78C111.16 78.18 110.71 75.47 109.91 72.93C110.63 71.48 110.98 69.71 112.21 68.56C112.31 68.42 112.21 68.23 112.21 68.08C112.61 64.58 111.21 61.46 109.81 58.37C109.27 55.87 108.69 53.23 108 50.83ZM52.0001 47.36C49.8601 46.89 47.0801 47.15 46.2701 49.51C46.1623 49.7718 46.0786 50.043 46.0201 50.32C45.3601 53.43 48.1101 56.24 48.8101 59.18C50.0001 62.27 51.0001 66 54.3701 67.4C55.3701 68.07 56.9301 68.52 57.9701 67.64C58.2238 66.66 58.2647 65.6371 58.0901 64.64C57.6965 63.9413 57.4387 63.1745 57.3301 62.38C57.1961 61.594 57.1658 60.7939 57.2401 60V60C57.4001 57.75 57.9801 55.48 56.8701 53.31C56.6501 50.49 54.3201 48.54 52.0001 47.36ZM87.3501 28.36C86.9601 27.22 87.5201 25.98 87.4101 24.78C87.3111 24.0859 87.1053 23.4112 86.8001 22.78L85.0601 18.78H85.6901C84.8422 17.8485 83.9442 16.9639 83.0001 16.13C82.4677 15.6444 81.8995 15.1998 81.3001 14.8C80.0501 13.98 78.5101 13.75 77.3001 12.8C75.7701 11.58 74.3001 10.32 72.7201 9.13C72.6883 9.09809 72.6451 9.08011 72.6001 9.08C72.5571 9.08526 72.5178 9.10672 72.4901 9.14C72.0721 9.51898 71.7116 9.95693 71.4201 10.44C70.0801 9.81 69.2901 8.55 68.1701 7.63C67.8201 7.34 64.5401 4.04 64.5001 4.06C63.0701 4.81 61.7701 6.78 60.0501 6.35C59.2492 6.08397 58.5157 5.64724 57.9001 5.07C57.5801 4.81 56.3101 4.14 56.1701 3.81C55.9961 3.41509 55.739 3.06236 55.4163 2.77588C55.0936 2.48941 54.7128 2.27592 54.3001 2.15C53.2501 1.41 52.1001 0.7 51.0001 0C49.3507 2.61241 47.3295 4.97052 45.0001 7C44.1171 7.3516 43.3169 7.88283 42.6501 8.56C42.4301 8.64 42.1801 8.42 42.0001 8.29C41.5801 7.85 40.7701 7.79 40.4901 7.19C38.2601 8.61 37.2101 11.34 35.8001 13.41C33.2501 16.68 29.2201 18.52 26.5201 21.75C23.9901 24.6 21.4701 28.28 17.7701 29.49C17.2001 30.91 16.7701 32.67 15.0701 33.13C13.5277 34.6737 11.7528 35.966 9.81008 36.96C10.8101 37.59 11.2601 43.75 10.7301 44.55C10.4701 45.41 9.87008 46.21 9.54008 47.01C9.93213 48.3633 10.0911 49.7734 10.0101 51.18C9.01545 52.6243 8.12005 54.1344 7.33008 55.7C8.58008 58.22 8.82008 61.25 9.74008 63.92C9.19008 65.71 10.6201 67.48 10.3801 69.42C11.8301 72.21 10.0501 74.42 10.3801 77.11C12.0301 81.18 13.7601 85.29 16.7901 88.41C17.0501 89.61 15.4901 92.32 16.7901 93.04C17.8801 93.8 18.6701 94.99 19.9901 95.37C20.7101 95.85 20.9901 96.79 21.8601 97.18C23.0401 97.59 23.2701 98.82 23.2001 99.95C23.2001 100.19 23.2701 100.83 22.9401 100.95C25.0901 102.43 26.4901 101.46 26.3001 104.83C26.3001 105.25 26.3001 105.7 26.7301 105.83C27.9229 105.997 29.1347 105.973 30.3201 105.76C32.3201 106.1 33.9701 109.28 35.4101 110.76C37.4065 110.034 39.5598 109.851 41.6501 110.23C41.9601 110.1 41.9701 110.44 42.0901 110.6C42.5009 111.159 43.009 111.64 43.5901 112.02C45.6256 111.583 47.63 111.012 49.5901 110.31C49.8801 110.2 50.8001 109.63 51.1001 109.94C51.3801 111.01 52.9501 110.75 53.7901 110.82C56.5601 111.23 59.6101 111.42 62.2001 110.29C62.6901 110.05 63.2701 109.71 63.8101 109.94C64.1279 109.655 64.4935 109.428 64.8901 109.27C56.9701 107.67 62.6001 100.72 60.8901 95.38C60.4001 94.38 61.4001 91.69 59.4601 92.26C56.1701 92.62 52.9001 93.83 49.5801 93.36C47.9201 92.7 47.0001 90.43 45.0601 90.24C36.4601 91.71 34.5501 94.24 25.8601 89.69C18.7201 88.3 14.7601 80.39 14.1601 73.69C15.3501 72.52 17.0901 74.25 18.1601 74.83C23.8201 77.61 34.4201 76.21 40.1601 73.83C39.6214 73.0558 39.1844 72.2156 38.8601 71.33C38.5193 70.3932 38.1288 69.4752 37.6901 68.58C37.2742 68.2159 36.8331 67.8817 36.3701 67.58C34.8501 66.49 33.1601 65.44 32.9201 63.45C32.9901 60.34 33.6701 57.23 32.9801 54.14C34.3401 51.84 37.0801 50.32 39.4101 49.14C43.7401 53.08 41.8301 46.68 46.7401 42.82C53.3901 40.18 57.9001 48.59 60.6101 53.48C61.7701 58.34 58.3501 61.94 61.9501 66.48C62.8001 68.6 64.4701 70.11 65.6301 72.03C65.9227 72.38 66.3263 72.6194 66.7737 72.7086C67.2212 72.7977 67.6856 72.7312 68.0901 72.52C73.5401 70.52 76.9901 65.26 80.9801 61.29C83.6201 58.15 84.6901 54.2 86.1801 50.49C87.0901 48.2 89.2401 46.65 90.5901 44.58C90.6303 44.5223 90.6671 44.4622 90.7001 44.4C91.0224 43.9385 91.2845 43.4378 91.4801 42.91C91.6798 42.2619 91.7842 41.5882 91.7901 40.91C91.7901 39.3 91.4401 37.6 91.7901 36.05C92.2601 34.05 89.1201 31.15 88.0501 29.65C87.7309 29.2659 87.4805 28.8295 87.3101 28.36H87.3501Z" fill="url(#paint2_radial_112_905)"/>
<g id="Vector_10" style="mix-blend-mode:screen">
<path d="M41.91 9.00002C41.4104 8.8685 40.9273 8.68063 40.47 8.44002C40.34 8.37002 40.11 8.33002 40.08 8.44002C40.07 8.46574 40.07 8.4943 40.08 8.52002C40.16 9.27002 40.47 10.52 41.25 10.88C41.8366 11.2066 42.3952 11.5813 42.92 12C43.4629 12.321 44.0912 12.4676 44.72 12.42C45.2937 12.3592 45.8559 12.2178 46.39 12L48.23 11.28C49.0308 11.045 49.7462 10.583 50.29 9.95002C49.1108 9.03716 47.6217 8.62092 46.14 8.79002C45.62 8.92002 45.14 9.14002 44.65 9.28002C44.1162 9.39491 43.5639 9.39491 43.03 9.28002L42.3 9.15002L41.91 9.00002Z" fill="#705718"/>
</g>
<g id="Vector_11" style="mix-blend-mode:screen">
<path d="M53.2899 3.92006C53.7399 4.30006 54.2899 4.59006 54.7099 4.92006C55.1299 5.25006 55.7099 5.92006 56.2399 6.44006C56.7152 6.87196 57.2508 7.2324 57.8299 7.51006C58.2772 7.76848 58.8025 7.85723 59.3099 7.76006C59.6244 7.64665 59.9157 7.47726 60.1699 7.26006C59.7376 6.70076 59.1648 6.266 58.5099 6.00006C57.8552 5.72847 57.2174 5.41791 56.5999 5.07006C56.3439 4.91363 56.1199 4.71003 55.9399 4.47006C55.8099 4.27006 55.7299 4.04006 55.5899 3.84006C55.4229 3.63289 55.2237 3.45393 54.9999 3.31006L53.9999 2.51006C53.2055 1.83009 52.3245 1.25845 51.3799 0.810059C51.6247 1.30721 51.8319 1.82198 51.9999 2.35006C52.3191 2.95539 52.7579 3.48954 53.2899 3.92006V3.92006Z" fill="#705718"/>
</g>
<g id="Vector_12" style="mix-blend-mode:screen">
<path d="M44.09 15.07C43.6462 14.7344 43.2493 14.3409 42.91 13.9C42.74 13.68 42.5 13.53 42.32 13.31C42.14 13.09 42.06 12.74 41.99 12.7C43.3367 13.2597 44.7652 13.5975 46.22 13.7C46.4045 13.7227 46.5837 13.7768 46.75 13.86C46.8332 13.9019 46.9043 13.9643 46.9568 14.0412C47.0093 14.1182 47.0413 14.2072 47.05 14.3C47.0401 14.4715 46.9772 14.6357 46.87 14.77C46.67 15.07 46.46 15.37 46.23 15.66C46.1749 15.7469 46.0994 15.819 46.01 15.87C45.9218 15.8952 45.8282 15.8952 45.74 15.87C45.1319 15.7451 44.5646 15.4701 44.09 15.07V15.07Z" fill="#705718"/>
</g>
<g id="Vector_13" style="mix-blend-mode:screen">
<path d="M66.11 8.40997C66.1815 8.51934 66.2133 8.64996 66.2 8.77997C66.1675 8.86509 66.1308 8.94853 66.09 9.02997C65.99 9.27997 66.18 9.54997 66.39 9.73997C67.13 10.4 68.16 10.74 68.86 11.41C68.936 11.5116 69.046 11.5826 69.17 11.61C69.2735 11.6095 69.3744 11.5781 69.46 11.52L70.9 10.69C69.8238 9.90472 68.7922 9.06007 67.81 8.15997C66.68 7.07997 65.7 5.83997 64.5 4.83997C64.6206 5.11799 64.7176 5.40567 64.79 5.69997C64.89 5.91997 64.99 6.14997 65.1 6.36997C65.43 7.04997 65.77 7.72997 66.11 8.40997Z" fill="#705718"/>
</g>
<g id="Vector_14" style="mix-blend-mode:screen">
<path d="M76.5001 13.66C76.8801 13.93 77.2101 14.27 77.6101 14.51C77.9244 14.6915 78.2604 14.8326 78.6101 14.93C79.8291 15.1928 80.9822 15.6996 82.0001 16.42C82.3201 16.7 82.5801 17.04 82.8901 17.34C83.236 17.6733 83.6347 17.947 84.0701 18.15C83.7378 17.6174 83.3226 17.1414 82.8401 16.74C82.0803 15.9588 81.1904 15.3159 80.2101 14.84C79.7801 14.66 79.3301 14.55 78.8901 14.39C78.4783 14.2407 78.083 14.0497 77.7101 13.82C77.1099 13.4279 76.5384 12.9934 76.0001 12.52C75.5048 12.1514 75.049 11.7325 74.6401 11.27C74.2142 10.7035 73.689 10.219 73.0901 9.83997C73.7665 11.4595 74.9674 12.8048 76.5001 13.66V13.66Z" fill="#705718"/>
</g>
<g id="Vector_15" style="mix-blend-mode:screen">
<path d="M88.6601 34.77C88.5631 34.3115 88.3908 33.8722 88.1501 33.47C86.8001 30.93 85.2201 28.18 82.5101 27.23L85.2001 27C84.6101 25.35 85.3301 23.42 84.6001 21.83C84.241 21.1425 83.7359 20.5418 83.1201 20.07C81.6584 18.7356 79.9987 17.6359 78.2001 16.81C74.9296 15.2271 71.4771 14.0517 67.9201 13.31C66.4053 12.8965 64.8699 12.5627 63.3201 12.31C62.7401 11.74 62.1401 11.19 61.5301 10.66C61.4178 10.5469 61.2856 10.4553 61.1401 10.39C60.8678 10.3202 60.5824 10.3202 60.3101 10.39C59.9495 10.3744 59.5911 10.3242 59.2401 10.24C58.4884 10.0506 57.7152 9.9598 56.9401 9.97001L57.8501 11.7C57.8588 11.7395 57.8588 11.7805 57.8501 11.82C57.8501 11.92 57.7401 11.98 57.6501 12.02C56.3181 12.6213 55.2514 13.688 54.6501 15.02C55.4036 15.6894 56.2845 16.1996 57.2401 16.52C57.5208 16.8715 57.9119 17.1182 58.3501 17.22C59.0632 17.2837 59.7714 17.3939 60.4701 17.55C60.3663 18.468 60.5741 19.3943 61.0601 20.18C60.6476 20.3328 60.2227 20.4499 59.7901 20.53C59.2101 20.73 58.6701 21.09 58.0801 21.3C56.8768 21.7249 55.6057 21.9248 54.3301 21.89C53.8879 21.8448 53.4423 21.8448 53.0001 21.89C52.6767 21.955 52.3614 22.0556 52.0601 22.19C50.0811 23.0781 48.0585 23.8657 46.0001 24.55L38.3801 26.79C38.1109 28.5758 38.2896 30.4004 38.9001 32.1C41.241 31.138 43.647 30.3427 46.1001 29.72C44.4654 30.7703 42.9789 32.0349 41.6801 33.48L42.7901 35.48C43.5225 35.1075 44.3287 34.9025 45.1501 34.88C44.5495 35.3172 44.0432 35.8711 43.6618 36.5086C43.2803 37.1461 43.0314 37.8541 42.9301 38.59C44.1608 38.4195 45.3684 38.1108 46.5301 37.67C46.3836 37.8009 46.2896 37.9805 46.2657 38.1756C46.2418 38.3706 46.2895 38.5676 46.4001 38.73C50.6899 38.9165 54.7823 40.5845 57.9801 43.45C59.7991 41.8488 61.7161 40.3626 63.7201 39C62.9001 40.68 62.1601 42.41 61.5001 44.17C61.4135 44.3311 61.3601 44.5079 61.3429 44.6899C61.3257 44.8719 61.3452 45.0556 61.4001 45.23C61.5901 45.63 62.0901 45.76 62.4001 46.08C62.8901 46.65 62.5801 47.53 62.2501 48.21C63.8354 49.6172 65.5052 50.9263 67.2501 52.13C68.1375 50.6829 69.3983 49.5015 70.9001 48.71C70.1617 51.5952 69.5875 54.5199 69.1801 57.47C70.7501 57.59 72.3301 57.65 73.9001 57.62C73.9883 57.6332 74.0783 57.6269 74.1637 57.6016C74.2492 57.5762 74.3281 57.5325 74.3948 57.4734C74.4615 57.4143 74.5145 57.3412 74.55 57.2595C74.5854 57.1777 74.6025 57.0891 74.6001 57C74.8101 55.81 75.0301 54.61 75.2401 53.41L76.2401 55.17C78.1639 54.1072 79.8976 52.7317 81.3701 51.1C81.6223 50.8539 81.8139 50.5527 81.9301 50.22C82.0101 49.8577 82.0101 49.4823 81.9301 49.12C81.6601 47.58 81.4001 46.04 81.1301 44.51C81.5601 45.51 81.9801 46.51 82.4001 47.51C82.4001 47.51 83.7601 45.38 83.8701 45.09C84.26 44.2785 84.369 43.3603 84.1801 42.48C83.8901 41.18 83.6101 39.89 83.3201 38.59C84.2701 39.5834 85.1147 40.6725 85.8401 41.84C87.4201 40.51 88.0001 38.38 88.5101 36.38C88.6652 35.8584 88.7162 35.3113 88.6601 34.77V34.77Z" fill="#705718"/>
</g>
<g id="Vector_16" style="mix-blend-mode:screen">
<path d="M45.7799 19.67L45.6999 19.79C45.6641 19.8848 45.6091 19.9711 45.5381 20.0435C45.4672 20.1158 45.382 20.1726 45.288 20.2102C45.1939 20.2478 45.0931 20.2655 44.9918 20.262C44.8906 20.2585 44.7912 20.234 44.6999 20.19C43.9949 20.0486 43.2707 20.0317 42.5599 20.14L44.5599 21.04C43.8703 21.5127 43.3293 22.1716 42.9999 22.94L40.9299 22.26C40.5492 22.1689 40.2023 21.9712 39.9299 21.69C39.2467 22.3973 38.4221 22.9527 37.5099 23.32C36.4876 24.0185 35.403 24.6211 34.2699 25.12C34.6373 24.3043 34.9318 23.4577 35.1499 22.59C34.664 22.4078 34.1564 22.2901 33.6399 22.24C35.5699 19.97 37.6399 17.88 39.7799 15.77C42.419 16.3099 45.0007 17.1002 47.4899 18.13C46.9999 18 46.0799 19.2 45.7799 19.67Z" fill="#705718"/>
</g>
<g id="Vector_17" style="mix-blend-mode:screen">
<path d="M47.76 49.13C48.2 49.73 48.54 50.36 48.94 50.97C49.4347 51.5645 49.8827 52.1964 50.28 52.86C50.9164 52.2984 51.6479 51.8548 52.44 51.55L51.51 56C51.4852 56.1355 51.4852 56.2745 51.51 56.41C51.573 56.5702 51.6764 56.7114 51.81 56.82C52.3773 57.4642 52.8519 58.1845 53.22 58.96C53.3677 58.5631 53.6417 58.2258 54 58C54.0201 58.8776 54.1409 59.75 54.36 60.6C54.5008 60.4758 54.685 60.4123 54.8724 60.4236C55.0598 60.4348 55.2351 60.5198 55.36 60.66C55.5971 60.9276 55.7622 61.2511 55.84 61.6C56.4819 60.0509 56.6625 58.3493 56.36 56.7C55.9 53.7 55.04 50.31 52.14 48.76C50.66 48 49.32 48.72 47.76 49.13Z" fill="#705718"/>
</g>
<g id="Vector_18" style="mix-blend-mode:screen">
<path d="M110.72 64.3199C110.802 64.4584 110.834 64.6208 110.81 64.7799C110.772 64.8717 110.714 64.9537 110.64 65.0199C109.981 65.8889 109.053 66.5149 108 66.7999C107.69 65.8899 107.38 64.9799 107.06 64.0699C106.9 63.5899 106.55 62.9999 106.06 63.1299C106.13 63.1299 106.75 59.8199 106.87 59.4699C107.05 58.9499 107.53 57.0699 108.47 57.4699C109.05 57.6999 109.19 60.0399 109.35 60.6399C109.712 61.8999 110.17 63.1301 110.72 64.3199Z" fill="#705718"/>
</g>
<g id="Vector_19" style="mix-blend-mode:screen">
<path d="M102.75 71.72C102.59 72.0473 102.399 72.3587 102.18 72.65C101.873 72.9599 101.592 73.2944 101.34 73.65C101.195 73.9087 101.117 74.1998 101.114 74.4964C101.111 74.793 101.182 75.0857 101.321 75.3476C101.461 75.6094 101.664 75.832 101.912 75.995C102.159 76.1579 102.444 76.2559 102.74 76.28L104.07 73.93C104.167 73.7698 104.244 73.5986 104.3 73.42C104.335 73.2148 104.335 73.0052 104.3 72.8C104.278 71.6625 104.352 70.5252 104.52 69.4C104.72 68.03 105.4 66.74 105.52 65.4C104.74 66.104 104.251 67.0742 104.15 68.12C103.881 69.3878 103.408 70.6035 102.75 71.72Z" fill="#705718"/>
</g>
<g id="Vector_20" style="mix-blend-mode:screen">
<path d="M24.79 37.93C25.36 38.75 26.16 39.68 27.15 39.5L25.8 41.72C26.92 42.44 28.51 42.43 29.36 43.45C29.96 44.17 30.03 45.21 30.6 45.95C31.4022 46.7433 32.4726 47.2072 33.6 47.25C32.88 46.25 32.15 45.36 31.42 44.41C31.0262 43.988 30.7563 43.4655 30.64 42.9C30.57 42.17 30.97 41.34 30.53 40.76C30.09 40.18 29.29 40.31 28.79 39.87L31.85 33.65L30.16 34.58C29.2732 34.4436 28.3773 34.3734 27.48 34.37C30 35.58 25.83 37.48 24.79 37.93Z" fill="#705718"/>
</g>
<path id="Vector_21" style="mix-blend-mode:screen" d="M105.13 52.7401C105.96 48.9401 104.39 45.0201 102.38 41.6901C101.989 40.9612 101.451 40.3211 100.8 39.8101C100.359 39.5384 99.8603 39.3743 99.3441 39.3312C98.8278 39.288 98.3087 39.367 97.8287 39.5618C97.3487 39.7565 96.9213 40.0615 96.581 40.4521C96.2407 40.8427 95.9972 41.3079 95.8701 41.8101C95.4301 43.6701 96.1301 46.6101 96.7201 48.4501C97.5501 51.0901 103.93 58.2001 105.13 52.7401Z" fill="url(#paint3_linear_112_905)"/>
<path id="Vector_22" style="mix-blend-mode:screen" d="M95.4801 69.55C95.8248 69.7832 96.2365 69.8968 96.652 69.8733C97.0675 69.8499 97.4639 69.6906 97.7801 69.42C98.0887 69.1411 98.3321 68.7975 98.4929 68.4138C98.6536 68.0301 98.7278 67.6157 98.7101 67.2C98.6678 66.3671 98.4496 65.5526 98.0701 64.81C97.5924 63.7959 96.9802 62.8507 96.2501 62C96.0023 61.657 95.6522 61.4014 95.2501 61.27C94.9582 61.2375 94.6636 61.2997 94.4097 61.4473C94.1559 61.5949 93.9562 61.8203 93.8401 62.09C93.0601 63.66 94.0501 68.45 95.4801 69.55Z" fill="url(#paint4_linear_112_905)"/>
<path id="Vector_23" style="mix-blend-mode:screen" d="M67.7299 89.49C59.8899 91.49 65.1699 101.49 70.9499 102.23C73.8899 102.59 77.0699 100.64 77.6799 97.75C77.8473 96.789 77.7899 95.8024 77.5123 94.8673C77.2347 93.9322 76.7445 93.074 76.0799 92.36C74.7369 90.9436 72.9917 89.9733 71.0799 89.58C69.9858 89.2877 68.8382 89.2568 67.7299 89.49V89.49Z" fill="url(#paint5_linear_112_905)"/>
<path id="Vector_24" style="mix-blend-mode:screen" d="M27 88.74C27.3852 88.9737 27.8295 89.0917 28.28 89.08C28.6398 89.0011 28.979 88.8472 29.2754 88.6284C29.5718 88.4096 29.8187 88.1307 30 87.81C30.2254 87.5578 30.3805 87.2509 30.45 86.92C30.478 86.5733 30.4051 86.226 30.24 85.92C29.1676 83.4183 27.4403 81.2522 25.24 79.65C24.01 78.74 20.12 76.14 18.91 78.16C18 79.62 20.17 82.45 21 83.53C22.5603 85.7162 24.6165 87.5017 27 88.74V88.74Z" fill="url(#paint6_linear_112_905)"/>
<path id="Vector_25" d="M26.92 24.42C28.51 22.83 29.99 21.12 31.66 19.61C34.1876 17.4565 36.9093 15.5416 39.79 13.89C40.0851 13.6741 40.4283 13.5334 40.79 13.48C40.18 12.15 39.62 10.81 39.09 9.47998C38.2237 10.4684 37.5459 11.6072 37.09 12.84C36.5721 13.9892 35.7575 14.9798 34.73 15.71C34.03 16.29 33.26 16.79 32.54 17.35C31.4691 18.1935 30.466 19.1196 29.54 20.12C28.65 21.12 27.69 21.91 26.79 22.84C25.89 23.77 25.14 24.48 24.33 25.3C23.92 25.72 23.5 26.14 23.07 26.54L22.9 26.71C22.65 26.95 21.84 27.96 21.5 27.97C23.7 27.82 25.45 25.88 26.92 24.42Z" fill="#095D5E"/>
<path id="Vector_26" d="M18.12 32.46C18.1942 32.3855 18.2581 32.3015 18.31 32.21C18.5102 31.9552 18.7932 31.7783 19.11 31.71L18.11 30.95C17.961 30.8548 17.851 30.7094 17.8 30.54C17.7747 30.8638 17.6971 31.1812 17.57 31.48C17.3906 31.8505 17.1507 32.1885 16.86 32.48C16.59 32.78 16.31 33.06 16.02 33.34C16.6597 33.1939 17.2734 32.9511 17.84 32.62C17.939 32.5773 18.0329 32.5236 18.12 32.46V32.46Z" fill="#095D5E"/>
<path id="Vector_27" d="M61.3701 9.25998C61.9356 9.61096 62.4798 9.99496 63.0001 10.41C63.3801 10.69 63.5801 11.22 64.0001 11.41C64.2768 11.5237 64.5712 11.588 64.8701 11.6C65.975 11.7362 67.0594 12.0047 68.1001 12.4C66.634 11.7885 65.3913 10.7412 64.5401 9.39998C64.8024 9.06471 65.1469 8.80291 65.5401 8.63998C65.2301 8.77998 64.4701 7.43998 64.3801 7.22998C64.2901 7.01998 64.1301 5.49998 64.0701 5.52998L63.0701 6.11998C62.5001 6.44998 59.8001 7.80998 60.1601 8.64998C60.2701 8.99998 61.1101 9.10998 61.3701 9.25998Z" fill="#095D5E"/>
<path id="Vector_28" d="M75.1899 13.2801C74.1671 12.2761 73.2704 11.1511 72.5199 9.93005C71.9499 10.6501 71.5199 11.4101 70.9299 12.1401C71.8733 12.3577 72.8046 12.6247 73.7199 12.9401C74.173 13.1768 74.679 13.2938 75.1899 13.2801V13.2801Z" fill="#095D5E"/>
<path id="Vector_29" d="M11.57 44.2601C12.07 44.1001 12.34 43.5801 12.57 43.1101C13.76 40.8901 15.57 38.9101 16.05 36.4301C15.98 36.7701 14.21 36.8701 13.94 36.9101C12.88 37.1779 11.7744 37.212 10.7 37.0101C10.85 38.2401 11.37 39.3301 11.5 40.5601C11.57 40.9401 11.93 44.1501 11.57 44.2601Z" fill="#095D5E"/>
<path id="Vector_30" d="M53.4699 10.16C51.5106 11.1151 49.8327 12.5623 48.5999 14.36C49.3871 14.6335 50.139 14.9993 50.8399 15.45C50.425 15.7033 50.1051 16.0864 49.9299 16.54C52.4398 17.7749 55.1481 18.5569 57.9299 18.85C55.9976 18.1203 54.2099 17.0538 52.6499 15.7C53.6506 14.0279 54.879 12.5033 56.2999 11.17C55.2284 10.6278 54.2843 9.86433 53.5299 8.92995C53.8499 9.31995 55.2499 8.98995 55.6799 9.00995C56.5144 9.07369 57.3432 9.19734 58.1599 9.37995L55.1599 7.16995C54.6899 6.81995 54.2199 6.47995 53.7699 6.09995C53.0345 5.47253 52.3644 4.7723 51.7699 4.00995C51.4799 3.65154 51.2095 3.27766 50.9599 2.88995C50.5999 2.35995 50.6999 2.21995 50.1999 2.50995C49.3663 3.18916 48.6265 3.97603 47.9999 4.84995C47.6999 5.16995 46.3099 7.12995 45.9399 7.11995C47.467 7.18434 48.9558 7.6166 50.2799 8.37995C51.3299 8.99995 52.6499 9.28995 53.4699 10.16Z" fill="#095D5E"/>
<path id="Vector_31" d="M83.2099 51.84C81.9999 53.83 81.0899 56 79.9999 58C77.2339 63.0153 73.252 67.2551 68.4199 70.33C68.0821 70.5789 67.6862 70.7372 67.2699 70.79C66.8006 70.7543 66.3553 70.5685 65.9999 70.26C63.9577 68.7565 62.5352 66.5587 61.9999 64.08C61.3199 60.89 62.1699 57.55 61.6199 54.34C60.8199 49.67 57.2199 46.05 53.7999 42.77C53.4044 42.3467 52.9497 41.9829 52.4499 41.69C51.6111 41.2981 50.6734 41.1692 49.7599 41.32C48.3708 41.4807 47.0349 41.9481 45.8485 42.6883C44.6621 43.4285 43.655 44.423 42.8999 45.6C42.3199 46.53 41.6599 47.71 40.5699 47.68C40.2099 47.68 39.8599 47.52 39.5099 47.54C39.1527 47.5788 38.8099 47.7022 38.5099 47.9L34.8799 49.9C33.7812 50.3865 32.8395 51.169 32.1599 52.16C31.2899 53.75 31.8799 55.68 31.9899 57.49C32.0799 59.03 31.7999 60.57 31.9199 62.11C32.0594 63.3251 32.5443 64.4749 33.317 65.423C34.0897 66.3712 35.1179 67.0781 36.2799 67.46C34.7599 66.37 33.0699 65.32 32.8299 63.33C32.8999 60.22 33.5799 57.11 32.8899 54.02C34.2499 51.72 36.9899 50.2 39.3199 49.02C43.6499 52.96 41.7399 46.56 46.6499 42.7C53.2999 40.06 57.8099 48.47 60.5199 53.36C61.6799 58.22 58.2599 61.82 61.8599 66.36C62.7099 68.48 64.3799 69.99 65.5399 71.91C65.8326 72.26 66.2361 72.4994 66.6836 72.5885C67.131 72.6777 67.5955 72.6111 67.9999 72.4C73.4499 70.4 76.8999 65.14 80.8899 61.17C83.5299 58.03 84.5999 54.08 86.0899 50.37C86.9999 48.08 89.1499 46.53 90.4999 44.46C90.5402 44.4022 90.5769 44.3421 90.6099 44.28C87.6034 46.208 85.0733 48.7929 83.2099 51.84Z" fill="#095D5E"/>
<path id="Vector_32" d="M109.64 80.5801C108.418 79.2397 107.515 77.6396 107 75.9001C107.672 75.2802 108.297 74.6118 108.87 73.9001C109.102 73.6661 109.243 73.3581 109.27 73.0301C109.27 72.4001 108.89 72.1701 109.21 71.5301C109.505 71.0625 109.84 70.6209 110.21 70.2101C110.952 69.5085 111.455 68.5923 111.65 67.59C111.067 67.9645 110.434 68.254 109.77 68.4501C108.91 68.8801 108.07 69.3501 107.23 69.7901C106.766 68.9669 106.403 68.0905 106.15 67.1801C105.55 70.2501 106.15 73.4501 105.64 76.5201C104.352 77.6231 102.902 78.5204 101.34 79.1801L100.34 75.5501C99.5647 76.495 99.0386 77.6193 98.8101 78.8201C98.6831 79.6605 98.6263 80.5101 98.6401 81.3601L98.5601 91.5401C99.9572 90.7362 101.095 89.5496 101.84 88.1201C102.575 86.6895 103.471 85.3475 104.51 84.1201C106.19 82.6259 108.177 81.5167 110.33 80.8701C110.09 81.0001 109.82 80.7801 109.64 80.5801Z" fill="#095D5E"/>
<path id="Vector_33" d="M56.6601 62.35C56.4401 63.35 56.5701 64.27 55.9201 65.19C55.8427 65.3103 55.7404 65.4126 55.6201 65.49C55.3944 65.5743 55.1458 65.5743 54.9201 65.49C51.5701 64.77 50.5001 61.36 49.9201 58.39C49.8459 57.7229 49.6776 57.0697 49.4201 56.45C49.1409 55.9345 48.8055 55.4516 48.4201 55.01C47.6939 54.0931 47.092 53.0844 46.6301 52.01C46.4801 51.66 46.2901 50.61 45.9501 50.33C45.2901 53.44 48.0401 56.25 48.7401 59.19C50.0001 62.27 51.0001 66 54.3701 67.4C55.3701 68.07 56.9301 68.52 57.9701 67.64C58.2238 66.66 58.2647 65.6371 58.0901 64.64C57.6965 63.9413 57.4387 63.1745 57.3301 62.38C57.1961 61.594 57.1658 60.7938 57.2401 60C57.0701 60.78 56.8201 61.55 56.6601 62.35Z" fill="#095D5E"/>
<path id="Vector_34" d="M59.76 105.86C59.5855 104.263 59.6461 102.649 59.94 101.07C60.1649 99.1074 60.185 97.1268 60 95.16C60.0014 94.8968 59.9093 94.6416 59.74 94.44C59.44 94.17 58.98 94.29 58.61 94.44C56.6303 94.9489 54.594 95.2043 52.55 95.2C51.4554 95.3472 50.342 95.1553 49.36 94.65C48.3792 94.1665 47.3033 93.9069 46.21 93.89C45.1687 93.7066 44.1164 93.593 43.06 93.55C41.893 93.5215 40.7279 93.6596 39.6 93.96C38.6 94.22 37.6 94.61 36.6 94.8C35.4049 94.9749 34.194 95.0151 32.99 94.92C31.4274 94.9969 29.8729 94.6514 28.49 93.92C27.8 93.47 27.21 92.92 26.49 92.49C25.77 92.06 24.91 91.49 24.12 91.05C22.5761 90.2746 21.247 89.131 20.25 87.72C19.67 86.72 18.6 86.27 17.94 85.34C17.4303 84.5611 16.9855 83.7417 16.61 82.89C15.28 80 14 77.11 13.92 74C13.92 73.86 13.92 73.69 14.08 73.64C15.27 72.47 17.01 74.2 18.08 74.78C23.74 77.56 34.34 76.16 40.08 73.78C39.5412 73.0059 39.1043 72.1656 38.78 71.28C38.78 71.71 38.78 72.14 38.85 72.57C38.8603 72.6161 38.8603 72.6639 38.85 72.71C38.8561 72.7261 38.8561 72.7439 38.85 72.76C38.67 72.85 38.17 72.21 37.97 72.14C37.1165 71.8549 36.1934 71.8549 35.34 72.14C34.601 72.4554 33.8887 72.83 33.21 73.26C31.035 74.319 28.6253 74.8044 26.21 74.67C23.945 74.699 21.7005 74.2385 19.63 73.32C18.39 72.71 17.27 71.87 16.05 71.21C15.8426 71.085 15.6106 71.0065 15.37 70.98C15.0596 71.0162 14.7582 71.1077 14.48 71.25C14 71.44 13.48 71.73 13.08 71.43C12.7644 71.1393 12.5624 70.7459 12.51 70.32C12.05 68.32 11.58 66.32 11.11 64.25C11.0334 63.9622 10.9865 63.6674 10.97 63.37C10.9449 62.9118 10.9718 62.4522 11.05 62C11.1597 61.1311 11.2098 60.2558 11.2 59.38C11.2 59.02 11.2 58.67 11.25 58.32L11.38 58.41C11.91 58.82 12.23 59.41 12.74 59.81C13.409 58.8012 14.0039 57.7451 14.52 56.65C14.58 56.54 14.68 56.41 14.8 56.44C14.92 56.47 14.96 56.6 14.98 56.71C15.1521 57.402 15.5765 58.0047 16.17 58.4C16.2752 58.4865 16.4043 58.5388 16.54 58.55C16.6827 58.5356 16.8182 58.48 16.93 58.39C18.71 57.09 18.29 54.13 19.93 52.62C19.81 53.07 20.4 53.44 20.85 53.31C21.294 53.1096 21.6495 52.754 21.85 52.31L27 44.15L23 48.9C22.8135 49.1663 22.5526 49.3715 22.25 49.49C21.9832 49.5386 21.7086 49.5214 21.45 49.44L19.25 49C18.5553 50.2667 18.1843 51.6854 18.17 53.13C18.189 53.3475 18.1363 53.5653 18.02 53.75C17.916 53.8569 17.7845 53.9331 17.64 53.97L15.44 54.78C15.303 54.8453 15.1481 54.8629 15 54.83C14.89 54.83 14.81 54.71 14.69 54.69C14.57 54.67 14.41 54.79 14.3 54.9L12.79 56.49L11.57 55.1C11.66 54.52 11.75 53.94 11.86 53.37C10.6326 54.4137 9.22669 55.2268 7.70996 55.77C8.94505 58.6317 9.72773 61.6679 10.03 64.77C10.1129 65.8439 10.2565 66.9123 10.46 67.97C10.8 69.5 11.46 70.97 11.97 72.42C12.125 72.8768 12.1962 73.3579 12.18 73.84C12.0299 74.6188 11.7126 75.3558 11.25 76C11.0576 76.3003 10.9441 76.6442 10.92 77C10.9281 77.2897 10.9926 77.575 11.11 77.84C12.5243 81.5838 14.5856 85.0499 17.2 88.08C17.3638 88.328 17.4593 88.6149 17.4768 88.9116C17.4944 89.2083 17.4334 89.5044 17.3 89.77C17.025 90.3289 16.8944 90.9477 16.92 91.57C17.1021 92.2091 17.5018 92.7644 18.05 93.14C18.7292 93.7659 19.4509 94.3439 20.21 94.87C20.4797 95.0319 20.7283 95.2267 20.95 95.45C21.14 95.66 21.27 95.92 21.45 96.14C21.8917 96.5207 22.3708 96.8557 22.88 97.14C23.1769 97.3852 23.4193 97.6898 23.5916 98.0342C23.7638 98.3787 23.862 98.7553 23.88 99.14C23.88 99.38 23.88 99.62 23.88 99.86C23.904 100.095 23.978 100.321 24.097 100.525C24.216 100.728 24.3773 100.904 24.57 101.04C24.93 101.3 25.38 101.4 25.76 101.64C27 102.44 27 103.76 27 105C27.2183 104.925 27.4496 104.894 27.68 104.91H30.54C30.8079 104.884 31.0777 104.933 31.32 105.05C31.9884 105.506 32.5594 106.091 33 106.77C33.755 107.825 34.6125 108.803 35.56 109.69C36.6267 109.652 37.6893 109.538 38.74 109.35C39.1547 109.263 39.5764 109.213 40 109.2C40.3367 109.224 40.671 109.274 41 109.35C41.63 109.49 42.75 109.5 43.06 110.19C43.2 110.5 43.3 110.89 43.61 111.02C43.8279 111.09 44.0621 111.09 44.28 111.02L46.46 110.43C47.2738 110.226 48.0724 109.965 48.85 109.65C49.639 109.145 50.5804 108.932 51.51 109.05C51.72 109.6 52.24 109.68 52.82 109.78C55.3168 110.206 57.8597 110.294 60.38 110.04C60.762 110.008 61.1403 109.941 61.51 109.84C62.0109 109.698 62.4749 109.449 62.87 109.11C62.0776 108.96 61.3519 108.566 60.7943 107.983C60.2367 107.401 59.8751 106.658 59.76 105.86V105.86ZM42.14 105.19C41.8352 105.359 41.4876 105.436 41.14 105.41C40.14 105.27 39.77 103.68 38.76 103.66C38.3371 103.701 37.9432 103.893 37.65 104.2L36.11 105.46C35.45 103.9 34.8 102.35 34.11 100.8C34.0811 100.698 34.0218 100.607 33.94 100.54C33.8225 100.471 33.6841 100.446 33.55 100.47C33.16 100.47 31.39 100.75 31.26 100.4C30.86 99.31 31.12 97.68 30.09 96.8C34.5787 100.594 40.283 102.646 46.16 102.58C44.9586 103.647 43.6034 104.527 42.14 105.19V105.19Z" fill="#095D5E"/>
<path id="Vector_35" d="M10.53 51C10.9352 50.2871 11.2446 49.5238 11.45 48.73C11.7735 48.0747 12.0057 47.3783 12.14 46.66C12.14 46.25 12.14 46.48 11.8 46.51C11.46 46.54 11.3 46.62 11.04 46.64C10.6 46.64 10.36 46.64 10.3 47.07C10.355 47.7433 10.4586 48.4117 10.61 49.07C10.7073 49.7125 10.6802 50.3677 10.53 51V51Z" fill="#095D5E"/>
<path id="Vector_36" d="M99.3199 34.49C97.1876 35.3697 94.7978 35.3912 92.6499 34.55C92.4932 34.4774 92.3226 34.4399 92.1499 34.4399C91.9773 34.4399 91.8066 34.4774 91.6499 34.55C90.7899 35.06 89.8199 37.17 90.2799 38.1C90.4891 38.4347 90.7488 38.7349 91.0499 38.99C91.8495 39.9073 92.2558 41.1025 92.1809 42.317C92.1061 43.5316 91.5561 44.6678 90.6499 45.48C90.2632 45.8453 89.7723 46.0811 89.2454 46.1546C88.7185 46.2281 88.1818 46.1356 87.7099 45.89C86.1199 47.96 84.2499 50.18 81.7799 50.75C81.517 50.8135 81.2495 50.857 80.9799 50.88C80.3705 50.9686 79.7484 50.8754 79.1917 50.6122C78.6349 50.3489 78.1682 49.9273 77.8499 49.4C77.0899 47.76 78.2599 44.84 79.3299 43.55C79.6378 43.1298 80.0395 42.7871 80.503 42.5493C80.9664 42.3115 81.479 42.185 81.9999 42.18C82.8199 42.18 83.6699 42.64 84.4199 42.31C84.6927 42.1793 84.9276 41.9812 85.1026 41.7345C85.2776 41.4878 85.3868 41.2006 85.4199 40.9C85.4749 40.3065 85.4548 39.7084 85.3599 39.12C85.2587 38.4517 85.303 37.7695 85.4899 37.12C85.9199 35.93 87.1799 35.62 88.1799 35.12C88.6522 34.9001 89.0569 34.5579 89.3523 34.1289C89.6477 33.6998 89.823 33.1996 89.8599 32.68C89.8302 32.4075 89.8302 32.1325 89.8599 31.86C89.9129 31.6105 90.0186 31.3753 90.1699 31.17C91.1035 30.0031 91.8739 28.7146 92.4599 27.34C92.8799 25.9 92.3499 24.02 90.9099 23.62C90.5454 23.54 90.1732 23.4998 89.7999 23.5C85.0499 23.15 82.1899 17.39 83.6899 13.11C83.89 12.715 83.9533 12.2648 83.8699 11.83C83.4899 11 82.4399 11 81.6399 11C80.129 11.0897 78.6139 10.9206 77.1599 10.5C76.3219 10.3098 75.5469 9.90688 74.9099 9.32999C74.5949 9.04101 74.3671 8.6696 74.2522 8.25782C74.1373 7.84604 74.14 7.41033 74.2599 6.99999C74.5059 6.51607 74.8786 6.10796 75.3382 5.81914C75.7978 5.53033 76.3272 5.37164 76.8699 5.36C78.6699 5.11 80.8699 5.63999 81.6099 6.69999C81.9764 7.38379 82.4229 8.0216 82.9399 8.6C84.1599 9.6 85.9399 9.00999 87.4899 8.64999C89.9076 8.2565 92.3821 8.39643 94.7399 9.06C95.8205 9.2314 96.8224 9.73057 97.6099 10.49C97.9742 10.9396 98.2428 11.459 98.3993 12.0161C98.5558 12.5732 98.5968 13.1564 98.5199 13.73C98.3595 14.8732 98.0468 15.9898 97.5899 17.05C98.6731 17.2805 99.6399 17.8868 100.319 18.7617C100.998 19.6365 101.345 20.7235 101.3 21.83C101.21 23.16 100.37 24.54 101.05 25.83C101.35 26.39 101.78 26.83 102.05 27.45C102.504 28.7566 102.479 30.182 101.979 31.4717C101.479 32.7613 100.536 33.8311 99.3199 34.49V34.49Z" fill="#FCF7EA"/>
<path id="Vector_37" d="M99.6399 32.3C99.1203 32.997 98.4592 33.5763 97.6999 34C95.8199 34.88 94.2099 33.63 92.3599 33.49C91.8877 33.4318 91.4084 33.4758 90.9547 33.619C90.5009 33.7622 90.0832 34.0013 89.7299 34.32C88.5199 35.57 88.0499 38.32 89.1699 39.69C89.5892 40.0824 89.9617 40.522 90.2799 41C90.8399 42.18 89.8099 43.55 88.6199 44.09C87.4299 44.63 86.0699 44.69 84.8999 45.25C83.7215 45.9165 82.6987 46.8268 81.8999 47.92C81.6973 48.1239 81.5553 48.3801 81.4899 48.66C81.4999 48.9764 81.5784 49.2868 81.7199 49.57C81.8395 49.9347 81.8602 50.3246 81.7799 50.7C81.517 50.7635 81.2495 50.807 80.9799 50.83C80.3705 50.9186 79.7484 50.8254 79.1917 50.5622C78.6349 50.2989 78.1682 49.8772 77.8499 49.35C77.0899 47.71 78.2599 44.79 79.3299 43.5C79.643 43.089 80.047 42.7559 80.5102 42.5269C80.9734 42.2979 81.4832 42.1792 81.9999 42.18C82.8199 42.18 83.6699 42.64 84.4199 42.31C84.6927 42.1793 84.9276 41.9812 85.1026 41.7345C85.2776 41.4878 85.3868 41.2006 85.4199 40.9C85.4749 40.3065 85.4548 39.7084 85.3599 39.12C85.2587 38.4517 85.303 37.7695 85.4899 37.12C85.9199 35.93 87.1799 35.62 88.1799 35.12C88.6522 34.9001 89.0569 34.5579 89.3523 34.1289C89.6477 33.6998 89.823 33.1996 89.8599 32.68C89.8302 32.4075 89.8302 32.1325 89.8599 31.86C89.9129 31.6105 90.0186 31.3753 90.1699 31.17C91.1035 30.0031 91.8739 28.7146 92.4599 27.34C92.8799 25.9 92.3499 24.02 90.9099 23.62C90.5454 23.54 90.1732 23.4998 89.7999 23.5C85.0499 23.15 82.1899 17.39 83.6899 13.11C83.89 12.715 83.9533 12.2648 83.8699 11.83C83.4899 11 82.4399 11 81.6399 11C80.129 11.0896 78.6139 10.9205 77.1599 10.5C76.3219 10.3098 75.5469 9.90687 74.9099 9.32999C74.5949 9.041 74.3671 8.66959 74.2522 8.25781C74.1373 7.84603 74.14 7.41032 74.2599 6.99999C74.5059 6.51606 74.8786 6.10795 75.3382 5.81913C75.7978 5.53032 76.3272 5.37163 76.8699 5.35999L76.9999 5.69999C77.3449 6.687 77.9907 7.54104 78.8463 8.14196C79.7019 8.74288 80.7244 9.06044 81.7699 9.04999C82.1713 8.97482 82.5863 9.04576 82.9399 9.24999C83.1521 9.50427 83.3149 9.79594 83.4199 10.11C83.7699 10.78 84.5799 11.11 84.9299 11.81C85.3899 12.69 84.9299 13.73 84.7199 14.69C83.7199 19.38 89.2499 24.11 93.6499 21.96C92.4103 20.9869 91.3451 19.8102 90.4999 18.48C90.0827 17.8114 89.8418 17.0479 89.7998 16.2609C89.7578 15.4739 89.9162 14.6892 90.2599 13.98C90.863 15.6221 91.8077 17.1174 93.0316 18.3672C94.2555 19.617 95.7308 20.5928 97.3599 21.23C97.0433 21.6385 96.823 22.1134 96.7156 22.619C96.6083 23.1246 96.6166 23.648 96.7399 24.15C96.9899 25.1548 97.3912 26.1158 97.9299 27C97.5602 27.1482 97.2345 27.3887 96.9842 27.6985C96.7338 28.0084 96.5671 28.3773 96.4999 28.77C96.4612 29.1831 96.5239 29.5993 96.6824 29.9827C96.841 30.3661 97.0907 30.705 97.4099 30.97C97.6199 31.16 99.3199 32.67 99.6399 32.3Z" fill="#F5DBBC"/>
<path id="Vector_38" d="M87.4701 91.3099C86.0301 93.0499 84.2301 94.8399 84.3001 97.0899C84.3001 98.1999 84.8401 99.2699 84.7901 100.38C84.6049 101.679 84.0134 102.887 83.1001 103.83C81.6765 105.567 80.1075 107.179 78.4101 108.65C76.5201 110.29 74.2901 111.82 71.7901 111.86C70.6901 111.86 69.6101 111.61 68.5101 111.62C67.9599 111.589 67.4109 111.7 66.9156 111.942C66.4202 112.183 65.9949 112.548 65.6801 113C65.4401 113.41 65.3501 113.89 65.1401 114.32C64.756 114.913 64.2346 115.404 63.62 115.752C63.0055 116.1 62.316 116.295 61.6101 116.32C59.1601 116.65 53.8601 116.32 50.8501 114.53C49.9754 114.072 49.2735 113.342 48.8501 112.45C47.4701 109.14 54.5001 105.34 57.0001 107.74C57.8201 108.53 58.1001 109.74 58.8801 110.57C59.3901 111.1 61.6801 112.22 62.2601 111.4C62.3484 111.251 62.4054 111.085 62.4277 110.913C62.4501 110.741 62.4373 110.567 62.3901 110.4C62.2935 110.074 62.2299 109.739 62.2001 109.4C62.2422 108.974 62.3825 108.563 62.6101 108.2C62.886 107.635 63.2778 107.134 63.7601 106.73C64.0055 106.53 64.2971 106.396 64.608 106.338C64.919 106.28 65.2395 106.302 65.5401 106.4C64.7831 105.823 64.1742 105.074 63.7638 104.215C63.3535 103.356 63.1534 102.412 63.1801 101.46C63.2357 99.8096 63.7709 98.2111 64.7201 96.8599C64.7376 96.8229 64.7613 96.7891 64.7901 96.7599C65.6491 95.4812 66.7375 94.3725 68.0001 93.4899C68.3174 93.2162 68.6858 93.0081 69.084 92.8777C69.4822 92.7472 69.9024 92.697 70.3201 92.7299C70.8375 92.8538 71.3112 93.1165 71.6901 93.4899C72.5909 94.2841 73.3014 95.2709 73.7688 96.3771C74.2362 97.4833 74.4485 98.6805 74.3901 99.8799C74.3901 100.25 74.3901 100.7 74.6601 100.88C74.6922 100.907 74.7296 100.928 74.7701 100.94C74.9379 100.984 75.1082 101.017 75.2801 101.04C75.5412 101.095 75.7784 101.231 75.9579 101.428C76.1374 101.626 76.2501 101.875 76.2801 102.14C78.9373 98.698 80.2587 94.4105 80.0001 90.0699C79.8301 87.5399 79.1301 84.9599 79.8301 82.5199C80.2987 81.1832 80.9735 79.9281 81.8301 78.7999C82.1301 78.3499 82.4401 77.8899 82.7601 77.4499C84.1201 75.5699 85.7601 73.8299 87.9201 73.2999C88.3262 73.1904 88.7541 73.1904 89.1601 73.2999C89.4968 73.4496 89.7998 73.6658 90.0507 73.9356C90.3016 74.2055 90.4953 74.5233 90.6201 74.8699C93.1201 80.1599 91.2401 86.7699 87.4701 91.3099Z" fill="#FCF7EA"/>
<path id="Vector_39" d="M68.7901 104.31C69.1022 104.872 69.2994 105.491 69.3701 106.13C69.3701 107.88 67.3701 108.84 65.7601 109.41C65.4328 109.487 65.1301 109.645 64.8801 109.87C64.2301 110.55 64.6901 111.73 64.2701 112.57C63.2109 113.186 62.0788 113.666 60.9001 114C59.2601 114.26 57.6801 113.42 56.1101 112.87C54.5401 112.32 52.5301 112.18 51.4701 113.46C51.2301 113.771 51.0224 114.106 50.8501 114.46C49.9754 114.002 49.2735 113.272 48.8501 112.38C47.4701 109.07 54.5001 105.27 57.0001 107.67C57.8201 108.46 58.1001 109.67 58.8801 110.5C59.3901 111.03 61.6801 112.15 62.2601 111.33C62.3484 111.181 62.4054 111.015 62.4277 110.843C62.4501 110.671 62.4373 110.497 62.3901 110.33C62.2935 110.004 62.2299 109.669 62.2001 109.33C62.2422 108.904 62.3825 108.493 62.6101 108.13C62.886 107.565 63.2778 107.064 63.7601 106.66C64.0055 106.46 64.2971 106.326 64.608 106.268C64.919 106.21 65.2395 106.232 65.5401 106.33C64.7831 105.753 64.1742 105.004 63.7638 104.145C63.3535 103.286 63.1534 102.342 63.1801 101.39C63.2357 99.7396 63.7709 98.1411 64.7201 96.7899C64.7376 96.7529 64.7613 96.719 64.7901 96.6899C64.9222 98.0587 65.4388 99.3622 66.2801 100.45C66.888 101.112 67.4557 101.81 67.9801 102.54C68.2888 103.111 68.5593 103.703 68.7901 104.31V104.31Z" fill="#F5DBBC"/>
<path id="Vector_40" d="M80.9999 94.78C80.7709 95.4934 80.6298 96.2323 80.5799 96.98C80.5799 97.73 80.7099 98.47 80.7499 99.22C80.7134 101.318 80.24 103.385 79.3599 105.29C78.2512 105.506 77.1984 105.947 76.2663 106.585C75.3342 107.223 74.5425 108.045 73.9399 109C73.8699 108 73.7899 106.91 73.7199 105.87C73.6249 105.153 73.6249 104.427 73.7199 103.71C73.9382 102.932 74.226 102.176 74.5799 101.45C74.6399 101.3 74.6999 101.15 74.7499 101C74.9177 101.044 75.088 101.077 75.2599 101.1C75.5211 101.155 75.7582 101.291 75.9377 101.488C76.1172 101.686 76.23 101.935 76.2599 102.2C78.9382 98.7449 80.2676 94.4333 79.9999 90.07C79.8299 87.54 79.1299 84.96 79.8299 82.52C80.2985 81.1832 80.9733 79.9281 81.8299 78.8C82.1299 78.35 82.4399 77.89 82.7599 77.45C81.8959 79.6371 81.5967 82.0067 81.8899 84.34C82.1295 86.0547 82.7627 87.6907 83.7399 89.12C82.2199 90.63 81.5999 92.75 80.9999 94.78Z" fill="#F5DBBC"/>
<path id="Vector_41" d="M118.13 64.57C118.399 62.614 118.197 60.622 117.54 58.76C117.183 57.8394 116.561 57.0451 115.753 56.4774C114.945 55.9097 113.987 55.594 113 55.57C112.25 55.57 111.38 55.85 110.86 55.31C110.627 55.0264 110.491 54.6762 110.47 54.31C110.1 51.8 110.85 49.11 110.89 46.6C110.963 45.2632 110.669 43.9319 110.04 42.75C109.833 42.3538 109.549 42.0023 109.206 41.7158C108.863 41.4292 108.467 41.2132 108.04 41.08C107.522 40.9733 106.986 40.9973 106.48 41.15C106.758 42.1424 107.113 43.1119 107.54 44.05C108.661 46.5398 109.338 49.2067 109.54 51.93C109.591 53.0979 109.745 54.2591 110 55.4C110.123 55.9724 110.365 56.5128 110.709 56.9864C111.054 57.46 111.493 57.8563 112 58.15C113 58.64 114.25 58.7 114.75 59.63C114.957 60.1119 115.016 60.6444 114.92 61.16C114.77 62.7762 114.462 64.3739 114 65.93C113.49 67.6 112.87 69.58 114 70.93C113.706 71.3924 113.509 71.9094 113.42 72.45C113.541 72.598 113.694 72.7171 113.867 72.7984C114.04 72.8798 114.229 72.9213 114.42 72.92C114.685 72.8966 114.941 72.8146 115.17 72.68V72.74C115.161 72.8716 115.189 73.0032 115.25 73.12C115.292 73.2404 115.36 73.3498 115.45 73.4399C115.54 73.53 115.65 73.5984 115.77 73.64C115.887 73.7014 116.018 73.7291 116.15 73.72C116.407 73.7189 116.655 73.6186 116.84 73.44L117 73.24C117.086 73.0876 117.131 72.9151 117.13 72.74V72.48C117.083 72.3133 116.993 72.1616 116.87 72.04L116.68 71.89C116.568 71.8219 116.441 71.7808 116.31 71.77H116.16L116.25 71.66C117.496 69.5057 118.145 67.0584 118.13 64.57V64.57Z" fill="#FCF7EA"/>
<path id="Vector_42" d="M108 86C107.49 87.5385 106.647 88.9454 105.53 90.12C104.36 91.17 102.47 91.55 101.9 93.01C101.48 94.06 101.9 95.27 101.7 96.37C101.31 98.05 99.48 98.91 97.86 99.53C97.1211 99.888 96.2961 100.03 95.48 99.94C95.6063 99.4162 95.8302 98.9209 96.14 98.48C96.89 97.41 97.93 96.55 98.57 95.42C98.8788 94.709 99.2715 94.0376 99.74 93.42C100.37 92.78 101.3 92.53 101.99 91.95C103.44 90.73 103.46 88.42 104.78 87.06C105.154 86.5877 105.659 86.2356 106.231 86.0471C106.803 85.8587 107.418 85.8423 108 86Z" fill="#FCF7EA"/>
<path id="Vector_43" d="M47.07 98.25C45.5445 99.2114 43.7148 99.568 41.94 99.25C41.0584 99.1703 40.2085 98.8824 39.46 98.41C39.0493 98.0587 38.6036 97.7504 38.13 97.49C37.6515 97.3559 37.148 97.3377 36.6611 97.4368C36.1742 97.536 35.7179 97.7496 35.33 98.06C34.565 98.6877 33.7253 99.2184 32.83 99.64C30.15 100.56 28.18 98.51 27.05 96.13C26.5558 95.0678 26.2189 93.9393 26.05 92.78C25.94 91.96 25.99 91.12 25.9 90.3C25.69 88.39 24.65 87.77 23.77 86.36C23.4499 85.6588 23.2927 84.8942 23.31 84.1235C23.3273 83.3529 23.5187 82.5962 23.87 81.91C24.6095 80.4096 25.6513 79.0784 26.93 78C25.805 77.1892 24.891 76.1203 24.2646 74.8832C23.6382 73.646 23.3177 72.2766 23.33 70.89C23.2998 70.4138 23.2998 69.9362 23.33 69.46C23.5883 67.1808 24.1954 64.9548 25.13 62.86C26.04 60.61 27.53 58.1 29.95 57.94C30.2325 57.9098 30.5174 57.9098 30.8 57.94C31.6077 58.1503 32.3524 58.553 32.9706 59.1138C33.5888 59.6745 34.0621 60.3766 34.35 61.16C34.9544 63.045 35.2186 65.0225 35.13 67C35.13 69 35.31 71 35.55 73.06C35.7549 74.137 35.7549 75.243 35.55 76.32C35.31 77.26 34.73 78.1 34.55 79.06C34.21 80.66 34.96 82.27 35.75 83.7C36.5116 85.3832 37.6675 86.8582 39.12 88C40.74 89.11 42.76 89.4 44.64 90C46.137 90.4034 47.4654 91.2761 48.43 92.49C48.6789 92.8266 48.8714 93.2015 49 93.6C49.1854 94.4793 49.1003 95.3942 48.7558 96.2242C48.4113 97.0542 47.8236 97.7604 47.07 98.25V98.25Z" fill="#FCF7EA"/>
<path id="Vector_44" d="M47.07 98.25C45.5445 99.2113 43.7148 99.568 41.94 99.25C41.0584 99.1702 40.2085 98.8824 39.46 98.41C39.0493 98.0586 38.6036 97.7503 38.13 97.49C37.6515 97.3559 37.148 97.3377 36.6611 97.4368C36.1742 97.5359 35.7179 97.7495 35.33 98.06C34.565 98.6877 33.7253 99.2184 32.83 99.64C30.15 100.56 28.18 98.51 27.05 96.13C26.5558 95.0677 26.2189 93.9392 26.05 92.78C25.94 91.96 25.99 91.12 25.9 90.3C25.69 88.39 24.65 87.77 23.77 86.36C23.4499 85.6587 23.2927 84.8941 23.31 84.1235C23.3273 83.3529 23.5187 82.5961 23.87 81.91C24.6095 80.4096 25.6513 79.0784 26.93 78C25.805 77.1891 24.891 76.1203 24.2646 74.8831C23.6382 73.646 23.3177 72.2766 23.33 70.89C23.2998 70.4138 23.2998 69.9362 23.33 69.46C23.41 69.76 23.51 70.07 23.63 70.4C24.1647 71.8419 24.969 73.1688 26 74.31C26.3 74.64 29.26 77.4 29.66 76.98C28.7707 78.1098 28.1978 79.4558 28 80.88C27.85 81.47 27.7 82.06 27.56 82.65C27.18 84.16 26.86 85.93 27.85 87.13C28.1203 87.3998 28.3648 87.6944 28.58 88.01C28.8346 88.7315 28.8346 89.5184 28.58 90.24C28.3834 91.4944 28.5458 92.7789 29.0484 93.9451C29.5509 95.1112 30.3731 96.1113 31.42 96.83C31.7118 97.0552 32.0557 97.2031 32.42 97.26C34.21 97.48 35.28 94.47 37.04 94.89C37.91 95.09 38.37 96.07 39.18 96.44C39.6785 96.6221 40.2116 96.6904 40.74 96.64C42.87 96.57 45.21 96.44 46.74 94.98C47.4448 94.2355 48.0285 93.3852 48.47 92.46C48.7077 92.8084 48.8868 93.1936 49 93.6C49.1854 94.4793 49.1003 95.3941 48.7558 96.2241C48.4113 97.0541 47.8236 97.7604 47.07 98.25V98.25Z" fill="#F5DBBC"/>
<path id="Vector_45" d="M37.42 37.61C36.873 38.587 36.5326 39.666 36.42 40.78C36.4487 41.2293 36.5021 41.6766 36.58 42.12C36.4993 43.7213 35.9109 45.2554 34.9 46.5C33.76 48 32.23 49 30.82 48.05C30.5378 47.8274 30.3183 47.5352 30.1833 47.202C30.0483 46.8688 30.0023 46.5063 30.05 46.15C30.1528 45.4306 30.4234 44.7454 30.84 44.15C31.4907 43.1922 32.2307 42.2982 33.05 41.48C32.559 41.2137 32.1326 40.8427 31.8009 40.3933C31.4692 39.9438 31.2404 39.427 31.1307 38.8793C31.021 38.3316 31.033 37.7665 31.166 37.224C31.2989 36.6815 31.5495 36.1749 31.9 35.74C32.4363 34.9867 33.1602 34.3869 34 34C35.12 33.47 36.64 33.43 37.4 34.39C37.6877 34.877 37.841 35.4316 37.8446 35.9973C37.8481 36.5629 37.7016 37.1194 37.42 37.61V37.61Z" fill="#FCF7EA"/>
<path id="Vector_46" d="M34.89 46.5C33.76 48 32.23 49 30.82 48.05C30.5378 47.8274 30.3183 47.5352 30.1833 47.202C30.0483 46.8689 30.0023 46.5063 30.05 46.15C30.1528 45.4306 30.4234 44.7454 30.84 44.15C31.4907 43.1922 32.2307 42.2982 33.05 41.48C32.559 41.2137 32.1326 40.8427 31.8009 40.3933C31.4692 39.9439 31.2404 39.427 31.1307 38.8793C31.021 38.3316 31.033 37.7665 31.166 37.224C31.2989 36.6815 31.5495 36.1749 31.9 35.74C32.05 36.36 31.9 37.15 32.07 37.74C32.2808 38.6137 32.711 39.4191 33.32 40.08C33.81 40.6 34.44 41.08 34.43 41.82C34.42 42.56 33.68 43.09 33.17 43.67C32.6476 44.2612 32.3409 45.0121 32.3 45.8C32.2768 45.9389 32.2854 46.0813 32.3253 46.2165C32.3651 46.3516 32.4351 46.4759 32.53 46.58C33.09 47.04 33.91 46.07 34.6 46.3C34.7116 46.342 34.8111 46.4106 34.89 46.5V46.5Z" fill="#F5DBBC"/>
<path id="Vector_47" d="M82.84 110.36C82.2312 110.264 81.608 110.328 81.0313 110.546C80.4546 110.763 79.9442 111.126 79.55 111.6C78.78 112.37 77.82 113.73 78.47 114.84C79.12 115.95 80.88 115.74 81.81 115.11C82.4729 114.672 82.9529 114.007 83.16 113.24V113.24C83.4231 113.084 83.6356 112.855 83.7721 112.582C83.9086 112.308 83.9632 112.001 83.9294 111.697C83.8956 111.393 83.7749 111.105 83.5817 110.868C83.3885 110.631 83.1309 110.454 82.84 110.36Z" fill="#FCF7EA"/>
<path id="Vector_48" d="M84.4199 108.28C84.3902 108.177 84.3391 108.082 84.2699 108C84.174 107.917 84.0589 107.859 83.935 107.831C83.8112 107.803 83.6823 107.806 83.5599 107.84C83.3805 107.893 83.2271 108.01 83.1299 108.17C83.0931 108.232 83.0661 108.3 83.0499 108.37V108.51C83.0213 108.614 83.0208 108.724 83.0483 108.828C83.0759 108.932 83.1305 109.027 83.2067 109.103C83.2829 109.179 83.378 109.234 83.4822 109.262C83.5864 109.289 83.696 109.289 83.7999 109.26H83.9299C84.0046 109.242 84.0756 109.212 84.1399 109.17C84.2991 109.077 84.417 108.927 84.4699 108.75C84.5083 108.592 84.4906 108.426 84.4199 108.28V108.28Z" fill="#FCF7EA"/>
<path id="Vector_49" d="M77.1501 114.09C77.082 113.844 76.951 113.62 76.7701 113.44L76.4701 113.21C76.2451 113.08 75.99 113.011 75.7301 113.01C75.5328 112.999 75.336 113.04 75.1601 113.13C74.98 113.192 74.8184 113.299 74.6901 113.44C74.5439 113.564 74.4363 113.727 74.3801 113.91C74.2923 114.087 74.2478 114.282 74.2501 114.48L74.3101 114.87C74.3745 115.118 74.506 115.342 74.6901 115.52L74.9801 115.75C75.2074 115.884 75.466 115.957 75.7301 115.96C75.9277 115.962 76.123 115.918 76.3001 115.83C76.4832 115.774 76.6463 115.666 76.7701 115.52C77.0312 115.251 77.1842 114.895 77.2001 114.52L77.1501 114.09Z" fill="#FCF7EA"/>
<path id="Vector_50" d="M8.23994 88C8.07801 87.6098 7.81087 87.2723 7.46831 87.0251C7.12576 86.7779 6.72126 86.6307 6.29994 86.6C4.45994 86.71 4.56994 89.51 5.70994 90.38C5.9104 90.6741 6.17088 90.9224 6.47424 91.1085C6.77759 91.2947 7.11694 91.4145 7.46994 91.46C7.62227 91.5045 7.78302 91.5122 7.9389 91.4824C8.09478 91.4525 8.24132 91.386 8.36639 91.2882C8.49146 91.1905 8.59148 91.0644 8.65817 90.9204C8.72487 90.7764 8.75632 90.6186 8.74994 90.46C8.81202 89.6085 8.63541 88.7566 8.23994 88V88Z" fill="#FCF7EA"/>
<path id="Vector_51" d="M11.2899 96L11.2099 95.81C11.1593 95.7177 11.0873 95.6388 10.9999 95.58C10.9237 95.5106 10.8306 95.4623 10.7299 95.44H10.6099C10.5013 95.4152 10.3885 95.4152 10.2799 95.44H10.1999L9.99994 95.5C9.91414 95.5478 9.84188 95.6166 9.78994 95.7C9.73769 95.7474 9.70253 95.8106 9.68994 95.88C9.63624 95.9704 9.61179 96.0752 9.61994 96.18V96.38L9.68994 96.57C9.74092 96.6594 9.81303 96.7349 9.89994 96.79C9.97359 96.8576 10.063 96.9057 10.1599 96.93C10.3432 96.9802 10.5367 96.9802 10.7199 96.93L10.9099 96.85C11.0023 96.7994 11.0811 96.7274 11.1399 96.64C11.1863 96.5921 11.2206 96.5338 11.2399 96.47C11.2878 96.3738 11.3118 96.2675 11.3099 96.16L11.2899 96Z" fill="#FCF7EA"/>
<path id="Vector_52" d="M4.00003 41.1799C3.9915 41.0368 3.95228 40.8971 3.88502 40.7704C3.81777 40.6438 3.72405 40.533 3.61022 40.4458C3.4964 40.3585 3.36514 40.2968 3.22535 40.2647C3.08555 40.2326 2.9405 40.231 2.80003 40.2599C2.19087 40.4467 1.6422 40.7918 1.21003 41.2599C0.958056 41.5782 0.788754 41.9538 0.717216 42.3534C0.645678 42.753 0.674126 43.164 0.800025 43.5499C0.871556 43.788 1.01641 43.9973 1.21394 44.1482C1.41146 44.299 1.65157 44.3836 1.90003 44.3899H2.00003C2.24842 44.389 2.48982 44.3076 2.68811 44.1579C2.8864 44.0083 3.03091 43.7985 3.10003 43.5599C3.04003 43.8299 3.10003 43.5599 3.17003 43.3999C3.24003 43.2399 3.17003 43.3399 3.17003 43.2999C3.7145 42.7298 4.01267 41.9682 4.00003 41.1799V41.1799Z" fill="#FCF7EA"/>
<path id="Vector_53" d="M36.8599 1.45003L36.6799 1.21003C36.5844 1.1146 36.468 1.0427 36.3399 1.00003C36.2028 0.933613 36.0523 0.899409 35.8999 0.900033C35.6002 0.900608 35.3128 1.01916 35.0999 1.23003C34.9538 1.37792 34.8472 1.56017 34.7899 1.76003C34.7299 1.96915 34.7299 2.19092 34.7899 2.40003C34.8407 2.58425 34.937 2.75275 35.0699 2.89003C35.1672 2.99042 35.2872 3.06589 35.4199 3.11003C35.5493 3.17813 35.6937 3.21252 35.8399 3.21003C36.0365 3.21005 36.2296 3.15832 36.3999 3.06003C36.5918 2.96822 36.7494 2.81759 36.8499 2.63003C36.9526 2.4362 37.0043 2.21937 36.9999 2.00003C36.9983 1.80809 36.9502 1.61939 36.8599 1.45003V1.45003Z" fill="#FCF7EA"/>
<path id="Vector_54" d="M12.16 29.2301C12.0495 29.1239 11.9031 29.0632 11.75 29.0601C11.5976 29.0669 11.4525 29.127 11.34 29.2301C11.2902 29.2848 11.2527 29.3496 11.23 29.4201C11.1887 29.4856 11.1711 29.5632 11.18 29.6401C11.1776 29.7157 11.1905 29.791 11.218 29.8614C11.2455 29.9319 11.287 29.9961 11.34 30.0501C11.4499 30.157 11.5966 30.2179 11.75 30.2201C11.8262 30.2206 11.9018 30.2058 11.9722 30.1766C12.0426 30.1474 12.1065 30.1044 12.16 30.0501C12.2175 30.0038 12.2594 29.9409 12.28 29.8701C12.3212 29.8009 12.3388 29.7201 12.33 29.6401C12.3323 29.5636 12.3183 29.4875 12.289 29.4168C12.2597 29.3461 12.2157 29.2825 12.16 29.2301V29.2301Z" fill="#FCF7EA"/>
<path id="Vector_55" d="M107.32 31.22C107.292 31.1757 107.259 31.1353 107.22 31.1C107.224 31.0701 107.224 31.0399 107.22 31.01C107.22 31.01 107.22 31.01 107.22 30.95C107.139 30.8069 107.03 30.6812 106.9 30.58C106.819 30.5021 106.719 30.447 106.61 30.42C106.514 30.3599 106.403 30.3287 106.29 30.33C106.179 30.2998 106.061 30.2998 105.95 30.33C105.78 30.3383 105.615 30.3899 105.47 30.48C105.305 30.5793 105.163 30.7113 105.051 30.8678C104.939 31.0243 104.861 31.202 104.82 31.39C104.781 31.5333 104.76 31.6813 104.76 31.83C104.75 31.9598 104.75 32.0902 104.76 32.22C104.759 32.2433 104.759 32.2667 104.76 32.29C104.825 32.5295 104.951 32.7479 105.127 32.9233C105.302 33.0988 105.52 33.2252 105.76 33.29C106.002 33.36 106.258 33.36 106.5 33.29C106.69 33.2415 106.863 33.1411 107 33C107.15 32.9007 107.273 32.767 107.36 32.61C107.486 32.3949 107.552 32.1495 107.55 31.9C107.536 31.6567 107.457 31.4218 107.32 31.22V31.22Z" fill="#FCF7EA"/>
<path id="Vector_56" d="M79.7101 53.74C79.7089 53.666 79.6882 53.5935 79.6501 53.53C79.6218 53.4225 79.5584 53.3275 79.4701 53.26C79.4178 53.2112 79.3609 53.1677 79.3001 53.13L79.1001 53C78.9887 52.9699 78.8714 52.9699 78.7601 53C78.6487 52.9993 78.54 53.0344 78.4501 53.1L78.2701 53.19C78.131 53.2691 78.0158 53.3842 77.9366 53.5232C77.8574 53.6623 77.8171 53.8201 77.8201 53.98V53.98C77.8122 54.0976 77.8363 54.2151 77.8901 54.32C77.9255 54.4323 77.9913 54.5327 78.0801 54.61L78.2601 54.75C78.394 54.8367 78.5505 54.882 78.7101 54.88V54.88C78.8691 54.878 79.0249 54.8356 79.1631 54.7569C79.3013 54.6782 79.4172 54.5657 79.5001 54.43L79.6001 54.24L79.6801 54.04C79.7131 53.9437 79.7234 53.841 79.7101 53.74V53.74Z" fill="#FCF7EA"/>
<path id="Vector_57" d="M115.88 76.1C115.881 75.9679 115.85 75.8375 115.79 75.72C115.753 75.6004 115.684 75.4932 115.59 75.41L115.39 75.25C115.241 75.1653 115.072 75.1205 114.9 75.12H114.81C114.619 75.1175 114.432 75.1695 114.27 75.27C114.11 75.3616 113.976 75.4923 113.88 75.65C113.88 75.77 113.78 75.88 113.74 76C113.691 76.1766 113.691 76.3634 113.74 76.54C113.772 76.673 113.831 76.798 113.914 76.9073C113.996 77.0166 114.1 77.1078 114.219 77.1753C114.338 77.2428 114.47 77.2851 114.606 77.2997C114.742 77.3142 114.879 77.3007 115.01 77.26C115.127 77.2238 115.241 77.177 115.35 77.12C115.513 77.0318 115.648 76.9003 115.74 76.74C115.84 76.5779 115.893 76.3906 115.89 76.2L115.88 76.1Z" fill="#FCF7EA"/>
<path id="Vector_58" d="M93.1401 101.17C93.1374 101.051 93.0991 100.936 93.0301 100.84L92.9501 100.65L92.8001 100.45C92.7119 100.357 92.6019 100.289 92.4801 100.25C92.4077 100.206 92.3249 100.182 92.2401 100.18C92.1124 100.145 91.9778 100.145 91.8501 100.18C91.6917 100.228 91.5476 100.314 91.4307 100.431C91.3138 100.548 91.2277 100.692 91.1801 100.85V100.85V101.11C91.172 101.242 91.1996 101.373 91.2601 101.49C91.2802 101.57 91.3217 101.642 91.3801 101.7C91.4481 101.808 91.5452 101.895 91.6601 101.95L91.8501 102.04L92.0601 102.13C92.1782 102.16 92.302 102.16 92.4201 102.13C92.5007 102.13 92.58 102.11 92.6501 102.07C92.7557 102.032 92.8514 101.97 92.9301 101.89L93.0701 101.7L93.1601 101.49C93.1811 101.383 93.1743 101.273 93.1401 101.17V101.17Z" fill="#FCF7EA"/>
</g>
<defs>
<radialGradient id="paint0_radial_112_905" cx="0" cy="0" r="1" gradientUnits="userSpaceOnUse" gradientTransform="translate(75.8439 33.5616) rotate(-20.7031) scale(96.4927)">
<stop stop-color="#14D8E0"/>
<stop offset="0.68" stop-color="#0C6D9E"/>
<stop offset="0.73" stop-color="#0C76A3"/>
<stop offset="0.82" stop-color="#0C8DB2"/>
<stop offset="0.93" stop-color="#0BB3C9"/>
<stop offset="1" stop-color="#0BD1DB"/>
</radialGradient>
<linearGradient id="paint1_linear_112_905" x1="96.4901" y1="29.85" x2="57.5101" y2="78.14" gradientUnits="userSpaceOnUse">
<stop stop-color="#4DB089"/>
<stop offset="1"/>
</linearGradient>
<radialGradient id="paint2_radial_112_905" cx="0" cy="0" r="1" gradientUnits="userSpaceOnUse" gradientTransform="translate(78.0579 31.2347) rotate(-20.79) scale(116.86 116.86)">
<stop stop-color="#CDD40F"/>
<stop offset="0.68" stop-color="#0E7446"/>
<stop offset="0.72" stop-color="#177842"/>
<stop offset="0.79" stop-color="#2E8537"/>
<stop offset="0.87" stop-color="#549824"/>
<stop offset="0.96" stop-color="#89B30B"/>
<stop offset="1" stop-color="#9FBF00"/>
</radialGradient>
<linearGradient id="paint3_linear_112_905" x1="104.92" y1="38.1201" x2="91.5401" y2="66.0701" gradientUnits="userSpaceOnUse">
<stop stop-color="#4DB089"/>
<stop offset="1"/>
</linearGradient>
<linearGradient id="paint4_linear_112_905" x1="99.9401" y1="58.29" x2="92.1901" y2="72.6" gradientUnits="userSpaceOnUse">
<stop stop-color="#4DB089"/>
<stop offset="1"/>
</linearGradient>
<linearGradient id="paint5_linear_112_905" x1="67.4699" y1="75.17" x2="71.9399" y2="102.33" gradientUnits="userSpaceOnUse">
<stop stop-color="#4DB089"/>
<stop offset="1"/>
</linearGradient>
<linearGradient id="paint6_linear_112_905" x1="11.81" y1="67.24" x2="29.4" y2="89.03" gradientUnits="userSpaceOnUse">
<stop stop-color="#4DB089"/>
<stop offset="1"/>
</linearGradient>
<clipPath id="clip0_112_905">
<rect width="118.21" height="116.44" fill="white"/>
</clipPath>
</defs>
</svg>
