<svg width="250" height="250" viewBox="0 0 93 94" fill="none" xmlns="http://www.w3.org/2000/svg">
<g id="planet-orange" clip-path="url(#clip0_115_981)">
<path id="Vector" d="M81.2879 40.7518C79.3138 31.6736 73.9745 23.6684 66.3336 18.3305C58.6926 12.9926 49.3107 10.7139 40.0567 11.9482H39.9341C39.2791 11.6473 38.6592 11.276 38.0855 10.8408C37.7315 10.5455 37.3482 10.2868 36.9416 10.0686C35.8412 9.66236 34.6308 9.66236 33.5303 10.0686L31.1915 10.668C30.3225 10.9433 29.5047 11.3586 28.7709 11.8974C27.6475 12.7305 27.913 14.7625 27.0551 16.1544C27.014 16.2131 26.9764 16.2741 26.9427 16.3373C19.9929 20.1885 14.4695 26.1576 11.1858 33.3657C7.90196 40.5739 7.03123 48.6405 8.70173 56.3779C9.44547 59.7883 10.6659 63.0783 12.3275 66.1518C12.2308 66.7366 12.0804 67.3114 11.8781 67.8688C11.6992 68.2914 11.5624 68.7304 11.4695 69.1795C11.4177 70.3486 11.7791 71.4989 12.4909 72.4307C12.9096 73.1114 13.3284 73.7921 13.7573 74.4627C14.2779 75.207 14.92 75.8595 15.657 76.3931C16.7805 77.216 18.6597 76.3931 20.253 76.769C20.7024 76.8909 21.1109 77.0027 21.4786 77.1246C25.65 80.5249 30.5156 82.9809 35.7374 84.3218C40.9592 85.6628 46.4119 85.8566 51.7166 84.8898C57.0213 83.9229 62.0507 81.8187 66.4554 78.7232C70.8601 75.6277 74.5344 71.6152 77.223 66.9646C77.5275 66.8644 77.8378 66.783 78.1524 66.7208C78.608 66.6464 79.0559 66.5308 79.4903 66.3753C80.51 65.8045 81.2948 64.8943 81.7066 63.8048C82.0641 63.0835 82.4318 62.3723 82.7892 61.6509C83.1481 60.8186 83.3656 59.9328 83.4327 59.0296C83.5246 57.7698 82.1152 56.7132 81.4922 55.3619C82.4084 50.5274 82.3389 45.5591 81.2879 40.7518V40.7518Z" fill="url(#paint0_linear_115_981)"/>
<path id="Vector_2" opacity="0.5" d="M73.7199 56.4591C73.536 56.073 69.7367 48.5648 54.8865 54.5287C50.4539 56.3067 42.7633 54.5287 44.4689 44.5414C45.1123 40.7924 46.4401 38.2829 46.5933 33.1825C46.6001 32.4722 46.4645 31.7676 46.1943 31.11C45.9242 30.4524 45.525 29.8549 45.02 29.3526C44.515 28.8503 43.9145 28.4532 43.2534 28.1844C42.5923 27.9157 41.8841 27.7808 41.17 27.7876C39.9344 27.7672 38.7333 28.1931 37.7894 28.9865C33.704 32.0345 28.199 39.1465 23.0005 27.7266C22.892 27.4358 22.7479 27.1594 22.5715 26.9037C22.3533 26.5558 22.0104 26.3034 21.6121 26.1977C21.2138 26.0921 20.79 26.1411 20.4267 26.3347C20.4267 26.3347 17.6282 27.4929 15.7898 26.6293C15.5308 26.5232 15.2599 26.4482 14.983 26.4058C9.32867 33.8135 6.69234 43.0708 7.60078 52.328C8.50922 61.5852 12.8955 70.1605 19.8832 76.3406C26.871 82.5206 35.9455 85.8501 45.2937 85.664C54.6418 85.4778 63.5751 81.7896 70.3086 75.3364C74.2203 69.4537 76.4468 61.6204 73.7199 56.4591Z" fill="#FF4800"/>
<path id="Vector_3" style="mix-blend-mode:overlay" d="M49.1874 81.5035C41.9468 81.5008 34.8649 79.3925 28.8131 75.438C22.7613 71.4835 18.0036 65.8553 15.1255 59.246C12.2473 52.6367 11.3743 45.3345 12.6138 38.238C13.8532 31.1415 17.1511 24.5602 22.1017 19.304C18.1038 22.3211 14.7622 26.113 12.2784 30.4506C9.79475 34.7882 8.22055 39.5816 7.65092 44.5413C7.08129 49.501 7.52805 54.524 8.96421 59.3072C10.4004 64.0903 12.7961 68.5343 16.0068 72.3707C19.2175 76.2072 23.1766 79.3565 27.6448 81.6285C32.1131 83.9005 36.9979 85.248 42.0043 85.5898C47.0107 85.9315 52.0348 85.2604 56.7731 83.6168C61.5115 81.9733 65.8659 79.3914 69.5733 76.0272C68.1665 76.7359 66.7168 77.3568 65.2326 77.8865C60.225 80.2753 54.741 81.5116 49.1874 81.5035V81.5035Z" fill="url(#paint1_radial_115_981)"/>
<path id="Vector_4" opacity="0.25" d="M68.0208 25.6236C75.1701 32.1564 77.9992 40.7518 74.2509 44.8361C70.5026 48.9204 61.6476 46.8681 54.4574 40.386C47.2673 33.904 44.479 25.2578 48.2273 21.1735C51.9756 17.0892 60.8306 19.0907 68.0208 25.6236Z" fill="white"/>
<path id="Vector_5" opacity="0.5" d="M64.589 25.2171C66.7032 27.2491 67.8165 29.5351 67.0709 30.2971C66.3253 31.0591 64.0069 30.0126 61.9029 27.9704C59.799 25.9283 58.6755 23.6626 59.4211 22.8904C60.1667 22.1183 62.4749 23.1749 64.589 25.2171Z" fill="white"/>
<path id="Vector_6" opacity="0.5" d="M70.6457 31.4961C70.8694 31.7272 71.0198 32.0187 71.0782 32.3343C71.1366 32.6499 71.1004 32.9755 70.9741 33.2708C70.8478 33.566 70.637 33.8178 70.368 33.9948C70.099 34.1718 69.7835 34.2661 69.461 34.2661C69.1385 34.2661 68.823 34.1718 68.554 33.9948C68.285 33.8178 68.0742 33.566 67.9479 33.2708C67.8216 32.9755 67.7854 32.6499 67.8438 32.3343C67.9022 32.0187 68.0526 31.7272 68.2762 31.4961C68.5917 31.1858 69.0174 31.0118 69.461 31.0118C69.9046 31.0118 70.3303 31.1858 70.6457 31.4961V31.4961Z" fill="white"/>
<path id="Vector_7" d="M53.375 24.5465C53.3364 24.5722 53.293 24.5899 53.2474 24.5987C53.2018 24.6074 53.1549 24.6069 53.1095 24.5973C52.1903 24.4017 51.3598 23.9146 50.7428 23.2093C50.1258 22.5039 49.7557 21.6183 49.688 20.6857C49.688 20.5887 49.7267 20.4957 49.7957 20.4271C49.8646 20.3585 49.9582 20.3199 50.0557 20.3199C50.1532 20.3199 50.2467 20.3585 50.3157 20.4271C50.3846 20.4957 50.4233 20.5887 50.4233 20.6857C50.4761 21.4575 50.7811 22.191 51.2918 22.7743C51.8026 23.3576 52.4911 23.7588 53.2524 23.9166C53.3476 23.9385 53.4306 23.9962 53.4839 24.0777C53.5372 24.1592 53.5568 24.258 53.5384 24.3535C53.5095 24.4355 53.4514 24.5042 53.375 24.5465V24.5465Z" fill="#C43906"/>
<path id="Vector_8" d="M35.4096 24.6482C34.9239 24.9494 34.3819 25.1498 33.8164 25.2375C33.7681 25.2455 33.7187 25.244 33.671 25.233C33.6233 25.222 33.5783 25.2018 33.5384 25.1735C33.4986 25.1452 33.4647 25.1093 33.4388 25.068C33.4129 25.0267 33.3954 24.9807 33.3874 24.9327C33.3793 24.8846 33.3809 24.8355 33.3919 24.7881C33.403 24.7406 33.4233 24.6958 33.4518 24.6562C33.4802 24.6166 33.5162 24.5829 33.5578 24.5571C33.5993 24.5314 33.6455 24.514 33.6938 24.506C34.4599 24.3653 35.1589 23.9795 35.6844 23.4073C36.2098 22.8351 36.5329 22.1078 36.6046 21.336C36.6085 21.2879 36.6218 21.2411 36.644 21.1982C36.6661 21.1552 36.6966 21.1171 36.7336 21.0859C36.7706 21.0548 36.8135 21.0312 36.8597 21.0166C36.9059 21.002 36.9546 20.9966 37.0029 21.0008C37.0518 21.0032 37.0996 21.0156 37.1434 21.0372C37.1873 21.0588 37.2262 21.0891 37.2578 21.1262C37.2894 21.1634 37.313 21.2065 37.3271 21.2531C37.3412 21.2997 37.3456 21.3487 37.34 21.397C37.2689 22.0442 37.0599 22.669 36.7271 23.2296C36.3942 23.7902 35.9451 24.2738 35.4096 24.6482V24.6482Z" fill="#C43906"/>
<path id="Vector_9" d="M50.4131 20.6858C50.4948 22.4232 47.4717 23.9675 43.6519 24.1402C39.8321 24.3129 36.6966 23.0429 36.6149 21.3361C36.5332 19.6292 39.5563 18.0544 43.3761 17.8817C47.1959 17.7089 50.3314 18.9485 50.4131 20.6858Z" fill="#AC3600"/>
<path id="Vector_10" d="M43.7549 23.7348C47.2098 23.5956 49.9604 22.251 49.8985 20.7316C49.8366 19.2122 46.9857 18.0934 43.5308 18.2326C40.0759 18.3719 37.3253 19.7165 37.3872 21.2358C37.4491 22.7552 40.3 23.8741 43.7549 23.7348Z" fill="#C43906"/>
<path id="Vector_11" d="M43.5598 19.1109C46.6749 18.989 49.2997 19.8831 49.8308 21.1429C49.8794 20.9989 49.9035 20.8478 49.9023 20.6959C49.841 19.1719 46.9813 18.0543 43.5292 18.1965C40.0771 18.3388 37.3195 19.6799 37.4012 21.2445C37.4107 21.3948 37.4452 21.5424 37.5033 21.6814C37.9016 20.32 40.4448 19.243 43.5598 19.1109Z" fill="#7B2700"/>
<path id="Vector_12" d="M43.9174 75.6411C43.9756 75.5874 44.0525 75.5583 44.1318 75.5599C44.9099 75.5927 45.6562 75.8759 46.2585 76.3669C46.8607 76.858 47.2865 77.5303 47.4716 78.2828C47.4821 78.3222 47.4843 78.3634 47.478 78.4037C47.4717 78.444 47.457 78.4826 47.4349 78.517C47.4128 78.5514 47.3838 78.5808 47.3497 78.6034C47.3156 78.6261 47.2771 78.6414 47.2367 78.6485C47.1582 78.6669 47.0755 78.6538 47.0067 78.6119C46.9379 78.5701 46.8884 78.5029 46.869 78.425C46.7173 77.8107 46.3696 77.2619 45.878 76.8608C45.3863 76.4597 44.7773 76.2278 44.1421 76.2C44.1014 76.2 44.0611 76.1918 44.0238 76.1757C43.9865 76.1597 43.9528 76.1362 43.9251 76.1066C43.8973 76.0771 43.8759 76.0421 43.8623 76.004C43.8487 75.9659 43.8431 75.9254 43.8459 75.885C43.838 75.8416 43.8403 75.797 43.8527 75.7547C43.8652 75.7124 43.8873 75.6735 43.9174 75.6411Z" fill="#C43906"/>
<path id="Vector_13" d="M58.6244 73.0708C58.9778 72.7578 59.3913 72.5194 59.8398 72.3697C59.9171 72.3431 60.0017 72.3473 60.076 72.3814C60.1502 72.4155 60.2083 72.4768 60.2381 72.5526C60.2643 72.6308 60.2587 72.716 60.2224 72.7901C60.1861 72.8642 60.1221 72.9212 60.0441 72.9488C59.4414 73.1708 58.9269 73.5805 58.5772 74.1169C58.2275 74.6533 58.0614 75.2878 58.1035 75.9257C58.1078 75.9658 58.104 76.0063 58.0924 76.0449C58.0808 76.0835 58.0616 76.1194 58.036 76.1506C58.0103 76.1817 57.9787 76.2076 57.943 76.2265C57.9073 76.2455 57.8681 76.2572 57.8278 76.261C57.746 76.2642 57.666 76.2367 57.6036 76.184C57.5412 76.1313 57.5009 76.0573 57.4908 75.9765C57.4657 75.4403 57.5536 74.9048 57.7488 74.4044C57.9441 73.904 58.2423 73.4497 58.6244 73.0708V73.0708Z" fill="#C43906"/>
<path id="Vector_14" d="M46.9099 78.3844C46.6035 76.9721 48.8607 75.3364 51.9553 74.6252C55.05 73.914 57.7973 74.5642 58.0833 75.9663C58.3693 77.3684 56.1734 79.0651 53.1094 79.7357C50.0454 80.4062 47.2163 79.7966 46.9099 78.3844Z" fill="#AC3600"/>
<path id="Vector_15" d="M51.9245 74.9605C54.7332 74.3712 57.2253 74.8894 57.4908 76.1289C57.7564 77.3685 55.6933 78.8518 52.8846 79.4411C50.0759 80.0304 47.5839 79.5122 47.3183 78.2727C47.0528 77.0332 49.1261 75.56 51.9245 74.9605Z" fill="#C43906"/>
<path id="Vector_16" d="M52.7314 78.7197C50.1985 79.2582 47.9311 78.8823 47.3081 77.9069C47.2928 78.0283 47.2928 78.1512 47.3081 78.2727C47.5736 79.5122 50.0657 80.0303 52.8744 79.4411C55.683 78.8518 57.7461 77.4091 57.4806 76.1289C57.4525 76.0066 57.4042 75.8899 57.3376 75.7834C57.1946 76.9315 55.2643 78.232 52.7314 78.7197Z" fill="#7B2700"/>
<path id="Vector_17" d="M21.6726 38.8925C21.6874 38.9457 21.6874 39.0019 21.6726 39.0551C21.4095 39.5238 20.9999 39.8944 20.506 40.1107C20.0121 40.3271 19.4607 40.3774 18.9355 40.254C18.88 40.2418 18.8316 40.2082 18.8009 40.1606C18.7703 40.113 18.7599 40.0552 18.7721 40C18.7887 39.9458 18.8254 39.9 18.8746 39.8717C18.9239 39.8434 18.9822 39.8348 19.0376 39.8476C19.4738 39.9476 19.9309 39.9024 20.3387 39.7188C20.7465 39.5353 21.0824 39.2235 21.2947 38.8316C21.3075 38.807 21.3253 38.7852 21.3468 38.7676C21.3684 38.7501 21.3933 38.7371 21.4201 38.7295C21.4469 38.7219 21.4749 38.7198 21.5026 38.7234C21.5302 38.727 21.5568 38.7361 21.5807 38.7503C21.6059 38.7655 21.6272 38.7862 21.6432 38.8109C21.6591 38.8355 21.6692 38.8634 21.6726 38.8925Z" fill="#C43906"/>
<path id="Vector_18" d="M18.67 48.768C18.7333 49.0867 18.7333 49.4146 18.67 49.7332C18.6675 49.761 18.6593 49.7879 18.646 49.8123C18.6327 49.8368 18.6144 49.8582 18.5924 49.8754C18.5704 49.8925 18.545 49.905 18.518 49.912C18.4909 49.919 18.4627 49.9204 18.4351 49.9161C18.3799 49.9085 18.3299 49.8799 18.2956 49.8363C18.2613 49.7927 18.2454 49.7375 18.2512 49.6824C18.3053 49.2417 18.2127 48.7954 17.9877 48.412C17.7627 48.0285 17.4176 47.7289 17.0052 47.559C16.9792 47.549 16.9554 47.5339 16.9355 47.5144C16.9156 47.495 16.8999 47.4717 16.8894 47.446C16.8788 47.4203 16.8737 47.3927 16.8743 47.365C16.8749 47.3372 16.8812 47.3099 16.8928 47.2847C16.9134 47.2323 16.9539 47.1901 17.0055 47.1673C17.0572 47.1445 17.1158 47.1428 17.1686 47.1628C17.5184 47.31 17.833 47.5292 18.0917 47.8058C18.3504 48.0825 18.5475 48.4104 18.67 48.768Z" fill="#C43906"/>
<path id="Vector_19" d="M19.0375 39.8577C20.0078 40.1117 20.3449 42.0218 19.7933 44.135C19.2418 46.2483 18.006 47.7418 17.0357 47.498C16.0655 47.2542 15.7182 45.3238 16.2697 43.2206C16.8213 41.1175 18.0673 39.624 19.0375 39.8577Z" fill="#AC3600"/>
<path id="Vector_20" d="M19.5891 44.0131C19.0784 45.9232 17.9754 47.2846 17.1277 47.0611C16.28 46.8376 16.0042 45.1104 16.5149 43.2003C17.0255 41.2902 18.1286 39.9288 18.9763 40.1523C19.824 40.3758 20.0998 42.103 19.5891 44.0131Z" fill="#C43906"/>
<path id="Vector_21" d="M17.0051 43.3324C17.4647 41.6052 18.4043 40.2844 19.2112 40.2844C19.1378 40.2403 19.0588 40.2061 18.9763 40.1828C18.1286 39.9593 17.0255 41.3208 16.5149 43.2308C16.0042 45.1409 16.28 46.8681 17.1277 47.0916C17.2121 47.1067 17.2986 47.1067 17.383 47.0916C16.7191 46.6243 16.5455 45.0495 17.0051 43.3324Z" fill="#7B2700"/>
<path id="Vector_22" d="M38.0141 54.864C38.0694 54.864 38.1231 54.8818 38.1673 54.9148C38.5909 55.2745 38.8835 55.7631 38.9998 56.3049C39.1161 56.8467 39.0497 57.4116 38.8108 57.912C38.7844 57.964 38.7387 58.0037 38.6834 58.0226C38.6281 58.0416 38.5676 58.0384 38.5146 58.0136C38.4642 57.9857 38.4265 57.9395 38.4094 57.8846C38.3922 57.8297 38.397 57.7704 38.4227 57.719C38.6265 57.3148 38.689 56.8545 38.6002 56.411C38.5114 55.9675 38.2764 55.5661 37.9324 55.2704C37.8998 55.2431 37.8762 55.2067 37.8645 55.1659C37.8527 55.1251 37.8535 55.0818 37.8667 55.0415C37.8798 55.0011 37.9048 54.9656 37.9383 54.9394C37.9719 54.9132 38.0125 54.8976 38.055 54.8945L38.0141 54.864Z" fill="#C43906"/>
<path id="Vector_23" d="M47.155 59.9439C47.5031 59.9277 47.8508 59.983 48.1764 60.1065C48.229 60.1269 48.2714 60.1672 48.2943 60.2186C48.3173 60.27 48.3189 60.3283 48.2989 60.3808C48.2898 60.4077 48.2753 60.4324 48.2564 60.4536C48.2375 60.4748 48.2146 60.4921 48.1889 60.5044C48.1632 60.5167 48.1353 60.5238 48.1069 60.5252C48.0784 60.5267 48.05 60.5225 48.0232 60.5129C47.5964 60.3573 47.1296 60.3477 46.6967 60.4857C46.2638 60.6237 45.8896 60.9015 45.6332 61.2749C45.6007 61.3221 45.5507 61.3544 45.4942 61.3649C45.4377 61.3754 45.3794 61.3631 45.332 61.3308C45.2845 61.2984 45.252 61.2487 45.2415 61.1925C45.2309 61.1363 45.2433 61.0782 45.2758 61.0311C45.4969 60.7309 45.778 60.4794 46.1013 60.2924C46.4247 60.1053 46.7834 59.9867 47.155 59.9439V59.9439Z" fill="#C43906"/>
<path id="Vector_24" d="M38.4022 57.6884C38.8618 56.7842 40.8432 56.8655 42.8246 57.8713C44.806 58.8772 46.0418 60.4316 45.572 61.3359C45.1022 62.2401 43.131 62.1588 41.1496 61.1428C39.1682 60.1268 37.9324 58.5927 38.4022 57.6884Z" fill="#AC3600"/>
<path id="Vector_25" d="M42.6611 58.0543C44.4586 58.9687 45.5821 60.3606 45.1634 61.1023C44.7446 61.844 42.9675 61.783 41.1802 60.8584C39.3928 59.9339 38.2694 58.5521 38.6779 57.7596C39.0864 56.9672 40.8533 57.1297 42.6611 58.0543Z" fill="#C43906"/>
<path id="Vector_26" d="M41.4151 60.452C39.8014 59.6189 38.729 58.42 38.8413 57.597C38.7728 57.6563 38.7171 57.7289 38.6779 57.8104C38.2694 58.6029 39.3826 59.9846 41.1802 60.9092C42.9777 61.8338 44.7548 61.9252 45.1634 61.153C45.2058 61.074 45.2335 60.9879 45.2451 60.899C44.6425 61.4477 43.0288 61.2851 41.4151 60.452Z" fill="#7B2700"/>
<path id="Vector_27" d="M73.9343 53.2994C73.9244 53.2788 73.9192 53.2562 73.9192 53.2333C73.9192 53.2105 73.9244 53.1879 73.9343 53.1673C74.2141 52.7531 74.6145 52.4338 75.0818 52.2522C75.5491 52.0706 76.061 52.0354 76.5489 52.1513C76.5743 52.1548 76.5986 52.1636 76.6204 52.1771C76.6421 52.1905 76.6608 52.2083 76.6752 52.2294C76.6896 52.2504 76.6995 52.2742 76.7041 52.2992C76.7088 52.3243 76.7081 52.35 76.7021 52.3748C76.6818 52.4231 76.6452 52.4627 76.5985 52.4868C76.5519 52.511 76.4982 52.5181 76.4468 52.5069C76.045 52.4129 75.6241 52.4422 75.2394 52.591C74.8547 52.7397 74.5243 53.0008 74.2918 53.34C74.2625 53.3834 74.2183 53.4146 74.1675 53.4277C74.1167 53.4408 74.0628 53.4349 74.016 53.4111C73.9751 53.3859 73.9458 53.3458 73.9343 53.2994V53.2994Z" fill="#C43906"/>
<path id="Vector_28" d="M76.8247 44.7955C76.7616 44.5179 76.7616 44.2298 76.8247 43.9522C76.8346 43.9026 76.8637 43.8588 76.9057 43.8303C76.9478 43.8018 76.9993 43.7908 77.0494 43.7998C77.0755 43.8009 77.101 43.8075 77.1244 43.8191C77.1477 43.8308 77.1682 43.8473 77.1847 43.8675C77.2011 43.8876 77.213 43.9111 77.2196 43.9362C77.2262 43.9613 77.2274 43.9876 77.223 44.0132C77.1908 44.409 77.2889 44.8046 77.5027 45.14C77.7164 45.4754 78.0341 45.7325 78.4078 45.8724C78.4318 45.8803 78.454 45.893 78.4728 45.9098C78.4917 45.9266 78.5069 45.9471 78.5175 45.97C78.528 45.9929 78.5337 46.0177 78.5341 46.0428C78.5346 46.068 78.5298 46.093 78.5201 46.1163C78.496 46.1624 78.4551 46.1976 78.4057 46.2146C78.3563 46.2317 78.3022 46.2292 78.2546 46.2077C77.9293 46.0866 77.6335 45.898 77.387 45.6545C77.1405 45.411 76.9488 45.1182 76.8247 44.7955V44.7955Z" fill="#C43906"/>
<path id="Vector_29" d="M76.4468 52.4967C75.5174 52.2732 75.2008 50.5968 75.7319 48.768C76.263 46.9392 77.4579 45.6489 78.3771 45.8826C79.2963 46.1162 79.664 47.752 79.0819 49.6113C78.4997 51.4706 77.366 52.7304 76.4468 52.4967Z" fill="#AC3600"/>
<path id="Vector_30" d="M75.9259 48.8797C76.4263 47.2236 77.4783 46.0552 78.2851 46.2584C79.092 46.4616 79.3065 47.9755 78.8571 49.6315C78.4077 51.2876 77.3149 52.456 76.4978 52.2528C75.6807 52.0496 75.4356 50.5358 75.9259 48.8797Z" fill="#C43906"/>
<path id="Vector_31" d="M78.3874 49.5096C77.9482 51.0031 77.0494 52.1004 76.2834 52.1512C76.3497 52.1952 76.4219 52.2294 76.4979 52.2528C77.315 52.456 78.367 51.2368 78.8572 49.6315C79.3474 48.0263 79.1023 46.4616 78.2853 46.2584C78.2043 46.2433 78.1211 46.2433 78.0401 46.2584C78.6427 46.6445 78.8368 48.0161 78.3874 49.5096Z" fill="#7B2700"/>
<path id="Vector_32" d="M69.1647 43.942C69.0217 44.2874 68.9809 44.6024 68.4702 44.6328C67.9595 44.6633 67.6123 44.4296 67.5817 43.9724C67.551 43.5152 67.8268 43.3019 68.3477 43.3019C68.8685 43.3019 69.2056 43.5254 69.1647 43.942Z" fill="#C43906"/>
<path id="Vector_33" d="M28.771 6.97992C28.5565 7.53872 28.5055 7.99592 27.7497 8.08736C27.601 8.11443 27.4482 8.10836 27.3022 8.06958C27.1562 8.0308 27.0207 7.96027 26.9054 7.86308C26.7901 7.76589 26.6979 7.64446 26.6355 7.50755C26.5731 7.37064 26.542 7.22166 26.5445 7.07136C26.5198 6.92977 26.5285 6.78439 26.5701 6.64676C26.6117 6.50913 26.685 6.38305 26.7841 6.27851C26.8833 6.17397 27.0055 6.09387 27.1412 6.04455C27.2769 5.99523 27.4223 5.97806 27.5658 5.9944C27.7119 5.96779 27.8621 5.9732 28.0059 6.01025C28.1497 6.0473 28.2836 6.1151 28.3983 6.20893C28.5131 6.30275 28.6059 6.42034 28.6702 6.5535C28.7346 6.68666 28.769 6.83218 28.771 6.97992V6.97992Z" fill="#FFB300"/>
<path id="Vector_34" d="M8.86511 24.2722C8.68127 24.7599 8.64042 25.1866 8.02762 25.2374C7.89827 25.2588 7.76576 25.2511 7.63979 25.2149C7.51382 25.1787 7.3976 25.1149 7.29965 25.0282C7.20171 24.9414 7.12452 24.834 7.07376 24.7137C7.02299 24.5935 6.99994 24.4634 7.00629 24.3332C6.97962 24.2088 6.98302 24.08 7.01622 23.9572C7.04941 23.8344 7.11145 23.7213 7.19722 23.627C7.28299 23.5328 7.39003 23.4601 7.50955 23.4151C7.62906 23.37 7.75762 23.3539 7.88463 23.368C8.01088 23.3531 8.13886 23.3658 8.25973 23.405C8.38059 23.4441 8.49147 23.509 8.58469 23.5949C8.67792 23.6809 8.75127 23.786 8.79968 23.9029C8.8481 24.0199 8.87042 24.1458 8.86511 24.2722Z" fill="#FFB300"/>
<path id="Vector_35" d="M4.41206 53.0962C4.27929 53.4314 4.24865 53.7261 3.84011 53.7566C3.75039 53.7736 3.65794 53.7702 3.56975 53.7465C3.48156 53.7228 3.39995 53.6794 3.33108 53.6197C3.2622 53.56 3.20788 53.4855 3.17221 53.4018C3.13654 53.3182 3.12046 53.2275 3.12518 53.1368C3.11007 53.0521 3.1152 52.965 3.14016 52.8826C3.16511 52.8003 3.2092 52.7249 3.26884 52.6626C3.32849 52.6003 3.40203 52.5528 3.48353 52.524C3.56502 52.4952 3.65219 52.4858 3.73798 52.4967C3.8226 52.4883 3.90806 52.4974 3.98893 52.5236C4.0698 52.5498 4.14431 52.5924 4.20771 52.6488C4.27112 52.7052 4.32203 52.7741 4.35721 52.8511C4.39239 52.9281 4.41107 53.0116 4.41206 53.0962V53.0962Z" fill="#FFB300"/>
<path id="Vector_36" d="M58.4712 6.25856C58.3487 6.59384 58.318 6.88848 57.8993 6.91896C57.8103 6.9343 57.719 6.92954 57.6321 6.90504C57.5452 6.88054 57.465 6.83692 57.3973 6.77742C57.3297 6.71792 57.2763 6.64405 57.2412 6.56127C57.2061 6.4785 57.1902 6.38893 57.1946 6.2992C57.1813 6.2139 57.1881 6.12671 57.2144 6.04446C57.2407 5.9622 57.2858 5.88713 57.3462 5.82512C57.4065 5.76311 57.4805 5.71586 57.5623 5.68706C57.6441 5.65825 57.7315 5.64869 57.8176 5.65912C57.9012 5.65045 57.9858 5.65959 58.0656 5.68594C58.1454 5.7123 58.2187 5.75525 58.2805 5.81196C58.3424 5.86867 58.3914 5.93783 58.4242 6.01483C58.4571 6.09183 58.4732 6.17492 58.4712 6.25856Z" fill="#FFB300"/>
<path id="Vector_37" d="M43.6211 34.3713C43.3658 35.052 43.3045 35.6514 42.4568 35.7124C42.2733 35.7464 42.0844 35.7386 41.9043 35.6895C41.7243 35.6405 41.5578 35.5516 41.4172 35.4294C41.2767 35.3072 41.1658 35.1549 41.0929 34.9839C41.02 34.813 40.9869 34.6278 40.9963 34.4424C40.9676 34.2701 40.9799 34.0935 41.0323 33.9268C41.0846 33.7601 41.1755 33.6079 41.2976 33.4824C41.4198 33.357 41.5698 33.2617 41.7356 33.2044C41.9014 33.147 42.0785 33.1291 42.2525 33.1521C42.425 33.1319 42.5999 33.1484 42.7655 33.2006C42.9312 33.2528 43.0837 33.3394 43.2132 33.4547C43.3426 33.57 43.4459 33.7113 43.5162 33.8693C43.5865 34.0274 43.6223 34.1984 43.6211 34.3713V34.3713Z" fill="#A93500"/>
<path id="Vector_38" d="M28.771 66.2331C28.5565 66.7919 28.5055 67.2491 27.7497 67.3405C27.601 67.3676 27.4482 67.3615 27.3022 67.3228C27.1562 67.284 27.0207 67.2134 26.9054 67.1162C26.7901 67.0191 26.6979 66.8976 26.6355 66.7607C26.5731 66.6238 26.542 66.4748 26.5445 66.3245C26.5198 66.1829 26.5285 66.0376 26.5701 65.8999C26.6117 65.7623 26.685 65.6362 26.7841 65.5317C26.8833 65.4271 27.0055 65.347 27.1412 65.2977C27.2769 65.2484 27.4223 65.2312 27.5658 65.2476C27.7119 65.221 27.8621 65.2264 28.0059 65.2634C28.1497 65.3005 28.2836 65.3683 28.3983 65.4621C28.5131 65.5559 28.6059 65.6735 28.6702 65.8067C28.7346 65.9398 28.769 66.0854 28.771 66.2331V66.2331Z" fill="#C43906"/>
<path id="Vector_39" d="M31.4365 46.6039C31.314 46.929 31.2833 47.2237 30.8646 47.2542C30.7749 47.2712 30.6824 47.2678 30.5942 47.2441C30.506 47.2204 30.4244 47.177 30.3556 47.1173C30.2867 47.0576 30.2324 46.9831 30.1967 46.8995C30.161 46.8158 30.1449 46.7252 30.1497 46.6344C30.1364 46.5491 30.1432 46.4619 30.1695 46.3797C30.1958 46.2974 30.2409 46.2223 30.3012 46.1603C30.3616 46.0983 30.4356 46.0511 30.5174 46.0223C30.5992 45.9935 30.6865 45.9839 30.7727 45.9943C30.8577 45.9857 30.9435 45.9951 31.0246 46.0219C31.1057 46.0488 31.18 46.0925 31.2428 46.1502C31.3056 46.2078 31.3553 46.2781 31.3887 46.3563C31.4221 46.4346 31.4384 46.519 31.4365 46.6039Z" fill="#C43906"/>
<path id="Vector_40" d="M43.1717 34.1681C42.9675 34.7269 42.9164 35.1841 42.2117 35.2756C42.0623 35.3044 41.9083 35.2996 41.7611 35.2616C41.6138 35.2236 41.4769 35.1533 41.3604 35.0559C41.2439 34.9586 41.1508 34.8365 41.0878 34.6987C41.0248 34.5609 40.9935 34.4109 40.9963 34.2596C40.9737 34.1183 40.984 33.9738 41.0264 33.8371C41.0688 33.7005 41.1421 33.5753 41.2408 33.4713C41.3394 33.3672 41.4608 33.2871 41.5955 33.2371C41.7301 33.187 41.8746 33.1684 42.0176 33.1826C42.6202 33.1521 43.2228 33.528 43.1717 34.1681Z" fill="#C43906"/>
<path id="Vector_41" d="M17.7711 31.0794C17.6281 31.496 17.5873 31.8516 17.0766 31.8922C16.9657 31.9139 16.8513 31.9102 16.7421 31.8814C16.6328 31.8527 16.5316 31.7996 16.446 31.7262C16.3604 31.6528 16.2927 31.561 16.248 31.4577C16.2033 31.3545 16.1828 31.2425 16.188 31.1302C16.1712 31.0254 16.1792 30.9182 16.2114 30.8171C16.2436 30.7159 16.2991 30.6237 16.3735 30.5477C16.448 30.4717 16.5392 30.414 16.64 30.3793C16.7408 30.3446 16.8483 30.3339 16.954 30.3479C17.3626 30.3479 17.812 30.6019 17.7711 31.0794Z" fill="#C43906"/>
<path id="Vector_42" d="M54.2023 49.784C54.0286 50.2412 53.9878 50.6476 53.4158 50.6882C53.2896 50.7188 53.158 50.7194 53.0315 50.6899C52.9051 50.6605 52.7874 50.6019 52.6879 50.5188C52.5885 50.4357 52.5101 50.3304 52.4591 50.2116C52.4081 50.0928 52.386 49.9637 52.3945 49.8348C52.3741 49.7182 52.3816 49.5984 52.4165 49.4853C52.4514 49.3722 52.5127 49.2688 52.5953 49.1837C52.6779 49.0985 52.7795 49.034 52.8919 48.9953C53.0044 48.9566 53.1244 48.9449 53.2422 48.961C53.3614 48.9417 53.4834 48.9486 53.5997 48.9812C53.7159 49.0139 53.8236 49.0714 53.9151 49.1498C54.0066 49.2283 54.0797 49.3257 54.1293 49.4352C54.1789 49.5448 54.2038 49.6638 54.2023 49.784V49.784Z" fill="#C43906"/>
<path id="Vector_43" d="M65.6002 6.68534C65.3959 7.24414 65.3449 7.70134 64.6401 7.79278C64.4908 7.82156 64.3368 7.81678 64.1895 7.77878C64.0422 7.74078 63.9053 7.67052 63.7889 7.57315C63.6724 7.47577 63.5792 7.35373 63.5162 7.21594C63.4532 7.07816 63.422 6.92812 63.4248 6.77678C63.4022 6.63553 63.4125 6.49102 63.4548 6.35435C63.4972 6.21769 63.5706 6.09252 63.6692 5.98849C63.7679 5.88445 63.8892 5.80433 64.0239 5.75428C64.1586 5.70424 64.303 5.6856 64.4461 5.69982C65.0487 5.66934 65.6513 6.01478 65.6002 6.68534Z" fill="#FFB300"/>
<path id="Vector_44" d="M65.8963 10.8306C65.7534 11.2472 65.7125 11.6028 65.2018 11.6434C65.091 11.6651 64.9766 11.6614 64.8673 11.6327C64.7581 11.6039 64.6568 11.5508 64.5712 11.4774C64.4857 11.404 64.418 11.3122 64.3733 11.209C64.3286 11.1057 64.3081 10.9937 64.3133 10.8814C64.2964 10.7767 64.3044 10.6694 64.3366 10.5683C64.3688 10.4671 64.4244 10.3749 64.4988 10.2989C64.5732 10.2229 64.6644 10.1652 64.7652 10.1306C64.866 10.0959 64.9736 10.0851 65.0793 10.0991C65.498 10.0991 65.9372 10.3531 65.8963 10.8306Z" fill="#FFB300"/>
<path id="Vector_45" d="M2.17539 45.1003C1.97113 45.6591 1.92006 46.1163 1.21534 46.2077C1.06596 46.2365 0.911998 46.2317 0.764712 46.1937C0.617427 46.1557 0.480537 46.0854 0.364048 45.9881C0.247559 45.8907 0.154414 45.7686 0.0914202 45.6309C0.0284265 45.4931 -0.00282404 45.343 -4.74354e-05 45.1917C-0.0226374 45.0505 -0.0123439 44.9059 0.0300407 44.7693C0.0724253 44.6326 0.14577 44.5074 0.24443 44.4034C0.343089 44.2994 0.46443 44.2192 0.599113 44.1692C0.733795 44.1192 0.878226 44.1005 1.02129 44.1147C1.62387 44.0843 2.22646 44.4297 2.17539 45.1003Z" fill="#FFB300"/>
<path id="Vector_46" d="M76.6 36.4846C76.4263 36.9418 76.3855 37.3482 75.8135 37.3889C75.6874 37.4194 75.5557 37.42 75.4292 37.3906C75.3028 37.3612 75.1851 37.3025 75.0856 37.2194C74.9862 37.1363 74.9078 37.0311 74.8568 36.9123C74.8058 36.7934 74.7837 36.6643 74.7922 36.5354C74.7722 36.4198 74.7797 36.3011 74.814 36.1889C74.8484 36.0766 74.9086 35.9739 74.99 35.889C75.0714 35.8041 75.1717 35.7393 75.2828 35.6998C75.3938 35.6603 75.5126 35.6473 75.6297 35.6617C75.7494 35.6425 75.8719 35.6495 75.9886 35.6821C76.1054 35.7146 76.2136 35.772 76.3058 35.8503C76.3981 35.9285 76.4722 36.0258 76.523 36.1353C76.5738 36.2448 76.6 36.364 76.6 36.4846V36.4846Z" fill="#C43906"/>
<path id="Vector_47" d="M86.7011 61.4579C86.5887 61.7525 86.5581 62.0167 86.1904 62.0471C86.1112 62.0608 86.0299 62.0567 85.9524 62.0351C85.875 62.0136 85.8033 61.9751 85.7427 61.9226C85.682 61.8701 85.6339 61.8047 85.6018 61.7314C85.5697 61.658 85.5545 61.5785 85.5572 61.4985C85.5491 61.4258 85.5575 61.3523 85.5819 61.2833C85.6062 61.2143 85.6458 61.1516 85.6978 61.0999C85.7498 61.0482 85.8128 61.0088 85.8821 60.9846C85.9515 60.9603 86.0254 60.952 86.0985 60.96C86.1712 60.9516 86.2449 60.958 86.3151 60.9787C86.3853 60.9994 86.4506 61.0341 86.5069 61.0807C86.5632 61.1272 86.6095 61.1846 86.6429 61.2495C86.6762 61.3143 86.696 61.3852 86.7011 61.4579V61.4579Z" fill="#FFB300"/>
<path id="Vector_48" d="M59.0638 88.331C58.9004 88.7781 58.8595 89.1743 58.2978 89.2149C58.1772 89.2383 58.0528 89.234 57.9341 89.2023C57.8154 89.1706 57.7055 89.1124 57.6129 89.032C57.5203 88.9516 57.4474 88.8513 57.3997 88.7386C57.352 88.6259 57.3308 88.5039 57.3378 88.3818C57.3195 88.2683 57.328 88.1521 57.3626 88.0424C57.3972 87.9327 57.457 87.8325 57.5372 87.7497C57.6175 87.6669 57.716 87.6038 57.8249 87.5654C57.9339 87.527 58.0503 87.5143 58.165 87.5284C58.6349 87.5284 59.1047 87.8027 59.0638 88.331Z" fill="#FFB300"/>
<path id="Vector_49" d="M83.1263 27.7571C82.9629 28.2041 82.922 28.6004 82.3603 28.641C82.2391 28.6626 82.1145 28.6567 81.9959 28.6236C81.8773 28.5906 81.7677 28.5313 81.6754 28.4502C81.583 28.3691 81.5103 28.2683 81.4627 28.1553C81.415 28.0423 81.3937 27.9201 81.4003 27.7977C81.382 27.6842 81.3905 27.568 81.4251 27.4583C81.4597 27.3485 81.5195 27.2483 81.5997 27.1656C81.68 27.0828 81.7785 27.0197 81.8874 26.9813C81.9964 26.9429 82.1128 26.9302 82.2275 26.9443C82.728 26.9443 83.1672 27.2186 83.1263 27.7571Z" fill="#FFB300"/>
<path id="Vector_50" d="M84.7706 69.3318C84.5663 69.9008 84.5153 70.3478 83.8105 70.4393C83.6612 70.468 83.5072 70.4633 83.3599 70.4253C83.2126 70.3873 83.0758 70.317 82.9593 70.2196C82.8428 70.1222 82.7496 70.0002 82.6866 69.8624C82.6236 69.7246 82.5924 69.5746 82.5952 69.4233C82.5726 69.282 82.5829 69.1375 82.6253 69.0008C82.6676 68.8642 82.741 68.739 82.8396 68.635C82.9383 68.5309 83.0596 68.4508 83.1943 68.4008C83.329 68.3507 83.4734 68.3321 83.6165 68.3463C83.7588 68.3277 83.9034 68.3392 84.0409 68.3799C84.1785 68.4206 84.3059 68.4897 84.4147 68.5827C84.5236 68.6757 84.6116 68.7905 84.6729 68.9195C84.7342 69.0486 84.7675 69.1891 84.7706 69.3318V69.3318Z" fill="#FFB300"/>
<path id="Vector_51" d="M47.3285 92.2325C47.1242 92.8014 47.0731 93.2485 46.3684 93.3501C46.219 93.3789 46.0651 93.3741 45.9178 93.3361C45.7705 93.2981 45.6336 93.2278 45.5171 93.1305C45.4006 93.0331 45.3075 92.911 45.2445 92.7733C45.1815 92.6355 45.1502 92.4854 45.153 92.3341C45.1386 92.1971 45.1551 92.0587 45.2013 91.9289C45.2475 91.7991 45.3223 91.6812 45.4202 91.5838C45.5181 91.4865 45.6366 91.4121 45.767 91.3661C45.8975 91.3201 46.0367 91.3037 46.1744 91.3181C46.7872 91.2266 47.3795 91.5721 47.3285 92.2325Z" fill="#FFB300"/>
<path id="Vector_52" d="M37.9731 89.7737C37.8505 90.1192 37.8199 90.424 37.3807 90.4545C37.2883 90.4714 37.1932 90.4674 37.1025 90.4426C37.0119 90.4178 36.9281 90.373 36.8573 90.3114C36.7866 90.2498 36.7308 90.1732 36.6941 90.0871C36.6574 90.001 36.6407 89.9078 36.6453 89.8144C36.6304 89.727 36.6361 89.6373 36.6622 89.5525C36.6882 89.4677 36.7338 89.3902 36.7953 89.326C36.8568 89.2619 36.9325 89.2129 37.0164 89.183C37.1003 89.1532 37.1901 89.1432 37.2786 89.154C37.636 89.154 38.0037 89.408 37.9731 89.7737Z" fill="#FFB300"/>
<path id="Vector_53" d="M66.1925 63.7743C65.9474 64.455 65.8759 65.0545 65.0282 65.1154C64.846 65.1495 64.6585 65.142 64.4796 65.0935C64.3008 65.045 64.1354 64.9568 63.9958 64.8355C63.8562 64.7143 63.746 64.5631 63.6736 64.3933C63.6013 64.2236 63.5685 64.0397 63.5779 63.8556C63.5474 63.6825 63.5584 63.5048 63.6099 63.3367C63.6614 63.1687 63.7521 63.0151 63.8744 62.8884C63.9968 62.7617 64.1475 62.6655 64.3142 62.6076C64.481 62.5497 64.6591 62.5317 64.8341 62.5551C65.5388 62.5551 66.2538 62.992 66.1925 63.7743Z" fill="#C43906"/>
</g>
<defs>
<linearGradient id="paint0_linear_115_981" x1="14.3239" y1="75.237" x2="71.9551" y2="22.8954" gradientUnits="userSpaceOnUse">
<stop stop-color="#DB0909"/>
<stop offset="0.21" stop-color="#E53807"/>
<stop offset="0.47" stop-color="#F06D04"/>
<stop offset="0.7" stop-color="#F89302"/>
<stop offset="0.89" stop-color="#FDAA00"/>
<stop offset="1" stop-color="#FFB300"/>
</linearGradient>
<radialGradient id="paint1_radial_115_981" cx="0" cy="0" r="1" gradientUnits="userSpaceOnUse" gradientTransform="translate(70.1248 56.3372) scale(65.9781 65.6336)">
<stop stop-color="white"/>
<stop offset="0.58" stop-color="#E6E6E6"/>
<stop offset="1" stop-color="#D9D9D9"/>
</radialGradient>
<clipPath id="clip0_115_981">
<rect width="92.8086" height="93.3501" fill="white"/>
</clipPath>
</defs>
</svg>
